<?xml version="1.0" encoding="utf-8" standalone="no"?>
<!DOCTYPE svg PUBLIC "-//W3C//DTD SVG 1.1//EN"
  "http://www.w3.org/Graphics/SVG/1.1/DTD/svg11.dtd">
<svg xmlns:xlink="http://www.w3.org/1999/xlink" width="122.4pt" height="122.4pt" viewBox="0 0 122.4 122.4" xmlns="http://www.w3.org/2000/svg" version="1.1">
 <metadata>
  <rdf:RDF xmlns:dc="http://purl.org/dc/elements/1.1/" xmlns:cc="http://creativecommons.org/ns#" xmlns:rdf="http://www.w3.org/1999/02/22-rdf-syntax-ns#">
   <cc:Work>
    <dc:type rdf:resource="http://purl.org/dc/dcmitype/StillImage"/>
    <dc:date>2024-08-16T19:54:20.051241</dc:date>
    <dc:format>image/svg+xml</dc:format>
    <dc:creator>
     <cc:Agent>
      <dc:title>Matplotlib v3.8.4, https://matplotlib.org/</dc:title>
     </cc:Agent>
    </dc:creator>
   </cc:Work>
  </rdf:RDF>
 </metadata>
 <defs>
  <style type="text/css">*{stroke-linejoin: round; stroke-linecap: butt}</style>
 </defs>
 <g id="figure_1">
  <g id="patch_1">
   <path d="M 0 122.4 
L 122.4 122.4 
L 122.4 0 
L 0 0 
L 0 122.4 
z
" style="fill: none; opacity: 0"/>
  </g>
  <g id="axes_1">
   <g id="patch_2">
    <path d="M 0 122.4 
L 122.4 122.4 
L 122.4 -0 
L 0 -0 
L 0 122.4 
z
" style="fill: none"/>
   </g>
   <g id="matplotlib.axis_1"/>
   <g id="matplotlib.axis_2"/>
   <g id="line2d_1">
    <path d="M 0 116.836364 
L 0.367568 113.539694 
L 1.47027 100.390116 
L 4.165766 68.043717 
L 5.758559 51.752016 
L 7.106306 40.025149 
L 8.454054 30.203712 
L 9.679279 22.874565 
L 10.781982 17.513309 
L 11.884685 13.249824 
L 12.864865 10.320301 
L 13.722523 8.375727 
L 14.58018 6.969334 
L 15.315315 6.163818 
L 16.05045 5.70289 
L 16.663063 5.565465 
L 17.275676 5.638415 
L 18.010811 5.985751 
L 18.745946 6.596294 
L 19.603604 7.613624 
L 20.583784 9.139822 
L 21.686486 11.266583 
L 23.034234 14.37047 
L 24.627027 18.623296 
L 26.587387 24.513978 
L 29.282883 33.372115 
L 38.83964 65.414847 
L 41.657658 73.754173 
L 44.108108 80.341338 
L 46.436036 85.985835 
L 48.641441 90.772225 
L 50.846847 95.020079 
L 52.92973 98.554782 
L 55.012613 101.649995 
L 57.095495 104.334502 
L 59.178378 106.640484 
L 61.261261 108.602066 
L 63.344144 110.254115 
L 65.427027 111.631242 
L 67.632432 112.827001 
L 69.96036 113.837366 
L 72.533333 114.701838 
L 75.351351 115.402066 
L 78.536937 115.952958 
L 82.212613 116.357415 
L 86.868468 116.636209 
L 93.484685 116.790926 
L 107.32973 116.835991 
L 122.4 116.836364 
L 122.4 116.836364 
" clip-path="url(#pf52ed626dc)" style="fill: none; stroke: #1f77b4; stroke-opacity: 0.75; stroke-width: 5; stroke-linecap: square"/>
   </g>
   <g id="line2d_2">
    <path d="M 0 116.836364 
L 23.279279 116.726447 
L 28.18018 116.472557 
L 31.855856 116.065094 
L 34.796396 115.524547 
L 37.369369 114.835956 
L 39.697297 113.992873 
L 41.902703 112.960993 
L 43.985586 111.743056 
L 46.068468 110.255527 
L 48.028829 108.580762 
L 49.989189 106.61413 
L 51.94955 104.333276 
L 53.90991 101.719475 
L 55.992793 98.562005 
L 58.075676 95.003702 
L 60.281081 90.799284 
L 62.609009 85.888628 
L 65.181982 79.938046 
L 68.122523 72.563904 
L 72.043243 62.079473 
L 78.659459 44.342322 
L 81.232432 38.141053 
L 83.192793 33.947767 
L 84.908108 30.772395 
L 86.378378 28.490027 
L 87.726126 26.805599 
L 88.828829 25.748382 
L 89.809009 25.070738 
L 90.789189 24.655417 
L 91.646847 24.518273 
L 92.504505 24.601462 
L 93.362162 24.912927 
L 94.21982 25.459727 
L 95.2 26.380525 
L 96.18018 27.623794 
L 97.282883 29.414124 
L 98.385586 31.622398 
L 99.610811 34.564986 
L 100.958559 38.386262 
L 102.428829 43.226723 
L 104.144144 49.69627 
L 106.104505 58.033241 
L 108.554955 69.511097 
L 114.803604 99.308343 
L 116.396396 105.609346 
L 117.744144 110.057334 
L 118.846847 112.950184 
L 119.704505 114.670799 
L 120.43964 115.749042 
L 121.174775 116.450936 
L 121.787387 116.755091 
L 122.4 116.836364 
L 122.4 116.836364 
" clip-path="url(#pf52ed626dc)" style="fill: none; stroke: #ff7f0e; stroke-opacity: 0.75; stroke-width: 5; stroke-linecap: square"/>
   </g>
   <g id="line2d_3">
    <path d="M 0 116.836364 
L 7.963964 116.726454 
L 10.781982 116.452758 
L 12.987387 116.025016 
L 14.947748 115.424875 
L 16.785586 114.628754 
L 18.500901 113.647975 
L 20.216216 112.410245 
L 21.931532 110.893605 
L 23.646847 109.081774 
L 25.484685 106.801866 
L 27.322523 104.1685 
L 29.282883 100.977129 
L 31.488288 96.939548 
L 33.938739 91.953491 
L 36.756757 85.68441 
L 40.554955 76.637536 
L 47.538739 59.92554 
L 50.234234 54.092913 
L 52.43964 49.810501 
L 54.4 46.46745 
L 56.115315 43.955858 
L 57.708108 42.00593 
L 59.178378 40.557009 
L 60.526126 39.540537 
L 61.751351 38.884703 
L 62.976577 38.490689 
L 64.079279 38.363365 
L 65.181982 38.453028 
L 66.284685 38.759871 
L 67.387387 39.282704 
L 68.612613 40.113775 
L 69.96036 41.325582 
L 71.308108 42.839212 
L 72.778378 44.819147 
L 74.371171 47.327405 
L 76.209009 50.650635 
L 78.291892 54.904405 
L 80.742342 60.450062 
L 83.927928 68.269495 
L 93.23964 91.531206 
L 95.812613 97.174179 
L 98.018018 101.505537 
L 99.978378 104.906054 
L 101.816216 107.681089 
L 103.531532 109.899657 
L 105.246847 111.760343 
L 106.83964 113.177125 
L 108.432432 114.311014 
L 110.025225 115.185018 
L 111.740541 115.86888 
L 113.578378 116.352465 
L 115.661261 116.65986 
L 118.356757 116.811595 
L 122.4 116.836364 
L 122.4 116.836364 
" clip-path="url(#pf52ed626dc)" style="fill: none; stroke: #2ca02c; stroke-opacity: 0.75; stroke-width: 5; stroke-linecap: square"/>
   </g>
   <g id="line2d_4">
    <path d="M 0 116.836364 
L 9.189189 116.732227 
L 11.63964 116.479756 
L 13.6 116.053719 
L 15.192793 115.486885 
L 16.663063 114.733286 
L 18.010811 113.806687 
L 19.358559 112.618215 
L 20.706306 111.135434 
L 22.054054 109.330251 
L 23.524324 106.967187 
L 24.994595 104.174522 
L 26.587387 100.655321 
L 28.302703 96.298994 
L 30.140541 91.015589 
L 32.223423 84.345669 
L 34.796396 75.324941 
L 39.81982 56.640978 
L 42.882883 45.750776 
L 45.088288 38.710507 
L 46.926126 33.587788 
L 48.518919 29.813712 
L 49.866667 27.164442 
L 51.091892 25.223526 
L 52.194595 23.876767 
L 53.174775 23.00801 
L 54.032432 22.506013 
L 54.89009 22.247099 
L 55.747748 22.231649 
L 56.605405 22.458456 
L 57.463063 22.924753 
L 58.443243 23.745358 
L 59.423423 24.864391 
L 60.526126 26.466103 
L 61.751351 28.648794 
L 63.099099 31.50373 
L 64.691892 35.42772 
L 66.52973 40.586622 
L 68.735135 47.471901 
L 71.920721 58.241048 
L 78.046847 79.06184 
L 80.61982 86.943285 
L 82.825225 93.00646 
L 84.785586 97.77834 
L 86.623423 101.691601 
L 88.338739 104.848718 
L 90.054054 107.537786 
L 91.646847 109.635289 
L 93.23964 111.374663 
L 94.832432 112.787776 
L 96.425225 113.910514 
L 98.140541 114.838608 
L 99.978378 115.563078 
L 101.938739 116.091075 
L 104.266667 116.475386 
L 107.207207 116.715342 
L 111.618018 116.822927 
L 122.4 116.836364 
L 122.4 116.836364 
" clip-path="url(#pf52ed626dc)" style="fill: none; stroke: #d62728; stroke-opacity: 0.75; stroke-width: 5; stroke-linecap: square"/>
   </g>
   <g id="line2d_5">
    <path d="M 0 116.836364 
L 0.49009 116.084162 
L 1.837838 114.545456 
L 4.043243 112.398041 
L 7.106306 109.737295 
L 11.027027 106.637405 
L 15.682883 103.251932 
L 20.828829 99.788501 
L 26.464865 96.267927 
L 32.345946 92.858487 
L 38.34955 89.632761 
L 44.475676 86.594377 
L 50.479279 83.86176 
L 56.36036 81.423839 
L 62.118919 79.275288 
L 67.632432 77.453518 
L 72.900901 75.946086 
L 77.801802 74.769764 
L 82.457658 73.878446 
L 86.745946 73.279286 
L 90.789189 72.939301 
L 94.464865 72.85193 
L 97.772973 72.987212 
L 100.836036 73.32913 
L 103.654054 73.867264 
L 106.227027 74.589594 
L 108.554955 75.481515 
L 110.637838 76.52439 
L 112.475676 77.693444 
L 114.068468 78.954752 
L 115.538739 80.393347 
L 116.886486 82.031644 
L 117.989189 83.695905 
L 118.969369 85.536109 
L 119.827027 87.574105 
L 120.562162 89.842166 
L 121.174775 92.390569 
L 121.664865 95.304318 
L 122.032432 98.748345 
L 122.277477 103.146463 
L 122.4 116.836364 
L 122.4 116.836364 
" clip-path="url(#pf52ed626dc)" style="fill: none; stroke: #9467bd; stroke-opacity: 0.75; stroke-width: 5; stroke-linecap: square"/>
   </g>
  </g>
 </g>
 <defs>
  <clipPath id="pf52ed626dc">
   <rect x="0" y="-0" width="122.4" height="122.4"/>
  </clipPath>
 </defs>
</svg>
