<?xml version="1.0" encoding="utf-8" standalone="no"?>
<!DOCTYPE svg PUBLIC "-//W3C//DTD SVG 1.1//EN"
  "http://www.w3.org/Graphics/SVG/1.1/DTD/svg11.dtd">
<svg xmlns:xlink="http://www.w3.org/1999/xlink" width="558pt" height="277.2pt" viewBox="0 0 558 277.2" xmlns="http://www.w3.org/2000/svg" version="1.1">
 <metadata>
  <rdf:RDF xmlns:dc="http://purl.org/dc/elements/1.1/" xmlns:cc="http://creativecommons.org/ns#" xmlns:rdf="http://www.w3.org/1999/02/22-rdf-syntax-ns#">
   <cc:Work>
    <dc:type rdf:resource="http://purl.org/dc/dcmitype/StillImage"/>
    <dc:date>2025-03-22T07:25:14.217875</dc:date>
    <dc:format>image/svg+xml</dc:format>
    <dc:creator>
     <cc:Agent>
      <dc:title>Matplotlib v3.8.4, https://matplotlib.org/</dc:title>
     </cc:Agent>
    </dc:creator>
   </cc:Work>
  </rdf:RDF>
 </metadata>
 <defs>
  <style type="text/css">*{stroke-linejoin: round; stroke-linecap: butt}</style>
 </defs>
 <g id="figure_1">
  <g id="patch_1">
   <path d="M 0 277.2 
L 558 277.2 
L 558 0 
L 0 0 
L 0 277.2 
z
" style="fill: none"/>
  </g>
  <g id="axes_1">
   <g id="line2d_1">
    <path d="M 170.415023 90.125336 
L 161.272087 88.097972 
L 194.556041 -1 
M 559 42.303834 
L 169.957876 90.023968 
L 168.265403 69.377531 
L 198.912952 -1 
M 559 42.10931 
L 169.873253 88.991646 
L 175.810554 52.051217 
L 202.407699 -1 
M 559 41.848783 
L 170.170118 87.144625 
L 183.836332 36.042834 
L 205.008059 -1 
M 559 41.603874 
L 170.853428 84.589535 
L 192.274052 21.279888 
L 206.678125 -1 
M 559 41.446521 
L 171.92446 81.424053 
L 201.057794 7.693399 
L 207.375795 -1 
M 559 41.440377 
L 173.381126 77.73752 
L 208.440466 -1 
M 559 24.286214 
L 540.3566 43.195224 
L 175.2183 73.61153 
L 211.930738 -1 
M 559 12.47994 
L 522.099685 44.71604 
L 177.428114 69.120474 
L 215.094018 -1 
M 559 4.317263 
L 504.866107 45.936261 
L 180.000265 64.332047 
L 217.995899 -1 
M 558.265808 -1 
L 488.622815 46.856051 
L 182.922293 59.30773 
L 220.669747 -1 
M 551.373443 -1 
L 473.337789 47.478635 
L 186.179861 54.103233 
L 223.131593 -1 
M 545.148921 -1 
L 458.979892 47.809865 
L 189.757008 48.768912 
L 225.387571 -1 
M 539.516455 -1 
L 445.518748 47.857817 
L 193.636404 43.350157 
L 227.437884 -1 
M 534.413449 -1 
L 432.924631 47.632434 
L 197.799574 37.887755 
L 229.278999 -1 
M 529.78948 -1 
L 421.168378 47.1452 
L 202.227124 32.418232 
L 230.904901 -1 
M 525.605526 -1 
L 410.221315 46.408852 
L 206.898937 26.974164 
L 232.307792 -1 
M 521.833489 -1 
L 400.055196 45.437117 
L 211.794372 21.58448 
L 233.478457 -1 
M 518.456126 -1 
L 390.642155 44.244485 
L 216.892432 16.274732 
L 234.406414 -1 
M 515.467475 -1 
L 381.954669 42.845998 
L 222.17193 11.067355 
L 235.079915 -1 
M 512.873992 -1 
L 373.965532 41.257066 
L 227.611635 5.98191 
L 235.485826 -1 
M 510.696674 -1 
L 366.647837 39.493308 
L 233.190412 1.035305 
L 235.609411 -1 
M 508.974699 -1 
L 359.974966 37.570408 
L 246.967951 -1 
M 507.771417 -1 
L 353.920585 35.503988 
L 263.064503 -1 
M 507.184293 -1 
L 348.458647 33.3095 
L 275.668526 -1 
M 505.508511 -1 
L 505.51631 -0.639456 
L 343.563399 31.002134 
L 285.63656 -1 
M 497.530064 -1 
L 497.418665 0.942624 
L 339.209395 28.59673 
L 293.573249 -1 
M 489.9614 -1 
L 489.508201 2.325329 
L 335.371504 26.107716 
L 299.916442 -1 
M 482.773541 -1 
L 481.801366 3.514449 
L 332.024937 23.549046 
L 304.99002 -1 
M 475.938138 -1 
L 474.312545 4.516178 
L 329.145254 20.934151 
L 309.037872 -1 
M 469.427543 -1 
L 467.05418 5.337077 
L 326.708396 18.275903 
L 312.246421 -1 
M 463.214834 -1 
L 460.036891 5.984018 
L 324.690699 15.58658 
L 314.759954 -1 
M 457.273802 -1 
L 453.269582 6.464146 
L 323.068919 12.877842 
L 316.691301 -1 
M 451.578903 -1 
L 446.759549 6.784831 
L 321.820253 10.160717 
L 318.129422 -1 
M 446.105173 -1 
L 440.512584 6.953626 
L 320.922363 7.445584 
L 319.144884 -1 
M 440.828108 -1 
L 434.533073 6.978223 
L 320.353396 4.742172 
L 319.793887 -1 
M 435.723504 -1 
L 428.824089 6.866421 
L 320.092006 2.059554 
L 320.121253 -1 
M 430.767268 -1 
L 423.387485 6.626078 
L 320.117371 -0.593852 
L 320.162674 -1 
M 425.935166 -1 
L 418.223979 6.265081 
L 343.226018 -1 
M 421.202523 -1 
L 413.333241 5.791313 
L 359.123417 -1 
M 416.543851 -1 
L 408.71397 5.212619 
L 368.727086 -1 
M 411.932382 -1 
L 404.363976 4.536776 
L 374.819428 -1 
M 407.339473 -1 
L 400.280248 3.771468 
L 378.759215 -1 
M 402.73386 -1 
L 396.45903 2.924259 
L 381.288289 -1 
M 398.080665 -1 
L 392.89589 2.002571 
L 382.845558 -1 
M 393.340099 -1 
L 389.58578 1.013664 
L 383.706924 -1 
M 388.465704 -1 
L 386.523103 -0.035384 
L 384.054195 -1 
L 384.054195 -1 
" clip-path="url(#pdc1a7070f0)" style="fill: none; stroke: #0000ff; stroke-opacity: 0.7; stroke-width: 0.5; stroke-linecap: square"/>
   </g>
   <g id="line2d_2">
    <path d="M 53.989871 204.441444 
L 0.834973 278.2 
M -1 72.636221 
L 42.141581 103.059338 
L 40.762151 222.796432 
L -1 277.489092 
M -1 77.615599 
L 42.07261 109.046192 
L 27.744749 239.844317 
L -1 275.31851 
M -1 83.395074 
L 41.356217 115.586099 
L 14.971445 255.607984 
L -1 274.146296 
M -1 89.906882 
L 40.036978 122.587193 
L 2.472651 270.115534 
L -1 273.897622 
M -1 97.102827 
L 38.158762 129.96361 
L -1 255.443051 
M -1 104.953913 
L 35.764601 137.635403 
L -1 238.814727 
M -1 113.450665 
L 32.896583 145.528434 
L -1 228.151474 
M -1 122.60424 
L 29.595749 153.574229 
L -1 220.9624 
M -1 132.448574 
L 25.902005 161.709826 
L -1 215.991318 
M -1 143.043876 
L 21.854047 169.877588 
L -1 212.537923 
M -1 154.482027 
L 17.489298 178.025013 
L -1 210.182212 
M -1 166.894692 
L 12.843848 186.104533 
L -1 208.657897 
M -1 180.465513 
L 7.952412 194.073296 
L -1 207.788638 
M -1 195.448603 
L 2.848289 201.892953 
L -1 207.453532 
L -1 207.453532 
" clip-path="url(#pdc1a7070f0)" style="fill: none; stroke: #0000ff; stroke-opacity: 0.7; stroke-width: 0.5; stroke-linecap: square"/>
   </g>
   <g id="line2d_3">
    <path d="M 207.693789 252.089687 
L 53.989871 204.441444 
L 0.834973 278.2 
M 226.325239 278.2 
L 200.008593 249.707275 
L 40.762151 222.796432 
L 3.725247 278.2 
M 220.548113 278.2 
L 192.046271 248.361733 
L 28.722229 240.806972 
L 5.609187 278.2 
M 213.907466 278.2 
L 183.880069 247.983995 
L 17.835087 258.420543 
L 6.577756 278.2 
M 206.451959 278.2 
L 175.57782 248.505822 
L 8.06242 275.591402 
L 6.702657 278.2 
M 198.200862 278.2 
L 167.20205 249.860101 
L 55.072424 278.2 
M 189.143629 278.2 
L 158.81011 251.981099 
L 81.221054 278.2 
M 179.23753 278.2 
L 150.454331 254.804685 
L 94.582832 278.2 
M 168.402847 278.2 
L 142.18219 258.268514 
L 102.031631 278.2 
M 156.514754 278.2 
L 134.0365 262.312187 
L 106.261282 278.2 
M 143.390375 278.2 
L 126.055598 266.877374 
L 108.539984 278.2 
M 128.768424 278.2 
L 118.273552 271.907926 
L 109.540546 278.2 
M 112.276864 278.2 
L 110.720364 277.349949 
L 109.651093 278.2 
L 109.651093 278.2 
" clip-path="url(#pdc1a7070f0)" style="fill: none; stroke: #0000ff; stroke-opacity: 0.7; stroke-width: 0.5; stroke-linecap: square"/>
   </g>
   <g id="line2d_4">
    <path d="M 141.971698 109.835692 
L 42.141581 103.059338 
L 53.989871 204.441444 
L 207.693789 252.089687 
L 136.980192 109.496874 
L 42.733996 108.128443 
L 61.675067 206.823856 
L 204.158109 244.960047 
L 132.267883 109.428453 
L 43.681049 113.063214 
L 68.799219 208.730666 
L 200.563598 238.183467 
L 127.838541 109.610191 
L 44.936958 117.846586 
L 75.387438 210.203306 
L 196.927345 231.754803 
L 123.693462 110.022011 
L 46.459482 122.464422 
L 81.464433 211.280881 
L 193.265651 225.668163 
L 119.831763 110.644131 
L 48.209729 126.905245 
L 87.054494 212.000245 
L 189.593957 219.916962 
L 116.250661 111.457187 
L 50.151968 131.159995 
L 92.181467 212.396081 
L 185.926792 214.493973 
L 112.945726 112.442327 
L 52.253443 135.221799 
L 96.868733 212.500975 
L 182.277738 209.391391 
L 109.911112 113.581301 
L 54.484207 139.085758 
L 101.139184 212.345496 
L 178.659407 204.600886 
L 107.139767 114.856524 
L 56.816956 142.748745 
L 105.015195 211.958266 
L 175.083425 200.113668 
L 104.623626 116.251135 
L 59.226868 146.209221 
L 108.518606 211.366036 
L 171.560435 195.920542 
L 102.353788 117.749039 
L 61.691455 149.467062 
L 111.670698 210.593761 
L 168.100103 192.011966 
L 100.320672 119.33494 
L 64.190417 152.523397 
L 114.492168 209.664671 
L 164.711131 188.378115 
L 98.514159 120.994363 
L 66.705505 155.380461 
L 117.003116 208.600343 
L 161.401283 185.008927 
L 96.923726 122.713668 
L 69.220385 158.041455 
L 119.223025 207.420773 
L 158.177405 181.894165 
L 95.538559 124.480057 
L 71.720517 160.510421 
L 121.170744 206.144442 
L 155.045463 179.023459 
L 94.347657 126.281575 
L 74.193028 162.792122 
L 122.86448 204.788393 
L 152.010572 176.386365 
L 93.339926 128.107103 
L 76.626601 164.891935 
L 124.321784 203.368292 
L 149.07704 173.972402 
L 92.504259 129.946344 
L 79.01136 166.815753 
L 125.559547 201.898497 
L 146.248401 171.771099 
L 91.829615 131.789815 
L 81.338769 168.56989 
L 126.59399 200.392127 
L 143.527462 169.772035 
L 91.305072 133.628819 
L 83.60153 170.161002 
L 127.440663 198.861123 
L 140.916342 167.964874 
L 90.919895 135.455428 
L 85.793487 171.596008 
L 128.114447 197.31631 
L 138.41652 166.339402 
L 90.663575 137.262457 
L 87.909535 172.882023 
L 128.629551 195.767465 
L 136.028873 164.885554 
L 90.525873 139.043435 
L 89.945536 174.026295 
L 128.999517 194.223369 
L 133.753723 163.593448 
L 90.496856 140.792578 
L 91.898235 175.036149 
L 129.237227 192.691873 
L 131.590879 162.453405 
L 90.566925 142.504757 
L 93.765185 175.918935 
L 129.35491 191.17995 
L 129.539682 161.455973 
L 90.726838 144.175466 
L 95.544671 176.681986 
L 129.364148 189.693751 
L 127.599039 160.591947 
L 90.96773 145.800792 
L 97.235645 177.332574 
L 129.275893 188.238661 
L 125.767474 159.852389 
L 91.281125 147.377381 
L 98.837657 177.877879 
L 129.100472 186.819347 
L 124.043156 159.228639 
L 91.658952 148.902406 
L 100.350798 178.324952 
L 128.847606 185.439812 
L 122.423946 158.712327 
L 92.093544 150.373533 
L 101.775638 178.680695 
L 128.526423 184.103438 
L 120.907426 158.295388 
L 92.577649 151.788891 
L 103.113178 178.951832 
L 128.145473 182.813035 
L 119.490937 157.970063 
L 93.104425 153.147038 
L 104.364792 179.144892 
L 127.712747 181.570886 
L 118.171612 157.728912 
L 93.667444 154.446931 
L 105.53219 179.266192 
L 127.23569 180.378788 
L 116.946403 157.564812 
L 94.260681 155.687894 
L 106.617365 179.321822 
L 126.721225 179.238089 
L 115.812117 157.470967 
L 94.878515 156.86959 
L 107.622558 179.317635 
L 126.17577 178.149733 
L 114.765437 157.440898 
L 95.515717 157.991993 
L 108.550219 179.25924 
L 125.605253 177.114291 
L 113.802951 157.468452 
L 96.167442 159.055355 
L 109.40297 179.151993 
L 125.015138 176.131999 
L 112.921176 157.547798 
L 96.829219 160.060187 
L 110.183579 179.000993 
L 124.41044 175.202789 
L 112.116578 157.673417 
L 97.496937 161.007227 
L 110.894922 178.811083 
L 123.795747 174.32632 
L 111.385596 157.840108 
L 98.166836 161.89742 
L 111.539963 178.586845 
L 123.175239 173.50201 
L 110.724658 158.042973 
L 98.835492 162.731891 
L 112.121727 178.332603 
L 122.55271 172.729058 
L 110.130199 158.277419 
L 99.499804 163.511927 
L 112.643276 178.052426 
L 121.931585 172.006476 
L 109.59868 158.539144 
L 100.156978 164.238952 
L 113.107692 177.750128 
L 121.31494 171.333109 
L 109.126595 158.824135 
L 100.804513 164.91451 
L 113.518054 177.429277 
L 120.705522 170.707661 
L 108.710491 159.128654 
L 101.44019 165.540249 
L 113.877427 177.093196 
L 120.105771 170.12871 
L 108.346976 159.449233 
L 102.062052 166.117896 
L 114.188845 176.744972 
L 119.517831 169.594737 
L 108.032729 159.782666 
L 102.668392 166.64925 
L 114.455294 176.38746 
L 118.943576 169.104133 
L 107.764513 160.125996 
L 103.257737 167.13616 
L 114.679708 176.023294 
L 118.384623 168.655226 
L 107.539174 160.476504 
L 103.828836 167.580517 
L 114.864954 175.654891 
L 117.84235 168.24629 
L 107.353657 160.831705 
L 104.380641 167.984236 
L 115.013824 175.284461 
L 117.317916 167.875561 
L 107.205006 161.189331 
L 104.912301 168.349247 
L 115.129028 174.914016 
L 116.81227 167.541249 
L 107.090371 161.547327 
L 105.423137 168.677485 
L 115.21319 174.545377 
L 116.326175 167.241553 
L 107.007009 161.903835 
L 105.91264 168.97088 
L 115.268839 174.180186 
L 115.860217 166.974667 
L 106.952291 162.257187 
L 106.38045 169.231345 
L 115.298408 173.81991 
L 115.414821 166.738793 
L 106.923699 162.605895 
L 106.826348 169.460774 
L 115.304229 173.465854 
L 114.990264 166.532148 
L 106.918831 162.948639 
L 107.250242 169.661028 
L 115.288531 173.119169 
L 114.586693 166.352973 
L 106.935402 163.284258 
L 107.652156 169.833935 
L 115.253439 172.780859 
L 114.204128 166.199537 
L 106.971239 163.611742 
L 108.03222 169.981281 
L 115.200973 172.451793 
L 113.842484 166.070147 
L 107.024288 163.930219 
L 108.390658 170.104807 
L 115.133049 172.132711 
L 113.501574 165.963151 
L 107.092607 164.238949 
L 108.727777 170.206202 
L 115.051475 171.824233 
L 113.181126 165.876941 
L 107.174365 164.537311 
L 109.043962 170.287103 
L 114.957958 171.526868 
L 112.880788 165.809959 
L 107.267845 164.824801 
L 109.339662 170.349092 
L 114.854099 171.241023 
L 112.60014 165.760701 
L 107.371436 165.101015 
L 109.615384 170.393688 
L 114.741401 170.967007 
L 112.338705 165.727717 
L 107.483633 165.365649 
L 109.871685 170.422354 
L 114.621266 170.705042 
L 112.095952 165.709614 
L 107.603036 165.618484 
L 110.109164 170.436488 
L 114.495001 170.455271 
L 111.871306 165.705057 
L 107.728342 165.859384 
L 110.328456 170.437428 
L 114.363816 170.21776 
L 111.664158 165.712774 
L 107.858348 166.088287 
L 110.530224 170.426444 
L 114.228833 169.992511 
L 111.473867 165.731549 
L 107.991942 166.305194 
L 110.715154 170.404747 
L 114.091085 169.779463 
L 111.299771 165.760232 
L 108.128102 166.510172 
L 110.883951 170.373483 
L 113.951519 169.578501 
L 111.141188 165.797729 
L 108.265895 166.703338 
L 111.037329 170.333734 
L 113.811002 169.389462 
L 110.997423 165.843009 
L 108.404467 166.884857 
L 111.176013 170.286521 
L 113.670323 169.21214 
L 110.867775 165.895101 
L 108.543044 167.054941 
L 111.300728 170.232802 
L 113.530196 169.046288 
L 110.751539 165.953093 
L 108.680928 167.213834 
L 111.412202 170.173476 
L 113.391263 168.891628 
L 110.648008 166.01613 
L 108.817492 167.361816 
L 111.511155 170.109383 
L 113.2541 168.747853 
L 110.556482 166.083415 
L 108.952175 167.499194 
L 111.598302 170.041307 
L 113.11922 168.614631 
L 110.476267 166.154204 
L 109.084481 167.6263 
L 111.674348 169.969973 
L 112.987072 168.49161 
L 110.406678 166.227808 
L 109.213975 167.743483 
L 111.739984 169.896055 
L 112.858052 168.37842 
L 110.347042 166.303592 
L 109.340275 167.851112 
L 111.795888 169.820173 
L 112.732502 168.274679 
L 110.296704 166.380968 
L 109.463056 167.949565 
L 111.842718 169.742899 
L 112.610712 168.179993 
L 110.255022 166.459398 
L 109.582039 168.039232 
L 111.881118 169.664753 
L 112.492927 168.093963 
L 110.221372 166.53839 
L 109.696993 168.120508 
L 111.911708 169.586214 
L 112.37935 168.016185 
L 110.195153 166.617496 
L 109.807729 168.193793 
L 111.93509 169.507712 
L 112.27014 167.94625 
L 110.175782 166.696311 
L 109.914097 168.259489 
L 111.951843 169.429639 
L 112.165422 167.883753 
L 110.162698 166.774469 
L 110.015984 168.317997 
L 111.962522 169.352345 
L 112.065286 167.828289 
L 110.155362 166.851646 
L 110.113311 168.369714 
L 111.96766 169.276142 
L 111.969789 167.779457 
L 110.15326 166.927549 
L 110.206028 168.415035 
L 111.967767 169.201308 
L 111.878963 167.736861 
L 110.155898 167.001924 
L 110.294115 168.454349 
L 111.963326 169.128085 
L 111.79281 167.700115 
L 110.162809 167.074545 
L 110.377576 168.488036 
L 111.954801 169.056687 
L 111.71131 167.668836 
L 110.173547 167.145219 
L 110.456437 168.516468 
L 111.942626 168.987294 
L 111.634422 167.642655 
L 110.187692 167.213782 
L 110.530746 168.54001 
L 111.927216 168.920062 
L 111.562085 167.621212 
L 110.204845 167.280093 
L 110.60057 168.559012 
L 111.908959 168.85512 
L 111.494223 167.604156 
L 110.224631 167.344039 
L 110.665989 168.573818 
L 111.888222 168.792572 
L 111.430743 167.59115 
L 110.246699 167.405528 
L 110.727101 168.584755 
L 111.865348 168.732501 
L 111.371541 167.581869 
L 110.270719 167.464489 
L 110.784013 168.592143 
L 111.840658 168.674969 
L 111.3165 167.576 
L 110.296384 167.520872 
L 110.836846 168.596284 
L 111.81445 168.620021 
L 111.265494 167.573243 
L 110.323407 167.574643 
L 110.885726 168.597471 
L 111.787002 168.567682 
L 111.21839 167.573313 
L 110.351523 167.625784 
L 110.93079 168.595981 
L 111.758572 168.517963 
L 111.175047 167.575937 
L 110.380486 167.674294 
L 110.972179 168.59208 
L 111.729396 168.470862 
L 111.135319 167.580855 
L 110.410071 167.720183 
L 111.01004 168.58602 
L 111.699692 168.426362 
L 111.099056 167.587821 
L 110.440069 167.763475 
L 111.044522 168.578037 
L 111.66966 168.384435 
L 111.066107 167.596604 
L 110.470292 167.804203 
L 111.075779 168.568357 
L 111.639482 168.345043 
L 111.036316 167.606984 
L 110.500566 167.842411 
L 111.103964 168.557191 
L 111.609324 168.30814 
L 111.009529 167.618755 
L 110.530736 167.87815 
L 111.129232 168.544738 
L 111.579334 168.273671 
L 110.985589 167.631725 
L 110.560661 167.911479 
L 111.151737 168.531185 
L 111.549647 168.241574 
L 110.964343 167.645713 
L 110.590215 167.942465 
L 111.171633 168.516704 
L 111.520382 168.21178 
L 110.945636 167.66055 
L 110.619286 167.971177 
L 111.18907 168.501458 
L 111.491644 168.184219 
L 110.929319 167.676082 
L 110.647775 167.997691 
L 111.204199 168.485596 
L 111.463528 168.158812 
L 110.915241 167.692162 
L 110.675596 168.022086 
L 111.217165 168.469257 
L 111.436114 168.13548 
L 110.903259 167.708658 
L 110.702674 168.044444 
L 111.228113 168.452568 
L 111.409471 168.114139 
L 110.89323 167.725448 
L 110.728946 168.064851 
L 111.237181 168.435647 
L 111.383659 168.094704 
L 110.885016 167.742418 
L 110.754358 168.08339 
L 111.244505 168.4186 
L 111.358727 168.07709 
L 110.878483 167.759466 
L 110.778865 168.100151 
L 111.250216 168.401524 
L 111.334715 168.061208 
L 110.873502 167.776501 
L 110.802433 168.11522 
L 111.254441 168.384508 
L 111.311654 168.046973 
L 110.869949 167.793436 
L 110.825033 168.128684 
L 111.257301 168.367632 
L 111.289569 168.034296 
L 110.867703 167.810199 
L 110.846647 168.140631 
L 111.258915 168.350965 
L 111.268475 168.023091 
L 110.86665 167.82672 
L 110.86726 168.151148 
L 111.259393 168.334571 
L 111.248384 168.013273 
L 110.86668 167.842942 
L 110.886867 168.160319 
L 111.258842 168.318506 
L 111.229299 168.004756 
L 110.86769 167.858811 
L 110.905466 168.168229 
L 111.257365 168.302819 
L 111.211219 167.997459 
L 110.869579 167.874282 
L 110.923061 168.174958 
L 111.255058 168.287551 
L 111.194137 167.9913 
L 110.872253 167.889315 
L 110.93966 168.180588 
L 111.252012 168.272738 
L 111.178042 167.986201 
L 110.875623 167.903879 
L 110.955278 168.185195 
L 111.248313 168.258411 
L 111.162921 167.982085 
L 110.879606 167.917945 
L 110.96993 168.188856 
L 111.244044 168.244595 
L 111.148756 167.978878 
L 110.884122 167.93149 
L 110.983635 168.191643 
L 111.239279 168.231309 
L 111.135524 167.976508 
L 110.889098 167.944498 
L 110.996418 168.193626 
L 111.234092 168.218569 
L 111.123203 167.974908 
L 110.894464 167.956954 
L 111.008301 168.194873 
L 111.228547 168.206386 
L 111.111766 167.97401 
L 110.900156 167.96885 
L 111.019314 168.195449 
L 111.222708 168.194767 
L 111.101185 167.973752 
L 110.906113 167.98018 
L 111.029483 168.195415 
L 111.216632 168.183716 
L 111.091432 167.974074 
L 110.912282 167.990942 
L 111.038841 168.19483 
L 111.210372 168.173234 
L 111.082474 167.974917 
L 110.91861 168.001136 
L 111.047417 168.19375 
L 111.203977 168.163318 
L 111.074281 167.976228 
L 110.92505 168.010767 
L 111.055245 168.192229 
L 111.197492 168.153964 
L 111.066819 167.977955 
L 110.93156 168.01984 
L 111.062358 168.190315 
L 111.190959 168.145164 
L 111.060056 167.980049 
L 110.9381 168.028364 
L 111.068788 168.188058 
L 111.184413 168.136908 
L 111.053959 167.982465 
L 110.944634 168.036349 
L 111.074569 168.1855 
L 111.177891 168.129186 
L 111.048492 167.985159 
L 110.951131 168.043806 
L 111.171421 168.121984 
L 111.062875 168.084652 
" clip-path="url(#pdc1a7070f0)" style="fill: none; stroke: #0000ff; stroke-opacity: 0.7; stroke-width: 0.5; stroke-linecap: square"/>
   </g>
   <g id="line2d_5">
    <path d="M 170.415023 90.125336 
L 161.272087 88.097972 
L 141.971698 109.835692 
L 207.693789 252.089687 
L 231.159468 278.2 
M 559 208.419621 
L 169.957876 90.023968 
L 160.307068 89.184858 
L 145.257803 116.948392 
L 217.586314 263.097121 
L 232.765448 278.2 
M 559 208.442777 
L 169.475336 89.982012 
L 159.554604 90.573035 
L 148.874228 124.255828 
L 227.738328 273.198134 
L 233.341451 278.2 
M 559 208.47517 
L 168.979299 90.011563 
L 159.020586 92.257175 
L 152.817433 131.702944 
L 235.695675 278.2 
M 559 208.511069 
L 168.481364 90.123844 
L 158.710428 94.229463 
L 157.081447 139.24009 
L 240.954334 278.2 
M 559 208.543107 
L 167.992817 90.329125 
L 158.628979 96.479994 
L 161.658058 146.822582 
L 246.134775 278.2 
M 559 208.562307 
L 167.524625 90.636668 
L 158.780433 98.997124 
L 166.537012 154.410286 
L 251.213033 278.2 
M 559 209.838669 
L 556.03627 207.669531 
L 167.087415 91.054691 
L 159.168262 101.767782 
L 171.706205 161.967242 
L 256.168475 278.2 
M 559 216.931359 
L 536.588827 201.838789 
L 166.691458 91.590346 
L 159.795159 104.777755 
L 177.15189 169.461321 
L 260.98329 278.2 
M 559 222.042499 
L 518.093959 196.326367 
L 166.346643 92.249716 
L 160.662996 108.011933 
L 182.858865 176.863905 
L 265.642089 278.2 
M 559 225.818996 
L 500.506593 191.122535 
L 166.06246 93.037827 
L 161.772789 111.454532 
L 188.810674 184.149597 
L 270.131577 278.2 
M 559 228.65815 
L 483.784386 186.218299 
L 165.847977 93.958662 
L 163.124683 115.089285 
L 194.989788 191.295954 
L 274.440255 278.2 
M 559 230.81684 
L 467.887566 181.605317 
L 165.711812 95.015193 
L 164.717939 118.899618 
L 201.377791 198.283242 
L 278.558163 278.2 
M 559 232.467947 
L 452.778778 177.275811 
L 165.662118 96.209415 
L 166.550931 122.8688 
L 207.955548 205.094209 
L 282.476618 278.2 
M 559 233.731546 
L 438.422945 173.222491 
L 165.706559 97.542384 
L 168.621162 126.98007 
L 214.703373 211.713882 
L 286.187966 278.2 
M 559 234.693119 
L 424.787126 169.438486 
L 165.852289 99.014268 
L 170.925273 131.216761 
L 221.601182 218.12937 
L 289.685328 278.2 
M 559 235.414678 
L 411.840384 165.917275 
L 166.105938 100.624393 
L 173.459068 135.562391 
L 228.62864 224.329695 
L 292.96233 278.2 
M 559 235.941829 
L 399.553662 162.652631 
L 166.473595 102.371293 
L 176.217547 140.000756 
L 235.765294 230.305626 
L 296.012821 278.2 
M 559 236.308403 
L 387.899658 159.638564 
L 166.960792 104.252766 
L 179.194934 144.516 
L 242.990702 236.049537 
L 298.830562 278.2 
M 559 236.539579 
L 376.852715 156.869274 
L 167.5725 106.265928 
L 182.384722 149.092677 
L 250.284548 241.555263 
L 301.408879 278.2 
M 559 236.654049 
L 366.388704 154.339107 
L 168.313111 108.407265 
L 185.779714 153.715806 
L 257.626748 246.817982 
L 303.740255 278.2 
M 558.70852 278.2 
L 559 270.232009 
M 559 236.665542 
L 356.484925 152.042515 
L 169.186441 110.672692 
L 189.372065 158.370915 
L 264.997545 251.834093 
L 305.815866 278.2 
M 552.648384 278.2 
L 550.023194 232.91449 
L 347.12 149.974024 
L 170.195722 113.057603 
L 193.153339 163.044074 
L 272.377599 256.601115 
L 307.625008 278.2 
M 547.274714 278.2 
L 539.878035 228.767467 
L 338.273787 148.128203 
L 171.343603 115.556927 
L 197.114552 167.721926 
L 279.748064 261.117584 
L 309.154393 278.2 
M 542.547036 278.2 
L 529.797822 224.735504 
L 329.927277 146.499639 
L 172.63215 118.165177 
L 201.246228 172.391709 
L 287.090655 265.382965 
L 310.387262 278.2 
M 538.425052 278.2 
L 519.804295 220.82371 
L 322.062521 145.082916 
L 174.062854 120.876503 
L 205.538449 177.041271 
L 294.387713 269.397569 
L 311.302231 278.2 
M 534.869291 278.2 
L 509.917206 217.036671 
L 314.662538 143.872595 
L 175.636634 123.684742 
L 209.980912 181.659086 
L 301.622255 273.162474 
L 311.871767 278.2 
M 531.841608 278.2 
L 500.154473 213.378467 
L 307.711242 142.863202 
L 177.353848 126.583459 
L 214.56298 186.234256 
L 308.778019 276.679456 
L 312.060126 278.2 
M 529.305572 278.2 
L 490.532311 209.852704 
L 301.193373 142.049215 
L 179.214305 129.565999 
L 219.273732 190.756516 
L 313.94388 278.2 
M 527.226746 278.2 
L 481.065364 206.462529 
L 295.094419 141.425054 
L 181.217276 132.625525 
L 224.10202 195.216236 
L 317.417074 278.2 
M 525.572891 278.2 
L 471.766817 203.210655 
L 289.400562 140.985078 
L 183.361513 135.75506 
L 229.036519 199.604416 
L 320.785095 278.2 
M 524.314103 278.2 
L 462.648504 200.099377 
L 284.09861 140.723577 
L 185.645263 138.947528 
L 234.065774 203.912682 
L 324.051295 278.2 
M 523.422906 278.2 
L 453.72101 197.130587 
L 279.175942 140.634775 
L 188.066289 142.195786 
L 239.178249 208.133273 
L 327.218871 278.2 
M 522.8743 278.2 
L 444.993756 194.305796 
L 274.62046 140.712825 
L 190.621887 145.49266 
L 244.362377 212.259038 
L 330.290916 278.2 
M 522.645782 278.2 
L 436.475091 191.626147 
L 270.420531 140.951817 
L 193.308911 148.830979 
L 249.6066 216.283418 
L 333.270457 278.2 
M 520.586896 278.2 
L 521.561162 277.110306 
L 428.172363 189.092431 
L 266.56495 141.345775 
L 196.123796 152.203601 
L 254.899413 220.200436 
L 336.16049 278.2 
M 512.880715 278.2 
L 516.891723 272.709413 
L 420.091993 186.705098 
L 263.042892 141.888666 
L 199.062577 155.603443 
L 260.229406 224.004684 
L 338.963999 278.2 
M 506.339 278.2 
L 512.051736 268.409197 
L 412.239538 184.464277 
L 259.843877 142.574405 
L 202.120918 159.023505 
L 265.5853 227.691302 
L 341.683977 278.2 
M 500.765627 278.2 
L 507.061126 264.211951 
L 404.619755 182.369783 
L 256.957729 143.39686 
L 205.294137 162.456895 
L 270.955984 231.255967 
L 344.323441 278.2 
M 496.008173 278.2 
L 501.939058 260.119842 
L 397.236653 180.421137 
L 254.374549 144.349862 
L 208.57723 165.896848 
L 276.330548 234.694871 
L 346.885441 278.2 
M 491.946315 278.2 
L 496.703937 256.134907 
L 390.093548 178.617573 
L 252.084683 145.427211 
L 211.964896 169.336749 
L 281.698314 238.004711 
L 349.373071 278.2 
M 488.483737 278.2 
L 491.373418 252.25904 
L 383.193105 176.958055 
L 250.078694 146.622688 
L 215.451567 172.770147 
L 287.048866 241.182661 
L 351.789479 278.2 
M 485.542383 278.2 
L 485.964402 248.493991 
L 376.537384 175.441287 
L 248.347337 147.930061 
L 219.031431 176.190773 
L 292.372075 244.226361 
L 354.13788 278.2 
M 483.058296 278.2 
L 480.493051 244.841356 
L 370.127882 174.065725 
L 246.881542 149.343097 
L 222.698464 179.592552 
L 297.658121 247.133896 
L 356.421564 278.2 
M 480.978559 278.2 
L 474.974793 241.302574 
L 363.965565 172.829594 
L 245.672388 150.855569 
L 226.446447 182.96962 
L 302.89752 249.903776 
L 358.643914 278.2 
M 479.259013 278.2 
L 469.424331 237.878925 
L 358.050906 171.730893 
L 244.711091 152.461272 
L 230.269 186.316327 
L 308.081139 252.534921 
L 360.808428 278.2 
M 477.862534 278.2 
L 463.85566 234.571524 
L 352.383915 170.767412 
L 243.988987 154.154025 
L 234.159607 189.627257 
L 313.200213 255.026637 
L 362.918746 278.2 
M 476.757723 278.2 
L 458.282073 231.381318 
L 346.964169 169.936742 
L 243.497518 155.927686 
L 238.111637 192.897226 
L 318.246364 257.378603 
L 364.978693 278.2 
M 475.917884 278.2 
L 452.716178 228.309089 
L 341.790836 169.236289 
L 243.228224 157.776163 
L 242.118374 196.121295 
L 323.211608 259.590847 
L 366.992332 278.2 
M 475.32024 278.2 
L 447.169911 225.355449 
L 336.862706 168.663283 
L 243.172731 159.69342 
L 246.173035 199.294773 
L 328.08837 261.663732 
L 368.964042 278.2 
M 474.945313 278.2 
L 441.65455 222.520841 
L 332.178207 168.21479 
L 243.322746 161.673488 
L 250.268802 202.413221 
L 332.869493 263.597937 
L 370.898634 278.2 
M 474.776436 278.2 
L 436.180733 219.805539 
L 327.735434 167.887725 
L 243.670049 163.710474 
L 254.398837 205.472456 
L 337.548241 265.394438 
L 372.80151 278.2 
M 473.705787 278.2 
L 474.528607 277.82504 
L 430.758468 217.209648 
L 323.532165 167.678862 
L 244.206488 165.798573 
L 258.556307 208.468556 
L 342.118308 267.05449 
L 374.678908 278.2 
M 466.18903 278.2 
L 472.3401 274.79427 
L 425.397153 214.733109 
L 319.565881 167.584848 
L 244.923979 167.932072 
L 262.734407 211.397852 
L 346.573819 268.579614 
L 376.538258 278.2 
M 460.440293 278.2 
L 469.992953 271.791212 
L 420.10559 212.375696 
L 315.833786 167.602209 
L 245.814501 170.105361 
L 266.926378 214.25694 
L 350.909333 269.971574 
L 378.38875 278.2 
M 455.980356 278.2 
L 467.498584 268.820436 
L 414.891999 210.137021 
L 312.332822 167.727367 
L 246.870095 172.31294 
L 271.125525 217.042672 
L 355.119844 271.232368 
L 380.242235 278.2 
M 452.489867 278.2 
L 464.868255 265.886265 
L 409.76404 208.016538 
L 309.059685 167.956645 
L 248.082866 174.549427 
L 275.325241 219.752157 
L 359.200776 272.364205 
L 382.114731 278.2 
M 449.747967 278.2 
L 462.113044 262.992779 
L 404.728823 206.013544 
L 306.010844 168.286285 
L 249.444985 176.809563 
L 279.519018 222.382759 
L 363.147987 273.369492 
L 384.029065 278.2 
M 447.597172 278.2 
L 459.243833 260.143817 
L 399.792924 204.127181 
L 303.182551 168.712448 
L 250.948687 179.088223 
L 283.700466 224.932096 
L 366.957757 274.250822 
L 386.019766 278.2 
M 445.922266 278.2 
L 456.271288 257.342985 
L 394.962405 202.356444 
L 300.570858 169.231237 
L 252.586276 181.380417 
L 287.863331 227.398032 
L 370.62679 275.010955 
L 388.142874 278.2 
M 444.637113 278.2 
L 453.205844 254.593658 
L 390.242828 200.700184 
L 298.171629 169.838696 
L 254.350128 183.681298 
L 292.001504 229.778678 
L 374.152203 275.652805 
L 390.497489 278.2 
M 443.676106 278.2 
L 450.057693 251.898985 
L 385.639268 199.15711 
L 295.980554 170.530826 
L 256.232697 185.986167 
L 296.109039 232.072385 
L 377.531523 276.179427 
L 393.279637 278.2 
M 442.98848 278.2 
L 446.836772 249.261891 
L 381.156332 197.725795 
L 293.993161 171.303593 
L 258.226514 188.290478 
L 300.180163 234.277737 
L 380.762674 276.594002 
L 396.943756 278.2 
M 442.534408 278.2 
L 443.55275 246.685086 
L 376.798174 196.404685 
L 292.204829 172.152937 
L 260.324197 190.589841 
L 304.209289 236.39355 
L 383.843973 276.899826 
L 402.847887 278.2 
M 442.282281 278.2 
L 440.215021 244.171066 
L 372.568506 195.192098 
L 290.610797 173.074783 
L 262.518451 192.880026 
L 308.191023 238.418864 
L 386.774118 277.100295 
L 417.758239 278.2 
M 442.206762 278.2 
L 436.832695 241.722118 
L 368.470621 194.086232 
L 289.20618 174.065045 
L 264.80208 195.156968 
L 312.120178 240.352935 
L 389.552176 277.198896 
L 442.060144 277.204792 
L 433.414591 239.340323 
L 364.507399 193.085173 
L 287.985975 175.119641 
L 267.167985 197.416766 
L 315.991778 242.195233 
L 392.177574 277.19919 
L 441.627867 275.311568 
L 429.969232 237.027566 
L 360.681328 192.186896 
L 286.945075 176.234497 
L 269.609174 199.65569 
L 319.801067 243.945431 
L 394.650089 277.104809 
L 441.044935 273.397368 
L 426.504837 234.785532 
L 356.994515 191.389276 
L 286.07828 177.405557 
L 272.118769 201.870177 
L 323.543518 245.6034 
L 396.969831 276.919437 
L 440.31793 271.466777 
L 423.029321 232.61572 
L 353.448703 190.69009 
L 285.380305 178.628788 
L 274.690006 204.056838 
L 327.214834 247.169202 
L 399.137236 276.646804 
L 439.453499 269.524224 
L 419.55029 230.519438 
L 350.045283 190.087025 
L 284.84579 179.90019 
L 277.316248 206.212456 
L 330.810954 248.643082 
L 401.153049 276.290675 
L 438.458339 267.573984 
L 416.075039 228.497817 
L 346.785309 189.577683 
L 284.469313 181.215804 
L 279.990983 208.333987 
L 334.328059 250.025462 
L 403.018314 275.854841 
L 437.339174 265.620176 
L 412.610553 226.551811 
L 343.669509 189.159589 
L 284.245396 182.571713 
L 282.707837 210.418561 
L 337.762572 251.316931 
L 404.734357 275.343107 
L 436.102743 263.666758 
L 409.163501 224.6822 
L 340.698303 188.830196 
L 284.168518 183.964055 
L 285.460574 212.46348 
L 341.111161 252.51824 
L 406.302776 274.75929 
L 434.755781 261.71753 
L 405.740241 222.889599 
L 337.871814 188.586889 
L 284.233121 185.389026 
L 288.243103 214.466218 
L 344.370742 253.630292 
L 407.725426 274.107202 
L 433.305004 259.776133 
L 402.346819 221.174464 
L 335.189879 188.426995 
L 284.43362 186.842886 
L 291.049485 216.424421 
L 347.538476 254.654138 
L 409.004405 273.390648 
L 431.757095 257.84605 
L 398.988972 219.53709 
L 332.652066 188.34779 
L 284.764413 188.321963 
L 293.873935 218.335907 
L 350.611772 255.590963 
L 410.14204 272.613419 
L 430.118689 255.930602 
L 395.672127 217.977625 
L 330.257684 188.346499 
L 285.219889 189.82266 
L 296.710826 220.19866 
L 353.588286 256.442086 
L 411.140872 271.779278 
L 428.39636 254.032953 
L 392.401405 216.496069 
L 328.005794 188.420307 
L 285.794436 191.34146 
L 299.554699 222.010831 
L 356.465915 257.208945 
L 412.003646 270.891961 
L 426.596613 252.156109 
L 389.181624 215.092281 
L 325.895226 188.566364 
L 286.482449 192.874929 
L 302.40026 223.770737 
L 359.242802 257.893096 
L 412.733295 269.955169 
L 424.725863 250.302917 
L 386.017304 213.765985 
L 323.924587 188.781793 
L 287.27834 194.419719 
L 305.242387 225.476855 
L 361.917326 258.4962 
L 413.332923 268.972556 
L 422.790435 248.476071 
L 382.912669 212.516776 
L 322.092275 189.063689 
L 288.176542 195.972576 
L 308.076134 227.127822 
L 364.488106 259.020018 
L 413.805799 267.947732 
L 420.796547 246.678106 
L 379.871649 211.344121 
L 320.396488 189.409133 
L 289.171522 197.530338 
L 310.896733 228.722432 
L 366.953991 259.466403 
L 414.155336 266.884251 
L 418.750302 244.911407 
L 376.897891 210.247372 
L 318.83524 189.815193 
L 290.257782 199.089943 
L 313.699596 230.259631 
L 369.314058 259.837296 
L 414.385085 265.785609 
L 416.657682 243.178205 
L 373.994758 209.225763 
L 317.406367 190.278931 
L 291.429873 200.648427 
L 316.480319 231.738514 
L 371.567609 260.134711 
L 414.498714 264.655238 
L 414.524535 241.480583 
L 371.165339 208.278421 
L 316.107542 190.797406 
L 292.682395 202.202932 
L 319.234683 233.158324 
L 373.714165 260.360738 
L 414.500005 263.496506 
L 412.356576 239.820475 
L 368.412449 207.404371 
L 314.936285 191.367682 
L 294.01001 203.750701 
L 321.958657 234.518444 
L 375.753457 260.517526 
L 414.392834 262.312704 
L 410.159369 238.19967 
L 365.738641 206.602536 
L 313.889971 191.986833 
L 295.407442 205.289088 
L 324.648397 235.818398 
L 377.685425 260.607285 
L 414.181161 261.107052 
L 407.938333 236.619813 
L 363.146207 205.871751 
L 312.965845 192.651946 
L 296.86949 206.815554 
L 327.300249 237.057843 
L 379.510212 260.632273 
L 413.869019 259.88269 
L 405.698727 235.08241 
L 360.637189 205.210761 
L 312.161027 193.360126 
L 298.391028 208.327668 
L 329.910747 238.236564 
L 381.228153 260.594794 
L 413.460505 258.642676 
L 403.44565 233.588827 
L 358.213381 204.618229 
L 311.472527 194.108503 
L 299.967014 209.823113 
L 332.476617 239.354476 
L 382.83977 260.497188 
L 412.959762 257.389984 
L 401.184036 232.140298 
L 355.876338 204.092743 
L 310.897251 194.894234 
L 301.592494 211.299681 
L 334.994775 240.411611 
L 384.34577 260.341828 
L 412.370976 256.1275 
L 398.918651 230.73792 
L 353.627384 203.632817 
L 310.432014 195.714506 
L 303.262608 212.755278 
L 337.462325 241.408122 
L 385.74703 260.131112 
L 411.698359 254.858021 
L 396.654088 229.382665 
L 351.467616 203.236902 
L 310.073543 196.566545 
L 304.972594 214.18792 
L 339.87656 242.344272 
L 387.044597 259.867457 
L 410.946146 253.584253 
L 394.394764 228.075376 
L 349.397912 202.903384 
L 309.818496 197.447613 
L 306.717792 215.595738 
L 342.234962 243.220431 
L 388.239674 259.553297 
L 410.118577 252.308809 
L 392.144922 226.816777 
L 347.418941 202.630595 
L 309.663461 198.35502 
L 308.493651 216.976972 
L 344.535197 244.037074 
L 389.333619 259.191073 
L 409.219894 251.034207 
L 389.908623 225.607468 
L 345.531167 202.416817 
L 309.60497 199.286117 
L 310.295728 218.329977 
L 346.775118 244.794774 
L 390.327933 258.783229 
L 408.25433 249.76287 
L 387.68975 224.447935 
L 343.734857 202.260282 
L 309.639508 200.23831 
L 312.119698 219.653217 
L 348.952759 245.494197 
L 391.224253 258.332211 
L 407.226101 248.497124 
L 385.492005 223.338553 
L 342.03009 202.159183 
L 309.763518 201.209056 
L 313.961351 220.945266 
L 351.066334 246.136098 
L 392.024345 257.840457 
L 406.139397 247.239195 
L 383.318909 222.279584 
L 340.416761 202.111677 
L 309.973409 202.195866 
L 315.8166 222.204808 
L 353.114234 246.721316 
L 392.730098 257.310394 
L 404.998372 245.991215 
L 381.173802 221.271189 
L 338.894594 202.115886 
L 310.265569 203.196313 
L 317.681481 223.430633 
L 355.095028 247.25077 
L 393.343511 256.744435 
L 403.807144 244.755213 
L 379.059842 220.313424 
L 337.463142 202.169907 
L 310.636364 204.208029 
L 319.552159 224.62164 
L 357.007452 247.725453 
L 393.866693 256.144974 
L 402.569779 243.533124 
L 376.980007 219.406248 
L 336.121803 202.271814 
L 311.082154 205.22871 
L 321.424923 225.776831 
L 358.850414 248.146429 
L 394.301847 255.514381 
L 401.29029 242.32678 
L 374.937097 218.549526 
L 334.869821 202.419658 
L 311.599293 206.256116 
L 323.296198 226.89531 
L 360.622985 248.514827 
L 394.65127 254.855001 
L 399.97263 241.137917 
L 372.933733 217.743033 
L 333.706295 202.611481 
L 312.184138 207.288076 
L 325.162537 227.976286 
L 362.3244 248.831835 
L 394.917338 254.169147 
L 398.620685 239.968173 
L 370.972361 216.986455 
L 332.630187 202.845311 
L 312.833058 208.322486 
L 327.02063 229.019064 
L 363.954047 249.098701 
L 395.102505 253.459098 
L 397.238269 238.819087 
L 369.055252 216.279398 
L 331.64033 203.11917 
L 313.542436 209.357315 
L 328.867301 230.023046 
L 365.51147 249.316721 
L 395.209293 252.727098 
L 395.829118 237.692103 
L 367.184506 215.621386 
L 330.735436 203.431077 
L 314.30868 210.390601 
L 330.69951 230.987729 
L 366.996361 249.48724 
L 395.240284 251.975348 
L 394.396888 236.588567 
L 365.362053 215.011871 
L 329.914098 203.779053 
L 315.128221 211.420458 
L 332.514352 231.912705 
L 368.408557 249.611645 
L 395.198115 251.206009 
L 392.945146 235.509732 
L 363.589655 214.45023 
L 329.174804 204.161123 
L 315.997528 212.44507 
L 334.309062 232.797652 
L 369.748035 249.691363 
L 395.085466 250.421195 
L 391.477371 234.456757 
L 361.868912 213.935775 
L 328.51594 204.575321 
L 316.913104 213.462699 
L 336.081011 233.642337 
L 371.014906 249.727855 
L 394.905061 249.622973 
L 389.996948 233.430708 
L 360.201264 213.467752 
L 327.935798 205.01969 
L 317.8715 214.471681 
L 337.827706 234.446613 
L 372.209414 249.722611 
L 394.659656 248.81336 
L 388.507164 232.43256 
L 358.58799 213.045349 
L 327.432583 205.492289 
L 318.86931 215.470428 
L 339.546791 235.210413 
L 373.331926 249.677148 
L 394.352031 247.99432 
L 387.011206 231.4632 
L 357.03022 212.667696 
L 327.00442 205.991196 
L 319.903184 216.457427 
L 341.236048 235.93375 
L 374.382931 249.593007 
L 393.98499 247.167764 
L 385.512156 230.523424 
L 355.52893 212.333871 
L 326.649358 206.514508 
L 320.969827 217.431243 
L 342.893392 236.616713 
L 375.363034 249.471745 
L 393.561348 246.335547 
L 384.012995 229.613947 
L 354.084951 212.042903 
L 326.365381 207.060345 
L 322.066006 218.390517 
L 344.516874 237.259464 
L 376.27295 249.314935 
L 393.083931 245.499467 
L 382.516593 228.735394 
L 352.698973 211.793775 
L 326.150413 207.626853 
L 323.188549 219.333964 
L 346.104678 237.862238 
L 377.113499 249.124161 
L 392.555564 244.661263 
L 381.025712 227.888313 
L 351.371545 211.585429 
L 326.002319 208.212209 
L 324.334355 220.260378 
L 347.655119 238.425334 
L 377.885602 248.901016 
L 391.979071 243.822616 
L 379.543003 227.073169 
L 350.103084 211.416768 
L 325.918921 208.814617 
L 325.500394 221.168626 
L 349.166643 238.949118 
L 378.590276 248.647096 
L 391.357268 242.985143 
L 378.071007 226.290349 
L 348.893876 211.28666 
L 325.897995 209.432318 
L 326.683706 222.05765 
L 350.637825 239.434017 
L 379.228625 248.363999 
L 390.692955 242.150404 
L 376.612151 225.540165 
L 347.744081 211.193943 
L 325.93728 210.063584 
L 327.881412 222.926469 
L 352.067365 239.880516 
L 379.801842 248.053319 
L 389.988915 241.319892 
L 375.168747 224.822854 
L 346.653741 211.137425 
L 326.034487 210.706728 
L 329.09071 223.774171 
L 353.454089 240.289156 
L 380.311195 247.716648 
L 389.247906 240.49504 
L 373.742997 224.138582 
L 345.622779 211.11589 
L 326.187298 211.360101 
L 330.308879 224.59992 
L 354.796944 240.660531 
L 380.758031 247.355567 
L 388.472661 239.677217 
L 372.336986 223.487448 
L 344.651005 211.128101 
L 326.393377 212.022092 
L 331.533282 225.402951 
L 356.094998 240.995283 
L 381.143762 246.97165 
L 387.665877 238.867729 
L 370.952687 222.86948 
L 343.738123 211.1728 
L 326.650372 212.691134 
L 332.761368 226.182567 
L 357.347437 241.294101 
L 381.469868 246.566454 
L 386.830217 238.067816 
L 369.591959 222.284646 
L 342.883736 211.248717 
L 326.955922 213.365706 
L 333.990671 226.938144 
L 358.553558 241.557719 
L 381.737886 246.141522 
L 385.968305 237.278658 
L 368.256548 221.73285 
L 342.087345 211.354567 
L 327.30766 214.044328 
L 335.218816 227.669123 
L 359.712775 241.786909 
L 381.949407 245.698379 
L 385.082717 236.501367 
L 366.948088 221.213936 
L 341.348361 211.489055 
L 327.703217 214.725568 
L 336.443514 228.375012 
L 360.824606 241.982482 
L 382.106072 245.238528 
L 384.175985 235.736996 
L 365.668101 220.727692 
L 340.666104 211.65088 
L 328.140232 215.40804 
L 337.662568 229.055386 
L 361.888679 242.145285 
L 382.209568 244.763451 
L 383.250591 234.98653 
L 364.418001 220.273851 
L 340.03981 211.838738 
L 328.616349 216.090407 
L 338.873874 229.709881 
L 362.904724 242.276193 
L 382.261619 244.274605 
L 382.308962 234.250897 
L 363.199092 219.852095 
L 339.468637 212.051322 
L 329.129225 216.771381 
L 340.075416 230.338196 
L 363.872569 242.376114 
L 382.263986 243.77342 
L 381.353468 233.530956 
L 362.012569 219.462057 
L 338.951666 212.287325 
L 329.676535 217.449722 
L 341.265274 230.940092 
L 364.79214 242.445979 
L 382.21846 243.261297 
L 380.386423 232.827511 
L 360.859524 219.10332 
L 338.48791 212.545445 
L 330.255972 218.12424 
L 342.441617 231.515386 
L 365.663456 242.486745 
L 382.126858 242.739608 
L 379.410078 232.141302 
L 359.740943 218.775426 
L 338.076313 212.824384 
L 330.865254 218.793798 
L 343.602709 232.063954 
L 366.486626 242.499388 
L 381.991019 242.209692 
L 378.426621 231.473008 
L 358.657712 218.477874 
L 337.71576 213.122855 
L 331.502127 219.457305 
L 344.746905 232.585726 
L 367.261845 242.484903 
L 381.812799 241.672858 
L 377.438176 230.823251 
L 357.610614 218.210123 
L 337.405078 213.439577 
L 332.164366 220.113726 
L 345.872652 233.080685 
L 367.989393 242.444301 
L 381.594068 241.130378 
L 376.446798 230.192595 
L 356.600337 217.971596 
L 337.143043 213.773285 
L 332.84978 220.762074 
L 346.978489 233.548866 
L 368.669627 242.378605 
L 381.336705 240.583489 
L 375.454475 229.581545 
L 355.627473 217.76168 
L 336.92838 214.122724 
L 333.556215 221.401414 
L 348.063046 233.990353 
L 369.302981 242.288849 
L 381.042593 240.033391 
L 374.463125 228.990552 
L 354.692518 217.579733 
L 336.759771 214.486659 
L 334.281557 222.030861 
L 349.125043 234.405277 
L 369.889961 242.176076 
L 380.71362 239.481249 
L 373.474594 228.420011 
L 353.795881 217.425079 
L 336.635861 214.863869 
L 335.023731 222.649582 
L 350.163289 234.793817 
L 370.431144 242.041335 
L 380.351669 238.928187 
L 372.490659 227.870264 
L 352.93788 217.297018 
L 336.555254 215.253155 
L 335.780709 223.256793 
L 351.176681 235.156193 
L 370.92717 241.885677 
L 379.958618 238.375291 
L 371.51302 227.341602 
L 352.118748 217.194825 
L 336.516527 215.653337 
L 336.550508 223.851763 
L 352.164206 235.492667 
L 371.378743 241.710158 
L 379.536338 237.823607 
L 370.543306 226.834263 
L 351.338637 217.117751 
L 336.518226 216.063258 
L 337.331193 224.433809 
L 353.124933 235.803542 
L 371.786623 241.51583 
L 379.086687 237.27414 
L 369.583073 226.348438 
L 350.597617 217.065026 
L 336.558874 216.481785 
L 338.12088 225.002295 
L 354.058017 236.089156 
L 372.151626 241.303746 
L 378.611506 236.727855 
L 368.6338 225.884267 
L 349.89568 217.035864 
L 336.636975 216.907811 
L 338.917737 225.556638 
L 354.962698 236.349886 
L 372.47462 241.074951 
L 378.112621 236.185675 
L 367.696894 225.441847 
L 349.232744 217.029461 
L 336.751013 217.340252 
L 339.719985 226.096301 
L 355.838294 236.586139 
L 372.75652 240.830488 
L 377.591834 235.648484 
L 366.773686 225.021228 
L 348.608658 217.045001 
L 336.899461 217.778055 
L 340.5259 226.620793 
L 356.684205 236.798357 
L 372.998286 240.571387 
L 377.050927 235.117121 
L 365.865435 224.622416 
L 348.023198 217.081654 
L 337.080783 218.220192 
L 341.333815 227.129671 
L 357.499909 236.987008 
L 373.200918 240.298674 
L 376.491652 234.592386 
L 364.973323 224.245378 
L 347.476077 217.138581 
L 337.293435 218.665666 
L 342.14212 227.622538 
L 358.284959 237.152591 
L 373.365454 240.01336 
L 375.915736 234.075035 
L 364.098461 223.890038 
L 346.966945 217.214935 
L 337.535869 219.113509 
L 342.949262 228.09904 
L 359.038984 237.29563 
L 373.492968 239.716443 
L 375.324872 233.565785 
L 363.241885 223.556283 
L 346.495391 217.309864 
L 337.806539 219.562786 
L 343.753748 228.55887 
L 359.761683 237.41667 
L 373.584564 239.408911 
L 374.720723 233.06531 
L 362.40456 223.243962 
L 346.060949 217.42251 
L 338.103899 220.01259 
L 344.554145 229.00176 
L 360.452827 237.516282 
L 373.641372 239.091731 
L 374.104915 232.574243 
L 361.58738 222.952889 
L 345.663096 217.552014 
L 338.426411 220.462048 
L 345.349079 229.427486 
L 361.112255 237.595055 
L 373.664549 238.765856 
L 373.479038 232.093175 
L 360.791166 222.682846 
L 345.301262 217.697515 
L 338.772545 220.91032 
L 346.137238 229.835864 
L 361.739869 237.653595 
L 373.655273 238.432222 
L 372.844644 231.622659 
L 360.01667 222.433579 
L 344.974826 217.858156 
L 339.140779 221.356598 
L 346.917369 230.226751 
L 362.33564 237.692526 
L 373.614742 238.091744 
L 372.203246 231.163205 
L 359.264578 222.204808 
L 344.683124 218.033078 
L 339.529609 221.800105 
L 347.688283 230.60004 
L 362.899595 237.712487 
L 373.544167 237.745317 
L 371.556312 230.715285 
L 358.535505 221.996221 
L 344.425448 218.221429 
L 339.937543 222.240102 
L 348.448848 230.955662 
L 363.431823 237.714129 
L 373.444774 237.393815 
L 370.905272 230.279332 
L 357.830003 221.807482 
L 344.201053 218.422363 
L 340.363108 222.67588 
L 349.197997 231.293585 
L 363.932471 237.698113 
L 373.317799 237.038091 
L 370.251508 229.855739 
L 357.148555 221.638226 
L 344.009156 218.635039 
L 340.804852 223.106765 
L 349.934721 231.613812 
L 364.401737 237.665112 
L 373.164485 236.678974 
L 369.596361 229.444864 
L 356.491585 221.488067 
L 343.84894 218.858625 
L 341.261346 223.532118 
L 350.658072 231.916377 
L 364.839875 237.615805 
L 372.986078 236.317268 
L 368.941122 229.047024 
L 355.859453 221.356594 
L 343.719561 219.0923 
L 341.731182 223.95133 
L 351.367162 232.201348 
L 365.247185 237.550878 
L 372.783831 235.953756 
L 368.287038 228.662502 
L 355.252458 221.24338 
L 343.620142 219.335251 
L 342.212981 224.363831 
L 352.061163 232.468825 
L 365.624017 237.471022 
L 372.558991 235.589193 
L 367.635309 228.291546 
L 354.670842 221.147973 
L 343.549784 219.58668 
L 342.70539 224.769081 
L 352.739306 232.718935 
L 365.970766 237.376931 
L 372.312807 235.224311 
L 366.987086 227.934368 
L 354.11479 221.069909 
L 343.507564 219.8458 
L 343.207086 225.166574 
L 353.400879 232.951834 
L 366.287868 237.2693 
L 372.046521 234.859814 
L 366.343471 227.591145 
L 353.584428 221.008703 
L 343.49254 220.111839 
L 343.716776 225.555837 
L 354.045228 233.167708 
L 366.5758 237.148825 
L 371.761368 234.49638 
L 365.705519 227.262023 
L 353.079834 220.96386 
L 343.503752 220.384039 
L 344.233198 225.93643 
L 354.671757 233.366764 
L 366.835079 237.016203 
L 371.458576 234.134662 
L 365.074235 226.947114 
L 352.60103 220.934869 
L 343.540224 220.661658 
L 344.755126 226.307947 
L 355.279923 233.549236 
L 367.066254 236.872126 
L 371.139359 233.775285 
L 364.450575 226.646502 
L 352.147989 220.921208 
L 343.600969 220.943973 
L 345.281366 226.670011 
L 355.869239 233.71538 
L 367.269909 236.717284 
L 370.80492 233.418846 
L 363.835445 226.360237 
L 351.720638 220.922347 
L 343.684989 221.230275 
L 345.81076 227.02228 
L 356.439273 233.865475 
L 367.446659 236.552362 
L 370.456446 233.065915 
L 363.229705 226.088343 
L 351.318856 220.937743 
L 343.791278 221.519875 
L 346.342185 227.36444 
L 356.989642 233.99982 
L 367.597149 236.37804 
L 370.095109 232.717037 
L 362.634163 225.830813 
L 350.942477 220.96685 
L 343.918823 221.812103 
L 346.874558 227.696209 
L 357.520018 234.118731 
L 367.722047 236.19499 
L 369.722062 232.372726 
L 362.049578 225.587615 
L 350.591294 221.009112 
L 344.06661 222.106308 
L 347.406831 228.017335 
L 358.030119 234.222544 
L 367.822048 236.003876 
L 369.338437 232.03347 
L 361.476664 225.35869 
L 350.26506 221.063972 
L 344.233621 222.40186 
L 347.937996 228.327595 
L 358.519715 234.31161 
L 367.897867 235.805356 
L 368.945349 231.699731 
L 360.916084 225.143954 
L 349.963488 221.130866 
L 344.41884 222.698147 
L 348.467082 228.626796 
L 358.988623 234.386297 
L 367.950241 235.600075 
L 368.543885 231.371942 
L 360.368454 224.943299 
L 349.686256 221.20923 
L 344.621252 222.994579 
L 348.993159 228.914771 
L 359.436704 234.446986 
L 367.979923 235.388668 
L 368.135114 231.05051 
L 359.834344 224.756596 
L 349.433006 221.298498 
L 344.839847 223.290589 
L 349.515336 229.191382 
L 359.863865 234.49407 
L 367.987683 235.17176 
L 367.720075 230.735814 
L 359.314277 224.583691 
L 349.203348 221.398102 
L 345.073621 223.585628 
L 350.032762 229.456516 
L 360.270056 234.527955 
L 367.974302 234.949963 
L 367.299786 230.428208 
L 358.808731 224.424412 
L 348.996861 221.507479 
L 345.321579 223.879173 
L 350.544627 229.710088 
L 360.655268 234.549055 
L 367.940577 234.723875 
L 366.875233 230.128018 
L 358.318137 224.278565 
L 348.813097 221.626063 
L 345.582731 224.170718 
L 351.050159 229.952036 
L 361.019534 234.557796 
L 367.887309 234.494082 
L 366.447378 229.835546 
L 357.842885 224.14594 
L 348.651579 221.753296 
L 345.856102 224.459784 
L 351.548628 230.182324 
L 361.362922 234.554611 
L 367.815313 234.261156 
L 366.017153 229.551065 
L 357.38332 224.026308 
L 348.511805 221.888621 
L 346.140729 224.745911 
L 352.039342 230.400939 
L 361.685542 234.539938 
L 367.725405 234.025651 
L 365.585462 229.274827 
L 356.939744 223.919423 
L 348.393251 222.031485 
L 346.435659 225.028663 
L 352.521652 230.607889 
L 361.987535 234.514224 
L 367.618408 233.78811 
L 365.153176 229.007057 
L 356.51242 223.825026 
L 348.295372 222.181344 
L 346.739959 225.307624 
L 352.994947 230.803205 
L 362.269079 234.477918 
L 367.495146 233.549057 
L 364.721138 228.747956 
L 356.101567 223.742842 
L 348.217601 222.337658 
L 347.052708 225.582403 
L 353.458653 230.986941 
L 362.530382 234.431475 
L 367.356446 233.309002 
L 364.290159 228.4977 
L 355.707369 223.672583 
L 348.159356 222.499895 
L 347.373006 225.85263 
L 353.91224 231.159168 
L 362.771685 234.375351 
L 367.203131 233.068437 
L 363.86102 228.256444 
L 355.329968 223.613949 
L 348.120039 222.667532 
L 347.699967 226.117957 
L 354.355212 231.319977 
L 362.993258 234.310005 
L 367.036026 232.827837 
L 363.434467 228.024319 
L 354.969472 223.566628 
L 348.099035 222.840053 
L 348.03273 226.378058 
L 354.787114 231.469478 
L 363.195396 234.235897 
L 366.855948 232.587662 
L 363.011218 227.801435 
L 354.62595 223.530299 
L 348.09572 223.016953 
L 348.370449 226.632629 
L 355.207528 231.607799 
L 363.378424 234.153485 
L 366.663711 232.34835 
L 362.591954 227.587878 
L 354.299438 223.504632 
L 348.109456 223.197737 
L 348.712303 226.881387 
L 355.616073 231.735084 
L 363.542688 234.063229 
L 366.460124 232.110327 
L 362.177328 227.383716 
L 353.989939 223.489287 
L 348.139599 223.38192 
L 349.057491 227.124072 
L 356.012404 231.851491 
L 363.68856 233.965583 
L 366.245984 231.873996 
L 361.767959 227.188994 
L 353.697422 223.483919 
L 348.185493 223.569027 
L 349.405237 227.360443 
L 356.396212 231.957195 
L 363.816431 233.861004 
L 366.022083 231.639746 
L 361.364432 227.003741 
L 353.421826 223.488174 
L 348.246481 223.758598 
L 349.754786 227.590281 
L 356.767223 232.052386 
L 363.926713 233.749941 
L 365.7892 231.407946 
L 360.967302 226.827962 
L 353.163059 223.501695 
L 348.321896 223.950182 
L 350.105407 227.813386 
L 357.125197 232.137264 
L 364.019838 233.632841 
L 365.548105 231.178947 
L 360.57709 226.661649 
L 352.921 223.52412 
L 348.411071 224.143342 
L 350.456397 228.02958 
L 357.469929 232.212043 
L 364.096251 233.510147 
L 365.299554 230.953082 
L 360.194285 226.504772 
L 352.695504 223.555081 
L 348.513338 224.337654 
L 350.807074 228.238703 
L 357.801245 232.276948 
L 364.156416 233.382293 
L 365.044291 230.730666 
L 359.819346 226.357288 
L 352.486396 223.59421 
L 348.628024 224.532707 
L 351.156782 228.440615 
L 358.119004 232.332215 
L 364.20081 233.249712 
L 364.783044 230.511997 
L 359.452699 226.219134 
L 352.293477 223.641134 
L 348.754462 224.728102 
L 351.504893 228.635195 
L 358.423094 232.37809 
L 364.229922 233.112826 
L 364.516526 230.297354 
L 359.094738 226.090234 
L 352.116526 223.695483 
L 348.891984 224.923457 
L 351.850803 228.82234 
L 358.713435 232.414827 
L 364.244252 232.972053 
L 364.245437 230.086998 
L 358.745827 225.970496 
L 351.955299 223.756882 
L 349.039925 225.118401 
L 352.193935 229.001964 
L 358.989976 232.442688 
L 364.244311 232.8278 
L 363.970456 229.881173 
L 358.406301 225.859816 
L 351.809531 223.824957 
L 349.197625 225.312579 
L 352.533737 229.174001 
L 359.252693 232.461944 
L 364.230618 232.680469 
L 363.692249 229.680105 
L 358.076462 225.758073 
L 351.678935 223.899339 
L 349.364431 225.50565 
L 352.869685 229.338398 
L 359.501589 232.47287 
L 364.2037 232.53045 
L 363.411459 229.484004 
L 357.756586 225.665136 
L 351.56321 223.979654 
L 349.539694 225.697288 
L 353.20128 229.495121 
L 359.736695 232.475749 
L 364.164088 232.378128 
L 363.128716 229.29306 
L 357.446917 225.580862 
L 351.462034 224.065536 
L 349.722773 225.887179 
L 353.528051 229.644153 
L 359.958065 232.470868 
L 364.112319 232.223875 
L 362.844626 229.10745 
L 357.147673 225.505096 
L 351.375071 224.156618 
L 349.913037 226.075028 
L 353.849551 229.785488 
L 360.165777 232.458518 
L 364.048935 232.068053 
L 362.559778 228.927332 
L 356.859043 225.437672 
L 351.301969 224.252538 
L 350.109863 226.260551 
L 354.165363 229.91914 
L 360.359935 232.438995 
L 363.974477 231.911017 
L 362.274741 228.752849 
L 356.581189 225.378415 
L 351.242364 224.352939 
L 350.312638 226.44348 
L 354.475091 230.045133 
L 360.540662 232.412596 
L 363.88949 231.753109 
L 361.990064 228.584128 
L 356.314248 225.327141 
L 351.195878 224.457466 
L 350.52076 226.623563 
L 354.77837 230.163506 
L 360.708104 232.379622 
L 363.794519 231.59466 
L 361.706273 228.421278 
L 356.058329 225.283658 
L 351.162122 224.565771 
L 350.733641 226.80056 
L 355.074857 230.274312 
L 360.862424 232.340374 
L 363.690106 231.435991 
L 361.423876 228.264397 
L 355.813519 225.247763 
L 351.140698 224.67751 
L 350.950702 226.974248 
L 355.364235 230.377615 
L 361.003808 232.295154 
L 363.576795 231.277411 
L 361.143358 228.113566 
L 355.579878 225.219251 
L 351.131198 224.792347 
L 351.171378 227.144416 
L 355.646214 230.473492 
L 361.132458 232.244267 
L 363.455123 231.119219 
L 360.865184 227.96885 
L 355.357444 225.197905 
L 351.133207 224.909951 
L 351.39512 227.31087 
L 355.920526 230.562031 
L 361.248591 232.188015 
L 363.325626 230.9617 
L 360.589797 227.830303 
L 355.146232 225.183508 
L 351.146303 225.029997 
L 351.62139 227.473428 
L 356.186929 230.64333 
L 361.352443 232.126699 
L 363.188835 230.805131 
L 360.317619 227.697963 
L 354.946236 225.175832 
L 351.170057 225.152168 
L 351.849667 227.631923 
L 356.445205 230.717498 
L 361.444262 232.060621 
L 363.045274 230.649772 
L 360.049049 227.571856 
L 354.757427 225.174649 
L 351.204038 225.276156 
L 352.079444 227.786202 
L 356.695158 230.784654 
L 361.524313 231.990078 
L 362.895463 230.495876 
L 359.784468 227.451996 
L 354.579757 225.179724 
L 351.247808 225.401658 
L 352.31023 227.936124 
L 356.936615 230.844926 
L 361.59287 231.915368 
L 362.739913 230.343682 
L 359.524233 227.338382 
L 354.41316 225.190821 
L 351.300929 225.528382 
L 352.541549 228.081564 
L 357.169428 230.898448 
L 361.650223 231.836784 
L 362.579129 230.193417 
L 359.268679 227.231004 
L 354.257548 225.207699 
L 351.36296 225.656041 
L 352.772943 228.222409 
L 357.393468 230.945364 
L 361.696668 231.754616 
L 362.413606 230.045297 
L 359.018123 227.129839 
L 354.112819 225.230116 
L 351.433459 225.784359 
L 353.003969 228.358556 
L 357.608628 230.985827 
L 361.732515 231.66915 
L 362.243832 229.899524 
L 358.772857 227.034853 
L 353.978851 225.257828 
L 351.511985 225.913069 
L 353.234202 228.48992 
L 357.814822 231.019993 
L 361.758081 231.580668 
L 362.070283 229.75629 
L 358.533157 226.946002 
L 353.855507 225.29059 
L 351.598096 226.041912 
L 353.463233 228.616424 
L 358.011985 231.048027 
L 361.773691 231.489449 
L 361.893427 229.615776 
L 358.299275 226.863231 
L 353.742637 225.328156 
L 351.691352 226.170637 
L 353.690671 228.738004 
L 358.20007 231.070098 
L 361.779678 231.395766 
L 361.71372 229.478149 
L 358.071443 226.786477 
L 353.640073 225.37028 
L 351.791318 226.299006 
L 353.916141 228.854608 
L 358.379051 231.086381 
L 361.77638 231.299885 
L 361.531606 229.343565 
L 357.849874 226.715668 
L 353.547635 225.416717 
L 351.897559 226.426786 
L 354.139286 228.966197 
L 358.548917 231.097057 
L 361.764141 231.202069 
L 361.347519 229.21217 
L 357.634762 226.65072 
L 353.465131 225.46722 
L 352.009646 226.553756 
L 354.359768 229.07274 
L 358.709678 231.102307 
L 361.74331 231.102574 
L 361.161881 229.084098 
L 357.426281 226.591545 
L 353.392357 225.521547 
L 352.127152 226.679705 
L 354.577263 229.174218 
L 358.86136 231.102321 
L 361.714239 231.00165 
L 360.975101 228.95947 
L 357.224584 226.538045 
L 353.329097 225.579455 
L 352.249657 226.804431 
L 354.791468 229.270624 
L 359.004004 231.097287 
L 361.677282 230.899541 
L 360.787575 228.838399 
L 357.02981 226.490116 
L 353.275125 225.640704 
L 352.376748 226.927741 
L 355.002095 229.361957 
L 359.137668 231.0874 
L 361.632796 230.796484 
L 360.599687 228.720985 
L 356.842076 226.447645 
L 353.230206 225.705056 
L 352.508015 227.049452 
L 355.208874 229.448229 
L 359.262424 231.072854 
L 361.581141 230.692709 
L 360.411807 228.607318 
L 356.661482 226.410516 
L 353.194096 225.772275 
L 352.643058 227.16939 
L 355.411551 229.52946 
L 359.37836 231.053847 
L 361.522674 230.58844 
L 360.22429 228.497478 
L 356.488113 226.378604 
L 353.166544 225.842131 
L 352.781483 227.287394 
L 355.609892 229.605679 
L 359.485576 231.030576 
L 361.457755 230.483891 
L 360.037481 228.391534 
L 356.322035 226.35178 
L 353.147291 225.914394 
L 352.922903 227.403308 
L 355.803676 229.676924 
L 359.584185 231.003242 
L 361.386741 230.379274 
L 359.851709 228.289546 
L 356.163297 226.329911 
L 353.136072 225.98884 
L 353.066942 227.516989 
L 355.992701 229.74324 
L 359.674313 230.972044 
L 361.30999 230.274787 
L 359.667289 228.191564 
L 356.011936 226.312857 
L 353.132615 226.065247 
L 353.21323 227.628302 
L 356.176782 229.80468 
L 359.756096 230.937181 
L 361.227855 230.170626 
L 359.484521 228.097629 
L 355.86797 226.300477 
L 353.136646 226.1434 
L 353.361408 227.73712 
L 356.355748 229.861305 
L 359.829684 230.898853 
L 361.140688 230.066976 
L 359.303693 228.007771 
L 355.731404 226.292623 
L 353.147884 226.223086 
L 353.511125 227.84333 
L 356.529444 229.913183 
L 359.895235 230.857259 
L 361.048838 229.964016 
L 359.125079 227.922014 
L 355.602228 226.289146 
L 353.166046 226.304098 
L 353.662041 227.946822 
L 356.697734 229.960387 
L 359.952915 230.812597 
L 360.95265 229.861916 
L 358.948936 227.840371 
L 355.480419 226.289894 
L 353.190846 226.386234 
L 353.813825 228.047501 
L 356.860493 230.002997 
L 360.002901 230.765063 
L 360.852465 229.760839 
L 358.775511 227.762847 
L 355.36594 226.294711 
L 353.221995 226.469298 
L 353.966159 228.145275 
L 357.017613 230.0411 
L 360.04538 230.714852 
L 360.748617 229.660939 
L 358.605032 227.68944 
L 355.258743 226.30344 
L 353.259203 226.553097 
L 354.118731 228.240067 
L 357.169002 230.074788 
L 360.080541 230.662156 
L 360.641438 229.562364 
L 358.437718 227.62014 
L 355.158766 226.315923 
L 353.30218 226.637445 
L 354.271245 228.331803 
L 357.314579 230.104156 
L 360.108586 230.607167 
L 360.531252 229.465253 
L 358.27377 227.554929 
L 355.065937 226.331999 
L 353.350633 226.722163 
L 354.423412 228.42042 
L 357.454279 230.129307 
L 360.12972 230.550071 
L 360.418378 229.369737 
L 358.113378 227.493783 
L 354.980171 226.351507 
L 353.404272 226.807076 
L 354.574955 228.505865 
L 357.588051 230.150345 
L 360.144152 230.491054 
L 360.303128 229.275939 
L 357.956718 227.436669 
L 354.901376 226.374286 
L 353.462806 226.892015 
L 354.72561 228.588089 
L 357.715856 230.167381 
L 360.152101 230.430298 
L 360.185807 229.183975 
L 357.803951 227.38355 
L 354.829448 226.400172 
L 353.525946 226.976819 
L 354.875122 228.667053 
L 357.837668 230.180526 
L 360.153787 230.367982 
L 360.066714 229.093954 
L 357.655226 227.334381 
L 354.764273 226.429004 
L 353.593405 227.061331 
L 355.023249 228.742727 
L 357.953474 230.189899 
L 360.149433 230.304281 
L 359.94614 229.005975 
L 357.510678 227.289112 
L 354.705729 226.460621 
L 353.664897 227.145401 
L 355.169761 228.815086 
L 358.063272 230.195618 
L 360.139268 230.239366 
L 359.824367 228.920132 
L 357.370431 227.247687 
L 354.653688 226.49486 
L 353.74014 227.228885 
L 355.314436 228.884112 
L 358.167072 230.197806 
L 360.123523 230.173404 
L 359.70167 228.83651 
L 357.234594 227.210046 
L 354.60801 226.531561 
L 353.818855 227.311646 
L 355.457068 228.949797 
L 358.264895 230.196586 
L 360.102431 230.106559 
L 359.578316 228.755187 
L 357.103264 227.176122 
L 354.568553 226.570565 
L 353.900766 227.393554 
L 355.597459 229.012136 
L 358.356771 230.192084 
L 360.076225 230.038991 
L 359.454564 228.676234 
L 356.976529 227.145844 
L 354.535163 226.611715 
L 353.9856 227.474483 
L 355.735425 229.071134 
L 358.442744 230.18443 
L 360.045142 229.970853 
L 359.330662 228.599714 
L 356.854461 227.119137 
L 354.507685 226.654853 
L 354.073092 227.554315 
L 355.870791 229.126799 
L 358.522864 230.173751 
L 360.009418 229.902296 
L 359.206852 228.525685 
L 356.737122 227.095923 
L 354.485956 226.699826 
L 354.162977 227.63294 
L 356.003395 229.179146 
L 358.597192 230.160178 
L 359.969289 229.833465 
L 359.083365 228.454197 
L 356.624563 227.076118 
L 354.469807 226.746482 
L 354.254997 227.71025 
L 356.133084 229.228198 
L 358.665797 230.143842 
L 359.924993 229.764502 
L 358.960425 228.385293 
L 356.516826 227.059637 
L 354.459066 226.79467 
L 354.348902 227.786147 
L 356.25972 229.27398 
L 358.728756 230.124875 
L 359.876765 229.695541 
L 358.838245 228.31901 
L 356.413938 227.046388 
L 354.453558 226.844244 
L 354.444443 227.860539 
L 356.383172 229.316525 
L 358.786157 230.103409 
L 359.824839 229.626715 
L 358.71703 228.255379 
L 356.315919 227.036281 
L 354.453102 226.895059 
L 354.541379 227.933338 
L 356.503321 229.355869 
L 358.838091 230.079574 
L 359.769448 229.558148 
L 358.596974 228.194424 
L 356.222778 227.02922 
L 354.457516 226.946973 
L 354.639476 228.004465 
L 356.62006 229.392054 
L 358.884659 230.053503 
L 359.710825 229.489962 
L 358.478264 228.136164 
L 356.134515 227.025108 
L 354.466614 226.999847 
L 354.738505 228.073844 
L 356.733289 229.425127 
L 358.925967 230.025326 
L 359.649197 229.422272 
L 358.361077 228.080611 
L 356.05112 227.023845 
L 354.480209 227.053547 
L 354.838245 228.141408 
L 356.842923 229.455137 
L 358.962129 229.995173 
L 359.584791 229.355189 
L 358.245579 228.027773 
L 355.972574 227.02533 
L 354.49811 227.10794 
L 354.938479 228.207095 
L 356.948884 229.482138 
L 358.993262 229.963174 
L 359.51783 229.288818 
L 358.131929 227.977651 
L 355.898851 227.02946 
L 354.520129 227.162898 
L 355.038999 228.270847 
L 357.051103 229.50619 
L 359.01949 229.929456 
L 359.448535 229.22326 
L 358.020275 227.930241 
L 355.829915 227.036132 
L 354.546072 227.218295 
L 355.139604 228.332614 
L 357.149522 229.527353 
L 359.040942 229.894146 
L 359.377122 229.158609 
L 357.910757 227.885536 
L 355.765723 227.04524 
L 354.575749 227.274011 
L 355.2401 228.392351 
L 357.244093 229.545693 
L 359.057751 229.857369 
L 359.303804 229.094955 
L 357.803505 227.843521 
L 355.706224 227.056679 
L 354.608966 227.329928 
L 355.3403 228.450018 
L 357.334776 229.561277 
L 359.070054 229.819249 
L 359.228789 229.032384 
L 357.698641 227.804179 
L 355.651361 227.070341 
L 354.645533 227.385933 
L 355.440023 228.505581 
L 357.42154 229.574175 
L 359.077991 229.779905 
L 359.152281 228.970973 
L 357.596277 227.767487 
L 355.60107 227.086121 
L 354.685258 227.441915 
L 355.539099 228.559011 
L 357.504362 229.584462 
L 359.081705 229.739459 
L 359.074481 228.910799 
L 357.496517 227.733419 
L 355.555279 227.103911 
L 354.72795 227.49777 
L 355.637362 228.610283 
L 357.583229 229.592212 
L 359.081344 229.698026 
L 358.995583 228.85193 
L 357.399455 227.701943 
L 355.513913 227.123604 
L 354.77342 227.553396 
L 355.734656 228.65938 
L 357.658135 229.597503 
L 359.077056 229.655721 
L 358.915777 228.794431 
L 357.305178 227.673026 
L 355.476888 227.145093 
L 354.821482 227.608695 
L 355.83083 228.706286 
L 357.729081 229.600413 
L 359.068992 229.612656 
L 358.835247 228.73836 
L 357.213763 227.64663 
L 355.444118 227.168273 
L 354.871949 227.663574 
L 355.925742 228.750992 
L 357.796077 229.601026 
L 359.057305 229.568942 
L 358.754173 228.683774 
L 357.125281 227.622712 
L 355.415509 227.193038 
L 354.924639 227.717945 
L 356.019259 228.793494 
L 357.859138 229.599421 
L 359.042148 229.524683 
L 358.672728 228.630721 
L 357.039792 227.601228 
L 355.390966 227.219284 
L 354.97937 227.771723 
L 356.111253 228.83379 
L 357.918289 229.595684 
L 359.023677 229.479985 
L 358.591081 228.579246 
L 356.957351 227.582131 
L 355.370386 227.246906 
L 355.035964 227.824826 
L 356.201605 228.871885 
L 357.973558 229.5899 
L 359.002047 229.434948 
L 358.509395 228.52939 
L 356.878003 227.56537 
L 355.353665 227.275802 
L 355.094246 227.877179 
L 356.290202 228.907786 
L 358.024983 229.582152 
L 358.977415 229.38967 
L 358.427825 228.481189 
L 356.801786 227.550891 
L 355.340694 227.305871 
L 355.154044 227.928709 
L 356.376941 228.941504 
L 358.072604 229.572528 
L 358.949935 229.344246 
L 358.346523 228.434674 
L 356.728731 227.53864 
L 355.331361 227.337012 
L 355.215189 227.979349 
L 356.461725 228.973055 
L 358.116471 229.561114 
L 358.919765 229.298768 
L 358.265634 228.389873 
L 356.658863 227.528559 
L 355.325553 227.369129 
L 355.277516 228.029034 
L 356.544462 229.002458 
L 358.156635 229.547996 
L 358.887058 229.253323 
L 358.185295 228.346807 
L 356.592197 227.520587 
L 355.323151 227.402125 
L 355.340863 228.077706 
L 356.625071 229.029735 
L 358.193157 229.533263 
L 358.85197 229.207997 
L 358.10564 228.305496 
L 356.528745 227.514664 
L 355.324037 227.435904 
L 355.405073 228.125307 
L 356.703475 229.054911 
L 358.226097 229.517 
L 358.814653 229.162872 
L 358.026795 228.265954 
L 356.46851 227.510726 
L 355.328088 227.470374 
L 355.469993 228.171787 
L 356.779606 229.078016 
L 358.255525 229.499293 
L 358.77526 229.118026 
L 357.948881 228.228193 
L 356.411489 227.508709 
L 355.335184 227.505444 
L 355.535474 228.217099 
L 356.853402 229.09908 
L 358.281512 229.48023 
L 358.733942 229.073535 
L 357.872011 228.192219 
L 356.357673 227.508545 
L 355.345198 227.541027 
L 355.60137 228.261198 
L 356.924807 229.118137 
L 358.304133 229.459895 
L 358.690845 229.029469 
L 357.796295 228.158035 
L 356.30705 227.510169 
L 355.358007 227.577036 
L 355.667542 228.304045 
L 356.993774 229.135225 
L 358.323469 229.438374 
L 358.646117 228.985897 
L 357.721832 228.125642 
L 356.259597 227.513513 
L 355.373484 227.613386 
L 355.733854 228.345604 
L 357.060258 229.150383 
L 358.339601 229.41575 
L 358.599903 228.942884 
L 357.648721 228.095035 
L 356.215292 227.518506 
L 355.391502 227.649997 
L 355.800174 228.385843 
L 357.124226 229.163651 
L 358.352616 229.392107 
L 358.552344 228.900492 
L 357.577049 228.066209 
L 356.174102 227.525081 
L 355.411936 227.686789 
L 355.866377 228.424733 
L 357.185645 229.175074 
L 358.362603 229.367526 
L 358.503579 228.858778 
L 357.506902 228.039153 
L 356.135994 227.533166 
L 355.434658 227.723687 
L 355.93234 228.46225 
L 357.244493 229.184696 
L 358.369652 229.342088 
L 358.453745 228.817796 
L 357.438356 228.013853 
L 356.100927 227.542692 
L 355.459542 227.760615 
L 355.997948 228.498373 
L 357.300751 229.192566 
L 358.373856 229.315874 
L 358.402976 228.777599 
L 357.371485 227.990295 
L 356.068858 227.553589 
L 355.486462 227.797503 
L 356.063088 228.533082 
L 357.354406 229.198731 
L 358.375312 229.28896 
L 358.351401 228.738234 
L 357.306354 227.96846 
L 356.039738 227.565784 
L 355.515293 227.834282 
L 356.127654 228.566365 
L 357.405451 229.203243 
L 358.374117 229.261424 
L 358.299149 228.699745 
L 357.243023 227.948326 
L 356.013516 227.579209 
L 355.545911 227.870886 
L 356.191544 228.598209 
L 357.453885 229.206152 
L 358.370368 229.23334 
L 358.246343 228.662174 
L 357.181547 227.92987 
L 355.990136 227.593793 
L 355.578193 227.907252 
L 356.254661 228.628606 
L 357.499709 229.207511 
L 358.364167 229.204782 
L 358.193103 228.625559 
L 357.121977 227.913066 
L 355.969538 227.609466 
L 355.612016 227.94332 
L 356.316913 228.657551 
L 357.542932 229.207375 
L 358.355614 229.175821 
L 358.139547 228.589935 
L 357.064355 227.897886 
L 355.951662 227.626159 
L 355.647261 227.979031 
L 356.378214 228.685042 
L 357.583566 229.205797 
L 358.344811 229.146526 
L 358.085787 228.555332 
L 357.00872 227.8843 
L 355.936442 227.643802 
L 355.683809 228.014332 
L 356.438482 228.71108 
L 357.621628 229.202834 
L 358.331859 229.116967 
L 358.031934 228.521781 
L 356.955106 227.872275 
L 355.923811 227.662329 
L 355.721543 228.049169 
L 356.497639 228.735668 
L 357.65714 229.19854 
L 358.316863 229.087207 
L 357.978092 228.489305 
L 356.903542 227.861778 
L 355.913697 227.681671 
L 355.760347 228.083494 
L 356.555614 228.758811 
L 357.690126 229.192974 
L 358.299925 229.057312 
L 357.924365 228.457929 
L 356.854049 227.852772 
L 355.90603 227.701762 
L 355.800111 228.11726 
L 356.61234 228.780519 
L 357.720616 229.18619 
L 358.281147 229.027343 
L 357.870849 228.427671 
L 356.806648 227.845222 
L 355.900734 227.722537 
L 355.840722 228.150423 
L 356.667753 228.800803 
L 357.748642 229.178248 
L 358.260632 228.997359 
L 357.817639 228.398549 
L 356.761353 227.839088 
L 355.897733 227.743931 
L 355.882074 228.182942 
L 356.721798 228.819675 
L 357.774242 229.169204 
L 358.238482 228.967419 
L 357.764825 228.370576 
L 356.718172 227.83433 
L 355.89695 227.765882 
L 355.92406 228.214779 
L 356.77442 228.837152 
L 357.797454 229.159114 
L 358.214799 228.937577 
L 357.712492 228.343763 
L 356.677111 227.830907 
L 355.898306 227.788326 
L 355.966578 228.245897 
L 356.825572 228.85325 
L 357.818321 229.148038 
L 358.189684 228.907886 
L 357.660723 228.318121 
L 356.63817 227.828778 
L 355.901719 227.811205 
L 356.009528 228.276265 
L 356.875209 228.867989 
L 357.836889 229.13603 
L 358.163236 228.878398 
L 357.609595 228.293653 
L 356.601348 227.8279 
L 355.90711 227.834458 
L 356.052812 228.305851 
L 356.923293 228.881391 
L 357.853207 229.123148 
L 358.135554 228.849161 
L 357.559183 228.270366 
L 356.566636 227.828228 
L 355.914395 227.858028 
L 356.096336 228.334628 
L 356.969789 228.893479 
L 357.867324 229.109449 
L 358.106735 228.820221 
L 357.509556 228.248259 
L 356.534024 227.829718 
L 355.923492 227.881858 
L 356.140008 228.362571 
L 357.014666 228.904278 
L 357.879294 229.094988 
L 358.076876 228.791623 
L 357.460779 228.227332 
L 356.503497 227.832325 
L 355.934318 227.905893 
L 356.183741 228.389656 
L 357.057897 228.913813 
L 357.889174 229.079819 
L 358.046071 228.763408 
L 357.412915 228.207581 
L 356.475038 227.836003 
L 355.946789 227.930081 
L 356.227449 228.415864 
L 357.099461 228.922113 
L 357.897018 229.063999 
L 358.014414 228.735617 
L 357.366021 228.189002 
L 356.448626 227.840707 
L 355.960822 227.954371 
L 356.27105 228.441176 
L 357.139339 228.929208 
L 357.902888 229.04758 
L 357.981994 228.708286 
L 357.320151 228.171588 
L 356.424236 227.84639 
L 355.976333 227.978711 
L 356.314464 228.465578 
L 357.177516 228.935126 
L 357.906844 229.030615 
L 357.948902 228.681451 
L 357.275356 228.155328 
L 356.401841 227.853006 
L 355.99324 228.003054 
L 356.357617 228.489055 
L 357.213983 228.939901 
L 357.908946 229.013157 
L 357.915224 228.655145 
L 357.23168 228.140212 
L 356.38141 227.860509 
L 356.011459 228.027354 
L 356.400435 228.511598 
L 357.248731 228.943563 
L 357.90926 228.995256 
L 357.881047 228.629398 
L 357.189166 228.126227 
L 356.362913 227.868851 
L 356.030908 228.051566 
L 356.44285 228.533196 
L 357.281757 228.946148 
L 357.90785 228.976963 
L 357.846453 228.60424 
L 357.147854 228.113358 
L 356.346313 227.877987 
L 356.051505 228.075648 
L 356.484795 228.553843 
L 357.313062 228.947689 
L 357.90478 228.958327 
L 357.811523 228.579696 
L 357.107777 228.101589 
L 356.331572 227.88787 
L 356.073169 228.099558 
L 356.526209 228.573536 
L 357.342648 228.948221 
L 357.900117 228.939396 
L 357.776336 228.55579 
L 357.068966 228.090903 
L 356.318652 227.898454 
L 356.095821 228.123257 
L 356.567031 228.59227 
L 357.370521 228.947779 
L 357.893928 228.920215 
L 357.740967 228.532546 
L 357.031451 228.081281 
L 356.307511 227.909694 
L 356.119382 228.146707 
L 356.607205 228.610045 
L 357.396692 228.946401 
L 357.88628 228.900832 
L 357.705492 228.509983 
L 356.995254 228.072701 
L 356.298104 227.921545 
L 356.143773 228.169874 
L 356.646679 228.626863 
L 357.421171 228.944123 
L 357.877241 228.881289 
L 357.66998 228.488119 
L 356.960396 228.065144 
L 356.290388 227.933961 
L 356.168918 228.192724 
L 356.685404 228.642726 
L 357.443975 228.940981 
L 357.866877 228.861631 
L 357.634501 228.46697 
L 356.926896 228.058585 
L 356.284314 227.946899 
L 356.194742 228.215224 
L 356.723332 228.657639 
L 357.46512 228.937014 
L 357.855259 228.841898 
L 357.59912 228.446551 
L 356.894767 228.053 
L 356.279835 227.960316 
L 356.221172 228.237344 
L 356.760422 228.671608 
L 357.484627 228.932258 
L 357.842452 228.82213 
L 357.563903 228.426873 
L 356.86402 228.048366 
L 356.276902 227.974167 
L 356.248134 228.259058 
L 356.796632 228.68464 
L 357.502518 228.926751 
L 357.828524 228.802368 
L 357.528908 228.407948 
L 356.834664 228.044656 
L 356.275464 227.988412 
L 356.275559 228.280337 
L 356.831926 228.696746 
L 357.518818 228.920532 
L 357.813543 228.782647 
L 357.494196 228.389783 
L 356.806704 228.041844 
L 356.275469 228.003008 
L 356.303378 228.301157 
L 356.866271 228.707935 
L 357.533554 228.913638 
L 357.797576 228.763003 
L 357.459822 228.372386 
L 356.780142 228.039902 
L 356.276864 228.017915 
L 356.331522 228.321496 
L 356.899635 228.71822 
L 357.546756 228.906106 
L 357.780688 228.743473 
L 357.425838 228.355762 
L 356.754979 228.038803 
L 356.279597 228.033094 
L 356.359928 228.341332 
L 356.931991 228.727615 
L 357.558452 228.897975 
L 357.762946 228.724087 
L 357.392295 228.339914 
L 356.731209 228.038517 
L 356.283614 228.048506 
L 356.388531 228.360646 
L 356.963314 228.736133 
L 357.568677 228.88928 
L 357.744413 228.704878 
L 357.35924 228.324844 
L 356.70883 228.039017 
L 356.288859 228.064113 
L 356.41727 228.379421 
L 356.993582 228.74379 
L 357.577464 228.88006 
L 357.725155 228.685877 
L 357.32672 228.310553 
L 356.687831 228.040272 
L 356.29528 228.079879 
L 356.446086 228.397639 
L 357.022776 228.750603 
L 357.584848 228.870351 
L 357.705233 228.66711 
L 357.294776 228.297039 
L 356.668204 228.042252 
L 356.30282 228.095767 
L 356.47492 228.415287 
L 357.05088 228.756591 
L 357.590867 228.860189 
L 357.68471 228.648607 
L 357.263447 228.284299 
L 356.649934 228.044928 
L 356.311425 228.111743 
L 356.503718 228.432353 
L 357.077879 228.761771 
L 357.59556 228.84961 
L 357.663647 228.630392 
L 357.232771 228.272331 
L 356.633009 228.048268 
L 356.32104 228.127773 
L 356.532426 228.448823 
L 357.103763 228.766163 
L 357.598964 228.838649 
L 357.642103 228.612488 
L 357.202783 228.261128 
L 356.617411 228.052244 
L 356.331609 228.143826 
L 356.560993 228.46469 
L 357.128523 228.769787 
L 357.601121 228.827341 
L 357.620137 228.59492 
L 357.173515 228.250684 
L 356.60312 228.056823 
L 356.343078 228.159869 
L 356.58937 228.479945 
L 357.152153 228.772665 
L 357.602072 228.81572 
L 357.597806 228.577709 
L 357.144995 228.24099 
L 356.590118 228.061975 
L 356.355393 228.175873 
L 356.617509 228.494581 
L 357.174649 228.774817 
L 357.601858 228.803819 
L 357.575165 228.560873 
L 357.117251 228.23204 
L 356.578382 228.06767 
L 356.368499 228.191808 
L 356.645366 228.508593 
L 357.19601 228.776268 
L 357.600524 228.791672 
L 357.55227 228.544431 
L 357.090308 228.223821 
L 356.567888 228.073877 
L 356.382342 228.207647 
L 356.672898 228.521977 
L 357.216235 228.777038 
L 357.598111 228.77931 
L 357.529172 228.528401 
L 357.064187 228.216324 
L 356.558611 228.080565 
L 356.39687 228.223364 
L 356.700065 228.53473 
L 357.235329 228.777151 
L 357.594664 228.766764 
L 357.505922 228.512797 
L 357.038908 228.209536 
L 356.550524 228.087705 
L 356.41203 228.238932 
L 356.726828 228.546851 
L 357.253296 228.776632 
L 357.590227 228.754066 
L 357.482572 228.497634 
L 357.014489 228.203445 
L 356.543599 228.095267 
L 356.42777 228.254328 
L 356.753152 228.55834 
L 357.270142 228.775504 
L 357.584844 228.741244 
L 357.459167 228.482924 
L 356.990944 228.198036 
L 356.537807 228.10322 
L 356.444039 228.269529 
L 356.779001 228.569198 
L 357.285878 228.773791 
L 357.57856 228.728328 
L 357.435756 228.46868 
L 356.968287 228.193295 
L 356.533119 228.111535 
L 356.460787 228.284512 
L 356.804345 228.579428 
L 357.300512 228.771518 
L 357.57142 228.715346 
L 357.412383 228.454911 
L 356.946529 228.189207 
L 356.529502 228.120184 
L 356.477965 228.299258 
L 356.829153 228.589032 
L 357.314057 228.768709 
L 357.563468 228.702324 
L 357.38909 228.441625 
L 356.925678 228.185756 
L 356.526926 228.129138 
L 356.495524 228.313747 
L 356.853399 228.598016 
L 357.326528 228.76539 
L 357.554749 228.689289 
L 357.36592 228.428832 
L 356.90574 228.182925 
L 356.525355 228.138368 
L 356.513418 228.32796 
L 356.877055 228.606385 
L 357.337939 228.761585 
L 357.545308 228.676266 
L 357.342911 228.416537 
L 356.886721 228.180697 
L 356.524759 228.147848 
L 356.5316 228.341881 
L 356.900099 228.614145 
L 357.348307 228.757319 
L 357.535188 228.66328 
L 357.320101 228.404745 
L 356.868623 228.179055 
L 356.525101 228.157549 
L 356.550025 228.355495 
L 356.92251 228.621303 
L 357.357651 228.752617 
L 357.524434 228.650353 
L 357.297527 228.39346 
L 356.851447 228.177979 
L 356.526347 228.167447 
L 356.568649 228.368785 
L 356.944267 228.627869 
L 357.36599 228.747504 
L 357.513088 228.637508 
L 357.275223 228.382686 
L 356.835192 228.177453 
L 356.528462 228.177514 
L 356.58743 228.381739 
L 356.965353 228.633851 
L 357.373345 228.742004 
L 357.501195 228.624767 
L 357.253222 228.372424 
L 356.819855 228.177456 
L 356.53141 228.187725 
L 356.606326 228.394345 
L 356.985752 228.639259 
L 357.379738 228.736142 
L 357.488796 228.61215 
L 357.231553 228.362676 
L 356.805433 228.177969 
L 356.535156 228.198056 
L 356.625297 228.40659 
L 357.005452 228.644103 
L 357.385191 228.729943 
L 357.475934 228.599676 
L 357.210247 228.353441 
L 356.791919 228.178974 
L 356.539663 228.208483 
L 356.644305 228.418466 
L 357.024439 228.648395 
L 357.389728 228.723429 
L 357.46265 228.587365 
L 357.189331 228.344717 
L 356.779306 228.180449 
L 356.544895 228.218982 
L 356.663312 228.429963 
L 357.042703 228.652146 
L 357.393374 228.716626 
L 357.448984 228.575232 
L 357.16883 228.336504 
L 356.767586 228.182376 
L 356.550816 228.229531 
L 356.682281 228.441072 
L 357.060237 228.65537 
L 357.396154 228.709556 
L 357.434976 228.563296 
L 357.148767 228.328797 
L 356.756747 228.184733 
L 356.557389 228.240108 
L 356.701179 228.451787 
L 357.077033 228.65808 
L 357.398096 228.702243 
L 357.420666 228.551571 
L 357.129166 228.321594 
L 356.746779 228.187502 
L 356.564579 228.250692 
L 356.719972 228.462101 
L 357.093086 228.660288 
L 357.399224 228.69471 
L 357.406091 228.540072 
L 357.110047 228.31489 
L 356.737669 228.190662 
L 356.572349 228.261262 
L 356.738627 228.472011 
L 357.399567 228.686978 
L 357.391289 228.528813 
L 357.091428 228.308678 
L 356.729403 228.194192 
L 356.580662 228.2718 
L 356.757116 228.481511 
L 357.399153 228.67907 
L 357.376296 228.517806 
L 357.073327 228.302954 
L 356.721966 228.198072 
L 356.589485 228.282285 
L 356.775407 228.490598 
L 357.398011 228.671006 
L 357.361147 228.507064 
L 357.055759 228.29771 
L 356.715342 228.202283 
L 356.598781 228.292701 
L 356.793475 228.49927 
L 357.396167 228.662809 
L 357.345878 228.496596 
L 356.709514 228.206804 
L 356.608516 228.303029 
L 356.811293 228.507527 
L 357.393653 228.654499 
L 357.330521 228.486413 
L 356.704464 228.211615 
L 356.618655 228.313254 
L 356.828835 228.515366 
L 357.390496 228.646094 
L 357.315109 228.476524 
L 356.700174 228.216697 
L 356.629164 228.32336 
L 356.846079 228.522789 
L 357.386727 228.637616 
L 357.299672 228.466937 
L 356.696623 228.22203 
L 356.64001 228.333331 
L 356.863003 228.529797 
L 357.382374 228.629082 
L 357.284243 228.457659 
L 356.693793 228.227595 
L 356.651159 228.343155 
L 356.879586 228.53639 
L 357.377468 228.620511 
L 357.268848 228.448696 
L 356.691661 228.233373 
L 356.662581 228.352816 
L 357.212721 228.658067 
L 357.372037 228.61192 
L 357.253517 228.440055 
L 356.690207 228.239345 
L 356.674242 228.362304 
L 357.220686 228.655759 
L 357.366111 228.603327 
L 357.238276 228.431739 
L 356.689409 228.245493 
L 356.686113 228.371606 
L 357.227958 228.653138 
L 357.359719 228.594747 
L 357.223151 228.423754 
L 356.689244 228.251799 
L 356.698162 228.380712 
L 357.234546 228.650218 
L 357.352891 228.586198 
L 357.208166 228.416101 
L 356.68969 228.258244 
L 356.710362 228.389611 
L 357.240463 228.647017 
L 357.345654 228.577693 
L 357.193345 228.408783 
L 356.690723 228.264813 
L 356.722682 228.398294 
L 357.245723 228.643551 
L 357.338039 228.569247 
L 357.17871 228.401803 
L 356.692321 228.271487 
L 356.735096 228.406752 
L 357.250338 228.639836 
L 357.330072 228.560875 
L 357.164281 228.395161 
L 356.69446 228.27825 
L 356.747575 228.414977 
L 357.254325 228.635888 
L 357.321783 228.552589 
L 356.870964 228.269543 
L 356.697116 228.285086 
L 356.760095 228.422962 
L 357.257698 228.631723 
L 357.313198 228.544403 
L 356.862272 228.270321 
L 356.700265 228.29198 
L 356.77263 228.430702 
L 357.260473 228.627357 
L 357.304344 228.536327 
L 356.854171 228.271404 
L 356.703883 228.298916 
L 356.785156 228.438189 
L 357.262666 228.622805 
L 357.295248 228.528374 
L 356.846657 228.272779 
L 356.707947 228.30588 
L 356.797648 228.445419 
L 357.264296 228.618084 
L 357.285937 228.520554 
L 356.839721 228.274434 
L 356.712432 228.312857 
L 356.810085 228.452388 
L 357.265378 228.613207 
L 357.276435 228.512877 
L 356.833357 228.276355 
L 356.717314 228.319833 
L 356.822445 228.459091 
L 357.265931 228.608191 
L 357.266768 228.505352 
L 356.827555 228.278529 
L 356.722571 228.326796 
L 356.834707 228.465526 
L 357.265972 228.603049 
L 357.25696 228.497988 
L 356.822306 228.280943 
L 356.728178 228.333733 
L 357.087018 228.589526 
L 357.265522 228.597796 
L 357.247034 228.490794 
L 356.817599 228.283582 
L 356.734111 228.340631 
L 357.095943 228.589939 
L 357.264597 228.592446 
L 357.237015 228.483777 
L 356.813425 228.286435 
L 356.740349 228.347478 
L 357.104376 228.590065 
L 357.263218 228.587012 
L 357.226924 228.476943 
L 356.809771 228.289487 
L 356.746867 228.354264 
L 357.112318 228.589912 
L 357.261404 228.581509 
L 357.216783 228.470299 
L 356.806626 228.292726 
L 356.753644 228.360978 
L 357.119772 228.589492 
L 357.259172 228.575948 
L 357.206613 228.463851 
L 356.803977 228.296138 
L 356.760656 228.36761 
L 357.126742 228.588815 
L 357.256545 228.570343 
L 357.196435 228.457604 
L 356.801811 228.299712 
L 356.767883 228.37415 
L 357.133232 228.587891 
L 357.253539 228.564706 
L 357.186268 228.451562 
L 356.800114 228.303434 
L 356.775302 228.380589 
L 357.139248 228.586732 
L 357.250175 228.559049 
L 356.974361 228.333343 
L 356.782892 228.386918 
L 357.144794 228.585348 
L 357.246473 228.553383 
L 356.965586 228.33204 
L 356.798075 228.311273 
L 356.790634 228.39313 
L 357.149878 228.58375 
L 357.242452 228.54772 
L 356.957211 228.331002 
L 356.797703 228.315366 
L 356.798506 228.399216 
L 357.154507 228.581948 
L 357.23813 228.542069 
L 356.949235 228.33022 
L 356.797743 228.319558 
L 356.806489 228.405171 
L 357.158688 228.579954 
L 357.233528 228.536442 
L 356.941661 228.329687 
L 356.79818 228.323839 
L 356.814563 228.410987 
L 357.16243 228.577779 
L 357.228663 228.530847 
L 356.934487 228.329395 
L 356.798999 228.328196 
L 356.822711 228.416658 
L 357.165742 228.575432 
L 357.223555 228.525296 
L 356.927712 228.329335 
L 356.800185 228.332619 
L 356.830913 228.422179 
L 357.168632 228.572925 
L 357.218223 228.519796 
L 356.921336 228.329499 
L 356.801721 228.337097 
L 356.839153 228.427545 
L 357.171112 228.570269 
L 357.212684 228.514356 
L 356.915355 228.329879 
L 356.803593 228.34162 
L 356.847413 228.432751 
L 357.17319 228.567473 
L 357.206957 228.508984 
L 356.909767 228.330466 
L 356.805784 228.346176 
L 356.855678 228.437794 
L 357.174879 228.564549 
L 357.201059 228.503688 
L 356.904568 228.331251 
L 356.808278 228.350757 
L 356.86393 228.442669 
L 357.176188 228.561506 
L 357.195008 228.498475 
L 356.899753 228.332227 
L 356.811061 228.355353 
L 356.872155 228.447373 
L 357.177129 228.558354 
L 357.188821 228.493353 
L 356.895319 228.333383 
L 356.814116 228.359954 
L 356.880338 228.451904 
L 357.177713 228.555104 
L 357.182515 228.488327 
L 356.891259 228.334712 
L 356.817427 228.364551 
L 357.049623 228.539816 
L 357.177954 228.551765 
L 357.176105 228.483404 
L 356.887567 228.336204 
L 356.820979 228.369137 
L 357.056039 228.540413 
L 357.177861 228.548347 
L 357.169608 228.478589 
L 356.884238 228.33785 
L 356.824756 228.373702 
L 357.06213 228.54081 
L 357.177448 228.544859 
L 357.16304 228.473888 
L 356.881264 228.339643 
L 356.828743 228.378238 
L 357.067896 228.541012 
L 357.176728 228.541311 
L 357.156415 228.469305 
L 356.832925 228.382739 
L 357.073338 228.541027 
L 357.175712 228.53771 
L 357.149748 228.464845 
L 356.837286 228.387197 
L 357.078457 228.540862 
L 357.174414 228.534067 
L 357.143053 228.460511 
L 356.841813 228.391604 
L 357.083255 228.540522 
L 357.172846 228.530389 
L 357.136345 228.456308 
L 356.872769 228.348099 
L 356.84649 228.395955 
L 357.087734 228.540015 
L 357.171021 228.526685 
L 357.129635 228.452238 
L 356.871455 228.350492 
L 356.851302 228.400244 
L 357.091898 228.539349 
L 357.168952 228.522963 
L 357.122938 228.448305 
L 356.870448 228.352979 
L 356.856237 228.404463 
L 357.166651 228.51923 
L 356.983523 228.371446 
L 356.861279 228.408609 
L 357.164132 228.515494 
L 356.977833 228.370651 
L 356.869314 228.358206 
L 356.866416 228.412675 
L 357.161406 228.511762 
L 356.972407 228.370029 
L 356.869169 228.36093 
L 356.871635 228.416656 
L 357.158488 228.508041 
L 356.967245 228.369574 
L 356.869293 228.363716 
L 356.876922 228.420549 
L 357.155389 228.504338 
L 356.962348 228.369281 
L 356.869674 228.366558 
L 356.882264 228.42435 
L 357.152122 228.500659 
L 356.957714 228.369145 
L 356.870304 228.369447 
L 356.887651 228.428053 
L 357.148698 228.497011 
L 356.871171 228.372378 
L 357.008045 228.446468 
" clip-path="url(#pdc1a7070f0)" style="fill: none; stroke: #0000ff; stroke-opacity: 0.7; stroke-width: 0.5; stroke-linecap: square"/>
   </g>
   <g id="line2d_6">
    <path d="M 170.415023 90.125336 
L 559 42.339646 
M 559 205.472976 
L 195.565079 87.032543 
L 559 50.855792 
M 559 202.951813 
L 219.513181 84.64872 
L 559 58.398726 
M 559 200.826417 
L 242.254141 82.890331 
L 559 65.107751 
M 559 199.082435 
L 263.792413 81.68114 
L 559 71.099148 
M 559 197.711228 
L 284.140686 80.951738 
L 559 76.470591 
M 559 196.710278 
L 303.318614 80.639072 
L 559 81.30461 
M 559 196.083882 
L 321.351682 80.686012 
L 559 85.671324 
M 559 195.844257 
L 338.27018 81.040923 
L 559 89.630618 
M 559 189.104143 
L 554.557015 193.533426 
L 354.1083 81.657263 
L 559 93.233898 
M 559 175.656283 
L 544.534579 187.939618 
L 368.903326 82.4932 
L 559 96.525508 
M 559 165.642351 
L 535.753017 182.667297 
L 382.694914 83.51125 
L 559 99.543886 
M 559 158.015359 
L 528.100112 177.709494 
L 395.524468 84.677929 
L 559 102.322517 
M 559 152.10644 
L 521.471329 173.057916 
L 407.43458 85.963437 
L 559 104.890717 
M 559 147.469123 
L 515.769492 168.703192 
L 418.468547 87.341343 
L 559 107.274292 
M 559 143.79464 
L 510.904445 164.6351 
L 428.669955 88.788309 
L 559 109.496086 
M 559 140.863134 
L 506.79272 160.84276 
L 438.082312 90.283812 
L 559 111.576454 
M 559 138.514201 
L 503.3572 157.314813 
L 446.748741 91.809901 
L 559 113.533655 
M 559 136.628376 
L 500.526777 154.039567 
L 454.711713 93.350958 
L 559 115.384206 
M 559 135.115117 
L 498.236024 151.005137 
L 462.012834 94.893484 
L 559 117.143187 
M 559 133.904752 
L 496.424864 148.199554 
L 468.692653 96.425893 
L 559 118.824515 
M 559 132.942974 
L 495.038254 145.610871 
L 474.79052 97.938326 
L 559 120.441196 
M 559 132.186969 
L 494.025867 143.227244 
L 480.344465 99.422479 
L 559 122.005565 
M 559 131.602655 
L 493.341797 141.037006 
L 485.391103 100.871438 
L 559 123.529519 
M 559 131.162675 
L 492.944262 139.028727 
L 489.965571 102.279538 
L 559 125.024756 
M 559 130.844908 
L 492.795328 137.191268 
L 494.101475 103.642221 
L 559 126.503023 
M 559 130.631366 
L 492.860635 135.513815 
L 497.830863 104.955915 
L 559 127.976397 
M 559 130.507349 
L 493.109146 133.98592 
L 501.184211 106.217918 
L 559 129.457607 
M 559 130.460801 
L 493.5129 132.59752 
L 504.190419 107.426297 
L 557.9186 130.496085 
L 494.046776 131.338959 
L 506.876828 108.579786 
L 554.725009 130.538229 
L 494.688278 130.201 
L 509.269237 109.677708 
L 551.723172 130.521367 
L 495.417326 129.174836 
L 511.391934 110.719891 
L 548.90788 130.454041 
L 496.216057 128.252089 
L 513.267731 111.706599 
L 546.273289 130.343943 
L 497.06864 127.424814 
L 514.918009 112.638466 
L 543.813056 130.197987 
L 497.961109 126.685497 
L 516.362761 113.516442 
L 541.520459 130.022362 
L 498.881191 126.027044 
L 517.620646 114.341738 
L 539.388496 129.822596 
L 499.818164 125.442779 
L 518.709039 115.115781 
L 537.409979 129.603605 
L 500.762708 124.926429 
L 519.644086 115.840172 
L 535.577615 129.369747 
L 501.706777 124.472116 
L 520.440762 116.516651 
L 533.884074 129.124865 
L 502.643476 124.074343 
L 521.112928 117.147061 
L 532.322044 128.872339 
L 503.566949 123.727979 
L 521.673383 117.733325 
L 530.884289 128.615121 
L 504.47227 123.428246 
L 522.133929 118.277415 
L 529.563688 128.355777 
L 505.355353 123.170704 
L 522.505417 118.781333 
L 528.353271 128.096523 
L 506.212856 122.951236 
L 522.797809 119.247093 
L 527.24625 127.839259 
L 507.042104 122.766029 
L 523.020231 119.676701 
L 526.236043 127.585598 
L 507.84101 122.611562 
L 523.181022 120.072146 
L 525.316292 127.336896 
L 508.608011 122.484591 
L 523.287786 120.435383 
L 524.480877 127.094281 
L 509.342 122.382131 
L 523.34744 120.768328 
L 523.723934 126.858673 
L 510.042272 122.301441 
L 523.366265 121.072845 
L 523.039851 126.630812 
L 510.708471 122.240011 
L 523.349944 121.350744 
L 522.423282 126.411271 
L 511.340545 122.195548 
L 523.303611 121.60377 
L 521.869145 126.200485 
L 511.938698 122.165959 
L 523.231888 121.833606 
L 521.372622 125.998759 
L 512.503358 122.149341 
L 523.138924 122.041864 
L 520.929159 125.806288 
L 513.035136 122.143967 
L 523.028436 122.230085 
L 520.534458 125.623172 
L 513.534801 122.148273 
L 522.903737 122.399739 
L 520.184475 125.449427 
L 514.003248 122.160847 
L 522.767774 122.552224 
L 519.875414 125.284998 
L 514.441474 122.180415 
L 522.623156 122.688862 
L 519.603717 125.129769 
L 514.850558 122.205838 
L 522.472184 122.810908 
L 519.366059 124.983572 
L 515.23164 122.236091 
L 522.316878 122.919541 
L 519.159338 124.846198 
L 515.585902 122.270264 
L 522.159001 123.015874 
L 518.980666 124.717402 
L 515.914557 122.307544 
L 522.000084 123.10095 
L 518.827361 124.596909 
L 516.218833 122.347214 
L 521.841448 123.175748 
L 518.696934 124.484424 
L 516.499964 122.388641 
L 521.684222 123.241182 
L 518.587086 124.379635 
L 516.759177 122.431268 
L 521.529365 123.298105 
L 518.49569 124.282217 
L 516.997686 122.47461 
L 521.377682 123.34731 
L 518.42079 124.191836 
L 517.216686 122.518245 
L 521.229837 123.389536 
L 518.360585 124.108157 
L 517.417343 122.56181 
L 521.086375 123.425467 
L 518.313423 124.030839 
L 517.600795 122.604992 
L 520.947727 123.455736 
L 518.277791 123.959547 
L 517.768142 122.64753 
L 520.81423 123.480927 
L 518.252309 123.893946 
L 517.920446 122.6892 
L 520.686134 123.501578 
L 518.235716 123.833709 
L 518.05873 122.729818 
L 520.563613 123.518184 
L 518.226866 123.778514 
L 518.183975 122.769237 
L 520.446776 123.531201 
L 518.224722 123.72805 
L 518.297115 122.807335 
L 520.335673 123.541043 
L 518.228342 123.682015 
L 518.399042 122.84402 
L 520.230307 123.548092 
L 518.236877 123.640115 
L 518.490606 122.879224 
L 520.130635 123.552693 
L 518.249563 123.60207 
L 518.572607 122.912897 
L 520.036581 123.555162 
L 518.265715 123.567612 
L 518.645806 122.945011 
L 519.948038 123.555784 
L 518.28472 123.536482 
L 518.710917 122.975549 
L 519.864872 123.554819 
L 518.30603 123.508435 
L 518.768615 123.004513 
L 519.78693 123.5525 
L 518.329159 123.483239 
L 518.819531 123.031912 
L 519.714042 123.549037 
L 518.353678 123.460673 
L 518.864257 123.057768 
L 519.646023 123.544619 
L 518.379206 123.440527 
L 518.903345 123.082111 
L 519.582682 123.539414 
L 518.405413 123.422607 
L 518.937312 123.104976 
L 519.523819 123.533574 
L 518.432008 123.406725 
L 518.966637 123.126406 
L 519.469228 123.527231 
L 518.45874 123.392709 
L 518.991767 123.146447 
L 519.418704 123.520505 
L 518.485391 123.380396 
L 519.013114 123.16515 
L 519.372038 123.5135 
L 518.511777 123.369634 
L 519.03106 123.182568 
L 519.329025 123.506306 
L 518.537741 123.36028 
L 519.045958 123.198754 
L 519.289461 123.499005 
L 518.563152 123.352204 
L 519.058133 123.213767 
L 519.253146 123.491665 
L 518.587901 123.345282 
L 519.067884 123.227662 
L 519.219883 123.484346 
L 518.6119 123.339401 
L 519.075484 123.240496 
L 519.189484 123.477099 
L 518.63508 123.334456 
L 519.081184 123.252326 
L 519.161764 123.469966 
L 518.657385 123.330349 
L 519.085213 123.263208 
L 519.136545 123.462986 
L 518.678776 123.326992 
L 519.087779 123.273197 
L 519.113657 123.456186 
L 518.699226 123.324303 
L 519.089073 123.282347 
L 519.092935 123.449592 
L 518.718719 123.322205 
L 519.089266 123.290709 
L 519.074224 123.443222 
L 518.737246 123.32063 
L 519.088514 123.298334 
L 519.057375 123.437093 
L 518.754809 123.319515 
L 519.086957 123.305272 
L 519.042247 123.431214 
L 518.771417 123.318803 
L 519.084722 123.311569 
L 519.028706 123.425593 
L 518.787082 123.318441 
L 519.081921 123.317271 
L 518.964838 123.352551 
" clip-path="url(#pdc1a7070f0)" style="fill: none; stroke: #0000ff; stroke-opacity: 0.7; stroke-width: 0.5; stroke-linecap: square"/>
   </g>
   <g id="line2d_7">
    <path d="M 141.971698 109.835692 
L 42.141581 103.059338 
L -1 72.636221 
M 194.556041 -1 
L 161.272087 88.097972 
L 136.980192 109.496874 
L 29.182593 93.920757 
L -1 71.379749 
M 193.9471 -1 
L 160.057492 89.167917 
L 131.590312 108.718068 
L 16.896697 84.745387 
L -1 70.555312 
M 193.1743 -1 
L 158.634133 90.145425 
L 125.855632 107.519434 
L 5.274854 75.530568 
L -1 70.235999 
M 192.236791 -1 
L 156.995208 91.014125 
L 119.826593 105.919991 
L -1 67.75881 
M 191.137035 -1 
L 155.136778 91.759419 
L 113.550655 103.937835 
L -1 62.428218 
M 189.880301 -1 
L 153.057471 92.368339 
L 107.072427 101.590325 
L -1 57.699988 
M 188.474214 -1 
L 150.758219 92.829439 
L 100.433789 98.894244 
L -1 53.452892 
M 186.928331 -1 
L 148.241998 93.132679 
L 93.674007 95.865927 
L -1 49.601445 
M 185.253765 -1 
L 145.513598 93.269341 
L 86.829832 92.521374 
L -1 46.085019 
M 183.462852 -1 
L 142.57941 93.231943 
L 79.935605 88.87634 
L -1 42.860727 
M 181.568856 -1 
L 139.44722 93.014163 
L 73.023344 84.946401 
L -1 39.89866 
M 179.585719 -1 
L 136.126026 92.610775 
L 66.122832 80.747017 
L -1 37.178629 
M 177.527856 -1 
L 132.625866 92.017587 
L 59.261702 76.293564 
L -1 34.687921 
M 175.409993 -1 
L 128.957658 91.231386 
L 52.465521 71.601372 
L -1 32.419734 
M 173.247052 -1 
L 125.133051 90.249885 
L 45.757862 66.685736 
L -1 30.372105 
M 171.054079 -1 
L 121.164292 89.071678 
L 39.160384 61.561926 
L -1 28.54719 
M 168.846225 -1 
L 117.064096 87.69619 
L 32.692906 56.245192 
L -1 26.950827 
M 166.638782 -1 
L 112.845537 86.12364 
L 26.373478 50.750752 
L -1 25.592309 
M 164.447282 -1 
L 108.521934 84.354996 
L 20.218454 45.093787 
L -1 24.484359 
M 162.287663 -1 
L 104.10676 82.391935 
L 14.24256 39.289417 
L -1 23.643277 
M 160.176538 -1 
L 99.61355 80.236809 
L 8.458967 33.352691 
L -1 23.08928 
M 158.131569 -1 
L 95.055821 77.892603 
L 2.879353 27.298555 
L -1 22.847034 
M 156.172008 -1 
L 90.446997 75.362901 
L -1 22.008844 
M 154.31945 -1 
L 85.800346 72.651848 
L -1 18.994592 
M 152.598915 -1 
L 81.128915 69.764115 
L -1 16.117012 
M 151.040383 -1 
L 76.44548 66.704868 
L -1 13.368603 
M 149.681075 -1 
L 71.762498 63.479724 
L -1 10.74357 
M 148.568873 -1 
L 67.092061 60.094726 
L -1 8.2376 
M 147.767654 -1 
L 62.445863 56.556304 
L -1 5.847694 
M 147.365895 -1 
L 57.835168 52.871242 
L -1 3.572031 
M 146.466184 -1 
L 146.422484 -0.432343 
L 53.270777 49.046644 
L -1 1.40988 
M 142.083171 -1 
L 141.764898 2.041606 
L 48.76301 45.089903 
L -1 -0.638476 
M 137.806007 -1 
L 137.114804 4.194021 
L 44.321685 41.008666 
L 0.634567 -1 
M 133.617878 -1 
L 132.475148 6.034753 
L 39.9561 36.810807 
L 2.367814 -1 
M 129.50294 -1 
L 127.849196 7.573556 
L 35.675025 32.504387 
L 3.831246 -1 
M 125.44602 -1 
L 123.240487 8.820098 
L 31.486686 28.097633 
L 5.046189 -1 
M 121.432319 -1 
L 118.652797 9.783974 
L 27.398769 23.598901 
L 6.030989 -1 
M 117.447114 -1 
L 114.090096 10.474721 
L 23.418406 19.016649 
L 6.801513 -1 
M 113.475439 -1 
L 109.556511 10.901817 
L 19.552183 14.35941 
L 7.371532 -1 
M 109.501741 -1 
L 105.056295 11.074697 
L 15.806133 9.635762 
L 7.75304 -1 
M 105.509493 -1 
L 100.593787 11.00275 
L 12.185749 4.854302 
L 7.956501 -1 
M 101.480736 -1 
L 96.173385 10.695328 
L 8.695982 0.023621 
L 7.991049 -1 
M 97.395531 -1 
L 91.799515 10.161742 
L 27.50509 -1 
M 93.231282 -1 
L 87.476602 9.411269 
L 41.104042 -1 
M 88.961868 -1 
L 83.209044 8.453145 
L 48.816741 -1 
M 84.556524 -1 
L 79.001191 7.296565 
L 53.456674 -1 
M 79.978343 -1 
L 74.857317 5.950682 
L 56.294075 -1 
M 75.182247 -1 
L 70.781603 4.424602 
L 57.985816 -1 
M 70.112172 -1 
L 66.778118 2.727378 
L 58.905241 -1 
M 64.697066 -1 
L 62.850799 0.868007 
L 59.279824 -1 
L 59.279824 -1 
" clip-path="url(#pdc1a7070f0)" style="fill: none; stroke: #0000ff; stroke-opacity: 0.7; stroke-width: 0.5; stroke-linecap: square"/>
   </g>
  </g>
 </g>
 <defs>
  <clipPath id="pdc1a7070f0">
   <rect x="0" y="0" width="558" height="277.2"/>
  </clipPath>
 </defs>
</svg>
