<?xml version="1.0" encoding="utf-8" standalone="no"?>
<!DOCTYPE svg PUBLIC "-//W3C//DTD SVG 1.1//EN"
  "http://www.w3.org/Graphics/SVG/1.1/DTD/svg11.dtd">
<svg xmlns:xlink="http://www.w3.org/1999/xlink" width="307.8pt" height="306pt" viewBox="0 0 307.8 306" xmlns="http://www.w3.org/2000/svg" version="1.1">
 <metadata>
  <rdf:RDF xmlns:dc="http://purl.org/dc/elements/1.1/" xmlns:cc="http://creativecommons.org/ns#" xmlns:rdf="http://www.w3.org/1999/02/22-rdf-syntax-ns#">
   <cc:Work>
    <dc:type rdf:resource="http://purl.org/dc/dcmitype/StillImage"/>
    <dc:date>2025-03-22T07:30:34.278301</dc:date>
    <dc:format>image/svg+xml</dc:format>
    <dc:creator>
     <cc:Agent>
      <dc:title>Matplotlib v3.8.4, https://matplotlib.org/</dc:title>
     </cc:Agent>
    </dc:creator>
   </cc:Work>
  </rdf:RDF>
 </metadata>
 <defs>
  <style type="text/css">*{stroke-linejoin: round; stroke-linecap: butt}</style>
 </defs>
 <g id="figure_1">
  <g id="patch_1">
   <path d="M 0 306 
L 307.8 306 
L 307.8 0 
L 0 0 
L 0 306 
z
" style="fill: none"/>
  </g>
  <g id="axes_1">
   <g id="line2d_1">
    <path d="M 308.8 84.276859 
L 300.987644 84.201758 
L 113.02513 -1 
M 308.8 79.833032 
L 290.175305 79.300619 
L 119.072621 -1 
M 308.8 75.618218 
L 279.340463 74.215693 
L 124.149443 -1 
M 308.8 71.650562 
L 268.512596 68.967802 
L 128.428107 -1 
M 308.8 67.941884 
L 257.71858 63.57653 
L 132.041627 -1 
M 308.8 64.498755 
L 246.983043 58.060294 
L 135.093882 -1 
M 308.8 61.323446 
L 236.32867 52.436421 
L 137.666753 -1 
M 308.8 58.414777 
L 225.776451 46.721219 
L 139.825154 -1 
M 308.8 55.768857 
L 215.345892 40.930045 
L 141.620674 -1 
M 308.8 53.379723 
L 205.055183 35.077367 
L 143.094272 -1 
M 308.8 51.239883 
L 194.921335 29.176832 
L 144.278309 -1 
M 308.8 49.340783 
L 184.9603 23.241316 
L 145.198114 -1 
M 308.8 47.673193 
L 175.187051 17.282981 
L 145.873211 -1 
M 308.8 46.227537 
L 165.615657 11.313323 
L 146.318282 -1 
M 308.8 44.994159 
L 156.259335 5.343215 
L 146.543956 -1 
M 308.8 43.963548 
L 147.130491 -0.617049 
L 146.557435 -1 
M 308.8 43.126517 
L 157.319641 -1 
M 308.8 42.474353 
L 167.008804 -1 
M 308.8 41.998934 
L 175.135406 -1 
M 308.8 41.692824 
L 181.95688 -1 
M 308.8 41.549351 
L 187.678689 -1 
M 308.8 40.753042 
L 307.886164 41.228325 
L 192.466415 -1 
M 308.8 32.131954 
L 297.378496 37.383912 
L 196.454632 -1 
M 308.8 24.64486 
L 287.033567 33.449472 
L 199.753505 -1 
M 308.8 18.142139 
L 276.858224 29.433261 
L 202.453775 -1 
M 308.8 12.498507 
L 266.859258 25.343436 
L 204.630573 -1 
M 308.8 7.608296 
L 257.043372 21.188051 
L 206.346365 -1 
M 308.8 3.381802 
L 247.417146 16.975037 
L 207.653256 -1 
M 308.8 -0.257582 
L 237.98701 12.712198 
L 208.59481 -1 
M 292.662428 -1 
L 228.759214 8.4072 
L 209.207497 -1 
M 264.439944 -1 
L 219.739801 4.06756 
L 209.521852 -1 
M 219.540596 -1 
L 210.934584 -0.29936 
L 209.563415 -1 
L 209.563415 -1 
" clip-path="url(#p9ea4ce2fa5)" style="fill: none; stroke: #0000ff; stroke-opacity: 0.7; stroke-width: 0.5; stroke-linecap: square"/>
   </g>
   <g id="line2d_2">
    <path d="M 211.887022 173.513476 
L 213.38937 136.12802 
L 300.987644 84.201758 
L 308.8 84.276859 
M 242.50654 307 
L 236.060606 299.153053 
L 225.652904 263.849437 
L 211.962139 171.644204 
L 217.769283 133.531707 
L 308.8 86.850299 
M 243.387165 307 
L 235.540221 297.387872 
L 224.968366 259.239175 
L 212.252497 169.738579 
L 222.567118 131.071333 
L 308.8 92.91743 
M 244.348062 307 
L 235.011628 295.480437 
L 224.332572 254.764145 
L 212.768228 167.805216 
L 227.739648 128.782737 
L 308.8 98.06382 
M 245.374267 307 
L 234.477675 293.444622 
L 223.754355 250.416199 
L 213.516799 165.854092 
L 233.246078 126.696001 
L 308.8 102.474422 
M 246.451932 307 
L 233.941509 291.293201 
L 223.242477 246.188093 
L 214.503263 163.896188 
L 239.047912 124.83601 
L 308.8 106.272385 
M 247.568307 307 
L 233.406557 289.037946 
L 222.805516 242.073498 
L 215.730495 161.943179 
L 245.108834 123.222973 
L 308.8 109.543137 
M 248.711702 307 
L 232.876505 286.689723 
L 222.451765 238.066982 
L 217.199412 160.007169 
L 251.394593 121.872894 
L 308.8 112.348082 
M 249.87144 307 
L 232.355268 284.258586 
L 222.189148 234.163991 
L 218.909171 158.100455 
L 257.872896 120.798002 
L 308.8 114.732745 
M 251.037796 307 
L 231.846962 281.753857 
L 222.025149 230.360815 
L 220.857357 156.235332 
L 264.513314 120.007149 
L 308.8 116.731813 
M 252.20193 307 
L 231.355872 279.184205 
L 221.966759 226.654541 
L 223.040155 154.423923 
L 271.287189 119.506169 
L 308.8 118.372339 
M 253.355808 307 
L 230.886416 276.557721 
L 222.020429 223.04301 
L 225.452507 152.678035 
L 278.167543 119.29821 
L 308.8 119.675836 
M 254.492132 307 
L 230.443117 273.881986 
L 222.192033 219.524761 
L 228.088259 151.009044 
L 285.129005 119.384028 
L 308.8 120.659673 
M 255.604262 307 
L 230.030563 271.164125 
L 222.486844 216.098975 
L 230.940296 149.427793 
L 292.147731 119.762272 
L 308.8 121.338008 
M 256.686137 307 
L 229.653377 268.410867 
L 222.909517 212.765416 
L 234.000668 147.944517 
L 299.201334 120.429725 
L 308.8 121.722429 
M 257.73221 307 
L 229.316184 265.628594 
L 223.464074 209.524371 
L 237.260701 146.568778 
L 306.268818 121.381541 
L 308.8 121.822387 
M 258.737377 307 
L 229.023578 262.823383 
L 224.153906 206.376591 
L 240.711107 145.309416 
L 308.8 124.027509 
M 259.696916 307 
L 228.780095 260.001044 
L 224.981766 203.323233 
L 244.342077 144.174517 
L 308.8 127.164641 
M 260.60643 307 
L 228.590178 257.167153 
L 225.949781 200.365797 
L 248.143374 143.171389 
L 308.8 129.927722 
M 261.461794 307 
L 228.458158 254.327085 
L 227.059461 197.506076 
L 252.104413 142.306542 
L 308.8 132.362544 
M 262.259113 307 
L 228.388223 251.486035 
L 228.311709 194.7461 
L 256.214336 141.585691 
L 308.8 134.505283 
M 262.994676 307 
L 228.384398 248.649038 
L 229.70684 192.088079 
L 260.462082 141.013753 
L 308.8 136.384812 
M 263.664921 307 
L 228.45052 245.82099 
L 231.244602 189.534363 
L 264.836451 140.594854 
L 308.8 138.024377 
M 264.266406 307 
L 228.590224 243.006659 
L 232.924194 187.087388 
L 269.32616 140.332348 
L 308.8 139.442833 
M 264.795772 307 
L 228.806922 240.210695 
L 234.744293 184.749636 
L 273.919896 140.228831 
L 308.8 140.655564 
M 265.249721 307 
L 229.103791 237.437642 
L 236.703073 182.523595 
L 278.606365 140.286167 
L 308.8 141.675171 
M 265.62499 307 
L 229.483755 234.69194 
L 238.798238 180.411724 
L 283.374336 140.505509 
L 308.8 142.512003 
M 265.918324 307 
L 229.949479 231.977929 
L 241.027042 178.416413 
L 288.212676 140.887332 
L 308.8 143.174552 
M 266.12645 307 
L 230.503357 229.299853 
L 243.386324 176.539959 
L 293.110393 141.43146 
L 308.8 143.669763 
M 266.246057 307 
L 231.147506 226.661859 
L 245.872528 174.784534 
L 298.056661 142.137103 
L 308.8 144.003273 
M 266.273764 307 
L 231.883757 224.067992 
L 248.481734 173.152163 
L 303.040854 143.002881 
L 308.8 144.179584 
M 268.301954 307 
L 265.045751 304.038628 
L 232.713656 221.522201 
L 251.20969 171.644698 
L 308.052568 144.02687 
L 308.8 144.202208 
M 270.979151 307 
L 263.429146 299.912807 
L 233.638457 219.028326 
L 254.051834 170.263807 
L 308.8 147.024114 
M 273.42889 307 
L 261.939612 295.868583 
L 234.659126 216.5901 
L 257.003325 169.010948 
L 308.8 149.965496 
M 275.670352 307 
L 260.575588 291.904659 
L 235.776336 214.211142 
L 260.059068 167.887362 
L 308.8 152.540468 
M 277.720078 307 
L 259.335625 288.019983 
L 236.990473 211.894953 
L 263.213746 166.894059 
L 308.8 154.792591 
M 279.592351 307 
L 258.218368 284.213731 
L 238.301636 209.644909 
L 266.461838 166.031811 
L 308.8 156.758147 
M 281.299527 307 
L 257.222531 280.48529 
L 239.709646 207.464254 
L 269.797654 165.30114 
L 308.8 158.467499 
M 282.852297 307 
L 256.346887 276.834238 
L 241.214047 205.356098 
L 273.21535 164.702322 
L 308.8 159.946173 
M 284.259912 307 
L 255.590245 273.260331 
L 242.814112 203.323409 
L 276.708963 164.235375 
L 308.8 161.2157 
M 285.530372 307 
L 254.951438 269.763485 
L 244.508855 201.369008 
L 280.272423 163.900064 
L 308.8 162.294296 
M 286.670582 307 
L 254.429309 266.343761 
L 246.297033 199.49556 
L 283.899584 163.695897 
L 308.8 163.197402 
M 287.686483 307 
L 254.022695 263.001351 
L 248.177161 197.705577 
L 287.584243 163.622132 
L 308.8 163.938122 
M 288.583162 307 
L 253.730418 259.736563 
L 250.147515 196.001405 
L 291.320158 163.677775 
L 308.8 164.527579 
M 289.364949 307 
L 253.551273 256.549805 
L 252.206147 194.385223 
L 295.101071 163.861589 
L 308.8 164.975201 
M 290.035488 307 
L 253.484017 253.441576 
L 254.350893 192.859042 
L 298.920724 164.172096 
L 308.8 165.288957 
M 290.597808 307 
L 253.527361 250.412449 
L 256.579385 191.424694 
L 302.772881 164.607586 
L 308.8 165.475553 
M 291.054373 307 
L 253.679962 247.463061 
L 258.889059 190.083839 
L 306.651339 165.166124 
L 308.8 165.540584 
M 291.407127 307 
L 253.940417 244.5941 
L 261.277173 188.837953 
L 308.8 166.662145 
M 291.657526 307 
L 254.307255 241.806293 
L 263.740812 187.688333 
L 308.8 168.992989 
M 291.806567 307 
L 254.778932 239.100395 
L 266.276903 186.636093 
L 308.8 171.066399 
M 291.854806 307 
L 255.353831 236.47718 
L 268.882226 185.682162 
L 308.8 172.907124 
M 293.077893 307 
L 290.884428 305.125152 
L 256.030251 233.937429 
L 271.553429 184.827287 
L 308.8 174.53658 
M 295.304442 307 
L 289.141719 301.565766 
L 256.80641 231.481922 
L 274.287034 184.07203 
L 308.8 175.973352 
M 297.349979 307 
L 287.524954 298.061574 
L 257.680441 229.111427 
L 277.079456 183.416772 
L 308.8 177.233614 
M 299.226771 307 
L 286.032728 294.614067 
L 258.650392 226.826694 
L 279.927008 182.86171 
L 308.8 178.331471 
M 300.945721 307 
L 284.663611 291.224698 
L 259.714222 224.628445 
L 282.825919 182.406864 
L 308.8 179.279246 
M 302.516531 307 
L 283.416142 287.894885 
L 260.869807 222.517366 
L 285.772342 182.052076 
L 308.8 180.087717 
M 303.947835 307 
L 282.288825 284.626009 
L 262.114934 220.494102 
L 288.762365 181.797014 
L 308.8 180.766318 
M 305.247321 307 
L 281.280131 281.419414 
L 263.447306 218.559247 
L 291.792026 181.641174 
L 308.8 181.323305 
M 306.42183 307 
L 280.388489 278.276406 
L 264.864542 216.713344 
L 294.85732 181.583886 
L 308.8 181.7659 
M 307.477442 307 
L 279.612292 275.198253 
L 266.364181 214.956871 
L 297.954209 181.624314 
L 308.8 182.100405 
M 308.419552 307 
L 278.949886 272.186183 
L 267.943682 213.290243 
L 301.07864 181.761465 
L 308.8 182.332308 
M 308.8 306.445701 
L 278.399576 269.241386 
L 269.60043 211.713804 
L 304.226543 181.994191 
L 308.8 182.466369 
M 308.8 305.500364 
L 277.959619 266.365007 
L 271.331736 210.227823 
L 307.393854 182.321194 
L 308.8 182.506685 
M 308.8 304.616236 
L 277.628225 263.558148 
L 273.134841 208.832492 
L 308.8 183.979005 
M 308.8 303.796858 
L 277.403556 260.821865 
L 275.006925 207.527919 
L 308.8 186.364902 
M 308.8 303.046653 
L 277.283724 258.157168 
L 276.945103 206.314129 
L 308.8 188.438418 
M 308.8 302.371119 
L 277.266793 255.565016 
L 278.946434 205.191061 
L 308.8 190.238918 
M 308.8 301.777071 
L 277.350775 253.046318 
L 281.007929 204.158562 
L 308.8 191.79916 
M 308.8 301.272972 
L 277.533633 250.60193 
L 283.126546 203.216393 
L 308.8 193.146589 
M 308.8 300.869362 
L 277.813278 248.232654 
L 285.299205 202.364219 
L 308.8 194.304339 
M 308.8 300.579452 
L 278.187575 245.939232 
L 287.522786 201.601615 
L 308.8 195.292017 
M 308.8 300.419921 
L 278.654335 243.722351 
L 289.79414 200.928062 
L 308.8 196.12632 
M 308.8 300.412042 
L 279.211325 241.582637 
L 292.110089 200.342949 
L 308.8 196.821523 
M 308.8 298.758871 
L 307.390228 297.609077 
L 279.856264 239.520652 
L 294.467431 199.84557 
L 308.8 197.389875 
M 308.8 297.06086 
L 306.01353 294.704655 
L 280.586822 237.536898 
L 296.862951 199.435129 
L 308.8 197.841911 
M 308.8 295.402932 
L 304.742195 291.846267 
L 281.400628 235.63181 
L 299.293421 199.110739 
L 308.8 198.186718 
M 308.8 293.782031 
L 303.575117 289.035545 
L 282.295268 233.805756 
L 301.755608 198.871419 
L 308.8 198.432137 
M 308.8 292.195228 
L 302.511124 286.274055 
L 283.268285 232.059039 
L 304.246275 198.716103 
L 308.8 198.584941 
M 308.8 290.639691 
L 301.548982 283.563304 
L 284.317185 230.391892 
L 306.762191 198.643637 
L 308.8 198.650978 
M 308.8 289.112664 
L 300.687392 280.904734 
L 285.439435 228.80448 
L 308.8 199.284779 
M 308.8 287.611444 
L 299.924994 278.299721 
L 286.63247 227.296895 
L 308.8 202.202697 
M 308.8 286.133346 
L 299.260368 275.74958 
L 287.893691 225.86916 
L 308.8 204.629562 
M 308.8 284.675679 
L 298.692034 273.255559 
L 289.220472 224.521229 
L 308.8 206.652618 
M 308.8 283.235709 
L 298.218456 270.818842 
L 290.610156 223.252979 
L 308.8 208.339399 
M 308.8 281.810624 
L 297.838041 268.440549 
L 292.060066 222.06422 
L 308.8 209.742958 
M 308.8 280.397484 
L 297.549142 266.121733 
L 293.5675 220.954687 
L 308.8 210.905511 
M 308.8 278.993171 
L 297.35006 263.86338 
L 295.129742 219.924046 
L 308.8 211.861037 
M 308.8 277.594321 
L 297.239044 261.666414 
L 296.744057 218.971889 
L 308.8 212.637162 
M 308.8 276.197241 
L 297.214295 259.531687 
L 298.407699 218.097737 
L 308.8 213.25654 
M 308.8 274.797809 
L 297.273965 257.45999 
L 300.117913 217.301043 
L 308.8 213.737898 
M 308.8 273.391331 
L 297.416163 255.452043 
L 301.871938 216.581188 
L 308.8 214.096819 
M 308.8 271.972374 
L 297.638951 253.5085 
L 303.667008 215.937485 
L 308.8 214.346347 
M 308.8 270.534524 
L 297.940354 251.629949 
L 305.50036 215.369178 
L 308.8 214.497455 
M 308.8 269.070067 
L 298.318355 249.816911 
L 307.369234 214.875445 
L 308.8 214.559409 
M 308.8 267.569541 
L 298.770898 248.069837 
L 308.8 215.962846 
M 308.8 266.021109 
L 299.295897 246.389115 
L 308.8 220.621791 
M 308.8 264.409644 
L 299.891229 244.775064 
L 308.8 224.002277 
M 308.8 262.715363 
L 300.554742 243.227936 
L 308.8 226.500157 
M 308.8 260.911751 
L 301.284255 241.747917 
L 308.8 228.363241 
M 308.8 258.962253 
L 302.077563 240.335127 
L 308.8 229.754507 
M 308.8 256.814843 
L 302.932435 238.989621 
L 308.8 230.785478 
M 308.8 254.392629 
L 303.846622 237.711388 
L 308.8 231.534982 
M 308.8 251.576712 
L 304.817852 236.500353 
L 308.8 232.060267 
M 308.8 248.172602 
L 305.843841 235.356377 
L 308.8 232.403864 
M 308.8 243.838311 
L 306.92229 234.279258 
L 308.8 232.59799 
M 308.8 237.911133 
L 308.050888 233.268732 
L 308.8 232.667456 
L 308.8 232.667456 
" clip-path="url(#p9ea4ce2fa5)" style="fill: none; stroke: #0000ff; stroke-opacity: 0.7; stroke-width: 0.5; stroke-linecap: square"/>
   </g>
   <g id="line2d_3">
    <path d="M 236.060606 299.153053 
L -1 180.023376 
M 230.895037 307 
L 214.244713 288.189948 
L -1 190.950088 
M 220.015109 307 
L 193.129324 278.650771 
L -1 200.639769 
M 209.71135 307 
L 172.727839 270.45242 
L -1 209.186105 
M 199.869318 307 
L 153.052351 263.513724 
L -1 216.676127 
M 190.402824 307 
L 134.113443 257.755597 
L -1 223.189467 
M 181.245398 307 
L 115.920019 253.101166 
L -1 228.79788 
M 172.344404 307 
L 98.479188 249.475871 
L -1 233.564945 
M 163.656847 307 
L 81.796171 246.807552 
L -1 237.54587 
M 155.146278 307 
L 65.874257 245.026507 
L -1 240.787327 
M 146.780436 307 
L 50.714773 244.065543 
L -1 243.327269 
M 138.529331 307 
L 36.317085 243.860003 
L -1 245.19467 
M 130.363592 307 
L 22.678622 244.347791 
L -1 246.409114 
M 122.25291 307 
L 9.794913 245.469372 
L -1 246.980183 
M 114.164429 307 
L -1 247.856127 
M 106.060916 307 
L -1 255.513118 
M 97.8985 307 
L -1 262.587884 
M 89.623681 307 
L -1 269.127415 
M 81.169155 307 
L -1 275.173014 
M 72.447726 307 
L -1 280.761238 
M 63.343028 307 
L -1 285.924632 
M 53.694841 307 
L -1 290.692299 
M 43.274808 307 
L -1 295.090346 
M 31.744194 307 
L -1 299.142247 
M 18.575998 307 
L -1 302.869118 
M 2.900418 307 
L -1 306.289951 
L -1 306.289951 
" clip-path="url(#p9ea4ce2fa5)" style="fill: none; stroke: #0000ff; stroke-opacity: 0.7; stroke-width: 0.5; stroke-linecap: square"/>
   </g>
   <g id="line2d_4">
    <path d="M 107.300351 121.262234 
L -1 25.979865 
M -1 180.023376 
L 236.060606 299.153053 
L 225.652904 263.849437 
L 94.25178 109.782136 
L -1 30.342133 
M -1 179.37887 
L 235.540221 297.387872 
L 219.082848 256.146072 
L 81.739173 99.346619 
L -1 33.953211 
M -1 178.719261 
L 234.717352 295.325782 
L 212.215664 248.306099 
L 69.796094 89.907334 
L -1 36.934011 
M -1 178.057325 
L 233.592268 292.974798 
L 205.094685 240.386161 
L 58.448619 81.416562 
L -1 39.37889 
M -1 177.406372 
L 232.167388 290.345366 
L 197.762382 232.437681 
L 47.716103 73.82732 
L -1 41.360852 
M -1 176.780097 
L 230.447138 287.449982 
L 190.260068 224.507163 
L 37.611883 67.093441 
L -1 42.935284 
M -1 176.19249 
L 228.437785 284.302841 
L 182.627659 216.636477 
L 28.143923 61.169656 
L -1 44.142529 
M -1 175.657815 
L 226.147278 280.919522 
L 174.903472 208.863136 
L 19.315407 56.011659 
L -1 45.009514 
M -1 175.190647 
L 223.585088 277.316703 
L 167.124069 201.220562 
L 11.125281 51.576161 
L -1 45.550498 
M -1 174.805976 
L 220.762037 273.511896 
L 159.324129 193.738342 
L 3.568752 47.820941 
L -1 45.766914 
M -1 174.519376 
L 217.690142 269.523218 
L 151.536361 186.442472 
L -1 46.866436 
M -1 174.34724 
L 214.382453 265.369181 
L 143.791429 179.355592 
L -1 49.944827 
M -1 174.307108 
L 210.852901 261.068502 
L 136.117923 172.497214 
L -1 52.797144 
M -1 167.236527 
L 6.675669 177.450571 
L 207.116153 256.639937 
L 128.542325 165.883932 
L -1 55.442876 
M -1 159.151545 
L 16.697693 181.410039 
L 203.187461 252.102137 
L 121.08902 159.529631 
L -1 57.899908 
M -1 152.644103 
L 26.022181 184.944644 
L 199.082539 247.473512 
L 113.780299 153.445683 
L -1 60.184637 
M -1 147.3567 
L 34.675199 188.071087 
L 194.817427 242.77212 
L 106.636394 147.641132 
L -1 62.312089 
M -1 143.028928 
L 42.682311 190.806139 
L 190.408375 238.015571 
L 99.675515 142.122877 
L -1 64.296032 
M -1 139.467053 
L 50.068614 193.166611 
L 185.871732 233.220936 
L 92.913899 136.895834 
L -1 66.149082 
M -1 136.524351 
L 56.85877 195.169327 
L 181.223841 228.404681 
L 86.365869 131.963104 
L -1 67.882807 
M -1 134.088007 
L 63.077023 196.831095 
L 176.480942 223.582602 
L 80.043899 127.326125 
L -1 69.507822 
M -1 132.070168 
L 68.747219 198.16867 
L 171.65909 218.769778 
L 73.958682 122.984812 
L -1 71.033881 
M -1 130.401678 
L 73.892813 199.198725 
L 166.77407 213.98053 
L 68.119209 118.937702 
L -1 72.46996 
M -1 129.02762 
L 78.536876 199.937816 
L 161.841327 209.228389 
L 62.532846 115.182079 
L -1 73.824341 
M -1 127.90407 
L 82.702098 200.402344 
L 156.875903 204.526073 
L 57.205414 111.714101 
L -1 75.104689 
M -1 126.995717 
L 86.410788 200.608531 
L 151.892378 199.885474 
L 52.141274 108.528913 
L -1 76.318126 
M -1 126.274077 
L 89.684868 200.572378 
L 146.904823 195.317646 
L 47.343408 105.620758 
L -1 77.471312 
M -1 125.716154 
L 92.545866 200.309641 
L 141.926752 190.832802 
L 42.813508 102.983083 
L -1 78.570516 
M -1 125.303411 
L 95.01491 199.835799 
L 136.97109 186.440316 
L 38.552054 100.608632 
L -1 79.621702 
M -1 125.020992 
L 97.112719 199.166025 
L 132.050138 182.148732 
L 34.558405 98.489541 
L -1 80.630616 
M -1 124.857123 
L 98.85959 198.31516 
L 127.175552 177.965772 
L 30.830877 96.617419 
L -1 81.602891 
M -1 124.802648 
L 100.275388 197.297691 
L 122.358318 173.898355 
L 27.366823 94.983435 
L -1 82.544168 
M -1 122.726401 
L 1.449086 126.555756 
L 101.379534 196.127724 
L 117.608743 169.952609 
L 24.162716 93.578388 
L -1 83.460253 
M -1 119.174726 
L 6.445609 130.034354 
L 102.190995 194.818968 
L 112.936442 166.133898 
L 21.214226 92.392776 
L -1 84.357328 
M -1 116.472794 
L 11.232878 133.273585 
L 102.728267 193.384715 
L 108.350331 162.446841 
L 18.516292 91.416865 
L -1 85.242236 
M -1 114.383719 
L 15.807648 136.279141 
L 103.00937 191.837821 
L 103.858629 158.895343 
L 16.063198 90.640747 
L -1 86.122906 
M -1 112.751036 
L 20.167734 139.057075 
L 103.051833 190.190697 
L 99.468857 155.482613 
L 13.848642 90.054396 
L -1 87.008983 
M -1 111.467322 
L 24.311939 141.613756 
L 102.872685 188.455293 
L 95.187847 152.211202 
L 11.865802 89.647722 
L -1 87.91285 
M -1 110.456453 
L 28.239976 143.955833 
L 102.488443 186.643089 
L 91.021744 149.083028 
L 10.107405 89.410613 
L -1 88.851306 
M -1 109.66305 
L 31.952399 146.090196 
L 101.915108 184.765086 
L 86.976027 146.099407 
L 8.565783 89.332985 
L -1 89.848536 
M -1 109.04593 
L 35.450535 148.023941 
L 101.168154 182.831802 
L 83.055515 143.261086 
L 7.232936 89.40482 
L -1 90.941678 
M -1 108.573895 
L 38.736416 149.764334 
L 100.262522 180.853266 
L 79.264386 140.568273 
L 6.100585 89.616198 
L -1 92.192121 
M -1 108.222946 
L 41.812721 151.31878 
L 99.212615 178.839016 
L 75.606196 138.020669 
L 5.160228 89.957337 
L -1 93.7109 
M -1 107.974383 
L 44.682716 152.694792 
L 98.032294 176.798099 
L 72.083898 135.617502 
L 4.403188 90.418618 
L -1 95.724105 
M -1 107.813485 
L 47.350195 153.899957 
L 96.734874 174.739069 
L 68.699862 133.357558 
L 3.820657 90.990616 
L -1 98.778187 
M -1 107.728573 
L 49.819429 154.941913 
L 95.333124 172.669993 
L 65.455902 131.239211 
L 3.403747 91.664116 
L -1 104.627651 
M -1 107.710332 
L 52.095113 155.828317 
L 93.839263 170.598454 
L 62.353294 129.260456 
L 3.143525 92.430145 
L 0.894096 109.426876 
L 54.182321 156.566824 
L 92.264964 168.531554 
L 59.392806 127.418941 
L 3.031054 93.279982 
L 3.558508 111.783873 
L 56.086453 157.16506 
L 90.621356 166.475924 
L 56.574718 125.711993 
L 3.057426 94.205176 
L 6.184905 114.052933 
L 57.813198 157.630604 
L 88.919024 164.437727 
L 53.898854 124.136652 
L 3.2138 95.197564 
L 8.76632 116.231816 
L 59.368489 157.97096 
L 87.168016 162.422673 
L 51.364601 122.689698 
L 3.491426 96.249277 
L 11.296428 118.318773 
L 60.758466 158.193545 
L 85.377845 160.436025 
L 48.970942 121.367677 
L 3.881676 97.352752 
L 13.76953 120.312512 
L 61.989435 158.305669 
L 83.5575 158.482607 
L 46.716479 120.16693 
L 4.376069 98.50074 
L 16.180525 122.21217 
L 63.067838 158.314516 
L 81.715449 156.566823 
L 44.599458 119.083621 
L 4.966292 99.686311 
L 18.524891 124.017287 
L 64.000219 158.227132 
L 79.859649 154.692663 
L 42.6178 118.113755 
L 5.644222 100.90286 
L 20.798657 125.727779 
L 64.79319 158.050408 
L 77.997557 152.863718 
L 40.769121 117.253211 
L 6.401943 102.144106 
L 22.998384 127.343911 
L 65.453408 157.791074 
L 76.136135 151.083193 
L 39.050762 116.497755 
L 7.231765 103.404096 
L 25.121135 128.866269 
L 65.987545 157.45568 
L 74.281866 149.353921 
L 37.459812 115.843072 
L 8.126234 104.677205 
L 27.164456 130.29574 
L 66.402261 157.050592 
L 72.440764 147.678378 
L 35.993134 115.284779 
L 9.078145 105.958132 
L 29.126346 131.633482 
L 66.704186 156.581981 
L 70.618382 146.058698 
L 34.647384 114.818447 
L 10.080555 107.241899 
L 31.005238 132.880907 
L 66.899896 156.055817 
L 68.819832 144.496686 
L 33.419043 114.439619 
L 11.126789 108.52385 
L 32.799971 134.039653 
L 66.995893 155.47786 
L 67.049793 142.993832 
L 32.30443 114.143831 
L 12.210448 109.79964 
L 34.509767 135.111563 
L 66.998588 154.853659 
L 65.312525 141.551332 
L 31.299731 113.926621 
L 13.325414 111.065236 
L 36.134208 136.098668 
L 66.914285 154.188543 
L 63.611885 140.170097 
L 30.401015 113.783552 
L 14.465854 112.316907 
L 37.673212 137.003162 
L 66.749165 153.48762 
L 61.951342 138.85077 
L 29.604257 113.71022 
L 15.626222 113.55122 
L 39.127009 137.827384 
L 66.509273 152.755778 
L 60.333987 137.593742 
L 28.905355 113.70227 
L 16.801261 114.765028 
L 40.496123 138.573804 
L 66.200509 151.997676 
L 58.762556 136.399168 
L 28.300151 113.755408 
L 17.986004 115.955467 
L 41.781342 139.244998 
L 65.828611 151.217751 
L 57.239435 135.26698 
L 27.784443 113.865411 
L 19.175771 117.119944 
L 42.983705 139.843635 
L 65.399153 150.420212 
L 55.766686 134.196902 
L 27.35401 114.028137 
L 20.366168 118.256128 
L 44.104478 140.372464 
L 64.917529 149.609047 
L 54.346052 133.188464 
L 27.004618 114.239537 
L 21.553083 119.361945 
L 45.14513 140.834293 
L 64.388955 148.788017 
L 52.97898 132.241017 
L 26.732041 114.495657 
L 22.732686 120.435562 
L 46.107322 141.23198 
L 63.818457 147.960667 
L 51.666633 131.353749 
L 26.532073 114.792653 
L 23.901417 121.475383 
L 46.992878 141.568414 
L 63.210865 147.130322 
L 50.409905 130.525694 
L 26.40054 115.126789 
L 25.055991 122.480035 
L 47.803778 141.846509 
L 62.570817 146.30009 
L 49.209437 129.755749 
L 26.333313 115.494451 
L 26.19338 123.448359 
L 48.54213 142.069188 
L 61.902748 145.472873 
L 48.065631 129.042684 
L 26.326316 115.892147 
L 27.310817 124.3794 
L 49.210161 142.239373 
L 61.210893 144.651364 
L 46.978665 128.385157 
L 26.375541 116.316509 
L 28.405785 125.272399 
L 49.810197 142.359972 
L 60.499281 143.838053 
L 45.948509 127.781725 
L 26.477053 116.764304 
L 29.476005 126.126777 
L 50.344651 142.433876 
L 59.771743 143.035237 
L 44.974936 127.230854 
L 26.627001 117.232428 
L 30.519437 126.942132 
L 50.816006 142.463944 
L 59.031902 142.245018 
L 44.057539 126.730933 
L 26.821623 117.717913 
L 31.534266 127.718223 
L 51.226801 142.452998 
L 58.283184 141.469314 
L 43.195744 126.280282 
L 27.057255 118.217928 
L 32.518893 128.454962 
L 51.57962 142.403814 
L 57.528812 140.709862 
L 42.388819 125.877164 
L 27.330337 118.72978 
L 33.471929 129.152404 
L 51.87708 142.319116 
L 56.771812 139.968227 
L 41.635895 125.519795 
L 27.637416 119.250911 
L 34.392187 129.81074 
L 52.121816 142.201572 
L 56.015017 139.245805 
L 40.935971 125.206351 
L 27.975155 119.778903 
L 35.278668 130.430281 
L 52.316476 142.053783 
L 55.261064 138.543833 
L 40.28793 124.934978 
L 28.340331 120.311472 
L 36.130558 131.011457 
L 52.463706 141.878286 
L 54.512408 137.86339 
L 39.69055 124.703803 
L 28.729842 120.846471 
L 36.947216 131.554798 
L 52.566141 141.677541 
L 53.771315 137.205411 
L 39.142515 124.510936 
L 29.140711 121.381887 
L 37.728162 132.060935 
L 52.626399 141.453935 
L 53.039875 136.570687 
L 38.642425 124.354484 
L 29.570083 121.91584 
L 38.473074 132.530585 
L 52.647073 141.209772 
L 52.320002 135.959877 
L 38.188808 124.232552 
L 30.015233 122.446577 
L 39.181774 132.964544 
L 52.63072 140.947277 
L 51.613442 135.37351 
L 37.780129 124.143253 
L 30.47356 122.972475 
L 39.854221 133.363681 
L 52.579856 140.668589 
L 50.921777 134.811998 
L 37.4148 124.084714 
L 30.942593 123.492036 
L 40.490503 133.728927 
L 52.496952 140.375759 
L 50.246428 134.275633 
L 37.09119 124.05508 
L 31.419988 124.00388 
L 41.090825 134.061268 
L 52.384426 140.070753 
L 49.588666 133.764606 
L 36.80763 124.05252 
L 31.90353 124.506749 
L 41.655505 134.361742 
L 52.244638 139.755446 
L 48.949614 133.279001 
L 36.562425 124.075232 
L 32.391129 124.999499 
L 42.184962 134.631428 
L 52.079886 139.431624 
L 48.330255 132.818813 
L 36.35386 124.121445 
L 32.880821 125.481096 
L 42.679708 134.871437 
L 51.892405 139.100983 
L 47.731435 132.383945 
L 36.180208 124.189427 
L 33.370765 125.950613 
L 43.140343 135.082915 
L 51.684356 138.765131 
L 47.153874 131.974219 
L 36.039736 124.277487 
L 33.859244 126.407228 
L 43.567544 135.267025 
L 51.457832 138.425585 
L 46.598167 131.589382 
L 35.930711 124.383974 
L 34.344659 126.850218 
L 43.962058 135.424953 
L 51.214849 138.083775 
L 46.064794 131.229112 
L 35.851409 124.507286 
L 34.825529 127.278954 
L 44.324698 135.557895 
L 50.957346 137.741042 
L 45.554125 130.89302 
L 35.800115 124.645869 
L 35.300487 127.692901 
L 44.65633 135.667052 
L 50.687185 137.398641 
L 45.066424 130.580663 
L 35.775133 124.798221 
L 35.768279 128.091609 
L 44.957873 135.753631 
L 50.406147 137.057742 
L 44.60186 130.291541 
L 35.774791 124.96289 
L 36.227759 128.47471 
L 45.230287 135.818837 
L 50.115933 136.719432 
L 44.160506 130.025108 
L 35.797439 125.138481 
L 36.677885 128.841916 
L 45.474569 135.863867 
L 49.818161 136.384716 
L 43.742353 129.780777 
L 35.841461 125.323653 
L 37.11772 129.193014 
L 45.691748 135.889909 
L 49.514371 136.054519 
L 43.347308 129.557921 
L 35.905274 125.517121 
L 37.546421 129.527859 
L 45.88288 135.89814 
L 49.206018 135.729689 
L 42.975207 129.355881 
L 35.987332 125.717658 
L 37.963244 129.846373 
L 46.049037 135.889717 
L 48.894477 135.410999 
L 42.625813 129.17397 
L 36.086127 125.924094 
L 38.367534 130.14854 
L 46.191309 135.865781 
L 48.581044 135.099147 
L 42.298829 129.011476 
L 36.200198 126.135316 
L 38.758722 130.434402 
L 46.310795 135.827449 
L 48.266933 134.794764 
L 41.993897 128.867668 
L 36.328124 126.35027 
L 39.136326 130.704054 
L 46.408602 135.775815 
L 47.953282 134.498409 
L 41.710608 128.741798 
L 36.468534 126.56796 
L 39.49994 130.957642 
L 46.485836 135.711945 
L 47.641148 134.210578 
L 41.448505 128.633106 
L 36.620104 126.787444 
L 39.849235 131.195358 
L 46.543602 135.636877 
L 47.331516 133.931705 
L 41.207085 128.540823 
L 36.781561 127.007839 
L 40.183953 131.417434 
L 46.582997 135.551618 
L 47.025294 133.662161 
L 40.985808 128.464174 
L 36.95168 127.228319 
L 40.503905 131.624143 
L 46.605112 135.457145 
L 46.72332 133.402261 
L 40.784102 128.402381 
L 37.129292 127.44811 
L 40.808966 131.815793 
L 46.611023 135.354401 
L 46.426359 133.152267 
L 40.601362 128.354667 
L 37.313275 127.666494 
L 41.099068 131.992723 
L 46.60179 135.244294 
L 46.135109 132.912387 
L 40.436957 128.320259 
L 37.502565 127.882806 
L 41.374205 132.155302 
L 46.578455 135.127699 
L 45.850202 132.682781 
L 40.290238 128.298386 
L 37.696147 128.096431 
L 41.634417 132.303922 
L 46.542043 135.005453 
L 45.572203 132.463561 
L 40.160533 128.288288 
L 37.89306 128.306805 
L 41.879798 132.438998 
L 46.493551 134.878358 
L 45.30162 132.254797 
L 40.047159 128.289214 
L 38.092397 128.513415 
L 42.110486 132.560966 
L 46.433954 134.74718 
L 45.038897 132.056518 
L 39.949421 128.300424 
L 38.293302 128.715792 
L 42.326659 132.670277 
L 46.364201 134.612647 
L 44.784423 131.868714 
L 39.866615 128.321193 
L 38.49497 128.913517 
L 42.528536 132.767395 
L 46.285212 134.475451 
L 44.538533 131.691338 
L 39.798033 128.350809 
L 38.696648 129.106211 
L 42.71637 132.852798 
L 46.197878 134.336245 
L 44.301508 131.524311 
L 39.742964 128.388579 
L 38.897634 129.29354 
L 42.890446 132.926971 
L 46.10306 134.195648 
L 44.07358 131.367524 
L 39.700697 128.433827 
L 39.097275 129.475211 
L 43.051076 132.990404 
L 46.001586 134.054242 
L 43.854936 131.22084 
L 39.670526 128.485896 
L 39.294965 129.650971 
L 43.198602 133.043596 
L 45.894253 133.912572 
L 43.645716 131.084092 
L 39.651748 128.54415 
L 39.490147 129.820602 
L 43.333384 133.087045 
L 45.781827 133.771148 
L 43.446017 130.957095 
L 39.643668 128.607973 
L 39.682309 129.983925 
L 43.455807 133.12125 
L 45.665036 133.630445 
L 43.2559 130.839639 
L 39.6456 128.67677 
L 39.870983 130.140791 
L 43.566268 133.14671 
L 45.544579 133.490905 
L 43.075385 130.731496 
L 39.656869 128.749971 
L 40.055748 130.291087 
L 43.665184 133.16392 
L 45.42112 133.352935 
L 42.904459 130.63242 
L 39.676813 128.827027 
L 40.236219 130.434728 
L 43.75298 133.17337 
L 45.295287 133.216909 
L 42.743077 130.54215 
L 39.704784 128.907412 
L 40.412058 130.571661 
L 43.830096 133.175547 
L 45.167676 133.083171 
L 42.591162 130.460413 
L 39.740147 128.990624 
L 40.582959 130.701855 
L 43.896975 133.170929 
L 45.03885 132.952033 
L 42.448611 130.386924 
L 39.782288 129.076186 
L 40.74866 130.825309 
L 43.954069 133.159984 
L 44.909338 132.823777 
L 42.315295 130.321387 
L 39.830606 129.163642 
L 40.908931 130.942042 
L 44.001832 133.143173 
L 44.779636 132.698658 
L 42.191061 130.263499 
L 39.884523 129.252562 
L 41.063576 131.052099 
L 44.040722 133.120948 
L 44.650208 132.5769 
L 42.075734 130.212953 
L 39.943475 129.342539 
L 41.212433 131.155541 
L 44.071197 133.093745 
L 44.521484 132.458703 
L 41.969121 130.169432 
L 40.006923 129.433189 
L 41.355371 131.252452 
L 44.093711 133.061993 
L 44.393866 132.344239 
L 41.871011 130.13262 
L 40.074346 129.524152 
L 41.492288 131.342929 
L 44.108719 133.026105 
L 44.267723 132.233658 
L 41.781178 130.102196 
L 40.145243 129.615091 
L 41.62311 131.427087 
L 44.116669 132.986483 
L 44.143396 132.127085 
L 41.699381 130.077841 
L 40.219136 129.705691 
L 41.747788 131.505057 
L 44.118005 132.943513 
L 44.021195 132.024623 
L 41.625369 130.059234 
L 40.295569 129.795659 
L 41.866299 131.57698 
L 44.113165 132.897569 
L 43.901404 131.926353 
L 41.558879 130.046055 
L 40.374105 129.884725 
L 41.978642 131.643009 
L 44.102577 132.849008 
L 43.784277 131.832338 
L 41.49964 130.037988 
L 40.454332 129.972639 
L 42.084839 131.703309 
L 44.086662 132.798174 
L 43.670046 131.742621 
L 41.447375 130.034721 
L 40.535857 130.059173 
L 42.18493 131.758053 
L 44.065831 132.745397 
L 43.558912 131.657226 
L 41.401799 130.035944 
L 40.618311 130.144117 
L 42.278975 131.80742 
L 44.040485 132.690988 
L 43.451056 131.576162 
L 41.362624 130.041352 
L 40.701344 130.227282 
L 42.36705 131.851598 
L 44.011013 132.635247 
L 43.346635 131.499421 
L 41.32956 130.050649 
L 40.784629 130.308498 
L 42.449248 131.890781 
L 43.977795 132.578456 
L 43.245781 131.426983 
L 41.302314 130.063541 
L 40.86786 130.387612 
L 42.525676 131.925164 
L 43.941194 132.520882 
L 43.148608 131.358811 
L 41.280591 130.079745 
L 40.950751 130.46449 
L 42.596452 131.95495 
L 43.901565 132.462778 
L 43.055207 131.294857 
L 41.264099 130.098982 
L 41.033036 130.539013 
L 42.661707 131.980342 
L 43.859247 132.404382 
L 42.965652 131.235064 
L 41.252546 130.120984 
L 41.11447 130.611079 
L 42.721584 132.001544 
L 43.814567 132.345916 
L 42.879996 131.17936 
L 41.245642 130.145488 
L 41.194825 130.680602 
L 42.776233 132.018762 
L 43.767838 132.287589 
L 42.798279 131.127666 
L 41.243101 130.172244 
L 41.273896 130.74751 
L 42.825814 132.032204 
L 43.71936 132.229592 
L 42.72052 131.079895 
L 41.244641 130.201007 
L 41.351492 130.811745 
L 42.870491 132.042073 
L 43.669418 132.172108 
L 42.646726 131.035951 
L 41.249984 130.231544 
L 41.427442 130.873261 
L 42.910437 132.048575 
L 43.618284 132.1153 
L 42.576889 130.99573 
L 41.258857 130.26363 
L 41.501591 130.932027 
L 42.94583 132.051911 
L 43.566214 132.059321 
L 42.510987 130.959125 
L 41.270993 130.29705 
L 41.573803 130.988021 
L 42.976849 132.052282 
L 43.513453 132.004311 
L 42.448987 130.926021 
L 41.286134 130.331598 
L 41.643956 131.041234 
L 43.003679 132.049883 
L 43.460229 131.950397 
L 42.390845 130.8963 
L 41.304025 130.36708 
L 41.711942 131.091667 
L 43.026507 132.044909 
L 43.40676 131.897692 
L 42.336504 130.869839 
L 41.324421 130.40331 
L 41.77767 131.139329 
L 43.045519 132.037548 
L 43.353247 131.846299 
L 42.2859 130.846513 
L 41.347083 130.440111 
L 41.841063 131.18424 
L 43.060906 132.027986 
L 43.29988 131.79631 
L 42.238959 130.826193 
L 41.371782 130.477317 
L 41.902055 131.226427 
L 43.072854 132.016402 
L 43.246834 131.747804 
L 42.1956 130.808749 
L 41.398296 130.514773 
L 41.960595 131.265926 
L 43.081553 132.002972 
L 43.194272 131.700851 
L 42.155735 130.79405 
L 41.426411 130.55233 
L 42.016643 131.302778 
L 43.087189 131.987866 
L 43.142345 131.655511 
L 42.119268 130.781964 
L 41.455922 130.589853 
L 42.07017 131.337033 
L 43.089947 131.971248 
L 43.091191 131.611834 
L 42.086101 130.772359 
L 41.486635 130.627212 
L 42.121159 131.368743 
L 43.090009 131.953277 
L 43.040937 131.56986 
L 42.056128 130.765101 
L 41.518361 130.664288 
L 42.169601 131.39797 
L 43.087556 131.934107 
L 42.991696 131.529622 
L 42.02924 130.760061 
L 41.550923 130.700972 
L 42.215499 131.424777 
L 43.082763 131.913882 
L 42.943574 131.491144 
L 42.005324 130.757106 
L 41.584152 130.737162 
L 42.258862 131.449232 
L 43.075803 131.892745 
L 42.896661 131.454442 
L 41.984265 130.756109 
L 41.617887 130.772766 
L 42.299709 131.471408 
L 43.066846 131.87083 
L 42.851041 131.419526 
L 41.965946 130.756942 
L 41.651978 130.807698 
L 42.338066 131.491379 
L 43.056056 131.848265 
L 42.806787 131.386396 
L 41.950248 130.75948 
L 41.686283 130.841882 
L 42.373966 131.509223 
L 43.043592 131.825172 
L 42.76396 131.355051 
L 41.93705 130.7636 
L 41.720667 130.875249 
L 42.407447 131.525021 
L 43.029611 131.801666 
L 42.722614 131.325478 
L 41.92623 130.769182 
L 41.755006 130.907738 
L 42.438555 131.538853 
L 43.014261 131.777856 
L 42.682795 131.297663 
L 41.917669 130.77611 
L 41.789183 130.939293 
L 42.46734 131.550803 
L 42.997688 131.753847 
L 42.644539 131.271586 
L 41.911245 130.784269 
L 41.823091 130.969869 
L 42.493858 131.560955 
L 42.98003 131.729734 
L 42.607874 131.24722 
L 41.906837 130.793549 
L 41.85663 130.999423 
L 42.518166 131.569394 
L 42.961422 131.705608 
L 42.572822 131.224536 
L 41.904327 130.803843 
L 41.889706 131.027922 
L 42.540329 131.576205 
L 42.941992 131.681554 
L 42.539397 131.203502 
L 41.903596 130.815047 
L 41.922238 131.055336 
L 42.560412 131.581472 
L 42.921863 131.657652 
L 42.507607 131.184079 
L 41.904528 130.827061 
L 41.954146 131.081643 
L 42.578485 131.585281 
L 42.90115 131.633973 
L 42.477453 131.166228 
L 41.907009 130.83979 
L 41.985363 131.106825 
L 42.594618 131.587716 
L 42.879965 131.610586 
L 42.448931 131.149906 
L 41.910927 130.853142 
L 42.015826 131.130869 
L 42.608886 131.588859 
L 42.858413 131.587552 
L 42.422031 131.135068 
L 41.916172 130.867028 
L 42.045479 131.153769 
L 42.621362 131.588794 
L 42.836594 131.564928 
L 42.396738 131.121666 
L 41.922637 130.881365 
L 42.074273 131.17552 
L 42.632124 131.587601 
L 42.814601 131.542764 
L 42.373033 131.109651 
L 41.930219 130.896073 
L 42.102166 131.196124 
L 42.641247 131.585359 
L 42.792523 131.521109 
L 42.350892 131.098972 
L 41.938816 130.911076 
L 42.12912 131.215586 
L 42.648811 131.582146 
L 42.770441 131.500002 
L 42.330288 131.089577 
L 41.948331 130.926301 
L 42.155104 131.233914 
L 42.654893 131.578039 
L 42.748434 131.479481 
L 42.31119 131.081413 
L 41.95867 130.941682 
L 42.180094 131.25112 
L 42.65957 131.573111 
L 42.726572 131.459577 
L 42.293564 131.074427 
L 41.969741 130.957154 
L 42.204067 131.26722 
L 42.66292 131.567434 
L 42.704921 131.44032 
L 42.277373 131.068563 
L 41.981457 130.972657 
L 42.22701 131.28223 
L 42.66502 131.561079 
L 42.683544 131.421732 
L 42.262577 131.063768 
L 41.993735 130.988136 
L 42.248911 131.296173 
L 42.665946 131.554111 
L 42.662496 131.403834 
L 42.249135 131.059986 
L 42.006494 131.003538 
L 42.269762 131.30907 
L 42.665774 131.546598 
L 42.641828 131.386641 
L 42.019657 131.018814 
L 42.289563 131.320946 
L 42.664576 131.5386 
L 42.621586 131.370168 
L 42.033153 131.033921 
L 42.308314 131.331829 
L 42.662427 131.530178 
L 42.601814 131.354421 
L 42.046911 131.048816 
L 42.326019 131.341746 
L 42.659396 131.52139 
L 42.582547 131.339409 
L 42.060866 131.063463 
L 42.655554 131.512291 
L 42.56382 131.325135 
L 42.074957 131.077826 
L 42.650967 131.502933 
L 42.545662 131.311597 
L 42.089126 131.091875 
L 42.645702 131.493367 
L 42.528097 131.298795 
L 42.103318 131.105582 
L 42.639822 131.483638 
L 42.511148 131.286725 
L 42.117482 131.118922 
L 42.633388 131.473792 
L 42.494831 131.275378 
L 42.131571 131.131873 
L 42.62646 131.463872 
L 42.479162 131.264746 
L 42.178954 131.0662 
L 42.145541 131.144416 
L 42.619095 131.453915 
L 42.464151 131.254819 
L 42.177284 131.070111 
L 42.159351 131.156535 
L 42.611348 131.443961 
L 42.176387 131.074432 
L 42.172964 131.168216 
L 42.603271 131.434042 
L 42.176216 131.079121 
L 42.186345 131.179447 
L 42.594914 131.424191 
L 42.176722 131.084138 
L 42.199465 131.190219 
L 42.586326 131.414438 
L 42.177859 131.089442 
L 42.367785 131.263199 
" clip-path="url(#p9ea4ce2fa5)" style="fill: none; stroke: #0000ff; stroke-opacity: 0.7; stroke-width: 0.5; stroke-linecap: square"/>
   </g>
   <g id="line2d_5">
    <path d="M 211.887022 173.513476 
L 225.652904 263.849437 
L 107.300351 121.262234 
L 212.575316 178.030274 
L 219.735276 256.720077 
L 112.564099 124.100636 
L 212.933314 181.964764 
L 214.376717 250.089104 
L 117.58256 126.993843 
L 213.005484 185.370981 
L 209.537009 243.934341 
L 122.353706 129.9127 
L 212.832061 188.299149 
L 205.177844 238.233259 
L 126.877624 132.832022 
L 212.44935 190.795855 
L 201.262833 232.963197 
L 131.15621 135.730214 
L 211.890024 192.904222 
L 197.757502 228.101548 
L 135.192901 138.588914 
L 211.183398 194.664088 
L 194.629272 223.625917 
L 138.992425 141.392673 
L 210.355692 196.11218 
L 191.84743 219.514254 
L 142.560589 144.128648 
L 209.430278 197.282284 
L 189.383088 215.744974 
L 145.904073 146.78633 
L 208.427919 198.205418 
L 187.209137 212.297042 
L 149.030266 149.357285 
L 207.36698 198.909999 
L 185.300193 209.150054 
L 151.947101 151.83492 
L 206.26364 199.422002 
L 183.632539 206.284297 
L 154.662928 154.214274 
L 205.132085 199.765117 
L 182.184058 203.680796 
L 157.186386 156.491816 
L 203.984684 199.960901 
L 180.934175 201.321347 
L 159.526301 158.665271 
L 202.832159 200.028923 
L 179.863781 199.188543 
L 161.691594 160.733453 
L 201.68374 199.986904 
L 178.955172 197.265789 
L 163.691201 162.696126 
L 200.547311 199.850848 
L 178.191973 195.537306 
L 165.534007 164.553862 
L 199.429544 199.635171 
L 177.559075 193.988134 
L 167.228784 166.307927 
L 198.336021 199.352819 
L 177.04256 192.604123 
L 168.784145 167.960172 
L 197.271348 199.015384 
L 176.629639 191.371926 
L 170.208506 169.512933 
L 196.239262 198.633212 
L 176.308583 190.278976 
L 171.510043 170.968947 
L 195.242728 198.2155 
L 176.068656 189.313475 
L 172.696678 172.331274 
L 194.284025 197.770399 
L 175.900057 188.464365 
L 173.776045 173.60323 
L 193.364826 197.305097 
L 175.793856 187.721308 
L 174.755484 174.788324 
L 192.486278 196.825907 
L 175.741938 187.074659 
L 175.642024 175.890203 
L 191.649061 196.338345 
L 175.736942 186.515436 
L 176.442376 176.91261 
L 190.853455 195.847199 
L 175.772214 186.035295 
L 177.16293 177.85934 
L 190.099393 195.356604 
L 175.841749 185.626497 
L 177.809753 178.734203 
L 189.386511 194.870099 
L 175.94015 185.281882 
L 178.388591 179.540998 
L 188.714193 194.390688 
L 176.062572 184.994838 
L 178.904871 180.283482 
L 188.081612 193.920896 
L 176.204687 184.75927 
L 179.363708 180.965353 
L 187.487765 193.462814 
L 176.362638 184.569574 
L 179.769911 181.590226 
L 186.931509 193.018152 
L 176.533001 184.420607 
L 180.127991 182.161622 
L 186.411584 192.588275 
L 176.712751 184.307658 
L 180.44217 182.682955 
L 185.926642 192.174244 
L 176.899222 184.226422 
L 180.716394 183.157519 
L 185.475271 191.776853 
L 177.09008 184.172977 
L 180.954338 183.588486 
L 185.056011 191.396659 
L 177.283293 184.143753 
L 181.159421 183.978895 
L 184.667376 191.034014 
L 177.4771 184.13551 
L 181.334819 184.331651 
L 184.307862 190.689089 
L 177.669986 184.145317 
L 181.483471 184.649522 
L 183.975968 190.3619 
L 177.86066 184.170527 
L 181.608096 184.935141 
L 183.670203 190.052331 
L 178.048032 184.208758 
L 181.711201 185.191001 
L 183.389094 189.760153 
L 178.23119 184.25787 
L 181.795096 185.419458 
L 183.131199 189.485039 
L 178.409385 184.315949 
L 181.861901 185.622737 
L 182.895108 189.226584 
L 178.582011 184.381289 
L 181.913561 185.80293 
L 182.679453 188.984319 
L 178.748589 184.452371 
L 181.951856 185.961999 
L 182.48291 188.757722 
L 178.908752 184.527852 
L 181.978409 186.101785 
L 182.304202 188.546228 
L 179.062235 184.606549 
L 181.994698 186.224008 
L 182.142104 188.349245 
L 179.208858 184.687422 
L 182.002069 186.330269 
L 181.995442 188.166153 
L 179.348519 184.769564 
L 182.001737 186.422064 
L 181.863095 187.996324 
L 179.48118 184.852189 
L 181.994805 186.500777 
L 181.744 187.839117 
L 179.606861 184.934619 
L 181.982265 186.567694 
L 181.637143 187.693892 
L 179.725631 185.016272 
L 181.965009 186.624004 
L 181.541567 187.560011 
L 179.8376 185.096659 
L 181.943837 186.670804 
L 181.456369 187.436844 
L 179.942912 185.175366 
L 181.919463 186.709106 
L 181.380696 187.32377 
L 180.041739 185.252053 
L 181.892525 186.739839 
L 181.313748 187.220184 
L 180.134279 185.326442 
L 181.863586 186.763856 
L 181.254775 187.125497 
L 180.220744 185.398313 
L 181.833146 186.781938 
L 181.203073 187.039138 
L 180.301364 185.467494 
L 181.801642 186.794798 
L 181.157988 186.960556 
L 180.376378 185.53386 
L 181.769459 186.803086 
L 181.118907 186.889221 
L 180.446032 185.597321 
L 181.736932 186.807393 
L 181.085263 186.824626 
L 180.510577 185.657825 
L 181.704348 186.808255 
L 181.056529 186.766286 
L 180.570266 185.715346 
L 181.671957 186.806156 
L 181.032216 186.713739 
L 180.62535 185.769887 
L 181.63997 186.801535 
L 181.011873 186.666546 
L 180.676081 185.821469 
L 181.608565 186.794786 
L 180.995083 186.624292 
L 180.722705 185.870135 
L 181.577891 186.786261 
L 180.981464 186.586584 
L 180.765465 185.915941 
L 181.54807 186.776277 
L 180.970664 186.553052 
L 180.804595 185.958958 
L 181.5192 186.765116 
L 180.962361 186.523347 
L 180.840325 185.999266 
L 181.491358 186.753028 
L 180.956259 186.497143 
L 180.872877 186.036954 
L 181.464603 186.740233 
L 180.95209 186.474134 
L 180.902463 186.072118 
L 181.438977 186.726928 
L 180.949608 186.454033 
L 180.929289 186.104858 
L 181.414509 186.713284 
L 180.948593 186.436574 
L 180.95355 186.13528 
L 181.391213 186.699448 
L 180.94884 186.42151 
L 180.975433 186.163488 
L 181.369094 186.685551 
L 180.95017 186.408609 
L 180.995116 186.189591 
L 181.348148 186.671704 
L 180.952417 186.397658 
L 181.012768 186.213697 
L 181.328361 186.658002 
L 180.955435 186.38846 
L 181.028547 186.235912 
L 181.309715 186.644525 
L 180.95909 186.380832 
L 181.042606 186.256343 
L 181.292184 186.63134 
L 180.963266 186.374608 
L 181.055085 186.275093 
L 181.275738 186.618503 
L 180.967857 186.369632 
L 181.066117 186.292263 
L 181.260344 186.60606 
L 180.97277 186.365764 
L 181.100314 186.42355 
" clip-path="url(#p9ea4ce2fa5)" style="fill: none; stroke: #0000ff; stroke-opacity: 0.7; stroke-width: 0.5; stroke-linecap: square"/>
   </g>
   <g id="line2d_6">
    <path d="M 211.887022 173.513476 
L 213.38937 136.12802 
L 99.914413 -1 
M -1 25.979865 
L 107.300351 121.262234 
L 211.962139 171.644204 
L 207.549821 129.071259 
L 95.759903 -1 
M -1 24.829952 
L 112.53344 123.781333 
L 211.741524 169.515556 
L 201.409374 121.926646 
L 92.123559 -1 
M -1 23.776517 
L 117.493844 126.068044 
L 211.224916 167.136111 
L 195.011076 114.729726 
L 88.921687 -1 
M -1 22.8159 
L 122.180398 128.121447 
L 210.414224 164.515792 
L 188.396138 107.513688 
L 86.088337 -1 
M -1 21.945028 
L 126.592089 129.941165 
L 209.31332 161.665686 
L 181.60387 100.309408 
L 83.5709 -1 
M -1 21.161363 
L 130.728151 131.527391 
L 207.927847 158.597872 
L 174.671646 93.145497 
L 81.326965 -1 
M -1 20.46285 
L 134.588135 132.880915 
L 206.265037 155.325254 
L 167.634878 86.04836 
L 79.32205 -1 
M -1 19.847889 
L 138.171981 134.003132 
L 204.333529 151.861409 
L 160.527003 79.042256 
L 77.527929 -1 
M -1 19.315312 
L 141.480058 134.896046 
L 202.143203 148.220451 
L 153.379489 72.14937 
L 75.921384 -1 
M -1 18.864367 
L 144.513215 135.562266 
L 199.705017 144.416897 
L 146.221842 65.389879 
L 74.483274 -1 
M -1 18.494715 
L 147.272805 136.004997 
L 197.030858 140.465546 
L 139.081635 58.782031 
L 73.197819 -1 
M -1 18.206439 
L 149.760708 136.228025 
L 194.133397 136.381371 
L 131.984529 52.342219 
L 72.05207 -1 
M -1 18.00006 
L 151.979342 136.235692 
L 191.025954 132.179413 
L 124.954317 46.085058 
L 71.035496 -1 
M -1 17.87656 
L 153.931673 136.032878 
L 187.722372 127.874695 
L 118.012964 40.023464 
L 70.139681 -1 
M -1 17.837427 
L 155.621208 135.624969 
L 184.236902 123.482134 
L 111.180653 34.168735 
L 69.358112 -1 
M -1 15.931589 
L 3.317684 21.084557 
L 157.051993 135.017827 
L 180.584089 119.016464 
L 104.475837 28.53063 
L 68.686025 -1 
M -1 12.851356 
L 11.004399 26.78122 
L 158.228597 134.217759 
L 176.778677 114.492172 
L 97.915296 23.117443 
L 68.12033 -1 
M -1 10.253519 
L 18.365609 32.153047 
L 159.156101 133.23148 
L 172.835508 109.923436 
L 91.514191 17.936089 
L 67.659593 -1 
M -1 8.051264 
L 25.405134 37.206969 
L 159.840072 132.066078 
L 168.769442 105.324068 
L 85.286127 12.992171 
L 67.304083 -1 
M -1 6.177399 
L 32.12688 41.949924 
L 160.28654 130.728977 
L 164.595276 100.707473 
L 79.243212 8.290064 
L 67.055893 -1 
M -1 4.579198 
L 38.534863 46.388877 
L 160.501977 129.227902 
L 160.327673 96.086603 
L 73.396122 3.832985 
L 66.919153 -1 
M -1 3.214791 
L 44.633219 50.530828 
L 160.493262 127.570837 
L 155.981095 91.473922 
L 67.754159 -0.376935 
L 66.900342 -1 
M -1 2.050582 
L 50.426221 54.382829 
L 160.267653 125.765991 
L 151.569748 86.881379 
L 65.591596 -1 
M -1 1.059376 
L 55.918293 57.951987 
L 159.832758 123.821761 
L 147.107527 82.320381 
L 64.138402 -1 
M -1 0.218997 
L 61.114016 61.245475 
L 159.196497 121.746692 
L 142.607968 77.801773 
L 62.786202 -1 
M -1 -0.488755 
L 66.01814 64.270536 
L 158.36707 119.549446 
L 138.084211 73.335823 
L 61.526308 -1 
M -0.917038 -1 
L 70.635587 67.034482 
L 157.352927 117.238765 
L 133.548961 68.932207 
L 60.351069 -1 
M -0.397643 -1 
L 74.971454 69.544696 
L 156.162729 114.823437 
L 129.014455 64.600006 
L 59.253738 -1 
M 0.03485 -1 
L 79.031017 71.808633 
L 154.805315 112.312265 
L 124.492442 60.347698 
L 58.228355 -1 
M 0.385094 -1 
L 82.819732 73.833815 
L 153.289672 109.714037 
L 119.994153 56.183154 
L 57.269651 -1 
M 0.656761 -1 
L 86.343229 75.627826 
L 151.624896 107.037493 
L 115.530288 52.113646 
L 56.372974 -1 
M 0.852609 -1 
L 89.607313 77.198309 
L 149.820165 104.2913 
L 111.110999 48.145843 
L 55.534223 -1 
M 0.974537 -1 
L 92.617955 78.552959 
L 147.884707 101.484027 
L 106.745881 44.285824 
L 54.749796 -1 
M 1.023611 -1 
L 95.381293 79.699512 
L 145.827766 98.624117 
L 102.443962 40.539082 
L 54.016548 -1 
M 1.688464 -1 
L 2.584584 0.335024 
L 97.903617 80.645742 
L 143.658576 95.719866 
L 98.2137 36.910533 
L 53.331758 -1 
M 3.565135 -1 
L 7.350536 4.35056 
L 100.191364 81.399448 
L 141.386332 92.779399 
L 94.062979 33.404535 
L 52.693105 -1 
M 5.178255 -1 
L 11.992577 8.203005 
L 102.251113 81.968446 
L 139.020164 89.810656 
L 89.999114 30.024892 
L 52.098654 -1 
M 6.570303 -1 
L 16.505504 11.891277 
L 104.089565 82.360556 
L 136.569112 86.821368 
L 86.028849 26.774877 
L 51.546849 -1 
M 7.774965 -1 
L 20.884707 15.414741 
L 105.713543 82.583597 
L 134.042099 83.819043 
L 82.158363 23.657243 
L 51.036511 -1 
M 8.819264 -1 
L 25.126149 18.773183 
L 107.129971 82.645369 
L 131.447912 80.810953 
L 78.39328 20.67424 
L 50.566859 -1 
M 9.725086 -1 
L 29.22634 21.966793 
L 108.345868 82.553648 
L 128.79518 77.804117 
L 74.738675 17.827637 
L 50.137526 -1 
M 10.510309 -1 
L 33.182316 24.996136 
L 109.368333 82.316172 
L 126.092355 74.805293 
L 71.199086 15.118735 
L 49.748601 -1 
M 11.189643 -1 
L 36.991617 27.862137 
L 110.204534 81.940628 
L 123.347691 71.820965 
L 67.778523 12.54839 
L 49.40069 -1 
M 11.775257 -1 
L 40.652263 30.566062 
L 110.861692 81.434645 
L 120.569233 68.857337 
L 64.480487 10.117032 
L 49.094992 -1 
M 12.277272 -1 
L 44.162735 33.109491 
L 111.347069 80.805779 
L 117.764796 65.920321 
L 61.307974 7.824683 
L 48.833418 -1 
M 12.704125 -1 
L 47.521951 35.494305 
L 111.667956 80.061507 
L 114.941955 63.01554 
L 58.263503 5.67098 
L 48.618747 -1 
M 13.062864 -1 
L 50.729252 37.722666 
L 111.831655 79.209208 
L 112.108032 60.148312 
L 55.349119 3.655191 
L 48.454848 -1 
M 13.35937 -1 
L 53.784372 39.796993 
L 111.845474 78.256163 
L 109.270086 57.323655 
L 52.566422 1.776241 
L 48.346995 -1 
M 13.598541 -1 
L 56.687427 41.719951 
L 111.716705 77.209538 
L 106.434903 54.546285 
L 49.916573 0.03273 
L 48.302308 -1 
M 13.784431 -1 
L 59.438891 43.494431 
L 111.452615 76.076375 
L 103.608987 51.820607 
L 48.007747 -1 
M 13.920355 -1 
L 62.039577 45.123528 
L 111.060433 74.863587 
L 100.798553 49.150724 
L 47.213819 -1 
M 14.008983 -1 
L 64.49062 46.610531 
L 110.547339 73.577944 
L 98.009526 46.540434 
L 46.46027 -1 
M 14.052401 -1 
L 66.793456 47.958901 
L 109.920449 72.226068 
L 95.247531 43.99323 
L 45.743644 -1 
M 14.060702 -1 
L 14.067654 -0.98584 
L 68.949805 49.17226 
L 109.186803 70.814426 
L 92.517893 41.512309 
L 45.0608 -1 
M 15.435938 -1 
L 16.811762 1.522065 
L 70.961655 50.254368 
L 108.353357 69.34932 
L 89.825632 39.100568 
L 44.408863 -1 
M 16.577018 -1 
L 19.519257 3.95868 
L 72.83124 51.209116 
L 107.426971 67.836883 
L 87.175468 36.760616 
L 43.785195 -1 
M 17.52964 -1 
L 22.184856 6.321202 
L 74.561027 52.040504 
L 106.414396 66.283069 
L 84.571815 34.494773 
L 43.187358 -1 
M 18.328266 -1 
L 24.803664 8.607167 
L 76.153695 52.752632 
L 105.322267 64.693655 
L 82.018784 32.305079 
L 42.613089 -1 
M 18.999342 -1 
L 27.371166 10.81444 
L 77.612124 53.349683 
L 104.157093 63.074226 
L 79.520185 30.193303 
L 42.06027 -1 
M 19.563476 -1 
L 29.883214 12.941202 
L 78.939372 53.835911 
L 102.925247 61.43018 
L 77.07953 28.160941 
L 41.526904 -1 
M 20.036937 -1 
L 32.336022 14.985938 
L 80.138666 54.215624 
L 101.632962 59.766718 
L 74.700036 26.209235 
L 41.011095 -1 
M 20.432715 -1 
L 34.726154 16.947422 
L 81.213381 54.493179 
L 100.286315 58.088844 
L 72.38463 24.339172 
L 40.511019 -1 
M 20.761281 -1 
L 37.050515 18.82471 
L 82.167028 54.672962 
L 98.891231 56.40136 
L 70.135951 22.551497 
L 40.024903 -1 
M 21.031146 -1 
L 39.306341 20.617122 
L 83.003238 54.759382 
L 97.453467 54.708867 
L 67.956359 20.846719 
L 39.551 -1 
M 21.249271 -1 
L 41.491186 22.324235 
L 83.725749 54.756856 
L 95.978612 53.015759 
L 65.847939 19.225121 
L 39.087558 -1 
M 21.42138 -1 
L 43.602914 23.945866 
L 84.338392 54.669801 
L 94.472078 51.326228 
L 63.812509 17.686772 
L 38.632792 -1 
M 21.552195 -1 
L 45.639688 25.482063 
L 84.845077 54.502623 
L 92.939099 49.644255 
L 61.851625 16.231529 
L 38.184845 -1 
M 21.645617 -1 
L 47.599957 26.933091 
L 85.249778 54.259704 
L 91.384726 47.973619 
L 59.966591 14.859056 
L 37.74174 -1 
M 21.704868 -1 
L 49.482448 28.299422 
L 85.556525 53.9454 
L 89.813819 46.31789 
L 58.158463 13.568825 
L 37.301325 -1 
M 21.732598 -1 
L 51.286152 29.581721 
L 85.76939 53.564024 
L 88.231051 44.680437 
L 56.428063 12.360131 
L 36.861194 -1 
M 21.836095 -1 
L 21.820728 -0.908804 
L 53.010314 30.780836 
L 85.892473 53.119845 
L 86.640902 43.064422 
L 54.775982 11.232101 
L 36.41859 -1 
M 23.36861 -1 
L 23.380207 0.675678 
L 54.654422 31.897786 
L 85.929894 52.617074 
L 85.047656 41.472806 
L 53.20259 10.183701 
L 35.970264 -1 
M 24.482608 -1 
L 24.943918 2.236783 
L 56.218196 32.933751 
L 85.885782 52.059861 
L 83.455403 39.908351 
L 51.708049 9.21375 
L 35.512278 -1 
M 25.310617 -1 
L 26.507632 3.771632 
L 57.701575 33.890056 
L 85.764263 51.452285 
L 81.868035 38.373621 
L 50.292314 8.320927 
L 35.039729 -1 
M 25.934656 -1 
L 28.067329 5.277553 
L 59.104709 34.768168 
L 85.569452 50.798352 
L 80.289249 36.870986 
L 48.955152 7.503781 
L 34.546328 -1 
M 26.408163 -1 
L 29.619198 6.752084 
L 60.427947 35.569677 
L 85.305442 50.101983 
L 78.722544 35.402626 
L 47.696144 6.760741 
L 34.023761 -1 
M 26.767409 -1 
L 31.159635 8.192963 
L 61.671821 36.296292 
L 84.976297 49.367016 
L 77.171224 33.970531 
L 46.514697 6.090126 
L 33.46067 -1 
M 27.037845 -1 
L 32.685245 9.59813 
L 62.837045 36.949828 
L 84.586043 48.597191 
L 75.638398 32.576511 
L 45.410053 5.490153 
L 32.840977 -1 
M 27.237832 -1 
L 34.192835 10.965715 
L 63.924495 37.532197 
L 84.138661 47.796157 
L 74.12698 31.222193 
L 44.3813 4.958948 
L 32.140969 -1 
M 27.380921 -1 
L 35.679418 12.294039 
L 64.935203 38.045395 
L 83.638077 46.967459 
L 72.639696 29.909031 
L 43.427379 4.494551 
L 31.323941 -1 
M 27.477306 -1 
L 37.142207 13.581607 
L 65.870347 38.491498 
L 83.088158 46.114538 
L 71.179081 28.638307 
L 42.547096 4.094932 
L 30.329638 -1 
M 27.534784 -1 
L 38.578614 14.827101 
L 66.731238 38.87265 
L 82.492704 45.240726 
L 69.747481 27.411138 
L 41.739128 3.757993 
L 29.051392 -1 
M 27.559395 -1 
L 39.986245 16.029379 
L 67.519311 39.191054 
L 81.855443 44.349247 
L 68.347064 26.228481 
L 41.002035 3.481578 
L 27.646727 -0.880323 
L 41.362898 17.187462 
L 68.236117 39.448963 
L 81.180024 43.443209 
L 66.979812 25.091136 
L 40.33427 3.263483 
L 28.332536 0.023066 
L 42.706559 18.300537 
L 68.883313 39.648676 
L 80.470013 42.525605 
L 65.647535 23.999753 
L 39.734183 3.101462 
L 29.051237 0.93694 
L 44.015397 19.367944 
L 69.462648 39.792522 
L 79.72889 41.599312 
L 64.351867 22.954839 
L 39.200036 2.993236 
L 29.799445 1.85849 
L 45.28776 20.389173 
L 69.97596 39.882862 
L 78.960038 40.667089 
L 63.094276 21.956759 
L 38.730006 2.936499 
L 30.573861 2.785024 
L 46.52217 21.363858 
L 70.425164 39.922073 
L 78.16675 39.731572 
L 61.876062 21.005746 
L 38.322199 2.928925 
L 31.371276 3.713966 
L 47.717319 22.291768 
L 70.812243 39.912548 
L 77.352216 38.795281 
L 60.698369 20.101905 
L 37.974653 2.968177 
L 32.188578 4.642856 
L 48.872065 23.172807 
L 71.139242 39.856684 
L 76.519524 37.860612 
L 59.562183 19.245218 
L 37.685349 3.051911 
L 33.022753 5.569354 
L 49.985424 24.007001 
L 71.408256 39.756881 
L 75.671657 36.929842 
L 58.468342 18.435553 
L 37.452219 3.177783 
L 33.870886 6.491236 
L 51.056566 24.794495 
L 71.621426 39.615529 
L 74.811491 36.005128 
L 57.417536 17.672664 
L 37.273153 3.343456 
L 34.73017 7.406399 
L 52.084809 25.535547 
L 71.780929 39.435009 
L 73.941793 35.088505 
L 56.410316 16.956204 
L 37.146004 3.546603 
L 35.597902 8.312856 
L 53.069615 26.23052 
L 71.888972 39.217684 
L 73.065219 34.18189 
L 55.447101 16.285724 
L 37.068599 3.784916 
L 36.471488 9.208739 
L 54.010583 26.879878 
L 71.947785 38.965894 
L 72.184313 33.287081 
L 54.528176 15.660683 
L 37.038743 4.056107 
L 37.348443 10.092296 
L 54.907443 27.484179 
L 71.959611 38.681953 
L 71.301506 32.405761 
L 53.653704 15.080455 
L 37.054228 4.357916 
L 38.226393 10.961891 
L 55.760051 28.044068 
L 71.926706 38.368144 
L 70.419116 31.539496 
L 52.82373 14.544328 
L 37.112836 4.688115 
L 39.103076 11.815999 
L 56.568384 28.560271 
L 71.851326 38.026711 
L 69.539347 30.689738 
L 52.038186 14.051517 
L 37.212348 5.044509 
L 39.976341 12.653213 
L 57.332531 29.033593 
L 71.735727 37.659863 
L 68.664289 29.857827 
L 51.296894 13.601167 
L 37.350548 5.424944 
L 40.84415 13.472232 
L 58.052691 29.464907 
L 71.582156 37.269761 
L 67.795919 29.044994 
L 50.599576 13.192356 
L 37.525228 5.827309 
L 41.704578 14.271866 
L 58.729164 29.85515 
L 71.392844 36.858523 
L 66.936102 28.252362 
L 49.945859 12.824103 
L 37.734195 6.249537 
L 42.555807 15.05103 
L 59.362348 30.205318 
L 71.170007 36.428214 
L 66.08659 27.480949 
L 49.335276 12.495375 
L 37.975276 6.689611 
L 43.396134 15.808744 
L 59.952731 30.516463 
L 70.915836 35.980851 
L 65.249024 26.73167 
L 48.767276 12.205087 
L 38.246319 7.145568 
L 44.223964 16.54413 
L 60.500886 30.789682 
L 70.632495 35.518392 
L 64.424937 26.005341 
L 48.241228 11.952111 
L 38.545201 7.615496 
L 45.03781 17.256408 
L 61.007467 31.026118 
L 70.322117 35.04274 
L 63.615751 25.302679 
L 47.756427 11.73528 
L 38.869832 8.097542 
L 45.836293 17.944893 
L 61.473199 31.226949 
L 69.986799 34.555737 
L 62.822785 24.624309 
L 47.312097 11.553393 
L 39.218155 8.589909 
L 46.618138 18.608996 
L 61.898879 31.393388 
L 69.628598 34.059165 
L 62.047251 23.970764 
L 46.9074 11.405219 
L 39.588154 9.090864 
L 47.382175 19.248216 
L 62.285365 31.526677 
L 69.249531 33.554745 
L 61.290258 23.342486 
L 46.541437 11.289501 
L 39.977855 9.598731 
L 48.127335 19.862139 
L 62.633573 31.628081 
L 68.851567 33.044132 
L 60.552817 22.739837 
L 46.213258 11.204963 
L 40.385329 10.111902 
L 48.852647 20.450436 
L 62.944473 31.698883 
L 68.43663 32.528917 
L 59.835839 22.163093 
L 45.921862 11.15031 
L 40.808695 10.628828 
L 49.557238 21.012858 
L 63.219081 31.740385 
L 68.00659 32.010626 
L 59.14014 21.612454 
L 45.666203 11.124235 
L 41.246122 11.14803 
L 50.24033 21.549235 
L 63.458456 31.753897 
L 67.563268 31.490718 
L 58.466443 21.088043 
L 45.445199 11.125425 
L 41.695832 11.66809 
L 50.901236 22.059468 
L 63.663697 31.740738 
L 67.108427 30.970584 
L 57.815381 20.589912 
L 45.257731 11.152558 
L 42.156102 12.187659 
L 51.539359 22.543531 
L 63.835934 31.70223 
L 66.643774 30.45155 
L 57.187499 20.118045 
L 45.10265 11.204313 
L 42.625265 12.705453 
L 52.154188 23.001466 
L 63.976326 31.639696 
L 66.17096 29.934875 
L 56.583256 19.672358 
L 44.97878 11.27937 
L 43.101711 13.220253 
L 52.745295 23.433378 
L 64.086057 31.554455 
L 65.691575 29.421749 
L 56.003032 19.252709 
L 44.884927 11.376415 
L 43.583891 13.730909 
L 53.312333 23.839432 
L 64.166333 31.44782 
L 65.207148 28.913297 
L 55.447127 18.858894 
L 44.819875 11.494139 
L 44.070313 14.236336 
L 53.855033 24.219851 
L 64.218374 31.321094 
L 64.719147 28.410577 
L 54.915765 18.490656 
L 44.782397 11.631249 
L 44.559549 14.735511 
L 54.3732 24.574913 
L 64.243413 31.175568 
L 64.228978 27.914581 
L 54.409096 18.147686 
L 44.771255 11.786462 
L 45.050231 15.227481 
L 54.866711 24.904946 
L 64.242691 31.012519 
L 63.737984 27.426236 
L 53.927204 17.829625 
L 44.785203 11.958513 
L 45.541055 15.711355 
L 55.33551 25.210325 
L 64.217456 30.833205 
L 63.247445 26.946406 
L 53.470104 17.536069 
L 44.822996 12.146155 
L 46.030778 16.186303 
L 55.779607 25.491469 
L 64.168955 30.638865 
L 62.758578 26.475889 
L 53.037749 17.266573 
L 44.883385 12.348163 
L 46.51822 16.651561 
L 56.199074 25.748838 
L 64.098436 30.430716 
L 62.272536 26.015423 
L 52.630031 17.020653 
L 44.965127 12.563333 
L 47.002262 17.106425 
L 56.594043 25.982932 
L 64.007141 30.209951 
L 61.790411 25.565685 
L 52.246785 16.797787 
L 45.066984 12.790487 
L 47.481851 17.550251 
L 56.964697 26.194283 
L 63.896305 29.977738 
L 61.31323 25.12729 
L 51.887795 16.597422 
L 45.187727 13.028475 
L 47.955994 17.982452 
L 57.311278 26.383456 
L 63.767151 29.735215 
L 60.841958 24.700796 
L 51.552792 16.418975 
L 45.32614 13.276174 
L 48.423758 18.402502 
L 57.634071 26.551044 
L 63.620891 29.483494 
L 60.3775 24.286705 
L 51.241459 16.261835 
L 45.481021 13.532491 
L 48.884273 18.809929 
L 57.933412 26.697666 
L 63.458722 29.223655 
L 59.920698 23.885462 
L 50.953437 16.125367 
L 45.651184 13.796363 
L 49.33673 19.204316 
L 58.209678 26.823966 
L 63.28182 28.956745 
L 59.472335 23.497457 
L 50.688325 16.008917 
L 45.835461 14.06676 
L 49.780378 19.585299 
L 58.463285 26.930605 
L 63.091346 28.683781 
L 59.033134 23.12303 
L 50.445682 15.911809 
L 46.032707 14.342687 
L 50.214523 19.952564 
L 58.694688 27.018264 
L 62.888436 28.405743 
L 58.603762 22.762469 
L 50.225033 15.833353 
L 46.241798 14.623181 
L 50.638531 20.305849 
L 58.904375 27.087638 
L 62.674202 28.12358 
L 58.184825 22.416013 
L 50.025871 15.772845 
L 46.461634 14.907314 
L 51.051824 20.644938 
L 59.092867 27.139435 
L 62.449733 27.838201 
L 57.776877 22.083855 
L 49.847659 15.729568 
L 46.691144 15.194196 
L 51.453876 20.969663 
L 59.26071 27.174373 
L 62.21609 27.550484 
L 57.380417 21.76614 
L 49.689833 15.702799 
L 46.929281 15.482969 
L 51.844217 21.279899 
L 59.408479 27.193179 
L 61.974307 27.261267 
L 56.995887 21.462973 
L 49.551806 15.691808 
L 47.175027 15.772816 
L 52.222431 21.575563 
L 59.536771 27.196583 
L 61.725386 26.971352 
L 56.623683 21.174415 
L 49.432967 15.695858 
L 47.427398 16.062953 
L 52.588148 21.856614 
L 59.646201 27.185321 
L 61.470301 26.681505 
L 56.264147 20.900487 
L 49.332688 15.714213 
L 47.685435 16.352636 
L 52.94105 22.123049 
L 59.737406 27.160131 
L 61.209993 26.392454 
L 55.917575 20.641174 
L 49.250326 15.746134 
L 47.948216 16.641157 
L 53.280868 22.374903 
L 59.811036 27.121747 
L 60.945372 26.10489 
L 55.584212 20.396422 
L 49.18522 15.790885 
L 48.214848 16.927844 
L 53.607376 22.612245 
L 59.867752 27.070904 
L 60.677314 25.819467 
L 55.264262 20.166145 
L 49.136702 15.847733 
L 48.484475 17.212064 
L 53.920395 22.835178 
L 59.90823 27.008332 
L 60.406661 25.536801 
L 54.957884 19.950224 
L 49.10409 15.91595 
L 48.756271 17.49322 
L 54.219787 23.043836 
L 59.933152 26.934756 
L 60.134223 25.257472 
L 54.665195 19.74851 
L 49.086699 15.994813 
L 49.029447 17.770751 
L 54.505455 23.238382 
L 59.943206 26.850891 
L 59.860771 24.982024 
L 54.38627 19.560826 
L 49.083837 16.08361 
L 49.303247 18.044132 
L 54.777343 23.419007 
L 59.939084 26.757448 
L 59.587046 24.710964 
L 54.121148 19.386965 
L 49.094807 16.181636 
L 49.576952 18.312876 
L 55.03543 23.58593 
L 59.921482 26.655124 
L 59.313751 24.444764 
L 53.869831 19.226698 
L 49.118914 16.288198 
L 49.849876 18.576529 
L 55.279732 23.739389 
L 59.891095 26.544606 
L 59.041555 24.183861 
L 53.632285 19.079773 
L 49.155463 16.402615 
L 50.121369 18.834672 
L 55.510301 23.87965 
L 59.848618 26.426569 
L 58.771092 23.928656 
L 53.408444 18.945915 
L 49.203758 16.524218 
L 50.390815 19.086921 
L 55.727216 24.006996 
L 59.794742 26.301673 
L 58.502959 23.679519 
L 53.19821 18.824831 
L 49.263111 16.652353 
L 50.657635 19.332924 
L 55.930593 24.12173 
L 59.730153 26.170565 
L 58.237722 23.436785 
L 53.001455 18.716207 
L 49.332837 16.786381 
L 50.921283 19.572365 
L 56.120571 24.224172 
L 59.655531 26.033876 
L 57.975909 23.200756 
L 52.818024 18.619715 
L 49.412259 16.92568 
L 51.181248 19.804955 
L 56.297319 24.314657 
L 59.57155 25.89222 
L 57.718014 22.971704 
L 52.647736 18.535014 
L 49.500709 17.069644 
L 51.437051 20.03044 
L 56.46103 24.393535 
L 59.478873 25.746194 
L 57.4645 22.749869 
L 52.490384 18.461745 
L 49.597526 17.217684 
L 51.68825 20.248595 
L 56.611922 24.461168 
L 59.378155 25.596378 
L 57.215795 22.535463 
L 52.345742 18.399542 
L 49.702062 17.36923 
L 51.934434 20.459223 
L 56.750234 24.517928 
L 59.270037 25.443332 
L 56.972292 22.328667 
L 52.213558 18.348026 
L 49.813681 17.523729 
L 52.175224 20.662159 
L 56.876224 24.564199 
L 59.15515 25.287599 
L 56.734355 22.129635 
L 52.093564 18.306812 
L 49.931758 17.680651 
L 52.410274 20.857261 
L 56.990171 24.600369 
L 59.03411 25.129701 
L 56.502316 21.938494 
L 51.985473 18.275504 
L 50.055684 17.839481 
L 52.639269 21.044416 
L 57.092367 24.626835 
L 58.90752 24.970141 
L 56.276474 21.755344 
L 51.888984 18.253702 
L 50.184863 17.999728 
L 52.861923 21.223537 
L 57.183125 24.644001 
L 58.775968 24.809401 
L 56.057099 21.580262 
L 51.803778 18.241004 
L 50.318716 18.160918 
L 53.077984 21.39456 
L 57.262767 24.652271 
L 58.640024 24.647944 
L 55.844433 21.413299 
L 51.729525 18.236999 
L 50.456679 18.3226 
L 53.287223 21.557446 
L 57.33163 24.652054 
L 58.500245 24.486212 
L 55.638688 21.254484 
L 51.665882 18.24128 
L 50.598206 18.484343 
L 53.489443 21.712176 
L 57.390061 24.643762 
L 58.357167 24.324625 
L 55.440047 21.103824 
L 51.612499 18.253433 
L 50.742768 18.645734 
L 53.684474 21.858755 
L 57.438416 24.627805 
L 58.211311 24.163585 
L 55.24867 20.961305 
L 51.569012 18.273048 
L 50.889853 18.806385 
L 53.872171 21.997208 
L 57.477061 24.604594 
L 58.063179 24.003471 
L 55.064687 20.826892 
L 51.535054 18.299715 
L 51.038969 18.965927 
L 54.052416 22.127577 
L 57.506367 24.574538 
L 57.913254 23.844642 
L 54.888205 20.700533 
L 51.51025 18.333025 
L 51.189642 19.124009 
L 54.225113 22.249925 
L 57.526711 24.538043 
L 57.762002 23.687437 
L 54.719308 20.582158 
L 51.49422 18.372574 
L 51.341415 19.280305 
L 54.390193 22.364331 
L 57.538476 24.495513 
L 57.609867 23.532173 
L 54.558053 20.471678 
L 51.486579 18.417961 
L 51.493854 19.434506 
L 54.547607 22.47089 
L 57.542045 24.447346 
L 57.457276 23.379148 
L 54.404479 20.368992 
L 51.486943 18.468788 
L 51.646542 19.586325 
L 54.697329 22.569713 
L 57.537807 24.393936 
L 57.304637 23.22864 
L 54.258603 20.273982 
L 51.494923 18.524665 
L 51.799081 19.735495 
L 54.839353 22.660924 
L 57.526148 24.335671 
L 57.152335 23.080907 
L 54.120419 20.186516 
L 51.510131 18.585207 
L 51.951095 19.881766 
L 54.973693 22.744662 
L 57.507458 24.272933 
L 57.000739 22.936188 
L 53.989904 20.106451 
L 51.532179 18.650035 
L 52.102225 20.024911 
L 55.100381 22.821075 
L 57.482122 24.206096 
L 56.850197 22.794701 
L 53.867018 20.03363 
L 51.560681 18.718778 
L 52.252132 20.164719 
L 55.219468 22.890326 
L 57.450525 24.135526 
L 56.701038 22.656647 
L 53.751701 19.967888 
L 51.595254 18.791075 
L 52.400499 20.301 
L 55.331021 22.952586 
L 57.413051 24.061582 
L 56.553572 22.522209 
L 53.643879 19.909047 
L 51.635516 18.866572 
L 52.547025 20.433579 
L 55.435122 23.008036 
L 57.370077 23.984614 
L 56.408087 22.391551 
L 53.543461 19.856923 
L 51.681092 18.944922 
L 52.69143 20.562302 
L 55.53187 23.056865 
L 57.321978 23.90496 
L 56.264856 22.26482 
L 53.450342 19.811323 
L 51.731609 19.025791 
L 52.833452 20.68703 
L 55.621376 23.09927 
L 57.269122 23.822953 
L 56.12413 22.142145 
L 53.364406 19.772046 
L 51.786701 19.108853 
L 52.972848 20.807642 
L 55.703763 23.135454 
L 57.211872 23.738913 
L 55.986144 22.02364 
L 53.28552 19.738887 
L 51.846008 19.193792 
L 53.109394 20.924033 
L 55.779168 23.165627 
L 57.150586 23.653149 
L 55.851113 21.909402 
L 53.213545 19.711632 
L 51.909177 19.280304 
L 53.242883 21.036112 
L 55.847739 23.190003 
L 57.085612 23.565962 
L 55.719234 21.799514 
L 53.148326 19.690066 
L 51.975863 19.368095 
L 53.373126 21.143807 
L 55.909633 23.208801 
L 57.017293 23.47764 
L 55.590689 21.694042 
L 53.089703 19.673967 
L 52.045726 19.45688 
L 53.499951 21.247056 
L 55.965016 23.222243 
L 56.945963 23.38846 
L 55.465639 21.593038 
L 53.037504 19.663113 
L 52.118437 19.546389 
L 53.623204 21.345816 
L 56.014063 23.230554 
L 56.871947 23.298689 
L 55.344233 21.496542 
L 52.991551 19.657277 
L 52.193675 19.636361 
L 53.742747 21.440053 
L 56.056957 23.23396 
L 56.795561 23.208581 
L 55.226599 21.404578 
L 52.951657 19.656231 
L 52.271129 19.726545 
L 53.858458 21.529748 
L 56.093887 23.232691 
L 56.717113 23.118381 
L 55.112852 21.317161 
L 52.917631 19.659747 
L 52.350495 19.816705 
L 53.970229 21.614895 
L 56.125049 23.226976 
L 56.6369 23.02832 
L 55.003091 21.23429 
L 52.889274 19.667594 
L 52.431482 19.906615 
L 54.07797 21.695499 
L 56.150641 23.217043 
L 56.555209 22.938619 
L 54.8974 21.155955 
L 52.866384 19.679545 
L 52.513807 19.996059 
L 54.181604 21.771576 
L 56.17087 23.203122 
L 56.472319 22.849485 
L 54.795849 21.082135 
L 52.848756 19.695371 
L 52.597196 20.084835 
L 54.281067 21.843154 
L 56.185942 23.18544 
L 56.388495 22.761118 
L 54.698494 21.012797 
L 52.836178 19.714844 
L 52.68139 20.172751 
L 54.376311 21.910268 
L 56.19607 23.164224 
L 56.303995 22.673702 
L 54.605378 20.947899 
L 52.828438 19.73774 
L 52.766136 20.259627 
L 54.467299 21.972966 
L 56.201466 23.139698 
L 56.219064 22.587412 
L 54.516531 20.887391 
L 52.825323 19.763834 
L 52.851194 20.345294 
L 54.554007 22.031302 
L 56.202346 23.112084 
L 56.133938 22.502411 
L 54.431971 20.831213 
L 52.826617 19.792907 
L 52.936335 20.429594 
L 54.636424 22.085342 
L 56.198926 23.0816 
L 56.048839 22.418851 
L 54.351703 20.779298 
L 52.832103 19.824741 
L 53.021339 20.512381 
L 54.714549 22.135154 
L 56.191421 23.048462 
L 55.963983 22.336873 
L 54.275723 20.73157 
L 52.841564 19.859123 
L 53.106 20.59352 
L 54.788393 22.18082 
L 56.180049 23.012883 
L 55.87957 22.256608 
L 54.204015 20.687948 
L 52.854786 19.895843 
L 53.190119 20.672885 
L 54.857976 22.222423 
L 56.165025 22.975069 
L 55.795792 22.178175 
L 54.136554 20.648343 
L 52.871553 19.934695 
L 53.273512 20.750362 
L 54.923328 22.260055 
L 56.146564 22.935225 
L 55.71283 22.101683 
L 54.073304 20.61266 
L 52.891651 19.975479 
L 53.356003 20.825847 
L 54.98449 22.293814 
L 56.124877 22.893547 
L 55.630854 22.027232 
L 54.014221 20.580801 
L 52.914868 20.017997 
L 53.437427 20.899245 
L 55.041509 22.3238 
L 56.100176 22.850232 
L 55.550022 21.954911 
L 53.959253 20.552661 
L 52.940996 20.062059 
L 53.517631 20.970473 
L 55.094443 22.350122 
L 56.072668 22.805466 
L 55.470484 21.884798 
L 53.908341 20.528131 
L 52.969828 20.10748 
L 53.596472 21.039455 
L 55.143354 22.372889 
L 56.042559 22.759432 
L 55.392377 21.816965 
L 53.861415 20.507098 
L 53.00116 20.154079 
L 53.673816 21.106127 
L 55.188314 22.392216 
L 56.01005 22.712309 
L 55.315828 21.751472 
L 53.818402 20.489447 
L 53.034793 20.201681 
L 53.749541 21.170431 
L 55.229401 22.408221 
L 55.975339 22.664267 
L 55.240957 21.68837 
L 53.779222 20.475059 
L 53.07053 20.250119 
L 53.823534 21.232321 
L 55.266698 22.421023 
L 55.93862 22.615472 
L 55.16787 21.627705 
L 53.743787 20.463812 
L 53.108181 20.299229 
L 53.895692 21.291756 
L 55.300294 22.430746 
L 55.900082 22.566084 
L 55.096666 21.56951 
L 53.712007 20.455583 
L 53.147556 20.348855 
L 53.965922 21.348705 
L 55.330283 22.437513 
L 55.859911 22.516255 
L 55.027433 21.513814 
L 53.683784 20.450246 
L 53.188475 20.398848 
L 54.03414 21.403146 
L 55.356765 22.44145 
L 55.818287 22.466133 
L 54.960251 21.460635 
L 53.659019 20.447677 
L 53.230758 20.449063 
L 54.100271 21.455061 
L 55.379841 22.442684 
L 55.775386 22.415858 
L 54.895189 21.409987 
L 53.637606 20.447746 
L 53.274233 20.499363 
L 54.16425 21.504442 
L 55.399618 22.441343 
L 55.731376 22.365565 
L 54.83231 21.361875 
L 53.619437 20.450327 
L 53.318734 20.549617 
L 54.226018 21.551287 
L 55.416206 22.437554 
L 55.686423 22.31538 
L 54.771666 21.316298 
L 53.604402 20.455291 
L 53.364099 20.5997 
L 54.285528 21.595601 
L 55.429717 22.431445 
L 55.640685 22.265426 
L 54.713303 21.273248 
L 53.592387 20.462512 
L 53.41017 20.649495 
L 54.342737 21.637393 
L 55.440265 22.423144 
L 55.594316 22.215817 
L 54.657257 21.232711 
L 53.583276 20.471861 
L 53.456798 20.69889 
L 54.397614 21.67668 
L 55.447968 22.412778 
L 55.547463 22.166662 
L 54.603558 21.194668 
L 53.576952 20.483212 
L 53.503839 20.74778 
L 54.450131 21.713485 
L 55.452942 22.400472 
L 55.500268 22.118062 
L 54.552228 21.159095 
L 53.573297 20.496441 
L 53.551154 20.796065 
L 54.500272 21.747835 
L 55.455309 22.386351 
L 55.452866 22.070114 
L 54.503281 21.125963 
L 53.572189 20.511422 
L 53.59861 20.843653 
L 54.548024 21.77976 
L 55.455187 22.37054 
L 55.405386 22.022906 
L 54.456727 21.095236 
L 53.57351 20.528033 
L 53.64608 20.890459 
L 54.593382 21.809299 
L 55.452697 22.353158 
L 55.357953 21.976523 
L 54.412566 21.066876 
L 53.577139 20.546155 
L 53.693445 20.936401 
L 54.636348 21.836492 
L 55.447959 22.334326 
L 55.310684 21.93104 
L 54.370795 21.04084 
L 53.582954 20.565667 
L 53.740591 20.981405 
L 54.676928 21.861384 
L 55.441096 22.314162 
L 55.26369 21.88653 
L 54.331403 21.017081 
L 53.590836 20.586454 
L 53.787407 21.025404 
L 54.715137 21.884023 
L 55.432225 22.29278 
L 55.217075 21.843058 
L 54.294374 20.99555 
L 53.600665 20.608401 
L 53.833794 21.068335 
L 54.750991 21.904461 
L 55.421468 22.270294 
L 55.17094 21.800682 
L 54.259689 20.976192 
L 53.612321 20.631398 
L 53.879654 21.110141 
L 54.784515 21.922752 
L 55.408941 22.246814 
L 55.125378 21.759458 
L 54.22732 20.958952 
L 53.625688 20.655335 
L 53.924897 21.150772 
L 54.815736 21.938955 
L 55.394763 22.222446 
L 55.080475 21.719433 
L 54.197239 20.943772 
L 53.640648 20.680107 
L 53.969439 21.190181 
L 54.844687 21.95313 
L 55.379049 22.197295 
L 55.036313 21.68065 
L 54.169409 20.930588 
L 53.657088 20.705611 
L 54.013201 21.228329 
L 54.871406 21.965338 
L 55.361912 22.171463 
L 54.992968 21.643147 
L 54.143793 20.919339 
L 53.674893 20.731747 
L 54.056111 21.265179 
L 54.895931 21.975644 
L 55.343465 22.145047 
L 54.950509 21.606956 
L 54.120348 20.90996 
L 53.693954 20.758418 
L 54.098102 21.300702 
L 54.918308 21.984115 
L 55.323817 22.118143 
L 54.909001 21.572106 
L 54.099028 20.902383 
L 53.714162 20.785533 
L 54.139113 21.334873 
L 54.938583 21.990816 
L 55.303076 22.090841 
L 54.868502 21.53862 
L 54.079785 20.89654 
L 53.735409 20.813 
L 54.179086 21.36767 
L 54.956808 21.995817 
L 55.281347 22.06323 
L 54.829066 21.506516 
L 54.062566 20.892363 
L 53.757593 20.840733 
L 54.217972 21.399077 
L 54.973035 21.999188 
L 55.258733 22.035394 
L 54.790741 21.475809 
L 54.047318 20.889782 
L 53.780612 20.86865 
L 54.255725 21.429083 
L 54.98732 22.000998 
L 55.235334 22.007415 
L 54.75357 21.446507 
L 54.033982 20.888725 
L 53.804368 20.896672 
L 54.292305 21.457679 
L 54.99972 22.001319 
L 55.211246 21.979369 
L 54.717591 21.418618 
L 54.022502 20.889122 
L 53.828765 20.924722 
L 54.327676 21.484861 
L 55.010297 22.000222 
L 55.186563 21.951332 
L 54.682836 21.392143 
L 54.012815 20.890902 
L 53.85371 20.952729 
L 54.361807 21.510629 
L 55.01911 21.997777 
L 55.161377 21.923372 
L 54.649335 21.367081 
L 54.00486 20.893994 
L 53.879115 20.980624 
L 54.394672 21.534986 
L 55.026223 21.994057 
L 55.135775 21.895558 
L 54.617112 21.343427 
L 53.998572 20.898325 
L 53.904893 21.008342 
L 54.42625 21.55794 
L 55.031701 21.989132 
L 55.109841 21.867951 
L 54.586185 21.321172 
L 53.993888 20.903826 
L 53.930961 21.035822 
L 54.456522 21.579499 
L 55.035608 21.983073 
L 55.083659 21.840612 
L 54.55657 21.300305 
L 53.990742 20.910426 
L 53.957239 21.063006 
L 54.485476 21.599678 
L 55.03801 21.97595 
L 55.057304 21.813597 
L 54.528278 21.280811 
L 53.989067 20.918055 
L 53.983651 21.08984 
L 54.513103 21.618492 
L 55.038975 21.967832 
L 55.030853 21.786958 
L 54.501318 21.262673 
L 53.988796 20.926644 
L 54.010123 21.116272 
L 54.539397 21.635959 
L 55.038569 21.958788 
L 55.004376 21.760743 
L 54.475692 21.245871 
L 53.989862 20.936126 
L 54.036587 21.142257 
L 54.564355 21.6521 
L 55.036859 21.948886 
L 54.977942 21.735 
L 54.4514 21.230384 
L 53.992199 20.946432 
L 54.062975 21.167749 
L 55.033913 21.938192 
L 54.951615 21.709769 
L 53.995737 20.957498 
L 54.089226 21.192708 
L 55.029799 21.926771 
L 54.925456 21.68509 
L 54.000412 20.969258 
L 54.115278 21.217098 
L 55.024581 21.914687 
L 54.899523 21.660998 
L 54.006155 20.98165 
L 54.141077 21.240884 
L 55.018328 21.902002 
L 54.873872 21.637526 
L 54.012901 20.994612 
L 54.166569 21.264035 
L 55.011106 21.888778 
L 54.848551 21.614702 
L 54.020585 21.008083 
L 54.191705 21.286524 
L 55.002978 21.875075 
L 54.823611 21.592554 
L 54.029141 21.022005 
L 54.216439 21.308326 
L 54.99401 21.860949 
L 54.799094 21.571104 
L 54.038506 21.036321 
L 54.240727 21.329419 
L 54.984264 21.846456 
L 54.775044 21.550372 
L 54.048617 21.050976 
L 54.264531 21.349784 
L 54.973803 21.831652 
L 54.751496 21.530377 
L 54.059412 21.065917 
L 54.287813 21.369406 
L 54.962687 21.816588 
L 54.728488 21.511133 
L 54.070832 21.081091 
L 54.31054 21.38827 
L 54.950977 21.801316 
L 54.70605 21.492652 
L 54.082818 21.09645 
L 54.332682 21.406365 
L 54.938731 21.785882 
L 54.684211 21.474944 
L 54.095311 21.111946 
L 54.772026 21.754393 
L 54.926005 21.770336 
L 54.251727 21.135169 
L 54.108256 21.127533 
L 54.779725 21.755191 
L 54.912855 21.75472 
L 54.244554 21.134787 
L 54.121598 21.143167 
L 54.786382 21.755167 
L 54.899334 21.739077 
L 54.238406 21.135206 
L 54.135285 21.158807 
L 54.792029 21.754363 
L 54.885494 21.723449 
L 54.23325 21.136386 
L 54.149265 21.174413 
L 54.796702 21.752817 
L 54.871386 21.707875 
L 54.229051 21.138287 
L 54.163489 21.189947 
L 54.800437 21.75057 
L 54.857058 21.69239 
L 54.225772 21.14087 
L 54.177909 21.205374 
L 54.803268 21.747661 
L 54.842557 21.677029 
L 54.223379 21.144095 
L 54.192479 21.22066 
L 54.805232 21.744129 
L 54.827928 21.661826 
L 54.221834 21.147924 
L 54.207156 21.235773 
L 54.806367 21.740014 
L 54.813214 21.646811 
L 54.2211 21.152316 
L 54.221897 21.250683 
L 54.806709 21.735354 
L 54.798457 21.632012 
L 54.22114 21.157234 
L 54.236662 21.265363 
L 54.806297 21.730187 
L 54.783694 21.617458 
L 54.221916 21.162641 
L 54.251412 21.279787 
L 54.805167 21.72455 
L 54.768965 21.603171 
L 54.223391 21.168498 
L 54.266112 21.29393 
L 54.803357 21.718481 
L 54.754304 21.589177 
L 54.225527 21.17477 
L 54.280726 21.307771 
L 54.800904 21.712016 
L 54.739745 21.575495 
L 54.228287 21.18142 
L 54.295222 21.321289 
L 54.797846 21.70519 
L 54.72532 21.562145 
L 54.231634 21.188413 
L 54.309568 21.334466 
L 54.79422 21.698038 
L 54.23553 21.195716 
L 54.513868 21.445033 
" clip-path="url(#p9ea4ce2fa5)" style="fill: none; stroke: #0000ff; stroke-opacity: 0.7; stroke-width: 0.5; stroke-linecap: square"/>
   </g>
   <g id="line2d_7">
    <path d="M 213.38937 136.12802 
L 300.987644 84.201758 
L 105.779434 -1 
M 100.103245 -1 
L 217.769283 133.531707 
L 290.768182 79.741309 
L 102.656948 1.919738 
L 221.419228 130.842187 
L 281.36262 75.850231 
L 108.595062 8.36586 
L 224.416398 128.09259 
L 272.724242 72.476012 
L 114.386129 14.352197 
L 226.83179 125.311761 
L 264.807336 69.569821 
L 120.008412 19.900175 
L 228.730567 122.524664 
L 257.56739 67.086339 
L 125.44452 25.031399 
L 230.172408 119.752747 
L 250.961247 64.983592 
L 130.680914 29.767467 
L 231.21185 117.01429 
L 244.94723 63.222786 
L 135.707461 34.129808 
L 231.898619 114.324715 
L 239.485242 61.768137 
L 140.517019 38.139553 
L 232.27795 111.696886 
L 234.53683 60.586708 
L 145.105065 41.81742 
L 232.390894 109.141377 
L 230.065242 59.648243 
L 149.469357 45.183618 
L 232.274612 106.66672 
L 226.035448 58.925012 
L 153.60962 48.257773 
L 231.962654 104.279635 
L 222.414156 58.39165 
L 157.527271 51.058866 
L 231.485229 101.985235 
L 219.169812 58.025011 
L 161.225169 53.605184 
L 230.869458 99.787224 
L 216.27258 57.80402 
L 164.707384 55.914286 
L 230.139614 97.688064 
L 213.69432 57.709533 
L 167.978995 58.002975 
L 229.317349 95.689137 
L 211.408554 57.724205 
L 171.045913 59.887283 
L 228.42191 93.790891 
L 209.390422 57.832359 
L 173.914713 61.582464 
L 227.470335 91.992964 
L 207.616636 58.019864 
L 176.592494 63.102989 
L 226.47765 90.294309 
L 206.065429 58.27402 
L 179.086752 64.462555 
L 225.457039 88.693295 
L 204.716495 58.583447 
L 181.405266 65.674092 
L 224.420012 87.187802 
L 203.550934 58.937979 
L 183.556003 66.749777 
L 223.376558 85.775311 
L 202.551187 59.328569 
L 185.547031 67.701054 
L 222.33529 84.452974 
L 201.70098 59.747194 
L 187.386444 68.53865 
L 221.303574 83.217685 
L 200.985253 60.186766 
L 189.0823 69.272602 
L 220.287658 82.066139 
L 200.390105 60.641058 
L 190.642568 69.912279 
L 219.29278 80.994885 
L 199.902728 61.104619 
L 192.075079 70.466409 
L 218.323278 80.000372 
L 199.511346 61.572709 
L 193.387489 70.943107 
L 217.382681 79.078989 
L 199.205153 62.041229 
L 194.587248 71.349901 
L 216.473805 78.227101 
L 198.974258 62.506662 
L 195.681576 71.693761 
L 215.598827 77.441079 
L 198.809624 62.966017 
L 196.677439 71.981127 
L 214.759367 76.717326 
L 198.703014 63.416773 
L 197.581535 72.217937 
L 213.95655 76.052298 
L 198.646941 63.856831 
L 198.400286 72.409655 
L 213.191069 75.442525 
L 198.634608 64.284472 
L 199.139825 72.561299 
L 212.463246 74.884622 
L 198.659869 64.698313 
L 199.805996 72.677465 
L 211.773077 74.375307 
L 198.717175 65.097271 
L 200.40435 72.762357 
L 211.120282 73.911405 
L 198.801534 65.480525 
L 200.940147 72.819809 
L 210.504345 73.489861 
L 198.908464 65.847489 
L 201.418357 72.853312 
L 209.924551 73.107742 
L 199.033959 66.197781 
L 201.843666 72.866033 
L 209.380021 72.762244 
L 199.174444 66.531193 
L 202.220484 72.860844 
L 208.869742 72.450692 
L 199.326746 66.847676 
L 202.552947 72.840336 
L 208.392592 72.170541 
L 199.488056 67.147309 
L 202.844929 72.806846 
L 207.947366 71.919379 
L 199.6559 67.430286 
L 203.100051 72.762473 
L 207.532792 71.694925 
L 199.828108 67.696895 
L 203.321688 72.709096 
L 207.147558 71.495023 
L 200.002787 67.947505 
L 203.512982 72.648392 
L 206.79032 71.317647 
L 200.178296 68.182549 
L 203.676849 72.581855 
L 206.459718 71.160892 
L 200.353224 68.402515 
L 203.815992 72.510807 
L 206.154394 71.022973 
L 200.526362 68.607929 
L 203.932912 72.436415 
L 205.872992 70.902221 
L 200.69669 68.799354 
L 204.029916 72.359705 
L 205.614177 70.797078 
L 200.863351 68.977371 
L 204.109129 72.281574 
L 205.376636 70.706092 
L 201.02564 69.142581 
L 204.172505 72.2028 
L 205.159086 70.627917 
L 201.182983 69.295592 
L 204.221834 72.124056 
L 204.960281 70.561301 
L 201.334926 69.437015 
L 204.258756 72.045918 
L 204.779013 70.505086 
L 201.481117 69.567461 
L 204.284769 71.968876 
L 204.614118 70.458205 
L 201.6213 69.687531 
L 204.301236 71.893343 
L 204.464477 70.419671 
L 201.755297 69.797822 
L 204.309398 71.819659 
L 204.329018 70.388579 
L 201.883002 69.898914 
L 204.310379 71.748105 
L 204.206718 70.364096 
L 202.004371 69.991373 
L 204.305196 71.678905 
L 204.0966 70.34546 
L 202.119412 70.07575 
L 204.294766 71.612233 
L 203.997741 70.331974 
L 202.22818 70.152574 
L 204.279915 71.54822 
L 203.909263 70.323004 
L 202.330766 70.222356 
L 204.261383 71.486959 
L 203.830338 70.317972 
L 202.427297 70.285586 
L 204.23983 71.428509 
L 203.760186 70.316352 
L 202.517924 70.342733 
L 204.215848 71.372902 
L 203.698073 70.317671 
L 202.60282 70.394241 
L 204.189959 71.32014 
L 203.64331 70.3215 
L 202.682177 70.440536 
L 204.162627 71.270208 
L 203.595254 70.327452 
L 202.7562 70.48202 
L 204.134258 71.22307 
L 203.553301 70.33518 
L 202.825103 70.519072 
L 204.10521 71.178676 
L 203.516891 70.344375 
L 202.889108 70.552052 
L 204.075794 71.136961 
L 203.485502 70.354759 
L 202.948442 70.581298 
L 204.04628 71.097851 
L 203.458649 70.366086 
L 203.003334 70.607125 
L 204.016898 71.061262 
L 203.435883 70.378138 
L 203.054012 70.629832 
L 203.987847 71.027106 
L 203.41679 70.390722 
L 203.100704 70.649696 
L 203.959295 70.995287 
L 203.400985 70.403671 
L 203.143634 70.666975 
L 203.931379 70.965706 
L 203.388118 70.416836 
L 203.183021 70.681912 
L 203.904216 70.938263 
L 203.377863 70.43009 
L 203.219081 70.69473 
L 203.877898 70.912854 
L 203.369924 70.443322 
L 203.252022 70.705636 
L 203.8525 70.889377 
L 203.364029 70.456438 
L 203.282045 70.714823 
L 203.828076 70.86773 
L 203.359929 70.469357 
L 203.309347 70.722468 
L 203.804669 70.847812 
L 203.3574 70.482012 
L 203.334113 70.728735 
L 203.782305 70.829522 
L 203.356236 70.494349 
L 203.356523 70.733775 
L 203.761002 70.812763 
L 203.35625 70.50632 
L 203.376747 70.737724 
L 203.740764 70.797441 
L 203.357275 70.51789 
L 203.394947 70.74071 
L 203.72159 70.783463 
L 203.359159 70.529031 
L 203.41128 70.742848 
L 203.703468 70.770742 
L 203.361765 70.539722 
L 203.425889 70.744242 
L 203.686383 70.759191 
L 203.364971 70.549948 
L 203.438914 70.74499 
L 203.670312 70.748729 
L 203.368668 70.5597 
L 203.450484 70.745177 
L 203.65523 70.739277 
L 203.372759 70.568974 
L 203.493542 70.683447 
" clip-path="url(#p9ea4ce2fa5)" style="fill: none; stroke: #0000ff; stroke-opacity: 0.7; stroke-width: 0.5; stroke-linecap: square"/>
   </g>
  </g>
 </g>
 <defs>
  <clipPath id="p9ea4ce2fa5">
   <rect x="14.4" y="14.4" width="279" height="277.2"/>
  </clipPath>
 </defs>
</svg>
