<?xml version="1.0" encoding="utf-8" standalone="no"?>
<!DOCTYPE svg PUBLIC "-//W3C//DTD SVG 1.1//EN"
  "http://www.w3.org/Graphics/SVG/1.1/DTD/svg11.dtd">
<svg xmlns:xlink="http://www.w3.org/1999/xlink" width="283.9991pt" height="280.512pt" viewBox="0 0 283.9991 280.512" xmlns="http://www.w3.org/2000/svg" version="1.1">
 <metadata>
  <rdf:RDF xmlns:dc="http://purl.org/dc/elements/1.1/" xmlns:cc="http://creativecommons.org/ns#" xmlns:rdf="http://www.w3.org/1999/02/22-rdf-syntax-ns#">
   <cc:Work>
    <dc:type rdf:resource="http://purl.org/dc/dcmitype/StillImage"/>
    <dc:date>2025-03-04T16:13:45.354422</dc:date>
    <dc:format>image/svg+xml</dc:format>
    <dc:creator>
     <cc:Agent>
      <dc:title>Matplotlib v3.8.4, https://matplotlib.org/</dc:title>
     </cc:Agent>
    </dc:creator>
   </cc:Work>
  </rdf:RDF>
 </metadata>
 <defs>
  <style type="text/css">*{stroke-linejoin: round; stroke-linecap: butt}</style>
 </defs>
 <g id="figure_1">
  <g id="patch_1">
   <path d="M 0 280.512 
L 283.9991 280.512 
L 283.9991 0 
L 0 0 
L 0 280.512 
z
" style="fill: none"/>
  </g>
  <g id="axes_1">
   <g id="line2d_1">
    <path d="M 141.99955 102.111633 
L 138.874193 102.229748 
L 135.766665 102.583421 
L 132.694697 103.170633 
L 129.675812 103.988034 
L 126.727234 105.030962 
L 123.865784 106.293466 
L 121.107788 107.768344 
L 118.468978 109.447181 
L 115.96441 111.3204 
L 113.608372 113.377314 
L 111.414306 115.606189 
L 109.394728 117.994308 
L 107.56116 120.528048 
L 105.924062 123.192954 
L 104.492774 125.973821 
L 103.275463 128.854787 
L 102.279071 131.819414 
L 101.509284 134.85079 
L 100.970494 137.93162 
L 100.665774 141.044329 
L 100.596863 144.171158 
L 100.764153 147.294269 
L 101.16669 150.395845 
L 101.802179 153.458191 
L 102.666993 156.463837 
L 103.756198 159.395636 
L 105.063582 162.23686 
L 106.581684 164.971303 
L 108.301845 167.583362 
L 110.214251 170.058138 
L 112.307992 172.381511 
L 114.571122 174.540226 
L 116.990731 176.521968 
L 119.553016 178.315431 
L 122.243357 179.910383 
L 125.046407 181.297726 
L 127.946175 182.469544 
L 130.926117 183.419152 
L 133.969232 184.141133 
L 137.058161 184.631368 
L 140.17528 184.887061 
L 143.302807 184.906751 
L 146.422898 184.690327 
L 149.517754 184.239025 
L 152.569719 183.555417 
L 155.561382 182.643405 
L 158.475674 181.508192 
L 161.295971 180.156253 
L 164.006181 178.595301 
L 166.590844 176.834243 
L 169.035214 174.883124 
L 171.325346 172.753076 
L 173.448175 170.45625 
L 175.391589 168.00575 
L 177.144503 165.415556 
L 178.696915 162.700446 
L 180.039969 159.875907 
L 181.166004 156.958056 
L 182.068594 153.963538 
L 182.74259 150.909436 
L 183.184149 147.813174 
L 183.390749 144.692417 
L 183.361214 141.564968 
L 183.095711 138.448669 
L 182.595755 135.361299 
L 181.864198 132.320471 
L 180.905214 129.343533 
L 179.724273 126.447468 
L 178.328114 123.648799 
L 176.7247 120.963492 
L 174.92318 118.406866 
L 172.933832 115.993507 
L 170.768003 113.737183 
L 168.438051 111.650767 
L 165.957268 109.746161 
L 163.339806 108.034231 
L 160.600599 106.524743 
L 157.755272 105.22631 
L 154.82006 104.146339 
L 151.811707 103.290991 
L 148.747375 102.665145 
L 145.644547 102.272373 
L 142.520925 102.114915 
L 139.394328 102.193669 
L 136.282594 102.508186 
L 133.203475 103.056672 
L 130.174538 103.835997 
L 127.213062 104.841716 
L 124.335942 106.068091 
L 121.559594 107.508125 
L 118.899855 109.153603 
L 116.371899 110.995138 
L 113.990149 113.022224 
L 111.768192 115.223296 
L 109.718705 117.585797 
L 107.853379 120.096249 
L 106.182857 122.74033 
L 104.716669 125.502956 
L 103.463178 128.368366 
L 102.429538 131.320212 
L 101.621643 134.341655 
L 101.044104 137.415457 
L 100.700215 140.524082 
L 100.591939 143.649796 
L 100.719892 146.774766 
L 101.083345 149.881164 
L 101.680224 152.95127 
L 102.507125 155.967566 
L 103.559329 158.912846 
L 104.830835 161.770308 
L 106.314387 164.523648 
L 108.001522 167.15716 
L 109.882616 169.655818 
L 111.946937 172.00537 
L 114.182707 174.192409 
L 116.577172 176.20446 
L 119.116671 178.030043 
L 121.786717 179.658744 
L 124.572076 181.08127 
L 127.456859 182.289507 
L 130.424608 183.276561 
L 133.458392 184.036802 
L 136.540903 184.565891 
L 139.654556 184.860811 
L 142.781587 184.91988 
L 145.904156 184.742759 
L 149.004449 184.33046 
L 152.06478 183.685335 
L 155.067688 182.811064 
L 157.996044 181.712635 
L 160.833139 180.396314 
L 163.562789 178.869611 
L 166.169421 177.141236 
L 168.638164 175.22105 
L 170.954934 173.120006 
L 173.106515 170.850091 
L 175.08063 168.424256 
L 176.866018 165.856338 
L 178.452494 163.16099 
L 179.831006 160.353586 
L 180.99369 157.450144 
L 181.933913 154.467228 
L 182.646312 151.421854 
L 183.126821 148.331398 
L 183.372699 145.213489 
L 183.382544 142.085916 
L 183.1563 138.966522 
L 182.695258 135.873101 
L 182.002046 132.823303 
L 181.080621 129.834526 
L 179.93624 126.923822 
L 178.575429 124.107795 
L 177.005954 121.402512 
L 175.236768 118.823405 
L 173.277965 116.385189 
L 171.140718 114.101774 
L 168.837221 111.986186 
L 166.380616 110.050495 
L 163.784917 108.305744 
L 161.064933 106.761886 
L 158.236181 105.42773 
L 155.314799 104.310886 
L 152.317454 103.417727 
L 149.261246 102.753347 
L 146.163609 102.321538 
L 143.042217 102.124762 
L 139.914877 102.164142 
L 136.799429 102.439454 
L 133.713648 102.949126 
L 130.675138 103.690252 
L 127.701234 104.658602 
L 124.808901 105.848653 
L 122.014641 107.253616 
L 119.334394 108.865474 
L 116.783452 110.675033 
L 114.376367 112.671969 
L 112.126872 114.844889 
L 110.0478 117.181398 
L 108.151013 119.668164 
L 106.447331 122.291002 
L 104.946474 125.034947 
L 103.657004 127.884347 
L 102.586278 130.822944 
L 101.740404 133.833975 
L 101.124208 136.900262 
L 100.741205 140.004311 
L 100.59358 143.128413 
L 100.682176 146.254747 
L 101.006487 149.365475 
L 101.564663 152.442852 
L 102.353519 155.469322 
L 103.368555 158.427617 
L 104.60398 161.300861 
L 106.052747 164.072663 
L 107.70659 166.727209 
L 109.556073 169.249355 
L 111.590646 171.624712 
L 113.798702 173.83973 
L 116.167643 175.88177 
L 118.683954 177.739184 
L 121.333281 179.401375 
L 124.100509 180.858859 
L 126.96985 182.103323 
L 129.924935 183.127667 
L 132.948906 183.926046 
L 136.024511 184.493906 
L 139.134204 184.828008 
L 142.260243 184.926445 
L 145.384794 184.788655 
L 148.490033 184.415425 
L 151.558244 183.808884 
L 154.571923 182.972493 
L 157.513877 181.911022 
L 160.367321 180.630529 
L 163.115978 179.138317 
L 165.744165 177.442899 
L 168.23689 175.553949 
L 170.579932 173.482243 
L 172.759922 171.239599 
L 174.764426 168.838813 
L 176.582006 166.293579 
L 178.202293 163.61842 
L 179.616045 160.828596 
L 180.815195 157.940024 
L 181.792902 154.969182 
L 182.543589 151.93302 
L 183.062972 148.848859 
L 183.348089 145.734294 
L 183.397314 142.607092 
L 183.210365 139.485096 
L 182.788308 136.386116 
L 182.133553 133.327831 
L 181.249833 130.32769 
L 180.142191 127.402807 
L 178.816946 124.569869 
L 177.281659 121.845039 
L 175.545087 119.24386 
L 173.617138 116.781174 
L 171.508812 114.471029 
L 169.232136 112.326605 
L 166.800098 110.360135 
L 164.226573 108.582839 
L 161.526244 107.004856 
L 158.714515 105.635188 
L 155.807427 104.48165 
L 152.821566 103.550821 
L 149.773965 102.848013 
L 146.682011 102.377234 
L 143.563344 102.141172 
L 140.435756 102.141172 
L 137.317089 102.377234 
L 134.225135 102.848013 
L 131.177534 103.550821 
L 128.191673 104.48165 
L 125.284585 105.635188 
L 122.472856 107.004856 
L 119.772527 108.582839 
L 117.199002 110.360135 
L 114.766964 112.326605 
L 112.490288 114.471029 
L 110.381961 116.781174 
L 108.454013 119.24386 
L 106.717441 121.845039 
L 105.182153 124.569869 
L 103.856908 127.402807 
L 102.749267 130.32769 
L 101.865547 133.327831 
L 101.210792 136.386116 
L 100.788735 139.485096 
L 100.601786 142.607092 
L 100.651011 145.734294 
L 100.936128 148.848859 
L 101.455511 151.93302 
L 102.206198 154.969182 
L 103.183905 157.940024 
L 104.383055 160.828596 
L 105.796807 163.61842 
L 107.417094 166.293579 
L 109.234674 168.838813 
L 111.239177 171.239599 
L 113.419168 173.482243 
L 115.76221 175.553949 
L 118.254935 177.442899 
L 120.883122 179.138317 
L 123.631779 180.630529 
L 126.485223 181.911022 
L 129.427177 182.972493 
L 132.440856 183.808884 
L 135.509066 184.415425 
L 138.614305 184.788655 
L 141.738857 184.926445 
L 144.864896 184.828008 
L 147.974589 184.493906 
L 151.050193 183.926046 
L 154.074164 183.127667 
L 157.02925 182.103323 
L 159.898591 180.858859 
L 162.665819 179.401375 
L 165.315145 177.739184 
L 167.831457 175.88177 
L 170.200398 173.83973 
L 172.408453 171.624712 
L 174.443027 169.249355 
L 176.29251 166.727209 
L 177.946353 164.072663 
L 179.395119 161.300861 
L 180.630545 158.427617 
L 181.645581 155.469322 
L 182.434437 152.442852 
L 182.992613 149.365475 
L 183.316924 146.254747 
L 183.40552 143.128413 
L 183.257895 140.004311 
L 182.874892 136.900262 
L 182.258696 133.833975 
L 181.412822 130.822944 
L 180.342096 127.884347 
L 179.052626 125.034947 
L 177.551769 122.291002 
L 175.848087 119.668164 
L 173.9513 117.181398 
L 171.872228 114.844889 
L 169.622733 112.671969 
L 167.215648 110.675033 
L 164.664706 108.865474 
L 161.984459 107.253616 
L 159.190199 105.848653 
L 156.297866 104.658602 
L 153.323962 103.690252 
L 150.285452 102.949126 
L 147.199671 102.439454 
L 144.084223 102.164142 
L 141.99955 102.111633 
L 141.99955 102.111633 
" clip-path="url(#p7ef83273ca)" style="fill: none; stroke: #1f77b4; stroke-width: 2; stroke-linecap: square"/>
   </g>
   <g id="line2d_2">
    <path d="M 141.99955 60.703816 
L 137.834333 60.890768 
L 133.704397 61.449787 
L 129.644624 62.375383 
L 125.689102 63.658482 
L 121.870745 65.286532 
L 118.220921 67.24366 
L 114.769101 69.510854 
L 111.542538 72.066204 
L 108.565961 74.885154 
L 105.861313 77.940804 
L 103.44752 81.204233 
L 101.340288 84.644837 
L 99.551957 88.230705 
L 98.091383 91.92899 
L 96.963869 95.706301 
L 96.171137 99.529099 
L 95.711351 103.364088 
L 95.57917 107.178606 
L 95.765863 110.941 
L 96.259448 114.620996 
L 97.044879 118.190037 
L 98.10427 121.621608 
L 99.417153 124.89153 
L 100.96076 127.978218 
L 102.710346 130.862912 
L 104.639519 133.529864 
L 106.720601 135.966493 
L 108.924994 138.163489 
L 111.223563 140.114884 
L 113.587017 141.818069 
L 115.986291 143.273781 
L 118.392926 144.486032 
L 120.779433 145.462006 
L 123.119643 146.211915 
L 125.389044 146.748807 
L 127.565081 147.088351 
L 129.627444 147.248576 
L 132.469597 147.197173 
L 134.967955 146.862938 
L 137.088866 146.327218 
L 138.814389 145.675006 
L 140.499036 144.772282 
L 141.678238 143.864909 
L 141.999071 143.520115 
L 141.819191 143.832597 
L 141.437889 144.77105 
L 141.047636 146.381543 
L 140.869187 148.030229 
L 140.881036 150.035988 
L 141.161868 152.363371 
L 141.783397 154.96243 
L 142.41823 156.815411 
L 143.248048 158.739775 
L 144.285936 160.711988 
L 145.542191 162.706853 
L 147.024137 164.697841 
L 148.735976 166.657436 
L 150.678679 168.557502 
L 152.849922 170.369655 
L 155.244065 172.065647 
L 157.852169 173.617741 
L 160.662065 174.999094 
L 163.658457 176.184121 
L 166.823073 177.148852 
L 170.134852 177.871267 
L 173.570171 178.33161 
L 177.103102 178.512672 
L 180.705703 178.400053 
L 184.348341 177.982379 
L 188.000029 177.251488 
L 191.628792 176.202577 
L 195.202041 174.834304 
L 198.686962 173.148853 
L 202.050905 171.151948 
L 205.26178 168.852827 
L 208.288439 166.264177 
L 211.101059 163.402013 
L 213.671505 160.285529 
L 215.97367 156.9369 
L 217.983801 153.381054 
L 219.680787 149.645397 
L 221.046428 145.759525 
L 222.065657 141.754889 
L 222.726733 137.664451 
L 223.02139 133.522312 
L 222.944946 129.363332 
L 222.496368 125.22273 
L 221.678293 121.135694 
L 220.497005 117.136976 
L 218.962368 113.260501 
L 217.087715 109.538983 
L 214.889693 106.003554 
L 212.388075 102.68342 
L 209.605527 99.605528 
L 206.567343 96.794271 
L 203.301152 94.271221 
L 199.836589 92.054896 
L 196.204952 90.160565 
L 192.438834 88.600095 
L 188.571743 87.381833 
L 184.637709 86.510544 
L 180.67089 85.987378 
L 176.705176 85.809893 
L 172.7738 85.972113 
L 168.908955 86.46464 
L 165.141429 87.274793 
L 161.500261 88.386801 
L 158.012414 89.782022 
L 154.702485 91.439207 
L 151.592436 93.334782 
L 148.701367 95.443168 
L 146.045327 97.73712 
L 143.637157 100.188085 
L 141.486381 102.766572 
L 139.59914 105.442537 
L 137.978166 108.185763 
L 136.622802 110.96625 
L 135.529062 113.754593 
L 134.689741 116.52235 
L 134.094557 119.242398 
L 133.730336 121.889267 
L 133.581237 124.439448 
L 133.629002 126.871681 
L 133.853243 129.167202 
L 134.231751 131.309962 
L 134.740832 133.286806 
L 135.69474 135.9197 
L 136.799719 138.136374 
L 137.968026 139.932118 
L 139.113679 141.318243 
L 140.466177 142.577471 
L 141.638269 143.355954 
L 141.996438 143.518403 
L 141.574685 143.434069 
L 140.498612 143.372514 
L 138.784935 143.529568 
L 137.121471 143.904135 
L 135.184214 144.579108 
L 133.032854 145.61701 
L 130.738456 147.068976 
L 129.168746 148.286279 
L 127.59661 149.712364 
L 126.048649 151.351779 
L 124.552105 153.205888 
L 123.1345 155.272805 
L 121.823248 157.547368 
L 120.645282 160.021159 
L 119.626677 162.682564 
L 118.792283 165.516882 
L 118.165374 168.506466 
L 117.767311 171.630912 
L 117.61723 174.867279 
L 117.731759 178.190349 
L 118.124761 181.572915 
L 118.807111 184.986094 
L 119.786516 188.399673 
L 121.067365 191.782462 
L 122.650627 195.102673 
L 124.533791 198.328304 
L 126.710843 201.427524 
L 129.1723 204.369071 
L 131.905271 207.12263 
L 134.893576 209.659215 
L 138.117897 211.951524 
L 141.555976 213.974289 
L 145.182842 215.704589 
L 148.971079 217.122147 
L 152.891127 218.209587 
L 156.911601 218.952661 
L 160.999647 219.340441 
L 165.121302 219.365464 
L 169.241886 219.023842 
L 173.326388 218.315324 
L 177.339867 217.243319 
L 181.247848 215.814867 
L 185.016719 214.040576 
L 188.614108 211.934507 
L 192.009258 209.514022 
L 195.17337 206.799588 
L 198.079934 203.81455 
L 200.705024 200.584861 
L 203.027567 197.138788 
L 205.029569 193.506585 
L 206.696318 189.720145 
L 208.016532 185.812635 
L 208.982472 181.818108 
L 209.590015 177.771118 
L 209.838676 173.706316 
L 209.731587 169.658061 
L 209.27544 165.660019 
L 208.480374 161.744789 
L 207.359833 157.943532 
L 205.930373 154.285623 
L 204.211441 150.798328 
L 202.225114 147.506509 
L 199.995809 144.432353 
L 197.549963 141.595148 
L 194.915696 139.011086 
L 192.12245 136.693111 
L 189.200612 134.650805 
L 186.181134 132.890322 
L 183.095146 131.414361 
L 179.973564 130.222182 
L 176.846712 129.309674 
L 173.743949 128.669455 
L 170.693311 128.291016 
L 167.721175 128.160909 
L 164.851946 128.262969 
L 162.107769 128.578564 
L 159.508277 129.086883 
L 157.070367 129.765247 
L 154.808023 130.589442 
L 152.732168 131.534074 
L 150.850565 132.572926 
L 149.167755 133.679341 
L 147.018253 135.407254 
L 145.309155 137.138616 
L 144.015799 138.789256 
L 143.099 140.281969 
L 142.370484 141.910961 
L 142.032516 143.193289 
L 141.99955 143.519449 
L 141.966584 143.193289 
L 141.738194 142.239771 
L 141.130703 140.732409 
L 140.328413 139.307938 
L 139.165608 137.701778 
L 137.598575 135.988264 
L 135.597669 134.249525 
L 134.014947 133.119361 
L 132.232375 132.043382 
L 130.252876 131.048327 
L 128.082607 130.160679 
L 125.73092 129.406291 
L 123.210285 128.81001 
L 120.536162 128.395328 
L 117.726843 128.184029 
L 114.803245 128.19587 
L 111.788677 128.448287 
L 108.708568 128.956114 
L 105.590165 129.731356 
L 102.462209 130.782977 
L 99.354588 132.116742 
L 96.297968 133.735086 
L 93.323421 135.637034 
L 90.462036 137.818159 
L 87.744531 140.270588 
L 85.200869 142.983045 
L 82.859875 145.940947 
L 80.748873 149.126532 
L 78.89333 152.519035 
L 77.316533 156.094902 
L 76.039276 159.828032 
L 75.079593 163.690067 
L 74.452509 167.650696 
L 74.169836 171.677996 
L 74.240006 175.738785 
L 74.667941 179.799003 
L 75.454971 183.824096 
L 76.598791 187.779412 
L 78.093463 191.630597 
L 79.929466 195.343994 
L 82.093787 198.887025 
L 84.57005 202.228571 
L 87.338695 205.339331 
L 90.377192 208.192154 
L 93.660287 210.762358 
L 97.160287 213.028004 
L 100.847371 214.970152 
L 104.68993 216.573068 
L 108.654925 217.824402 
L 112.708263 218.715318 
L 116.815187 219.240585 
L 120.940672 219.398625 
L 125.049821 219.191512 
L 129.108266 218.624932 
L 133.08255 217.708098 
L 136.94051 216.453618 
L 140.65163 214.87733 
L 144.187383 212.998091 
L 147.521541 210.837535 
L 150.630458 208.419794 
L 153.493318 205.771196 
L 156.092352 202.919928 
L 158.413007 199.895687 
L 160.444085 196.729309 
L 162.177831 193.45239 
L 163.609982 190.096893 
L 164.739772 186.694765 
L 165.569891 183.277539 
L 166.106401 179.875965 
L 166.358616 176.519634 
L 166.338929 173.236631 
L 166.062615 170.053209 
L 165.54759 166.993479 
L 164.814142 164.079145 
L 163.884627 161.329258 
L 162.78315 158.760012 
L 161.535219 156.384582 
L 160.167385 154.212992 
L 158.706868 152.252038 
L 157.181184 150.505244 
L 155.617762 148.972866 
L 154.043569 147.651935 
L 151.71895 146.052833 
L 149.511511 144.881971 
L 147.495652 144.092448 
L 145.735071 143.625308 
L 143.871036 143.383713 
L 142.424415 143.434069 
L 142.002661 143.518403 
L 142.360831 143.355954 
L 143.244411 142.797241 
L 144.52283 141.69345 
L 145.642531 140.438662 
L 146.812672 138.781492 
L 147.948481 136.705404 
L 148.962487 134.209726 
L 149.5276 132.319828 
L 149.974436 130.258568 
L 150.278688 128.037599 
L 150.41736 125.671542 
L 150.369116 123.177828 
L 150.114594 120.576499 
L 149.63671 117.889972 
L 148.920928 115.142775 
L 147.955495 112.361244 
L 146.731645 109.573205 
L 145.243768 106.807627 
L 143.489532 104.094259 
L 141.469969 101.463258 
L 139.189516 98.944802 
L 136.656011 96.568706 
L 133.880648 94.364041 
L 130.877888 92.358751 
L 127.665327 90.579292 
L 124.263523 89.05028 
L 120.695787 87.794166 
L 116.987933 86.830929 
L 113.168 86.177806 
L 109.265945 85.849049 
L 105.313302 85.855717 
L 101.342832 86.205515 
L 97.388143 86.902661 
L 93.483309 87.947806 
L 89.662474 89.337992 
L 85.959456 91.066659 
L 82.407354 93.123685 
L 79.03816 95.495489 
L 75.882386 98.165153 
L 72.968705 101.112606 
L 70.323618 104.314835 
L 67.97114 107.746133 
L 65.932521 111.378385 
L 64.225998 115.181381 
L 62.866583 119.123151 
L 61.865891 123.17033 
L 61.232005 127.288529 
L 60.969394 131.44273 
L 61.078859 135.597679 
L 61.557536 139.718286 
L 62.398942 143.770024 
L 63.593057 147.719312 
L 65.126455 151.5339 
L 66.982476 155.183221 
L 69.141434 158.638736 
L 71.580863 161.874242 
L 74.275794 164.866157 
L 77.199065 167.593769 
L 80.321651 170.039451 
L 83.613021 172.188836 
L 87.041508 174.030951 
L 90.574694 175.558307 
L 94.179797 176.766951 
L 97.824067 177.656466 
L 101.475173 178.229935 
L 105.10159 178.493857 
L 108.672962 178.45802 
L 112.160461 178.135336 
L 115.537114 177.541641 
L 118.77811 176.695449 
L 121.861077 175.617688 
L 124.766323 174.331393 
L 127.477042 172.861384 
L 129.979487 171.233921 
L 132.263092 169.476341 
L 134.320563 167.616682 
L 136.147917 165.68331 
L 137.744485 163.704532 
L 139.112862 161.70822 
L 140.258828 159.72144 
L 141.191214 157.770099 
L 141.921738 155.8786 
L 142.671203 153.202398 
L 143.05805 150.778226 
L 143.151108 148.66058 
L 143.027027 146.88987 
L 142.665699 145.109945 
L 142.179908 143.832597 
L 142.000029 143.520115 
L 142.320862 143.864909 
L 143.185463 144.561394 
L 144.698192 145.44658 
L 146.290703 146.118509 
L 148.281021 146.702603 
L 150.656539 147.113276 
L 153.388775 147.267655 
L 155.387453 147.189666 
L 157.509042 146.942173 
L 159.734446 146.506067 
L 162.0422 145.864467 
L 164.408734 145.002984 
L 166.808666 143.909963 
L 169.215126 142.576684 
L 171.600094 140.997535 
L 173.934762 139.170129 
L 176.189904 137.095397 
L 178.336258 134.777629 
L 180.344912 132.224467 
L 182.187679 129.446871 
L 183.83748 126.459019 
L 185.268702 123.278188 
L 186.457548 119.924575 
L 187.382363 116.421094 
L 188.023935 112.793127 
L 188.365768 109.068247 
L 188.394323 105.275912 
L 188.099221 101.447131 
L 187.473413 97.614106 
L 186.513298 93.809865 
L 185.218815 90.067874 
L 183.593476 86.421649 
L 181.644368 82.904356 
L 179.382099 79.548424 
L 176.82071 76.385156 
L 173.977539 73.444359 
L 170.873045 70.753986 
L 167.530598 68.339803 
L 163.976224 66.225079 
L 160.238323 64.430304 
L 156.347358 62.972949 
L 152.335513 61.867247 
L 148.236339 61.124027 
L 144.084368 60.750583 
L 141.99955 60.703816 
L 141.99955 60.703816 
" clip-path="url(#p7ef83273ca)" style="fill: none; stroke: #ff7f0e; stroke-width: 2; stroke-linecap: square"/>
   </g>
   <g id="line2d_3">
    <path d="M 141.99955 19.296 
L 138.878236 19.600906 
L 135.798845 20.511186 
L 132.802361 22.013603 
L 129.927906 24.086351 
L 127.211861 26.699439 
L 124.68704 29.81521 
L 122.381932 33.389002 
L 120.320044 37.369921 
L 118.519333 41.701727 
L 116.991763 46.323806 
L 115.74298 51.172214 
L 114.772119 56.180782 
L 114.071751 61.282244 
L 113.627956 66.409378 
L 113.420548 71.496152 
L 113.42342 76.47882 
L 113.605021 81.296988 
L 113.928953 85.894597 
L 114.838262 94.230923 
L 116.406441 106.460628 
L 116.467508 108.470499 
L 116.304721 110.051478 
L 115.877259 111.212616 
L 115.148583 111.970564 
L 114.087273 112.349131 
L 112.667768 112.3787 
L 110.871005 112.095539 
L 108.684939 111.541004 
L 103.134046 109.803332 
L 96.070601 107.563329 
L 92.022763 106.385508 
L 87.672951 105.23835 
L 83.061337 104.17173 
L 78.234278 103.23275 
L 73.243603 102.464853 
L 68.145783 101.907032 
L 63.001006 101.59312 
L 57.872184 101.551208 
L 52.823884 101.803172 
L 47.921234 102.364339 
L 43.228797 103.243282 
L 38.809449 104.441757 
L 34.723277 105.954781 
L 31.026519 107.770842 
L 27.770565 109.872243 
L 25.001031 112.235571 
L 22.756939 114.832274 
L 21.070001 117.629348 
L 19.964034 120.590102 
L 19.454505 123.675001 
L 19.548228 126.842559 
L 20.243208 130.050267 
L 21.528641 133.25554 
L 23.385065 136.416659 
L 25.78467 139.493694 
L 28.691745 142.449376 
L 32.063277 145.249927 
L 35.849662 147.865799 
L 39.995547 150.27233 
L 44.44076 152.450293 
L 49.121331 154.386332 
L 53.970571 156.073274 
L 58.920203 157.510301 
L 63.901513 158.703004 
L 68.846504 159.663284 
L 73.689038 160.409125 
L 78.365935 160.964243 
L 86.991074 161.6228 
L 100.028477 162.195621 
L 102.22181 162.433572 
L 103.955774 162.798245 
L 105.228474 163.332405 
L 106.046336 164.076329 
L 106.423868 165.066888 
L 106.383288 166.336687 
L 105.954003 167.913272 
L 105.171972 169.81844 
L 102.72166 174.669515 
L 97.585417 184.56897 
L 95.703248 188.522365 
L 93.830146 192.762145 
L 92.021408 197.253695 
L 90.330116 201.956118 
L 88.806177 206.822858 
L 87.495432 211.802436 
L 86.438858 216.839296 
L 85.671877 221.874732 
L 85.223771 226.847886 
L 85.117233 231.696805 
L 85.368049 236.359526 
L 85.984915 240.775174 
L 86.969404 244.885052 
L 88.316062 248.633709 
L 90.012654 251.969952 
L 92.040537 254.847798 
L 94.375153 257.227334 
L 96.986639 259.075482 
L 99.840538 260.366646 
L 102.898594 261.083226 
L 106.11961 261.216 
L 109.46037 260.764352 
L 112.87658 259.736357 
L 116.323829 258.148703 
L 119.758544 256.02647 
L 123.138918 253.402748 
L 126.425793 250.318128 
L 129.583482 246.820038 
L 132.580513 242.96198 
L 135.390282 238.802637 
L 137.991593 234.404901 
L 140.369089 229.834822 
L 142.513551 225.160496 
L 144.422067 220.450923 
L 146.098072 215.774847 
L 147.55124 211.199597 
L 148.797256 206.789964 
L 150.758298 198.707565 
L 152.833856 189.185527 
L 153.442506 186.861216 
L 154.077542 185.004419 
L 154.780889 183.628243 
L 155.593891 182.737188 
L 156.556361 182.327151 
L 157.705648 182.385579 
L 159.075751 182.891779 
L 160.696482 183.817362 
L 162.592721 185.126827 
L 170.096172 190.912402 
L 176.65817 195.789514 
L 180.384849 198.359747 
L 184.382365 200.937117 
L 188.622535 203.461629 
L 193.070833 205.87497 
L 197.686914 208.121538 
L 202.425249 210.149406 
L 207.235877 211.91121 
L 212.065252 213.364938 
L 216.857168 214.474615 
L 221.553754 215.210859 
L 226.096508 215.551312 
L 230.427364 215.480927 
L 234.489758 214.99212 
L 238.229681 214.08477 
L 241.596707 212.766078 
L 244.544954 211.050292 
L 247.033978 208.958294 
L 249.029582 206.517062 
L 250.504512 203.759029 
L 251.439034 200.721332 
L 251.82139 197.444985 
L 251.648097 193.973986 
L 250.924116 190.354373 
L 249.662859 186.633252 
L 247.886046 182.857817 
L 245.623417 179.074377 
L 242.912293 175.327414 
L 239.797001 171.658691 
L 236.32817 168.106421 
L 232.561911 164.704524 
L 228.558893 161.481972 
L 224.38334 158.462249 
L 220.101956 155.662933 
L 215.7828 153.095397 
L 211.494139 150.764649 
L 207.303291 148.669307 
L 199.472746 145.148158 
L 187.584364 140.213264 
L 185.656393 139.245641 
L 184.205674 138.311712 
L 183.24766 137.371838 
L 182.789117 136.385975 
L 182.828048 135.314617 
L 183.353773 134.119741 
L 184.347155 132.76571 
L 185.780984 131.220147 
L 189.824018 127.445963 
L 195.126639 122.631833 
L 201.249184 116.706566 
L 204.465423 113.333586 
L 207.700177 109.703933 
L 210.889638 105.838609 
L 213.971171 101.764984 
L 216.884396 97.516391 
L 219.572218 93.131596 
L 221.981791 88.654145 
L 224.065394 84.131618 
L 225.781202 79.61478 
L 227.093947 75.156664 
L 227.975444 70.811592 
L 228.404988 66.634164 
L 228.369604 62.678215 
L 227.86415 58.995785 
L 226.891279 55.636099 
L 225.461248 52.644596 
L 223.591593 50.062004 
L 221.306671 47.923507 
L 218.637071 46.257995 
L 215.618929 45.087427 
L 212.293133 44.426311 
L 208.704453 44.281326 
L 204.900608 44.651073 
L 200.931292 45.525981 
L 196.847166 46.888357 
L 192.698857 48.712589 
L 188.535957 50.96549 
L 184.406072 53.606795 
L 180.353908 56.589773 
L 176.420439 59.861979 
L 172.642154 63.366106 
L 169.050409 67.040931 
L 165.670883 70.822341 
L 162.523169 74.644421 
L 159.620486 78.440571 
L 156.969528 82.144652 
L 152.416988 89.021182 
L 147.277784 97.142507 
L 145.927521 99.070222 
L 144.708628 100.546236 
L 143.585883 101.544793 
L 142.521762 102.048467 
L 141.477338 102.048467 
L 140.413217 101.544793 
L 139.290472 100.546236 
L 138.071579 99.070222 
L 135.207619 94.796723 
L 129.428652 85.692129 
L 127.029572 82.144652 
L 124.378614 78.440571 
L 121.475931 74.644421 
L 118.328217 70.822341 
L 114.948691 67.040931 
L 111.356946 63.366106 
L 107.578661 59.861979 
L 103.645192 56.589773 
L 99.593028 53.606795 
L 95.463143 50.96549 
L 91.300243 48.712589 
L 87.151934 46.888357 
L 83.067808 45.525981 
L 79.098492 44.651073 
L 75.294647 44.281326 
L 71.705967 44.426311 
L 68.38017 45.087427 
L 65.362029 46.257995 
L 62.692429 47.923507 
L 60.407507 50.062004 
L 58.537852 52.644596 
L 57.107821 55.636099 
L 56.13495 58.995785 
L 55.629496 62.678215 
L 55.594112 66.634164 
L 56.023656 70.811592 
L 56.905153 75.156664 
L 58.217898 79.61478 
L 59.933706 84.131618 
L 62.017308 88.654145 
L 64.426882 93.131596 
L 67.114704 97.516391 
L 70.027928 101.764984 
L 73.109462 105.838609 
L 76.298923 109.703933 
L 79.533677 113.333586 
L 82.749916 116.706566 
L 88.872461 122.631833 
L 98.218116 131.220147 
L 99.651945 132.76571 
L 100.645327 134.119741 
L 101.171052 135.314617 
L 101.209983 136.385975 
L 100.75144 137.371838 
L 99.793426 138.311712 
L 98.342707 139.245641 
L 96.414736 140.213264 
L 91.230746 142.400566 
L 84.526354 145.148158 
L 76.695809 148.669307 
L 72.504961 150.764649 
L 68.2163 153.095397 
L 63.897144 155.662933 
L 59.61576 158.462249 
L 55.440207 161.481972 
L 51.437189 164.704524 
L 47.67093 168.106421 
L 44.202099 171.658691 
L 41.086807 175.327414 
L 38.375683 179.074377 
L 36.113054 182.857817 
L 34.336241 186.633252 
L 33.074983 190.354373 
L 32.351003 193.973986 
L 32.17771 197.444985 
L 32.560066 200.721332 
L 33.494588 203.759029 
L 34.969517 206.517062 
L 36.965122 208.958294 
L 39.454146 211.050292 
L 42.402392 212.766078 
L 45.769419 214.08477 
L 49.509342 214.99212 
L 53.571736 215.480927 
L 57.902592 215.551312 
L 62.445346 215.210859 
L 67.141932 214.474615 
L 71.933848 213.364938 
L 76.763223 211.91121 
L 81.573851 210.149406 
L 86.312186 208.121538 
L 90.928267 205.87497 
L 95.376565 203.461629 
L 99.616735 200.937117 
L 103.614251 198.359747 
L 110.775314 193.287025 
L 123.302618 183.817362 
L 124.923349 182.891779 
L 126.293451 182.385579 
L 127.442739 182.327151 
L 128.405209 182.737188 
L 129.218211 183.628243 
L 129.921557 185.004419 
L 130.556594 186.861216 
L 131.789051 191.955786 
L 134.141654 202.607112 
L 135.201844 206.789964 
L 136.44786 211.199597 
L 137.901028 215.774847 
L 139.577033 220.450923 
L 141.485549 225.160496 
L 143.630011 229.834822 
L 146.007507 234.404901 
L 148.608818 238.802637 
L 151.418587 242.96198 
L 154.415618 246.820038 
L 157.573307 250.318128 
L 160.860181 253.402748 
L 164.240556 256.02647 
L 167.675271 258.148703 
L 171.12252 259.736357 
L 174.53873 260.764352 
L 177.87949 261.216 
L 181.100506 261.083226 
L 184.158562 260.366646 
L 187.012461 259.075482 
L 189.623947 257.227334 
L 191.958563 254.847798 
L 193.986446 251.969952 
L 195.683038 248.633709 
L 197.029696 244.885052 
L 198.014184 240.775174 
L 198.631051 236.359526 
L 198.881867 231.696805 
L 198.775329 226.847886 
L 198.327223 221.874732 
L 197.560242 216.839296 
L 196.503668 211.802436 
L 195.192923 206.822858 
L 193.668984 201.956118 
L 191.977692 197.253695 
L 190.168954 192.762145 
L 188.295852 188.522365 
L 184.578946 180.929793 
L 178.827128 169.81844 
L 178.045097 167.913272 
L 177.615812 166.336687 
L 177.575232 165.066888 
L 177.952764 164.076329 
L 178.770626 163.332405 
L 180.043326 162.798245 
L 181.77729 162.433572 
L 183.970623 162.195621 
L 189.685859 161.922172 
L 197.008026 161.6228 
L 205.633164 160.964243 
L 210.310062 160.409125 
L 215.152596 159.663284 
L 220.097587 158.703004 
L 225.078897 157.510301 
L 230.028529 156.073274 
L 234.877769 154.386332 
L 239.558339 152.450293 
L 244.003553 150.27233 
L 248.149438 147.865799 
L 251.935823 145.249927 
L 255.307355 142.449376 
L 258.21443 139.493694 
L 260.614035 136.416659 
L 262.470459 133.25554 
L 263.755892 130.050267 
L 264.450872 126.842559 
L 264.544595 123.675001 
L 264.035066 120.590102 
L 262.929099 117.629348 
L 261.242161 114.832274 
L 258.998069 112.235571 
L 256.228535 109.872243 
L 252.972581 107.770842 
L 249.275823 105.954781 
L 245.189651 104.441757 
L 240.770303 103.243282 
L 236.077866 102.364339 
L 231.175216 101.803172 
L 226.126916 101.551208 
L 220.998094 101.59312 
L 215.853317 101.907032 
L 210.755497 102.464853 
L 205.764822 103.23275 
L 200.937763 104.17173 
L 196.326149 105.23835 
L 187.928499 107.563329 
L 173.128095 112.095539 
L 171.331332 112.3787 
L 169.911827 112.349131 
L 168.850517 111.970564 
L 168.121841 111.212616 
L 167.694378 110.051478 
L 167.531592 108.470499 
L 167.592658 106.460628 
L 168.207089 101.157777 
L 169.644432 90.220833 
L 170.070147 85.894597 
L 170.394079 81.296988 
L 170.57568 76.47882 
L 170.578552 71.496152 
L 170.371144 66.409378 
L 169.927349 61.282244 
L 169.226981 56.180782 
L 168.25612 51.172214 
L 167.007337 46.323806 
L 165.479767 41.701727 
L 163.679056 37.369921 
L 161.617168 33.389002 
L 159.31206 29.81521 
L 156.787239 26.699439 
L 154.071194 24.086351 
L 151.196739 22.013603 
L 148.200255 20.511186 
L 145.120864 19.600906 
L 141.99955 19.296 
L 138.878236 19.600906 
L 135.798845 20.511186 
L 132.802361 22.013603 
L 129.927906 24.086351 
L 127.211861 26.699439 
L 124.68704 29.81521 
L 122.381932 33.389002 
L 120.320044 37.369921 
L 118.519333 41.701727 
L 116.991763 46.323806 
L 115.74298 51.172214 
L 114.772119 56.180782 
L 114.071751 61.282244 
L 113.627956 66.409378 
L 113.420548 71.496152 
L 113.42342 76.47882 
L 113.605021 81.296988 
L 113.928953 85.894597 
L 114.838262 94.230923 
L 116.406441 106.460628 
L 116.467508 108.470499 
L 116.304721 110.051478 
L 115.877259 111.212616 
L 115.148583 111.970564 
L 114.087273 112.349131 
L 112.667768 112.3787 
L 110.871005 112.095539 
L 108.684939 111.541004 
L 103.134046 109.803332 
L 96.070601 107.563329 
L 92.022763 106.385508 
L 87.672951 105.23835 
L 83.061337 104.17173 
L 78.234278 103.23275 
L 73.243603 102.464853 
L 68.145783 101.907032 
L 63.001006 101.59312 
L 57.872184 101.551208 
L 52.823884 101.803172 
L 47.921234 102.364339 
L 43.228797 103.243282 
L 38.809449 104.441757 
L 34.723277 105.954781 
L 31.026519 107.770842 
L 27.770565 109.872243 
L 25.001031 112.235571 
L 22.756939 114.832274 
L 21.070001 117.629348 
L 19.964034 120.590102 
L 19.454505 123.675001 
L 19.548228 126.842559 
L 20.243208 130.050267 
L 21.528641 133.25554 
L 23.385065 136.416659 
L 25.78467 139.493694 
L 28.691745 142.449376 
L 32.063277 145.249927 
L 35.849662 147.865799 
L 39.995547 150.27233 
L 44.44076 152.450293 
L 49.121331 154.386332 
L 53.970571 156.073274 
L 58.920203 157.510301 
L 63.901513 158.703004 
L 68.846504 159.663284 
L 73.689038 160.409125 
L 78.365935 160.964243 
L 86.991074 161.6228 
L 100.028477 162.195621 
L 102.22181 162.433572 
L 103.955774 162.798245 
L 105.228474 163.332405 
L 106.046336 164.076329 
L 106.423868 165.066888 
L 106.383288 166.336687 
L 105.954003 167.913272 
L 105.171972 169.81844 
L 102.72166 174.669515 
L 97.585417 184.56897 
L 95.703248 188.522365 
L 93.830146 192.762145 
L 92.021408 197.253695 
L 90.330116 201.956118 
L 88.806177 206.822858 
L 87.495432 211.802436 
L 86.438858 216.839296 
L 85.671877 221.874732 
L 85.223771 226.847886 
L 85.117233 231.696805 
L 85.368049 236.359526 
L 85.984915 240.775174 
L 86.969404 244.885052 
L 88.316062 248.633709 
L 90.012654 251.969952 
L 92.040537 254.847798 
L 94.375153 257.227334 
L 96.986639 259.075482 
L 99.840538 260.366646 
L 102.898594 261.083226 
L 106.11961 261.216 
L 109.46037 260.764352 
L 112.87658 259.736357 
L 116.323829 258.148703 
L 119.758544 256.02647 
L 123.138918 253.402748 
L 126.425793 250.318128 
L 129.583482 246.820038 
L 132.580513 242.96198 
L 135.390282 238.802637 
L 137.991593 234.404901 
L 140.369089 229.834822 
L 142.513551 225.160496 
L 144.422067 220.450923 
L 146.098072 215.774847 
L 147.55124 211.199597 
L 148.797256 206.789964 
L 150.758298 198.707565 
L 152.833856 189.185527 
L 153.442506 186.861216 
L 154.077542 185.004419 
L 154.780889 183.628243 
L 155.593891 182.737188 
L 156.556361 182.327151 
L 157.705648 182.385579 
L 159.075751 182.891779 
L 160.696482 183.817362 
L 162.592721 185.126827 
L 170.096172 190.912402 
L 176.65817 195.789514 
L 180.384849 198.359747 
L 184.382365 200.937117 
L 188.622535 203.461629 
L 193.070833 205.87497 
L 197.686914 208.121538 
L 202.425249 210.149406 
L 207.235877 211.91121 
L 212.065252 213.364938 
L 216.857168 214.474615 
L 221.553754 215.210859 
L 226.096508 215.551312 
L 230.427364 215.480927 
L 234.489758 214.99212 
L 238.229681 214.08477 
L 241.596707 212.766078 
L 244.544954 211.050292 
L 247.033978 208.958294 
L 249.029582 206.517062 
L 250.504512 203.759029 
L 251.439034 200.721332 
L 251.82139 197.444985 
L 251.648097 193.973986 
L 250.924116 190.354373 
L 249.662859 186.633252 
L 247.886046 182.857817 
L 245.623417 179.074377 
L 242.912293 175.327414 
L 239.797001 171.658691 
L 236.32817 168.106421 
L 232.561911 164.704524 
L 228.558893 161.481972 
L 224.38334 158.462249 
L 220.101956 155.662933 
L 215.7828 153.095397 
L 211.494139 150.764649 
L 207.303291 148.669307 
L 199.472746 145.148158 
L 187.584364 140.213264 
L 185.656393 139.245641 
L 184.205674 138.311712 
L 183.24766 137.371838 
L 182.789117 136.385975 
L 182.828048 135.314617 
L 183.353773 134.119741 
L 184.347155 132.76571 
L 185.780984 131.220147 
L 189.824018 127.445963 
L 195.126639 122.631833 
L 201.249184 116.706566 
L 204.465423 113.333586 
L 207.700177 109.703933 
L 210.889638 105.838609 
L 213.971171 101.764984 
L 216.884396 97.516391 
L 219.572218 93.131596 
L 221.981791 88.654145 
L 224.065394 84.131618 
L 225.781202 79.61478 
L 227.093947 75.156664 
L 227.975444 70.811592 
L 228.404988 66.634164 
L 228.369604 62.678215 
L 227.86415 58.995785 
L 226.891279 55.636099 
L 225.461248 52.644596 
L 223.591593 50.062004 
L 221.306671 47.923507 
L 218.637071 46.257995 
L 215.618929 45.087427 
L 212.293133 44.426311 
L 208.704453 44.281326 
L 204.900608 44.651073 
L 200.931292 45.525981 
L 196.847166 46.888357 
L 192.698857 48.712589 
L 188.535957 50.96549 
L 184.406072 53.606795 
L 180.353908 56.589773 
L 176.420439 59.861979 
L 172.642154 63.366106 
L 169.050409 67.040931 
L 165.670883 70.822341 
L 162.523169 74.644421 
L 159.620486 78.440571 
L 156.969528 82.144652 
L 152.416988 89.021182 
L 147.277784 97.142507 
L 145.927521 99.070222 
L 144.708628 100.546236 
L 143.585883 101.544793 
L 142.521762 102.048467 
L 141.477338 102.048467 
L 140.413217 101.544793 
L 139.290472 100.546236 
L 138.071579 99.070222 
L 135.207619 94.796723 
L 129.428652 85.692129 
L 127.029572 82.144652 
L 124.378614 78.440571 
L 121.475931 74.644421 
L 118.328217 70.822341 
L 114.948691 67.040931 
L 111.356946 63.366106 
L 107.578661 59.861979 
L 103.645192 56.589773 
L 99.593028 53.606795 
L 95.463143 50.96549 
L 91.300243 48.712589 
L 87.151934 46.888357 
L 83.067808 45.525981 
L 79.098492 44.651073 
L 75.294647 44.281326 
L 71.705967 44.426311 
L 68.38017 45.087427 
L 65.362029 46.257995 
L 62.692429 47.923507 
L 60.407507 50.062004 
L 58.537852 52.644596 
L 57.107821 55.636099 
L 56.13495 58.995785 
L 55.629496 62.678215 
L 55.594112 66.634164 
L 56.023656 70.811592 
L 56.905153 75.156664 
L 58.217898 79.61478 
L 59.933706 84.131618 
L 62.017308 88.654145 
L 64.426882 93.131596 
L 67.114704 97.516391 
L 70.027928 101.764984 
L 73.109462 105.838609 
L 76.298923 109.703933 
L 79.533677 113.333586 
L 82.749916 116.706566 
L 88.872461 122.631833 
L 98.218116 131.220147 
L 99.651945 132.76571 
L 100.645327 134.119741 
L 101.171052 135.314617 
L 101.209983 136.385975 
L 100.75144 137.371838 
L 99.793426 138.311712 
L 98.342707 139.245641 
L 96.414736 140.213264 
L 91.230746 142.400566 
L 84.526354 145.148158 
L 76.695809 148.669307 
L 72.504961 150.764649 
L 68.2163 153.095397 
L 63.897144 155.662933 
L 59.61576 158.462249 
L 55.440207 161.481972 
L 51.437189 164.704524 
L 47.67093 168.106421 
L 44.202099 171.658691 
L 41.086807 175.327414 
L 38.375683 179.074377 
L 36.113054 182.857817 
L 34.336241 186.633252 
L 33.074983 190.354373 
L 32.351003 193.973986 
L 32.17771 197.444985 
L 32.560066 200.721332 
L 33.494588 203.759029 
L 34.969517 206.517062 
L 36.965122 208.958294 
L 39.454146 211.050292 
L 42.402392 212.766078 
L 45.769419 214.08477 
L 49.509342 214.99212 
L 53.571736 215.480927 
L 57.902592 215.551312 
L 62.445346 215.210859 
L 67.141932 214.474615 
L 71.933848 213.364938 
L 76.763223 211.91121 
L 81.573851 210.149406 
L 86.312186 208.121538 
L 90.928267 205.87497 
L 95.376565 203.461629 
L 99.616735 200.937117 
L 103.614251 198.359747 
L 110.775314 193.287025 
L 123.302618 183.817362 
L 124.923349 182.891779 
L 126.293451 182.385579 
L 127.442739 182.327151 
L 128.405209 182.737188 
L 129.218211 183.628243 
L 129.921557 185.004419 
L 130.556594 186.861216 
L 131.789051 191.955786 
L 134.141654 202.607112 
L 135.201844 206.789964 
L 136.44786 211.199597 
L 137.901028 215.774847 
L 139.577033 220.450923 
L 141.485549 225.160496 
L 143.630011 229.834822 
L 146.007507 234.404901 
L 148.608818 238.802637 
L 151.418587 242.96198 
L 154.415618 246.820038 
L 157.573307 250.318128 
L 160.860181 253.402748 
L 164.240556 256.02647 
L 167.675271 258.148703 
L 171.12252 259.736357 
L 174.53873 260.764352 
L 177.87949 261.216 
L 181.100506 261.083226 
L 184.158562 260.366646 
L 187.012461 259.075482 
L 189.623947 257.227334 
L 191.958563 254.847798 
L 193.986446 251.969952 
L 195.683038 248.633709 
L 197.029696 244.885052 
L 198.014184 240.775174 
L 198.631051 236.359526 
L 198.881867 231.696805 
L 198.775329 226.847886 
L 198.327223 221.874732 
L 197.560242 216.839296 
L 196.503668 211.802436 
L 195.192923 206.822858 
L 193.668984 201.956118 
L 191.977692 197.253695 
L 190.168954 192.762145 
L 188.295852 188.522365 
L 184.578946 180.929793 
L 178.827128 169.81844 
L 178.045097 167.913272 
L 177.615812 166.336687 
L 177.575232 165.066888 
L 177.952764 164.076329 
L 178.770626 163.332405 
L 180.043326 162.798245 
L 181.77729 162.433572 
L 183.970623 162.195621 
L 189.685859 161.922172 
L 197.008026 161.6228 
L 205.633164 160.964243 
L 210.310062 160.409125 
L 215.152596 159.663284 
L 220.097587 158.703004 
L 225.078897 157.510301 
L 230.028529 156.073274 
L 234.877769 154.386332 
L 239.558339 152.450293 
L 244.003553 150.27233 
L 248.149438 147.865799 
L 251.935823 145.249927 
L 255.307355 142.449376 
L 258.21443 139.493694 
L 260.614035 136.416659 
L 262.470459 133.25554 
L 263.755892 130.050267 
L 264.450872 126.842559 
L 264.544595 123.675001 
L 264.035066 120.590102 
L 262.929099 117.629348 
L 261.242161 114.832274 
L 258.998069 112.235571 
L 256.228535 109.872243 
L 252.972581 107.770842 
L 249.275823 105.954781 
L 245.189651 104.441757 
L 240.770303 103.243282 
L 236.077866 102.364339 
L 231.175216 101.803172 
L 226.126916 101.551208 
L 220.998094 101.59312 
L 215.853317 101.907032 
L 210.755497 102.464853 
L 205.764822 103.23275 
L 200.937763 104.17173 
L 196.326149 105.23835 
L 187.928499 107.563329 
L 173.128095 112.095539 
L 171.331332 112.3787 
L 169.911827 112.349131 
L 168.850517 111.970564 
L 168.121841 111.212616 
L 167.694378 110.051478 
L 167.531592 108.470499 
L 167.592658 106.460628 
L 168.207089 101.157777 
L 169.644432 90.220833 
L 170.070147 85.894597 
L 170.394079 81.296988 
L 170.57568 76.47882 
L 170.578552 71.496152 
L 170.371144 66.409378 
L 169.927349 61.282244 
L 169.226981 56.180782 
L 168.25612 51.172214 
L 167.007337 46.323806 
L 165.479767 41.701727 
L 163.679056 37.369921 
L 161.617168 33.389002 
L 159.31206 29.81521 
L 156.787239 26.699439 
L 154.071194 24.086351 
L 151.196739 22.013603 
L 148.200255 20.511186 
L 145.120864 19.600906 
L 141.99955 19.296 
L 141.99955 19.296 
" clip-path="url(#p7ef83273ca)" style="fill: none; stroke: #2ca02c; stroke-width: 2; stroke-linecap: square"/>
   </g>
  </g>
 </g>
 <defs>
  <clipPath id="p7ef83273ca">
   <rect x="7.2" y="7.2" width="269.5991" height="266.112"/>
  </clipPath>
 </defs>
</svg>
