<?xml version="1.0" encoding="utf-8" standalone="no"?>
<!DOCTYPE svg PUBLIC "-//W3C//DTD SVG 1.1//EN"
  "http://www.w3.org/Graphics/SVG/1.1/DTD/svg11.dtd">
<svg xmlns:xlink="http://www.w3.org/1999/xlink" width="307.8pt" height="306pt" viewBox="0 0 307.8 306" xmlns="http://www.w3.org/2000/svg" version="1.1">
 <metadata>
  <rdf:RDF xmlns:dc="http://purl.org/dc/elements/1.1/" xmlns:cc="http://creativecommons.org/ns#" xmlns:rdf="http://www.w3.org/1999/02/22-rdf-syntax-ns#">
   <cc:Work>
    <dc:type rdf:resource="http://purl.org/dc/dcmitype/StillImage"/>
    <dc:date>2025-03-24T11:11:09.719626</dc:date>
    <dc:format>image/svg+xml</dc:format>
    <dc:creator>
     <cc:Agent>
      <dc:title>Matplotlib v3.8.4, https://matplotlib.org/</dc:title>
     </cc:Agent>
    </dc:creator>
   </cc:Work>
  </rdf:RDF>
 </metadata>
 <defs>
  <style type="text/css">*{stroke-linejoin: round; stroke-linecap: butt}</style>
 </defs>
 <g id="figure_1">
  <g id="patch_1">
   <path d="M 0 306 
L 307.8 306 
L 307.8 0 
L 0 0 
L 0 306 
z
" style="fill: none"/>
  </g>
  <g id="axes_1">
   <g id="line2d_1">
    <path d="M 27.761125 96.696237 
L 27.290852 94.565479 
L 27.089469 92.505132 
L 27.155526 90.513798 
L 27.48847 88.590342 
L 28.088611 86.733916 
L 28.957059 84.943963 
L 30.09563 83.220227 
L 31.506722 81.56275 
L 33.193163 79.971874 
L 35.158033 78.44823 
L 37.40445 76.992728 
L 39.935334 75.606546 
L 42.753145 74.291109 
L 45.85959 73.048079 
L 49.255305 71.879328 
L 54.231323 70.44014 
L 59.713147 69.142084 
L 65.686725 67.991035 
L 72.129201 66.993307 
L 79.007276 66.155628 
L 86.275633 65.485152 
L 93.875497 64.989509 
L 101.733416 64.67691 
L 109.760373 64.556309 
L 117.851338 64.637621 
L 125.885367 64.931999 
L 133.726385 65.45216 
L 141.224752 66.212751 
L 146.527295 66.951076 
L 151.475998 67.84224 
L 155.998591 68.895276 
L 160.02257 70.120192 
L 162.392886 71.037687 
L 164.48928 72.039959 
L 166.291952 73.130715 
L 167.782078 74.313849 
L 168.942048 75.593428 
L 169.755715 76.973676 
L 170.208639 78.458949 
L 170.288344 80.053707 
L 169.98456 81.762478 
L 169.289469 83.589816 
L 168.197936 85.540253 
L 166.707724 87.618247 
L 164.819697 89.828117 
L 162.537987 92.17398 
L 159.870148 94.659675 
L 155.169626 98.657914 
L 149.678754 102.988367 
L 141.253536 109.290693 
L 113.460975 129.733572 
L 105.30355 136.060927 
L 97.176574 142.676108 
L 91.852726 147.232497 
L 86.658392 151.894648 
L 81.63943 156.65164 
L 76.84056 161.491478 
L 72.304834 166.401161 
L 68.073117 171.366779 
L 64.183599 176.373617 
L 60.671342 181.406274 
L 57.567878 186.448806 
L 54.900851 191.484868 
L 52.693734 196.497868 
L 50.965599 201.471132 
L 50.285868 203.93767 
L 49.730965 206.388064 
L 49.30198 208.820281 
L 48.999712 211.232309 
L 48.824667 213.622168 
L 48.777068 215.987911 
L 48.856849 218.327632 
L 49.063668 220.639467 
L 49.396906 222.9216 
L 49.855676 225.172267 
L 50.43883 227.389759 
L 51.144968 229.572427 
L 51.972444 231.718682 
L 52.919376 233.827003 
L 53.983659 235.895934 
L 55.162971 237.924094 
L 56.45479 239.910169 
L 57.856398 241.852923 
L 60.977231 245.603907 
L 64.500362 249.168695 
L 68.398399 252.540205 
L 72.64207 255.712631 
L 77.200631 258.681436 
L 82.042258 261.443327 
L 87.13443 263.996223 
L 92.444288 266.339197 
L 97.938973 268.472421 
L 103.585931 270.39709 
L 109.353186 272.115344 
L 115.209589 273.630187 
L 121.125023 274.945392 
L 127.070583 276.06542 
L 133.018718 276.995319 
L 138.94334 277.740642 
L 144.819914 278.307357 
L 150.625509 278.70176 
L 156.338832 278.9304 
L 161.940234 279 
L 167.4117 278.917388 
L 175.339809 278.523101 
L 182.890193 277.824862 
L 190.021527 276.845289 
L 196.699479 275.606244 
L 202.896144 274.128593 
L 206.748754 273.020712 
L 210.372328 271.821084 
L 213.76261 270.534967 
L 216.916234 269.167347 
L 219.830652 267.722937 
L 222.504071 266.206185 
L 224.93539 264.621269 
L 227.124142 262.972112 
L 229.070449 261.262391 
L 230.774966 259.495545 
L 232.238845 257.674792 
L 233.463697 255.80314 
L 234.451557 253.883408 
L 235.204854 251.918237 
L 235.726392 249.910111 
L 236.019321 247.861372 
L 236.087125 245.774237 
L 235.933603 243.650817 
L 235.562856 241.493135 
L 234.979281 239.303137 
L 234.187554 237.082715 
L 233.192631 234.833718 
L 231.999734 232.557966 
L 230.614348 230.257266 
L 228.187985 226.763391 
L 225.361935 223.223592 
L 222.157853 219.644135 
L 218.59856 216.031468 
L 214.70797 212.392268 
L 210.511018 208.733474 
L 204.483311 203.837102 
L 198.020438 198.936595 
L 191.187791 194.050604 
L 184.052073 189.198447 
L 174.808715 183.211002 
L 165.327627 177.346427 
L 153.815972 170.525621 
L 142.355429 164.001955 
L 129.305528 156.845818 
L 116.855242 150.257976 
L 103.642056 143.510315 
L 91.748744 137.664461 
L 80.148974 132.217486 
L 71.515381 128.394985 
L 64.486009 125.522813 
L 59.637987 123.770569 
L 56.429756 122.817076 
L 54.409458 122.398241 
L 52.971752 122.312375 
L 52.235202 122.478454 
L 51.921924 122.737771 
L 51.812688 123.111248 
L 51.90718 123.597863 
L 52.350477 124.421248 
L 53.158191 125.442809 
L 54.685567 126.997077 
L 57.290681 129.268088 
L 60.758007 131.982303 
L 65.922337 135.710541 
L 72.318292 140.043734 
L 81.143338 145.728946 
L 92.931383 153.02465 
L 112.884956 165.050088 
L 131.291773 176.20837 
L 142.869203 183.492368 
L 150.658229 188.640142 
L 156.397915 192.652362 
L 161.54347 196.510861 
L 164.923569 199.268161 
L 167.82429 201.879105 
L 170.18614 204.316427 
L 171.953542 206.552384 
L 172.776617 207.917407 
L 173.300123 209.172396 
L 173.512745 210.309325 
L 173.405124 211.320379 
L 172.970083 212.198029 
L 172.202855 212.93511 
L 171.10128 213.524903 
L 169.665997 213.961213 
L 167.900596 214.238454 
L 165.811751 214.351729 
L 163.409309 214.296912 
L 160.706342 214.070718 
L 156.124957 213.405187 
L 150.973265 212.345175 
L 145.335065 210.892265 
L 139.308188 209.053714 
L 133.002586 206.842617 
L 126.537907 204.277924 
L 120.040599 201.384282 
L 113.640666 198.191715 
L 109.492488 195.91432 
L 105.48331 193.530909 
L 101.64981 191.053631 
L 98.027068 188.495257 
L 94.648133 185.869057 
L 91.543632 183.188672 
L 88.741421 180.467973 
L 86.266276 177.720932 
L 84.139635 174.961478 
L 82.379408 172.203366 
L 80.99983 169.46004 
L 80.011385 166.744511 
L 79.420783 164.069243 
L 79.231001 161.446041 
L 79.441369 158.885958 
L 80.047717 156.399215 
L 81.04256 153.995132 
L 82.415321 151.682068 
L 84.152597 149.467391 
L 86.238436 147.357442 
L 88.654644 145.357531 
L 91.381102 143.471933 
L 94.396082 141.703903 
L 97.67657 140.055701 
L 101.198581 138.528625 
L 104.937458 137.123058 
L 108.868159 135.838515 
L 112.965527 134.673698 
L 119.36942 133.146298 
L 126.009298 131.873799 
L 132.805572 130.843517 
L 139.683001 130.040316 
L 146.571559 129.447104 
L 153.407033 129.045307 
L 162.339011 128.773321 
L 170.954015 128.758528 
L 179.151537 128.952149 
L 188.688297 129.413904 
L 198.933989 130.171066 
L 209.059648 131.151213 
L 225.93781 132.855067 
L 227.805855 132.793689 
L 228.430395 132.617801 
L 228.691863 132.329161 
L 228.668667 132.071162 
L 228.344517 131.581999 
L 227.38808 130.732436 
L 225.387535 129.342383 
L 221.189665 126.767521 
L 194.604304 110.937396 
L 185.645092 105.18629 
L 177.811922 99.863619 
L 171.341941 95.197391 
L 165.063135 90.362263 
L 160.26635 86.399578 
L 155.743801 82.375868 
L 151.562196 78.312904 
L 148.689081 75.253228 
L 146.07131 72.193386 
L 143.734865 69.142948 
L 141.704751 66.111597 
L 140.004841 63.109154 
L 138.657719 60.145601 
L 137.966131 58.196522 
L 137.446632 56.272324 
L 137.104749 54.376136 
L 136.945645 52.51115 
L 136.974093 50.680627 
L 137.194451 48.887906 
L 137.610637 47.136408 
L 138.226101 45.429649 
L 139.043793 43.771241 
L 140.066137 42.164907 
L 141.294995 40.614478 
L 142.731635 39.123907 
L 144.376695 37.697267 
L 146.230143 36.338757 
L 148.291245 35.052705 
L 150.558518 33.843563 
L 153.029691 32.71591 
L 155.701665 31.674443 
L 158.570471 30.723975 
L 163.231795 29.47967 
L 168.304221 28.468136 
L 173.762067 27.706648 
L 179.574252 27.212632 
L 185.704078 27.003461 
L 192.109079 27.096199 
L 198.740956 27.507309 
L 205.545615 28.252318 
L 210.148781 28.94158 
L 214.783295 29.789409 
L 219.429154 30.799228 
L 224.065447 31.974012 
L 228.670447 33.31624 
L 233.221726 34.827829 
L 237.69628 36.510091 
L 242.070682 38.363677 
L 246.321237 40.388528 
L 250.424171 42.583837 
L 254.355818 44.948008 
L 258.092832 47.478626 
L 261.612403 50.172436 
L 264.892485 53.025326 
L 267.912026 56.032324 
L 270.651205 59.187603 
L 273.091657 62.484497 
L 275.216706 65.915526 
L 277.011575 69.472433 
L 278.463593 73.146237 
L 279.562371 76.927285 
L 280.299971 80.805326 
L 280.671038 84.769584 
L 280.672908 88.808848 
L 280.30568 92.911562 
L 279.572262 97.065919 
L 278.478376 101.259971 
L 277.032523 105.481721 
L 275.245925 109.719237 
L 273.132414 113.960748 
L 270.708306 118.194743 
L 267.992224 122.41007 
L 265.004911 126.59602 
L 261.769001 130.742411 
L 258.308776 134.839658 
L 254.649911 138.878836 
L 250.819194 142.851737 
L 244.811473 148.670721 
L 238.57459 154.302163 
L 232.204403 159.728339 
L 223.666203 166.620987 
L 213.219744 174.658997 
L 189.641938 192.518467 
L 183.957705 197.175863 
L 180.276907 200.433668 
L 177.116606 203.502538 
L 174.486197 206.394545 
L 172.386656 209.122018 
L 171.278856 210.855015 
L 170.400409 212.523963 
L 169.746316 214.132386 
L 169.310437 215.683713 
L 169.085599 217.181262 
L 169.063714 218.628222 
L 169.235893 220.027644 
L 169.592554 221.382433 
L 170.123534 222.695341 
L 170.818191 223.968967 
L 172.142884 225.811048 
L 173.772688 227.577788 
L 175.668516 229.276021 
L 177.791093 230.911856 
L 180.906709 233.005223 
L 184.266302 235.008492 
L 188.678326 237.400277 
L 195.866622 241.002898 
L 206.651511 246.375933 
L 210.824354 248.690014 
L 213.771218 250.549706 
L 215.736671 251.995793 
L 217.325089 253.406603 
L 218.514396 254.782987 
L 219.133184 255.792713 
L 219.510327 256.782714 
L 219.640081 257.752252 
L 219.517544 258.700184 
L 219.138621 259.624911 
L 218.499997 260.524337 
L 217.599148 261.395815 
L 216.434366 262.236101 
L 215.004819 263.041301 
L 212.687266 264.052288 
L 209.902689 264.979704 
L 206.658409 265.808063 
L 202.966509 266.51918 
L 198.844713 267.092048 
L 194.317385 267.502744 
L 189.416596 267.724405 
L 184.183205 267.727272 
L 178.667903 267.478825 
L 172.932109 266.944027 
L 168.528934 266.332717 
L 164.077507 265.523148 
L 159.616585 264.498656 
L 155.188511 263.242407 
L 150.838976 261.737619 
L 146.616651 259.967819 
L 143.897608 258.632847 
L 141.273414 257.168518 
L 138.759945 255.570559 
L 136.373205 253.834965 
L 134.129195 251.95805 
L 132.043766 249.936493 
L 130.132459 247.767388 
L 128.410337 245.448297 
L 126.891807 242.977295 
L 125.590435 240.353022 
L 124.518758 237.574729 
L 123.688091 234.642319 
L 123.108345 231.556388 
L 122.787839 228.318265 
L 122.733127 224.930034 
L 122.948843 221.394568 
L 123.43755 217.715538 
L 124.199622 213.89743 
L 125.233141 209.945544 
L 126.53383 205.865988 
L 128.095004 201.665663 
L 129.907572 197.352239 
L 131.96005 192.934118 
L 134.238634 188.420397 
L 138.044807 181.492021 
L 142.260376 174.405819 
L 146.813322 167.199421 
L 153.270322 157.472247 
L 163.366945 142.823425 
L 174.920188 126.031634 
L 181.019757 116.757508 
L 185.217222 110.017974 
L 189.020308 103.497326 
L 192.375997 97.222067 
L 195.242261 91.214909 
L 196.865611 87.368513 
L 198.25137 83.65427 
L 199.395551 80.07597 
L 200.296346 76.636626 
L 200.954044 73.338496 
L 201.370914 70.183109 
L 201.551086 67.17129 
L 201.500401 64.303203 
L 201.226259 61.57838 
L 200.737454 58.995773 
L 200.044001 56.553791 
L 199.15697 54.25035 
L 198.08831 52.082918 
L 196.850683 50.048564 
L 195.457301 48.144002 
L 193.921773 46.365641 
L 192.257956 44.709625 
L 190.479819 43.171881 
L 187.628772 41.077687 
L 184.598375 39.225112 
L 181.433766 37.59883 
L 178.178127 36.183332 
L 174.872226 34.963138 
L 170.451439 33.613697 
L 166.090308 32.54931 
L 161.860758 31.736628 
L 156.852485 31.027391 
L 152.246504 30.607187 
L 148.121877 30.426779 
L 143.891089 30.467332 
L 140.512023 30.731315 
L 138.379789 31.087376 
L 136.884007 31.544869 
L 136.148544 31.973852 
L 135.864949 32.328923 
L 135.808891 32.711102 
L 135.977298 33.119796 
L 136.543761 33.70615 
L 137.489162 34.341654 
L 139.178617 35.211031 
L 142.416175 36.589573 
L 155.811425 42.014513 
L 159.643326 43.857889 
L 162.685342 45.519729 
L 165.62791 47.369796 
L 167.722812 48.89378 
L 169.683535 50.545222 
L 171.474724 52.333897 
L 173.06055 54.269803 
L 174.405228 56.363071 
L 175.150303 57.85103 
L 175.762426 59.416446 
L 176.231825 61.062285 
L 176.549173 62.791456 
L 176.705701 64.606795 
L 176.693299 66.511042 
L 176.504627 68.50681 
L 176.133225 70.596565 
L 175.57362 72.782594 
L 174.821438 75.066978 
L 173.873498 77.451556 
L 172.080799 81.219643 
L 169.843294 85.220619 
L 167.168119 89.456688 
L 164.070416 93.928023 
L 160.573597 98.632539 
L 155.346372 105.259692 
L 148.046317 114.086161 
L 128.545526 137.362632 
L 121.97957 145.614092 
L 117.211143 151.902914 
L 112.656055 158.245612 
L 108.38268 164.611725 
L 104.454706 170.969776 
L 102.056657 175.188201 
L 99.853124 179.379319 
L 97.857773 183.533694 
L 96.082548 187.64203 
L 94.537569 191.695236 
L 93.23107 195.684492 
L 92.169345 199.601308 
L 91.356736 203.437584 
L 90.795633 207.185664 
L 90.486507 210.838377 
L 90.42796 214.389084 
L 90.616798 217.831711 
L 91.048123 221.160774 
L 91.715443 224.3714 
L 92.610789 227.459346 
L 93.724855 230.421 
L 95.047131 233.253383 
L 96.566058 235.954144 
L 98.269177 238.521549 
L 100.143277 240.954463 
L 102.17455 243.252327 
L 104.348735 245.415134 
L 106.651259 247.443398 
L 109.067373 249.338119 
L 111.582278 251.100754 
L 114.181243 252.733173 
L 118.205528 254.942658 
L 122.338361 256.873272 
L 126.53384 258.535411 
L 130.748571 259.940603 
L 134.942063 261.101227 
L 139.077011 262.030258 
L 143.11948 262.741028 
L 147.039007 263.247013 
L 150.808623 263.561643 
L 155.561426 263.706301 
L 159.959836 263.564604 
L 163.967497 263.165397 
L 167.557514 262.535686 
L 170.711749 261.700438 
L 172.785089 260.952926 
L 174.605964 260.111496 
L 176.175046 259.184283 
L 177.495056 258.178751 
L 178.570642 257.101717 
L 179.408273 255.959376 
L 180.016153 254.757334 
L 180.404139 253.500638 
L 180.583676 252.193805 
L 180.567745 250.840858 
L 180.370809 249.445348 
L 179.854353 247.523769 
L 179.086077 245.538194 
L 177.841684 242.973599 
L 175.747403 239.240376 
L 172.592226 233.629822 
L 171.203993 230.697336 
L 170.297248 228.283903 
L 169.640771 225.804029 
L 169.350289 223.895832 
L 169.261173 221.941816 
L 169.397668 219.937339 
L 169.782467 217.877152 
L 170.436332 215.75541 
L 171.377682 213.565696 
L 172.622184 211.301068 
L 174.182343 208.954113 
L 176.067091 206.517032 
L 178.281397 203.981737 
L 181.7469 200.434306 
L 185.787434 196.678083 
L 191.603675 191.660616 
L 199.582446 185.123955 
L 216.2423 171.554143 
L 222.627955 166.097218 
L 229.001892 160.369949 
L 233.69717 155.906073 
L 238.257622 151.307984 
L 242.627617 146.587498 
L 246.752643 141.758884 
L 250.580371 136.838771 
L 252.942616 133.517084 
L 255.13728 130.169152 
L 257.151784 126.801428 
L 258.974628 123.420683 
L 260.595496 120.033973 
L 262.005348 116.648581 
L 263.196501 113.271977 
L 264.162696 109.911755 
L 264.899145 106.575587 
L 265.402571 103.271159 
L 265.671219 100.00612 
L 265.704864 96.788024 
L 265.504791 93.624276 
L 265.073767 90.522077 
L 264.415996 87.488377 
L 263.537056 84.529825 
L 262.443825 81.65273 
L 261.144404 78.863017 
L 259.648011 76.166197 
L 257.964888 73.567338 
L 256.106183 71.07104 
L 254.083838 68.681413 
L 251.91047 66.402073 
L 249.599252 64.236124 
L 247.163786 62.186162 
L 244.617994 60.254276 
L 241.975989 58.442052 
L 237.863647 55.950346 
L 233.614499 53.731937 
L 229.275402 51.786266 
L 224.891667 50.110677 
L 220.506471 48.700612 
L 216.160356 47.54982 
L 211.890831 46.650571 
L 207.732051 45.993877 
L 203.714595 45.5697 
L 199.865311 45.367161 
L 196.207248 45.374727 
L 192.759632 45.580394 
L 189.537912 45.971841 
L 186.553838 46.536578 
L 183.815592 47.262067 
L 181.327928 48.135835 
L 179.092351 49.145562 
L 177.107303 50.279161 
L 175.368363 51.524841 
L 173.86845 52.871162 
L 172.598039 54.307077 
L 171.545362 55.821965 
L 170.696624 57.405668 
L 170.036203 59.048508 
L 169.546857 60.741311 
L 169.128068 63.061234 
L 168.932531 65.435687 
L 168.924682 68.454435 
L 169.168336 72.723921 
L 169.485302 78.197071 
L 169.453751 81.199705 
L 169.232836 83.575248 
L 168.784548 85.926436 
L 168.06324 88.25538 
L 167.318042 89.990276 
L 166.38034 91.718331 
L 165.236384 93.443425 
L 163.87445 95.170273 
L 162.285034 96.904408 
L 159.800081 99.238935 
L 156.888938 101.614656 
L 153.551136 104.050519 
L 148.793952 107.211412 
L 142.28476 111.231259 
L 121.730554 123.701129 
L 114.83165 128.260303 
L 109.34404 132.165735 
L 103.988445 136.30605 
L 100.118541 139.564975 
L 96.421985 142.952649 
L 92.94126 146.464053 
L 89.717812 150.091935 
L 86.791295 153.826786 
L 85.023694 156.370409 
L 83.414828 158.952388 
L 81.974158 161.568298 
L 80.710304 164.213326 
L 79.630965 166.88229 
L 78.742838 169.569677 
L 78.051546 172.269667 
L 77.561582 174.976175 
L 77.276255 177.682892 
L 77.197654 180.383326 
L 77.326618 183.070846 
L 77.662725 185.738735 
L 78.204286 188.380233 
L 78.94836 190.988586 
L 79.890777 193.5571 
L 81.026173 196.079186 
L 82.348042 198.548406 
L 83.848795 200.958521 
L 85.519829 203.303533 
L 87.351611 205.577726 
L 89.333762 207.775698 
L 91.455159 209.892403 
L 94.872441 212.904981 
L 98.534527 215.710273 
L 102.397627 218.29645 
L 106.416888 220.653975 
L 110.547213 222.775655 
L 114.744054 224.656638 
L 118.964142 226.294377 
L 123.166159 227.688541 
L 127.311323 228.840908 
L 131.363883 229.755217 
L 135.291532 230.437009 
L 139.065712 230.893444 
L 142.661838 231.133113 
L 146.05943 231.165845 
L 149.242154 231.002508 
L 152.197803 230.654821 
L 154.9182 230.135168 
L 157.39905 229.456422 
L 159.639735 228.631776 
L 161.643085 227.674595 
L 163.415103 226.598269 
L 164.964682 225.416091 
L 166.303298 224.141133 
L 167.4447 222.786149 
L 168.404598 221.363481 
L 169.432337 219.381698 
L 170.213194 217.327073 
L 170.915156 214.693396 
L 171.484412 211.492757 
L 172.784781 203.155963 
L 173.474341 200.692902 
L 174.22141 198.784789 
L 175.180395 196.93278 
L 176.381774 195.134521 
L 177.851051 193.384905 
L 179.608321 191.676153 
L 181.667856 189.997932 
L 184.037684 188.337507 
L 187.437777 186.264051 
L 191.311552 184.1615 
L 197.467976 181.097528 
L 211.707614 174.134231 
L 217.110798 171.245185 
L 221.421581 168.742065 
L 225.64416 166.052861 
L 229.702059 163.166928 
L 232.589811 160.869316 
L 235.306584 158.456344 
L 237.818831 155.928691 
L 240.093832 153.2888 
L 242.100282 150.54095 
L 243.808903 147.691306 
L 244.769242 145.738895 
L 245.578188 143.747639 
L 246.22934 141.720753 
L 246.717082 139.661799 
L 247.036654 137.574678 
L 247.184208 135.463603 
L 247.156863 133.333081 
L 246.952749 131.187886 
L 246.571044 129.03303 
L 246.011996 126.873729 
L 245.276942 124.71537 
L 244.36831 122.563476 
L 243.289609 120.423664 
L 242.045414 118.301605 
L 239.881363 115.16424 
L 237.38086 112.098647 
L 234.571557 109.123417 
L 231.485169 106.256394 
L 228.156853 103.514393 
L 224.624508 100.912938 
L 220.92802 98.46604 
L 217.108476 96.186003 
L 213.20737 94.083272 
L 209.26582 92.166328 
L 205.323827 90.441619 
L 200.132829 88.44833 
L 195.09226 86.809147 
L 190.275921 85.522662 
L 185.746172 84.581703 
L 181.552859 83.973888 
L 177.732775 83.682305 
L 174.309637 83.686242 
L 171.294525 83.961961 
L 168.686682 84.48347 
L 166.991528 85.019396 
L 165.510809 85.666201 
L 164.233497 86.411862 
L 163.146278 87.244403 
L 161.965773 88.469256 
L 161.055608 89.800527 
L 160.371919 91.212483 
L 159.765517 93.054497 
L 159.280656 95.322653 
L 158.165431 101.262301 
L 157.57113 102.999578 
L 156.745626 104.658475 
L 155.884619 105.927147 
L 154.822769 107.145285 
L 153.544489 108.316784 
L 151.62688 109.725263 
L 149.346609 111.087709 
L 146.139828 112.69299 
L 141.798902 114.583885 
L 128.590837 120.137645 
L 124.750025 122.01694 
L 121.0212 124.104945 
L 118.197481 125.944708 
L 115.583476 127.948003 
L 113.799038 129.563286 
L 112.195257 131.278163 
L 110.798183 133.093943 
L 109.632705 135.010622 
L 108.722049 137.026799 
L 108.087287 139.139604 
L 107.746835 141.344662 
L 107.715983 143.636072 
L 108.006459 146.006421 
L 108.626037 148.446831 
L 109.578225 150.947038 
L 110.862024 153.495498 
L 112.471789 156.079528 
L 114.397189 158.685481 
L 116.623282 161.298938 
L 119.130694 163.904927 
L 121.895922 166.488157 
L 124.891734 169.033262 
L 129.191786 172.341223 
L 133.768049 175.519696 
L 138.535658 178.536239 
L 143.407086 181.361601 
L 148.295158 183.970482 
L 154.301344 186.895996 
L 160.0526 189.421564 
L 165.419827 191.530192 
L 170.300059 193.217397 
L 174.619418 194.490462 
L 178.334066 195.367189 
L 181.429317 195.874267 
L 183.917239 196.04542 
L 185.493339 195.966436 
L 186.729994 195.718654 
L 187.660507 195.324188 
L 188.322953 194.8053 
L 188.758706 194.183905 
L 189.050669 193.295108 
L 189.143561 192.114836 
L 189.178978 187.754041 
L 189.490719 186.78403 
L 190.021577 185.865205 
L 190.801928 185.000043 
L 191.850629 184.185869 
L 193.472277 183.265101 
L 195.848301 182.239644 
L 199.565991 180.919037 
L 205.741003 178.73457 
L 208.626773 177.494286 
L 210.900987 176.295967 
L 212.566633 175.208646 
L 214.040803 173.992155 
L 215.272442 172.634417 
L 216.006824 171.517256 
L 216.556324 170.311525 
L 216.901871 169.014711 
L 217.02597 167.62527 
L 216.913102 166.142713 
L 216.550118 164.567677 
L 215.926605 162.901985 
L 215.035231 161.148684 
L 213.872039 159.312062 
L 212.436685 157.397639 
L 210.106025 154.735845 
L 207.316988 151.966913 
L 204.10067 149.113183 
L 200.499833 146.199763 
L 195.540248 142.515713 
L 190.187526 138.837251 
L 183.442508 134.51102 
L 175.454245 129.705448 
L 166.657383 124.697073 
L 156.048159 118.923047 
L 140.392487 110.437591 
L 139.724871 109.896059 
L 139.740572 109.887373 
L 140.021843 109.94479 
L 141.02279 110.402362 
L 142.024121 111.078288 
L 142.417346 111.585507 
L 142.421826 111.939319 
L 142.205317 112.208409 
L 141.669597 112.499793 
L 140.504629 112.8491 
L 134.604656 114.329468 
L 133.329985 114.962935 
L 132.484865 115.644192 
L 132.008282 116.308783 
L 131.753059 117.093751 
L 131.758285 118.011033 
L 132.060294 119.071147 
L 132.691367 120.282791 
L 133.678417 121.652451 
L 135.041714 123.18405 
L 137.293095 125.327563 
L 140.155997 127.720615 
L 144.370571 130.902847 
L 149.358622 134.38749 
L 156.985701 139.409271 
L 169.636792 147.402998 
L 184.175628 156.648616 
L 191.424451 161.52833 
L 196.765207 165.407562 
L 200.480615 168.387911 
L 202.937932 170.608905 
L 204.817643 172.58495 
L 206.144238 174.317939 
L 206.834858 175.534789 
L 207.225819 176.608259 
L 207.349303 177.547134 
L 207.240549 178.361699 
L 206.936626 179.063342 
L 206.339776 179.800082 
L 205.401118 180.510538 
L 204.148295 181.15241 
L 201.893165 182.005608 
L 200.338018 182.665722 
L 199.884295 183.050129 
L 199.798864 183.380413 
L 199.951303 183.690741 
L 200.400163 184.039447 
L 200.810096 184.13697 
L 200.761919 184.008325 
L 200.307416 183.595409 
L 198.808656 182.565286 
L 195.160577 180.365499 
L 186.442879 175.423171 
L 171.829405 167.105749 
L 162.875968 161.761483 
L 155.816396 157.317675 
L 149.950989 153.403632 
L 144.449679 149.472256 
L 140.26021 146.23625 
L 136.512318 143.079341 
L 133.264278 140.037079 
L 131.052109 137.706297 
L 129.194761 135.480946 
L 127.694029 133.370951 
L 126.543911 131.383474 
L 125.731308 129.522943 
L 125.236918 127.791154 
L 125.036253 126.187457 
L 125.100731 124.70899 
L 125.398794 123.350956 
L 125.897007 122.106937 
L 126.561092 120.969217 
L 127.5725 119.683263 
L 128.967595 118.315626 
L 130.717337 116.920894 
L 133.886549 114.744828 
L 136.666008 112.765244 
L 138.265294 111.370256 
L 140.62059 109.210589 
L 141.429588 108.811203 
L 142.450973 108.566316 
L 143.773634 108.514366 
L 145.482544 108.695593 
L 147.652813 109.149938 
L 150.845516 110.074687 
L 154.8007 111.47173 
L 159.521456 113.37618 
L 164.951405 115.803454 
L 170.972466 118.745633 
L 177.409138 122.16958 
L 183.08986 125.444476 
L 188.7559 128.98135 
L 193.348393 132.086196 
L 197.724571 135.293661 
L 201.798452 138.563752 
L 205.494431 141.856126 
L 208.136909 144.479645 
L 210.472992 147.073316 
L 212.485165 149.619617 
L 214.163123 152.102818 
L 215.503724 154.509251 
L 216.510682 156.827504 
L 217.194066 159.048535 
L 217.569604 161.165703 
L 217.657874 163.174729 
L 217.483384 165.073588 
L 217.073631 166.862343 
L 216.458127 168.54293 
L 215.667479 170.118912 
L 214.479772 171.949388 
L 213.125205 173.63605 
L 211.356775 175.489415 
L 208.893106 177.712062 
L 205.278612 180.628379 
L 196.889831 187.07436 
L 194.998519 188.180841 
L 193.429641 188.853132 
L 191.653372 189.356415 
L 189.964199 189.62181 
L 188.044829 189.724603 
L 185.862478 189.643291 
L 183.391171 189.356923 
L 180.020629 188.715276 
L 176.200103 187.721258 
L 171.944983 186.35286 
L 167.297615 184.597208 
L 162.327444 182.452248 
L 157.129101 179.927896 
L 152.705879 177.550205 
L 148.279707 174.943738 
L 143.930299 172.133299 
L 139.738358 169.148402 
L 135.782079 166.022325 
L 132.83558 163.443883 
L 130.119313 160.817111 
L 127.661679 158.161212 
L 125.485812 155.495096 
L 123.609076 152.836965 
L 122.042775 150.203942 
L 120.79208 147.611746 
L 119.856166 145.074417 
L 119.22853 142.604115 
L 118.897481 140.210978 
L 118.846766 137.903055 
L 119.056285 135.686303 
L 119.502887 133.564649 
L 120.161185 131.540098 
L 121.004375 129.612898 
L 122.276582 127.338672 
L 123.741711 125.208987 
L 125.683237 122.832871 
L 128.101312 120.286722 
L 130.938473 117.638939 
L 134.773859 114.381943 
L 139.370314 110.769739 
L 142.824264 108.323696 
L 145.376112 106.788907 
L 147.738775 105.650303 
L 149.92997 104.856505 
L 151.915585 104.345345 
L 154.078583 103.990379 
L 156.445477 103.810785 
L 159.037486 103.825873 
L 161.868946 104.054341 
L 164.945884 104.513484 
L 168.264833 105.21839 
L 171.811992 106.181141 
L 175.562812 107.410076 
L 179.482074 108.909147 
L 183.524514 110.677397 
L 187.636015 112.708629 
L 191.755322 114.991264 
L 195.816238 117.508435 
L 199.750174 120.238317 
L 203.488929 123.154683 
L 206.295553 125.602075 
L 208.904898 128.133182 
L 211.289548 130.730667 
L 213.426028 133.376802 
L 215.29536 136.053839 
L 216.883475 138.744378 
L 218.181437 141.431708 
L 219.185513 144.100126 
L 219.897062 146.735203 
L 220.322274 149.324012 
L 220.471772 151.855285 
L 220.360093 154.319528 
L 220.005091 156.709066 
L 219.427275 159.018036 
L 218.649112 161.242329 
L 217.694329 163.379485 
L 216.289506 165.92706 
L 214.693827 168.338071 
L 212.590483 171.056237 
L 210.348409 173.592837 
L 207.637958 176.338941 
L 204.114863 179.563002 
L 200.252791 182.781253 
L 196.472374 185.642797 
L 193.463688 187.672598 
L 190.783588 189.242905 
L 188.402371 190.417313 
L 185.898374 191.41211 
L 183.228359 192.203019 
L 180.847443 192.686747 
L 178.303484 192.993184 
L 175.581261 193.105255 
L 172.671427 193.006228 
L 169.571643 192.680406 
L 166.287489 192.113817 
L 162.833094 191.294922 
L 159.231409 190.215274 
L 155.514084 188.870113 
L 151.720908 187.258862 
L 147.898818 185.385487 
L 144.100476 183.258694 
L 140.382484 180.891944 
L 136.803316 178.303268 
L 134.079043 176.087345 
L 131.509456 173.756616 
L 129.121325 171.325407 
L 126.938894 168.809026 
L 124.983278 166.223458 
L 123.271946 163.585057 
L 121.818342 160.91022 
L 120.631619 158.215078 
L 119.716527 155.515194 
L 119.073429 152.825292 
L 118.698456 150.159022 
L 118.583786 147.528766 
L 118.718016 144.945484 
L 119.086639 142.418625 
L 119.672569 139.956065 
L 120.456717 137.564118 
L 121.418588 135.247569 
L 122.838356 132.462885 
L 124.460508 129.804823 
L 126.244096 127.274301 
L 128.543589 124.404068 
L 131.371893 121.277974 
L 134.284585 118.380534 
L 137.647135 115.334032 
L 141.421654 112.228554 
L 144.763784 109.749127 
L 148.124405 107.541956 
L 151.123991 105.850353 
L 153.777109 104.596033 
L 156.540791 103.541631 
L 158.951716 102.831279 
L 161.478775 102.288705 
L 164.135838 101.928536 
L 166.93266 101.765633 
L 169.873853 101.814552 
L 172.957999 102.088951 
L 176.17698 102.600988 
L 179.51555 103.360716 
L 182.951209 104.375511 
L 186.454405 105.649551 
L 189.989088 107.183378 
L 193.513614 108.973567 
L 196.981966 111.012534 
L 200.345273 113.288491 
L 203.553529 115.785568 
L 205.975307 117.929337 
L 208.242144 120.190462 
L 210.331592 122.55612 
L 212.223425 125.012526 
L 213.900137 127.545175 
L 215.347349 130.139113 
L 216.554129 132.779207 
L 217.513192 135.450417 
L 218.221008 138.138058 
L 218.677772 140.828045 
L 218.887286 143.50711 
L 218.856729 146.162988 
L 218.59634 148.784564 
L 218.119029 151.361979 
L 217.439934 153.886703 
L 216.575932 156.351549 
L 215.263578 159.339612 
L 213.727513 162.216428 
L 212.004868 164.976207 
L 209.741991 168.128943 
L 207.319846 171.106551 
L 204.359398 174.360599 
L 201.314418 177.382241 
L 197.787588 180.557296 
L 194.243521 183.439481 
L 190.685378 186.026125 
L 187.541985 188.037699 
L 184.340349 189.798936 
L 181.522077 191.093371 
L 178.609579 192.171584 
L 176.093638 192.891025 
L 173.484514 193.4347 
L 170.773535 193.789898 
L 167.955795 193.943827 
L 165.030973 193.884095 
L 162.00398 193.599207 
L 158.88544 193.07909 
L 155.691922 192.315604 
L 152.445934 191.30303 
L 149.175629 190.03851 
L 145.914232 188.522411 
L 142.699194 186.758603 
L 139.571084 184.754619 
L 136.572287 182.521687 
L 134.295096 180.580343 
L 132.149435 178.51104 
L 130.155706 176.324181 
L 128.332822 174.031271 
L 126.697751 171.644739 
L 125.265112 169.177731 
L 124.04684 166.643888 
L 123.051924 164.057122 
L 122.286234 161.431374 
L 121.752445 158.780392 
L 121.450044 156.117513 
L 121.375436 153.455467 
L 121.522129 150.806205 
L 121.880998 148.180759 
L 122.440603 145.58913 
L 123.187568 143.040214 
L 124.361929 139.925833 
L 125.774253 136.902844 
L 127.391752 133.981164 
L 129.181537 131.168214 
L 131.512055 127.9434 
L 133.994214 124.888141 
L 137.023067 121.541565 
L 140.141942 118.431061 
L 143.31107 115.557281 
L 146.50775 112.922001 
L 149.725401 110.529822 
L 152.971418 108.38942 
L 155.789907 106.765272 
L 158.658255 105.347365 
L 161.593915 104.149704 
L 164.613906 103.188508 
L 167.2055 102.581014 
L 169.871651 102.161014 
L 172.615209 101.93949 
L 175.435273 101.92713 
L 178.326641 102.133906 
L 181.279412 102.568637 
L 184.278776 103.238543 
L 187.305027 104.148827 
L 190.333783 105.302282 
L 193.336453 106.698958 
L 196.280923 108.335898 
L 199.132452 110.206964 
L 201.854738 112.302767 
L 204.411116 114.610707 
L 206.312673 116.599377 
L 208.067769 118.704541 
L 209.660355 120.91587 
L 211.076064 123.222162 
L 212.302549 125.611508 
L 213.329759 128.07148 
L 214.150164 130.58932 
L 214.758896 133.152142 
L 215.153826 135.74713 
L 215.335552 138.361722 
L 215.307326 140.98379 
L 215.074903 143.601797 
L 214.646322 146.204926 
L 214.031643 148.783194 
L 213.019657 151.957334 
L 211.761265 155.062911 
L 210.284575 158.086708 
L 208.618791 161.017839 
L 206.411326 164.400776 
L 204.022016 167.626498 
L 201.495097 170.686969 
L 198.423851 174.041335 
L 195.265734 177.157023 
L 192.054865 180.028804 
L 188.810879 182.650762 
L 185.540066 185.01488 
L 182.23753 187.110036 
L 179.371745 188.680709 
L 176.461967 190.03146 
L 173.496376 191.148907 
L 170.464339 192.018147 
L 167.881267 192.541453 
L 165.244735 192.871939 
L 162.555694 193.000336 
L 159.818503 192.91787 
L 157.041308 192.616627 
L 154.23627 192.089926 
L 151.419616 191.332692 
L 148.611515 190.341803 
L 145.835756 189.116401 
L 143.119237 187.658155 
L 140.491283 185.971456 
L 137.98281 184.06353 
L 135.625356 181.944461 
L 133.450053 179.627125 
L 131.860958 177.640833 
L 130.421521 175.546556 
L 129.144441 173.354181 
L 128.04076 171.074321 
L 127.11962 168.718162 
L 126.388052 166.297306 
L 125.850838 163.8236 
L 125.510427 161.30897 
L 125.366908 158.765254 
L 125.418058 156.204042 
L 125.659445 153.636528 
L 126.084581 151.073386 
L 126.861554 147.890832 
L 127.892806 144.748751 
L 129.155614 141.663215 
L 130.625165 138.648266 
L 132.275515 135.715927 
L 134.457831 132.320226 
L 136.819194 129.07197 
L 139.319209 125.982094 
L 142.36403 122.588605 
L 145.503294 119.432718 
L 148.703098 116.523404 
L 151.941911 113.869499 
L 155.209656 111.480952 
L 158.505876 109.369742 
L 161.358746 107.791824 
L 164.243935 106.439056 
L 167.168634 105.323537 
L 170.139007 104.458443 
L 172.651893 103.938795 
L 175.199026 103.610736 
L 177.777929 103.482135 
L 180.383261 103.56036 
L 183.006512 103.851965 
L 185.635843 104.362376 
L 188.256062 105.095577 
L 190.848759 106.053813 
L 193.392604 107.237325 
L 195.863796 108.644127 
L 198.236651 110.269835 
L 200.484327 112.10757 
L 202.579631 114.147926 
L 204.495895 116.379027 
L 206.207871 118.78666 
L 207.414842 120.828958 
L 208.465961 122.964597 
L 209.35238 125.183717 
L 210.066953 127.475948 
L 210.604397 129.830542 
L 210.961395 132.236525 
L 211.136654 134.682833 
L 211.130908 137.15846 
L 210.873496 140.277777 
L 210.347019 143.405642 
L 209.564975 146.522773 
L 208.54438 149.611269 
L 207.305052 152.654808 
L 205.868825 155.638769 
L 203.917911 159.122858 
L 201.757037 162.483664 
L 199.425511 165.705437 
L 196.538298 169.271394 
L 193.519387 172.614142 
L 190.410256 175.720191 
L 187.241925 178.577766 
L 184.034955 181.175592 
L 180.800377 183.501861 
L 177.541386 185.543481 
L 174.726862 187.055709 
L 171.889509 188.337575 
L 169.025946 189.377831 
L 166.134003 190.164617 
L 163.702519 190.617918 
L 161.253614 190.8799 
L 158.791578 190.944014 
L 156.323183 190.804305 
L 153.857888 190.455678 
L 151.407925 189.894162 
L 148.988252 189.117175 
L 146.616379 188.123765 
L 144.312061 186.91483 
L 142.096865 185.493292 
L 139.993621 183.864227 
L 138.025784 182.034935 
L 136.216725 180.014944 
L 134.588987 177.815951 
L 133.163535 175.451688 
L 131.959041 172.937726 
L 130.991233 170.291217 
L 130.27235 167.530581 
L 129.810726 164.675168 
L 129.610519 161.744879 
L 129.67161 158.759792 
L 129.989665 155.739794 
L 130.556366 152.704237 
L 131.359781 149.671632 
L 132.384865 146.659395 
L 133.614059 143.683656 
L 135.331106 140.18155 
L 137.278475 136.775693 
L 139.419911 133.485618 
L 141.7201 130.327972 
L 144.560513 126.830087 
L 147.526049 123.550257 
L 150.578558 120.504271 
L 153.688781 117.706056 
L 156.836294 115.16869 
L 160.008662 112.905254 
L 163.199928 110.929465 
L 165.949127 109.475991 
L 168.711449 108.254519 
L 171.487237 107.275401 
L 174.275641 106.549247 
L 177.073531 106.086594 
L 179.407879 105.909613 
L 181.738698 105.927938 
L 184.058076 106.146209 
L 186.355841 106.568156 
L 188.619545 107.196377 
L 190.834564 108.032118 
L 192.984306 109.075081 
L 195.050527 110.323244 
L 197.013752 111.772737 
L 198.853776 113.417741 
L 200.550235 115.250456 
L 202.083227 117.261112 
L 203.433939 119.438047 
L 204.585269 121.767836 
L 205.522411 124.235479 
L 206.233357 126.824636 
L 206.709318 129.517904 
L 206.945013 132.297118 
L 206.938845 135.143679 
L 206.692917 138.038869 
L 206.212923 140.964173 
L 205.507903 143.901568 
L 204.589876 146.833774 
L 203.473377 149.744472 
L 201.894958 153.187603 
L 200.085688 156.554021 
L 198.078069 159.822465 
L 195.904576 162.974294 
L 193.2006 166.482573 
L 190.358253 169.78818 
L 187.416393 172.872363 
L 184.406576 175.718757 
L 181.352772 178.312524 
L 178.271798 180.639574 
L 175.174382 182.685946 
L 172.511151 184.205801 
L 169.842731 185.499756 
L 167.170979 186.558364 
L 164.498311 187.372091 
L 161.828649 187.931547 
L 159.168277 188.227801 
L 156.965035 188.267749 
L 154.781959 188.11525 
L 152.628175 187.767078 
L 150.514684 187.221 
L 148.454287 186.475959 
L 146.461433 185.532248 
L 144.551966 184.391662 
L 142.742784 183.057621 
L 141.051429 181.535263 
L 139.495612 179.831486 
L 138.092704 177.954956 
L 136.859197 175.916056 
L 135.810176 173.726791 
L 134.958824 171.400646 
L 134.315968 168.952397 
L 133.889713 166.397889 
L 133.685159 163.753778 
L 133.704233 161.037265 
L 133.945636 158.265811 
L 134.404901 155.456863 
L 135.074575 152.627589 
L 135.944498 149.79464 
L 137.235002 146.412622 
L 138.770668 143.074023 
L 140.523683 139.802537 
L 142.464797 136.619579 
L 144.927932 133.043386 
L 147.562077 129.640181 
L 150.326052 126.432889 
L 153.183984 123.44138 
L 156.106178 120.683168 
L 159.069349 118.174107 
L 162.056226 115.929026 
L 165.054629 113.96224 
L 168.056112 112.287885 
L 170.626424 111.096157 
L 173.190569 110.138441 
L 175.744114 109.423356 
L 178.281175 108.959118 
L 180.793729 108.753265 
L 183.271088 108.812317 
L 185.298872 109.067638 
L 187.283141 109.512558 
L 189.212788 110.148099 
L 191.075317 110.974112 
L 192.857035 111.989144 
L 194.543311 113.19032 
L 196.11891 114.573253 
L 197.568379 116.13199 
L 198.876468 117.858995 
L 200.028581 119.745168 
L 201.011226 121.779911 
L 201.812449 123.951231 
L 202.422234 126.245886 
L 202.832838 128.649559 
L 203.039064 131.147073 
L 203.038438 133.722611 
L 202.831294 136.359959 
L 202.420767 139.042751 
L 201.812671 141.754702 
L 200.834006 145.025067 
L 199.601347 148.287807 
L 198.13679 151.517739 
L 196.465066 154.691424 
L 194.287976 158.294394 
L 191.907083 161.760945 
L 189.363514 165.064039 
L 186.695335 168.17999 
L 183.936222 171.088014 
L 181.114678 173.769681 
L 178.253792 176.208356 
L 175.37155 178.388677 
L 172.481593 180.296128 
L 169.594355 181.916755 
L 167.128292 183.067322 
L 164.675748 183.989005 
L 162.242444 184.673952 
L 159.835296 185.114861 
L 157.462976 185.305207 
L 155.136348 185.239528 
L 152.868747 184.913734 
L 151.035562 184.441762 
L 149.264879 183.78715 
L 147.568288 182.950691 
L 145.958267 181.934394 
L 144.447945 180.741577 
L 143.050797 179.376936 
L 141.780311 177.846582 
L 140.649618 176.158049 
L 139.671105 174.320265 
L 138.856041 172.34349 
L 138.214215 170.239216 
L 137.753611 168.020038 
L 137.480136 165.699493 
L 137.397417 163.291877 
L 137.506664 160.812047 
L 137.889222 157.762348 
L 138.539518 154.657061 
L 139.446075 151.522468 
L 140.593226 148.384165 
L 141.961832 145.266673 
L 143.530119 142.193118 
L 145.580781 138.69144 
L 147.832734 135.30994 
L 150.247932 132.076513 
L 152.79043 129.015927 
L 155.427653 126.15013 
L 158.131224 123.498641 
L 160.877311 121.079006 
L 163.646506 118.907226 
L 166.423293 116.998129 
L 169.195164 115.36564 
L 171.951504 114.022916 
L 174.294157 113.112046 
L 176.611456 112.43043 
L 178.895883 111.984684 
L 181.138537 111.780589 
L 183.328766 111.822862 
L 185.453933 112.114898 
L 187.499332 112.658488 
L 189.130918 113.303638 
L 190.684978 114.122282 
L 192.150267 115.112123 
L 193.515092 116.269667 
L 194.767573 117.590167 
L 195.895933 119.067598 
L 196.888818 120.694651 
L 197.735622 122.462763 
L 198.426804 124.362177 
L 198.954193 126.382027 
L 199.311258 128.510456 
L 199.493326 130.734756 
L 199.477237 133.511562 
L 199.204941 136.382997 
L 198.680392 139.324347 
L 197.911862 142.310735 
L 196.911596 145.317566 
L 195.695289 148.320909 
L 194.027989 151.789888 
L 192.124596 155.188766 
L 190.019871 158.486049 
L 187.748915 161.653125 
L 185.345663 164.664261 
L 182.477395 167.885197 
L 179.519172 170.841977 
L 176.50635 173.507617 
L 173.848265 175.582185 
L 171.186523 177.400585 
L 168.534487 178.949183 
L 165.903954 180.215351 
L 163.674872 181.067018 
L 161.477263 181.696007 
L 159.319275 182.096433 
L 157.210199 182.263324 
L 155.160764 182.192817 
L 153.183307 181.882381 
L 151.291809 181.331046 
L 149.501788 180.539638 
L 148.099716 179.698718 
L 146.789989 178.695799 
L 145.583065 177.534785 
L 144.489397 176.220729 
L 143.519179 174.759848 
L 142.682071 173.159513 
L 141.865635 171.067064 
L 141.266759 168.802754 
L 140.895808 166.385225 
L 140.759809 163.834807 
L 140.862093 161.173179 
L 141.202093 158.422986 
L 141.775318 155.607445 
L 142.573503 152.749941 
L 143.584937 149.873641 
L 145.014716 146.52432 
L 146.687263 143.214542 
L 148.572171 139.976614 
L 150.637494 136.840432 
L 153.177701 133.415747 
L 155.865832 130.196237 
L 158.659841 127.214442 
L 161.522725 124.499189 
L 164.422945 122.076115 
L 166.970404 120.2137 
L 169.511182 118.606515 
L 172.032039 117.26727 
L 174.520635 116.207493 
L 176.96464 115.437448 
L 179.014065 115.014744 
L 181.01189 114.815977 
L 182.947823 114.844627 
L 184.810312 115.102904 
L 186.586508 115.591555 
L 188.262342 116.309673 
L 189.82273 117.254512 
L 191.251899 118.421336 
L 192.533806 119.803298 
L 193.652649 121.391374 
L 194.593426 123.174351 
L 195.34252 125.13888 
L 195.888266 127.269593 
L 196.221478 129.549284 
L 196.335878 131.959154 
L 196.22843 134.479097 
L 195.899523 137.088028 
L 195.353017 139.764234 
L 194.59613 142.485729 
L 193.461129 145.688824 
L 192.074956 148.889649 
L 190.462605 152.055416 
L 188.651825 155.155112 
L 186.376904 158.579733 
L 183.924889 161.840874 
L 181.338004 164.903004 
L 178.655203 167.734404 
L 175.911183 170.306852 
L 173.13606 172.59523 
L 170.355659 174.577147 
L 167.936123 176.044177 
L 165.543208 177.249305 
L 163.189812 178.181917 
L 160.888962 178.832829 
L 158.969082 179.16075 
L 157.107441 179.272411 
L 155.314446 179.165258 
L 153.601506 178.838037 
L 151.981024 178.290959 
L 150.466275 177.52586 
L 149.071186 176.546339 
L 147.810025 175.357881 
L 146.697003 173.967934 
L 145.745816 172.385945 
L 144.969162 170.623347 
L 144.378237 168.693485 
L 143.982272 166.611493 
L 143.788107 164.394106 
L 143.799862 162.059438 
L 144.018703 159.626709 
L 144.442731 157.115951 
L 145.189996 154.115514 
L 146.196865 151.069695 
L 147.445731 148.011074 
L 148.915032 144.97135 
L 150.832614 141.55937 
L 152.966595 138.254161 
L 155.276477 135.094842 
L 157.722604 132.116943 
L 160.267671 129.35242 
L 162.877734 126.829839 
L 165.522665 124.574646 
L 168.176054 122.609459 
L 170.814647 120.954312 
L 173.09472 119.774273 
L 175.334009 118.855364 
L 177.519203 118.206332 
L 179.636461 117.83428 
L 181.385974 117.73986 
L 183.064604 117.854902 
L 184.661488 118.18021 
L 186.165022 118.715185 
L 187.562969 119.457685 
L 188.842669 120.403915 
L 189.991309 121.548329 
L 190.996274 122.883569 
L 191.845538 124.400445 
L 192.528086 126.087955 
L 193.034334 127.933355 
L 193.356527 129.922276 
L 193.489087 132.038894 
L 193.428892 134.266126 
L 193.114551 136.980184 
L 192.54123 139.790158 
L 191.717815 142.665271 
L 190.657815 145.574553 
L 189.378776 148.487401 
L 187.675616 151.782645 
L 185.74836 155.001445 
L 183.633922 158.104265 
L 181.369624 161.054711 
L 178.991665 163.819682 
L 176.533961 166.369352 
L 174.027446 168.677031 
L 171.499834 170.718967 
L 168.975844 172.474139 
L 166.477774 173.924116 
L 164.329537 174.929929 
L 162.230475 175.680842 
L 160.194168 176.169451 
L 158.234748 176.39012 
L 156.62778 176.363167 
L 155.098345 176.135594 
L 153.657048 175.707665 
L 152.314983 175.081054 
L 151.083581 174.258947 
L 149.974397 173.246127 
L 148.99883 172.049032 
L 148.167798 170.675788 
L 147.491388 169.136193 
L 146.97849 167.441675 
L 146.636453 165.605199 
L 146.470766 163.641132 
L 146.504722 161.209338 
L 146.784573 158.651687 
L 147.307214 155.996127 
L 148.065085 153.271498 
L 149.046432 150.506998 
L 150.421598 147.335979 
L 152.040336 144.1931 
L 153.870883 141.118839 
L 155.879289 138.151263 
L 158.3083 134.984056 
L 160.870602 132.042083 
L 163.521093 129.366121 
L 165.917813 127.240043 
L 168.325686 125.374995 
L 170.721134 123.790602 
L 173.082475 122.503886 
L 175.10453 121.633593 
L 177.071295 121.010242 
L 178.969145 120.640099 
L 180.783985 120.527599 
L 182.262319 120.638123 
L 183.65909 120.939983 
L 184.964193 121.432126 
L 186.167248 122.112122 
L 187.257762 122.976086 
L 188.225346 124.018616 
L 189.059971 125.232765 
L 189.752262 126.610029 
L 190.293805 128.140379 
L 190.677453 129.812325 
L 190.918112 131.924676 
L 190.930554 134.189719 
L 190.712751 136.583049 
L 190.266638 139.078778 
L 189.598159 141.649997 
L 188.574616 144.645746 
L 187.293682 147.663193 
L 185.780452 150.66203 
L 184.063712 153.603406 
L 181.927889 156.798042 
L 179.619492 159.8248 
L 177.183499 162.639415 
L 174.662616 165.202174 
L 172.096277 167.477889 
L 169.805985 169.234782 
L 167.531138 170.721687 
L 165.293116 171.922422 
L 163.112267 172.823452 
L 161.266614 173.357455 
L 159.493482 173.648313 
L 157.806682 173.692497 
L 156.220496 173.488488 
L 154.95217 173.116524 
L 153.778123 172.564446 
L 152.707955 171.835372 
L 151.751185 170.93381 
L 150.917046 169.865695 
L 150.214241 168.638403 
L 149.650693 167.260736 
L 149.178321 165.477058 
L 148.913432 163.521018 
L 148.861765 161.413197 
L 149.025788 159.176052 
L 149.404449 156.833551 
L 150.093898 154.059596 
L 151.044977 151.219263 
L 152.239716 148.351331 
L 153.655525 145.494115 
L 155.479909 142.338755 
L 157.510244 139.294177 
L 159.704184 136.407101 
L 162.019628 133.720244 
L 164.4162 131.27208 
L 166.856171 129.096784 
L 169.304807 127.224277 
L 171.462778 125.834907 
L 173.581391 124.720454 
L 175.640608 123.893555 
L 177.37826 123.413736 
L 179.042232 123.166453 
L 180.619147 123.154642 
L 182.095348 123.379267 
L 183.456911 123.839176 
L 184.522068 124.418138 
L 185.483875 125.163987 
L 186.333747 126.07189 
L 187.063503 127.135681 
L 187.753024 128.563715 
L 188.258257 130.179512 
L 188.570708 131.966615 
L 188.68436 133.906454 
L 188.596043 135.978595 
L 188.247854 138.480488 
L 187.640931 141.091708 
L 186.785752 143.776225 
L 185.697846 146.497452 
L 184.220714 149.557392 
L 182.507921 152.567179 
L 180.596828 155.478599 
L 178.526714 158.246538 
L 176.337071 160.8295 
L 174.066235 163.189923 
L 171.750481 165.294312 
L 169.423602 167.113274 
L 167.116967 168.621522 
L 165.107382 169.684138 
L 163.156686 170.472406 
L 161.284102 170.977 
L 159.724692 171.180689 
L 158.252604 171.159846 
L 156.880849 170.914024 
L 155.622517 170.444817 
L 154.490642 169.755973 
L 153.497971 168.853474 
L 152.656649 167.745597 
L 151.977848 166.442922 
L 151.471356 164.958293 
L 151.145161 163.306721 
L 151.005066 161.505226 
L 151.076924 159.287003 
L 151.396524 156.928083 
L 151.959399 154.460968 
L 152.756166 151.919497 
L 153.914521 149.014422 
L 155.325081 146.107944 
L 156.956722 143.247987 
L 158.77478 140.48042 
L 160.96898 137.565987 
L 163.297515 134.872967 
L 165.711115 132.450005 
L 167.917506 130.535689 
L 170.123245 128.901808 
L 172.298571 127.571346 
L 174.183892 126.658812 
L 176.003932 126.011498 
L 177.740077 125.637147 
L 179.175868 125.537386 
L 180.520939 125.651683 
L 181.762957 125.979455 
L 182.889691 126.518124 
L 183.88918 127.263037 
L 184.749969 128.207411 
L 185.461408 129.342307 
L 186.013991 130.656655 
L 186.399713 132.137314 
L 186.612422 133.769196 
L 186.638651 135.797667 
L 186.43168 137.973928 
L 185.993828 140.268189 
L 185.233913 142.951187 
L 184.206729 145.697768 
L 182.934687 148.46147 
L 181.445314 151.196462 
L 179.573719 154.147892 
L 177.518726 156.951937 
L 175.327816 159.555758 
L 173.047834 161.911654 
L 170.723673 163.977466 
L 168.629165 165.558465 
L 166.562147 166.852488 
L 164.550103 167.841064 
L 162.829101 168.451675 
L 161.190406 168.802311 
L 159.651775 168.888563 
L 158.401371 168.745956 
L 157.252654 168.400793 
L 156.217012 167.85599 
L 155.305443 167.116439 
L 154.528328 166.189041 
L 153.895168 165.082709 
L 153.414283 163.80834 
L 153.092505 162.378737 
L 152.925976 160.573609 
L 152.978052 158.609172 
L 153.249151 156.512113 
L 153.811261 154.030005 
L 154.634587 151.458828 
L 155.701762 148.842304 
L 157.145747 145.935149 
L 158.825399 143.084951 
L 160.69901 140.347953 
L 162.722514 137.776699 
L 164.851379 135.419228 
L 167.042064 133.318541 
L 169.252936 131.51225 
L 171.227408 130.164855 
L 173.159158 129.101206 
L 175.02222 128.336654 
L 176.600335 127.917329 
L 178.087202 127.748305 
L 179.465987 127.831796 
L 180.570796 128.111483 
L 181.569493 128.581548 
L 182.45176 129.237706 
L 183.207887 130.073784 
L 183.828993 131.081717 
L 184.307284 132.251578 
L 184.670828 133.771724 
L 184.83244 135.467812 
L 184.788265 137.317059 
L 184.492283 139.549328 
L 183.940557 141.905484 
L 183.144024 144.345286 
L 181.992058 147.10405 
L 180.587825 149.858333 
L 178.966649 152.552598 
L 177.167815 155.133793 
L 175.232732 157.552353 
L 173.203281 159.762966 
L 171.120557 161.725109 
L 169.024053 163.403414 
L 166.951321 164.76794 
L 165.135687 165.707538 
L 163.393047 166.359599 
L 161.924715 166.689972 
L 160.549371 166.781582 
L 159.282949 166.633248 
L 158.276324 166.307878 
L 157.374843 165.803031 
L 156.587904 165.123456 
L 155.924205 164.275689 
L 155.391529 163.26803 
L 154.951665 161.933569 
L 154.699297 160.421002 
L 154.639415 158.750493 
L 154.804395 156.710405 
L 155.213075 154.53369 
L 155.857792 152.257453 
L 156.83512 149.658512 
L 158.063235 147.038057 
L 159.511517 144.449361 
L 161.316881 141.699939 
L 163.295384 139.11597 
L 165.394638 136.75674 
L 167.562575 134.675149 
L 169.550598 133.062412 
L 171.51758 131.746074 
L 173.241376 130.834378 
L 174.896197 130.195156 
L 176.458923 129.837756 
L 177.752647 129.761017 
L 178.940842 129.912075 
L 180.008978 130.289082 
L 180.834262 130.800719 
L 181.548467 131.476905 
L 182.218661 132.442643 
L 182.723367 133.602158 
L 183.054378 134.940259 
L 183.205849 136.439221 
L 183.157821 138.292822 
L 182.878586 140.293138 
L 182.373009 142.406163 
L 181.55784 144.842586 
L 180.495467 147.323441 
L 179.072733 150.043176 
L 177.424218 152.689256 
L 175.596312 155.19882 
L 173.637935 157.513618 
L 171.598548 159.581101 
L 171.03471 160.095817 
L 171.03471 160.095817 
" clip-path="url(#pa0d3c5c0af)" style="fill: none; stroke: #008000; stroke-width: 1.5; stroke-linecap: square"/>
   </g>
  </g>
 </g>
 <defs>
  <clipPath id="pa0d3c5c0af">
   <rect x="14.4" y="14.4" width="279" height="277.2"/>
  </clipPath>
 </defs>
</svg>
