<?xml version="1.0" encoding="utf-8" standalone="no"?>
<!DOCTYPE svg PUBLIC "-//W3C//DTD SVG 1.1//EN"
  "http://www.w3.org/Graphics/SVG/1.1/DTD/svg11.dtd">
<svg xmlns:xlink="http://www.w3.org/1999/xlink" width="371.52pt" height="280.512pt" viewBox="0 0 371.52 280.512" xmlns="http://www.w3.org/2000/svg" version="1.1">
 <metadata>
  <rdf:RDF xmlns:dc="http://purl.org/dc/elements/1.1/" xmlns:cc="http://creativecommons.org/ns#" xmlns:rdf="http://www.w3.org/1999/02/22-rdf-syntax-ns#">
   <cc:Work>
    <dc:type rdf:resource="http://purl.org/dc/dcmitype/StillImage"/>
    <dc:date>2025-03-21T18:42:05.884319</dc:date>
    <dc:format>image/svg+xml</dc:format>
    <dc:creator>
     <cc:Agent>
      <dc:title>Matplotlib v3.8.4, https://matplotlib.org/</dc:title>
     </cc:Agent>
    </dc:creator>
   </cc:Work>
  </rdf:RDF>
 </metadata>
 <defs>
  <style type="text/css">*{stroke-linejoin: round; stroke-linecap: butt}</style>
 </defs>
 <g id="figure_1">
  <g id="patch_1">
   <path d="M 0 280.512 
L 371.52 280.512 
L 371.52 0 
L 0 0 
L 0 280.512 
z
" style="fill: none"/>
  </g>
  <g id="axes_1">
   <g id="line2d_1">
    <path d="M 295.495831 233.064314 
L 289.861339 227.609381 
L 284.231564 221.857749 
L 278.071764 215.239781 
L 267.892673 203.878844 
L 261.870174 197.333362 
L 257.279145 192.665821 
L 252.97716 188.614775 
L 249.071588 185.208342 
L 244.837291 181.779989 
L 240.254737 178.336999 
L 235.319435 174.888098 
L 230.0396 171.442985 
L 223.274112 167.328194 
L 216.079321 163.251252 
L 208.503488 159.22955 
L 200.598467 155.279927 
L 192.418052 151.418715 
L 182.599654 147.047078 
L 172.570543 142.843167 
L 162.421844 138.833829 
L 152.247014 135.049068 
L 142.142728 131.525204 
L 132.210915 128.310535 
L 123.919617 125.854064 
L 117.228446 124.068904 
L 110.798623 122.587272 
L 105.897259 121.68599 
L 102.402261 121.226637 
L 99.105896 121.009071 
L 97.048012 121.034879 
L 95.132671 121.233524 
L 93.399713 121.64837 
L 91.909312 122.339283 
L 91.282732 122.813341 
L 90.756242 123.390481 
L 90.351457 124.086976 
L 90.096741 124.922381 
L 90.029799 125.920174 
L 90.201393 127.108401 
L 90.680708 128.520143 
L 91.56308 130.193403 
L 92.980918 132.169528 
L 95.118513 134.488362 
L 98.230036 137.176656 
L 102.655551 140.223776 
L 108.818056 143.53682 
L 117.161615 146.87253 
L 127.968052 149.771929 
L 141.032441 151.586277 
L 155.384328 151.709723 
L 169.456843 149.951944 
L 181.782805 146.695834 
L 191.609351 142.642284 
L 198.928769 138.432765 
L 204.138125 134.469701 
L 207.726559 130.9344 
L 210.12271 127.86999 
L 211.65548 125.251616 
L 212.562956 123.028367 
L 213.01353 121.144153 
L 213.125678 119.546648 
L 212.983114 118.190334 
L 212.645532 117.036895 
L 212.155988 116.054569 
L 211.545928 115.217193 
L 210.838607 114.503234 
L 210.051437 113.894931 
L 208.287215 112.938973 
L 206.326298 112.258675 
L 204.213062 111.790057 
L 201.975396 111.486946 
L 198.42326 111.270509 
L 194.667511 111.269893 
L 189.376822 111.511167 
L 182.33851 112.083053 
L 171.707073 113.199885 
L 141.616741 116.501907 
L 128.992844 117.621928 
L 119.573623 118.274782 
L 111.652524 118.670009 
L 102.409706 118.910454 
L 94.697045 118.884857 
L 89.688254 118.732643 
L 81.620089 118.208005 
L 76.556047 118.055116 
L 59.80604 126.891851 
L 46.051512 134.07049 
L 38.932427 137.544026 
L 34.158294 139.64448 
L 30.573999 140.984177 
L 28.198276 141.656677 
L 26.538187 141.92029 
L 25.443211 141.889154 
L 24.778257 141.663492 
L 24.42494 141.328136 
L 24.270149 140.867197 
L 24.31202 140.286524 
L 24.606247 139.466415 
L 25.260239 138.354889 
L 26.390393 136.904131 
L 28.11694 135.07611 
L 30.55549 132.848622 
L 33.347468 130.41971 
L 33.555239 128.212329 
L 33.383882 126.711502 
L 32.946356 124.792885 
L 31.967181 121.678197 
L 27.046701 107.221265 
L 25.780978 102.564114 
L 24.85462 98.471517 
L 24.152687 94.504067 
L 23.714584 90.967614 
L 23.453532 86.79509 
L 23.459024 83.572532 
L 23.699498 79.925906 
L 24.292738 75.790101 
L 24.771185 73.519395 
L 25.404223 71.104911 
L 26.221669 68.542399 
L 27.2572 65.830366 
L 28.548021 62.971125 
L 30.134074 59.971968 
L 32.056641 56.846399 
L 34.356228 53.615261 
L 37.069693 50.307554 
L 40.226719 46.960681 
L 43.845922 43.619846 
L 47.931124 40.336423 
L 52.468455 37.165231 
L 57.424993 34.160956 
L 62.749467 31.374131 
L 68.375154 28.847342 
L 74.22462 26.612268 
L 80.215538 24.688037 
L 86.266613 23.081064 
L 92.30271 21.786223 
L 98.258583 20.788947 
L 104.080984 20.067805 
L 109.729258 19.597086 
L 115.174761 19.349099 
L 120.399505 19.296 
L 125.394412 19.411108 
L 130.157474 19.66975 
L 134.692025 20.049722 
L 143.106795 21.097966 
L 150.721127 22.429487 
L 157.632186 23.953211 
L 163.936107 25.605528 
L 169.720546 27.342942 
L 175.06202 29.136187 
L 182.383432 31.890191 
L 189.030204 34.68837 
L 195.137981 37.511008 
L 200.810147 40.349196 
L 207.829622 44.152821 
L 214.353478 47.979483 
L 220.48273 51.833587 
L 226.291591 55.720593 
L 233.185352 60.63355 
L 239.744424 65.614666 
L 246.026803 70.670349 
L 252.075029 75.804851 
L 257.920459 81.020467 
L 264.699122 87.386972 
L 271.245917 93.869155 
L 277.577731 100.46239 
L 283.702965 107.159589 
L 289.623045 113.951393 
L 295.33363 120.826291 
L 300.825645 127.770696 
L 306.086263 134.76898 
L 311.099859 141.803498 
L 315.848964 148.854606 
L 320.315231 155.900703 
L 324.48041 162.918294 
L 328.327299 169.882098 
L 331.840688 176.765226 
L 335.008228 183.539421 
L 337.82123 190.175397 
L 339.891282 195.578237 
L 341.712027 200.846974 
L 343.571485 206.968306 
L 345.084605 212.843121 
L 346.26533 218.444351 
L 347.132107 223.747267 
L 347.707118 228.7301 
L 348.015272 233.374566 
L 348.083003 237.666238 
L 347.936972 241.594736 
L 347.602772 245.153727 
L 347.10374 248.340732 
L 346.459985 251.156785 
L 345.687668 253.605963 
L 344.798616 255.694853 
L 343.800243 257.432002 
L 342.887204 258.618097 
L 341.900438 259.573126 
L 340.838309 260.303674 
L 339.697983 260.816481 
L 338.475775 261.118336 
L 337.167507 261.216 
L 335.768856 261.116148 
L 333.965378 260.74483 
L 332.019638 260.109601 
L 329.563833 259.049335 
L 326.904702 257.661249 
L 323.61826 255.69438 
L 319.617421 253.025135 
L 314.826358 249.531951 
L 309.723012 245.528326 
L 304.374507 241.060721 
L 298.856288 236.175925 
L 295.495831 233.064314 
L 295.495831 233.064314 
" clip-path="url(#p39b95fe3c9)" style="fill: none; stroke: #1f77b4; stroke-width: 2; stroke-linecap: square"/>
   </g>
  </g>
 </g>
 <defs>
  <clipPath id="p39b95fe3c9">
   <rect x="7.2" y="7.2" width="357.12" height="266.112"/>
  </clipPath>
 </defs>
</svg>
