<?xml version="1.0" encoding="utf-8" standalone="no"?>
<!DOCTYPE svg PUBLIC "-//W3C//DTD SVG 1.1//EN"
  "http://www.w3.org/Graphics/SVG/1.1/DTD/svg11.dtd">
<svg xmlns:xlink="http://www.w3.org/1999/xlink" width="169.2pt" height="168.48pt" viewBox="0 0 169.2 168.48" xmlns="http://www.w3.org/2000/svg" version="1.1">
 <metadata>
  <rdf:RDF xmlns:dc="http://purl.org/dc/elements/1.1/" xmlns:cc="http://creativecommons.org/ns#" xmlns:rdf="http://www.w3.org/1999/02/22-rdf-syntax-ns#">
   <cc:Work>
    <dc:type rdf:resource="http://purl.org/dc/dcmitype/StillImage"/>
    <dc:date>2025-03-21T18:36:43.961947</dc:date>
    <dc:format>image/svg+xml</dc:format>
    <dc:creator>
     <cc:Agent>
      <dc:title>Matplotlib v3.8.4, https://matplotlib.org/</dc:title>
     </cc:Agent>
    </dc:creator>
   </cc:Work>
  </rdf:RDF>
 </metadata>
 <defs>
  <style type="text/css">*{stroke-linejoin: round; stroke-linecap: butt}</style>
 </defs>
 <g id="figure_1">
  <g id="patch_1">
   <path d="M 0 168.48 
L 169.2 168.48 
L 169.2 0 
L 0 0 
L 0 168.48 
z
" style="fill: none"/>
  </g>
  <g id="axes_1">
   <g id="line2d_1">
    <path d="M 118.892447 122.910131 
L 115.899294 118.971564 
L 112.573392 114.193514 
L 107.372643 106.635901 
L 105.128902 103.823012 
L 102.78406 101.255126 
L 100.087324 98.670041 
L 97.043501 96.090191 
L 93.688055 93.540279 
L 89.655177 90.771872 
L 85.375541 88.102613 
L 80.478295 85.317986 
L 75.488983 82.733948 
L 70.522146 80.402372 
L 66.129826 78.565954 
L 62.369133 77.231379 
L 59.642893 76.502496 
L 57.856056 76.237764 
L 56.571999 76.262584 
L 55.73741 76.486821 
L 55.27166 76.774701 
L 54.911326 77.212701 
L 54.705232 77.850992 
L 54.737935 78.761834 
L 55.163462 80.047251 
L 55.606537 80.870637 
L 56.274535 81.836818 
L 57.246886 82.95694 
L 58.62986 84.226573 
L 60.555642 85.607008 
L 63.163005 86.996887 
L 66.540016 88.204971 
L 70.622638 88.960949 
L 75.107602 89.012384 
L 79.505263 88.279977 
L 83.357127 86.923264 
L 86.427922 85.234285 
L 88.71524 83.480319 
L 90.343164 81.829042 
L 91.46455 80.356 
L 92.213347 79.079162 
L 92.692337 77.988173 
L 93.116728 76.27673 
L 93.107223 75.045973 
L 92.848746 74.15607 
L 92.437065 73.509681 
L 91.924252 73.040661 
L 91.026968 72.574448 
L 90.0214 72.308406 
L 88.557269 72.162712 
L 86.569076 72.200488 
L 83.530784 72.501272 
L 77.125256 73.434685 
L 68.889473 74.581803 
L 63.916757 75.081159 
L 59.581763 75.323083 
L 56.142827 75.335357 
L 54.577579 75.271935 
L 50.473765 74.989632 
L 37.764283 83.681496 
L 35.941949 84.612885 
L 34.893826 84.927822 
L 34.371817 84.876013 
L 34.170437 84.658285 
L 34.141087 84.296396 
L 34.328545 83.688695 
L 34.892747 82.698154 
L 35.947515 81.328418 
L 36.981966 80.030291 
L 37.030633 79.099813 
L 36.845736 77.797036 
L 36.202838 75.238066 
L 34.946882 70.222382 
L 34.317069 66.829799 
L 33.960808 63.703173 
L 33.872727 61.313673 
L 33.956093 59.102461 
L 34.290995 56.433081 
L 34.744271 54.359333 
L 35.471257 52.037969 
L 36.5677 49.486 
L 38.134279 46.761481 
L 39.12085 45.36695 
L 40.251851 43.974936 
L 41.528476 42.606843 
L 42.946392 41.285513 
L 44.49531 40.033732 
L 46.159208 38.872555 
L 47.917236 37.819726 
L 49.745194 36.888445 
L 51.617356 36.086682 
L 53.508317 35.41711 
L 55.394597 34.877593 
L 59.075307 34.161585 
L 62.542113 33.862125 
L 65.735754 33.887962 
L 68.641258 34.154051 
L 71.270873 34.590819 
L 74.755755 35.454938 
L 77.780033 36.46897 
L 80.438225 37.564162 
L 83.544822 39.08758 
L 86.910936 41.036716 
L 89.868226 43.007533 
L 93.038412 45.391854 
L 96.369805 48.205265 
L 99.420422 51.063979 
L 102.657514 54.399504 
L 106.061277 58.25054 
L 109.268476 62.211238 
L 112.640731 66.738623 
L 115.831008 71.388974 
L 118.841759 76.144288 
L 121.662297 80.9797 
L 124.272869 85.863771 
L 126.64851 90.758626 
L 128.762924 95.620181 
L 130.592335 100.398676 
L 132.119134 105.039749 
L 133.335008 109.486239 
L 134.24311 113.680814 
L 134.858785 117.569282 
L 135.208474 121.104208 
L 135.327273 124.539979 
L 135.216744 127.470284 
L 134.924639 129.881224 
L 134.488698 131.775794 
L 133.987576 133.063334 
L 133.457421 133.883455 
L 132.922423 134.356061 
L 132.32368 134.599307 
L 131.656073 134.624737 
L 130.815973 134.407079 
L 129.764426 133.877684 
L 128.33216 132.870857 
L 126.430444 131.227139 
L 123.986808 128.795026 
L 121.154166 125.64873 
L 118.892447 122.910131 
L 118.892447 122.910131 
" clip-path="url(#pa5fcaa8714)" style="fill: none; stroke: #1f77b4; stroke-width: 1.5; stroke-linecap: square"/>
   </g>
  </g>
 </g>
 <defs>
  <clipPath id="pa5fcaa8714">
   <rect x="28.8" y="28.8" width="111.6" height="110.88"/>
  </clipPath>
 </defs>
</svg>
