<?xml version="1.0" encoding="utf-8" standalone="no"?>
<!DOCTYPE svg PUBLIC "-//W3C//DTD SVG 1.1//EN"
  "http://www.w3.org/Graphics/SVG/1.1/DTD/svg11.dtd">
<svg xmlns:xlink="http://www.w3.org/1999/xlink" width="630pt" height="626.4pt" viewBox="0 0 630 626.4" xmlns="http://www.w3.org/2000/svg" version="1.1">
 <metadata>
  <rdf:RDF xmlns:dc="http://purl.org/dc/elements/1.1/" xmlns:cc="http://creativecommons.org/ns#" xmlns:rdf="http://www.w3.org/1999/02/22-rdf-syntax-ns#">
   <cc:Work>
    <dc:type rdf:resource="http://purl.org/dc/dcmitype/StillImage"/>
    <dc:date>2024-08-16T13:42:50.277715</dc:date>
    <dc:format>image/svg+xml</dc:format>
    <dc:creator>
     <cc:Agent>
      <dc:title>Matplotlib v3.8.4, https://matplotlib.org/</dc:title>
     </cc:Agent>
    </dc:creator>
   </cc:Work>
  </rdf:RDF>
 </metadata>
 <defs>
  <style type="text/css">*{stroke-linejoin: round; stroke-linecap: butt}</style>
 </defs>
 <g id="figure_1">
  <g id="patch_1">
   <path d="M 0 626.4 
L 630 626.4 
L 630 0 
L 0 0 
L 0 626.4 
z
" style="fill: none"/>
  </g>
  <g id="axes_1">
   <g id="patch_2">
    <path d="M 342.237935 272.01268 
C 363.088441 272.01268 383.08777 263.782132 397.831304 249.133717 
C 412.574838 234.485303 420.858832 214.615001 420.858832 193.899015 
C 420.858832 173.183029 412.574838 153.312727 397.831304 138.664313 
C 383.08777 124.015899 363.088441 115.785351 342.237935 115.785351 
C 321.38743 115.785351 301.3881 124.015899 286.644566 138.664313 
C 271.901032 153.312727 263.617039 173.183029 263.617039 193.899015 
C 263.617039 214.615001 271.901032 234.485303 286.644566 249.133717 
C 301.3881 263.782132 321.38743 272.01268 342.237935 272.01268 
z
" clip-path="url(#p54335609e1)" style="fill: #ffa163; fill-opacity: 0.5; stroke: #ffa163; stroke-opacity: 0.5; stroke-width: 35.224416; stroke-linejoin: miter"/>
   </g>
   <g id="patch_3">
    <path d="M 396.408915 369.574743 
C 402.220702 369.574743 407.795236 367.280592 411.90479 363.197552 
C 416.014344 359.114511 418.323391 353.575942 418.323391 347.80165 
C 418.323391 342.027358 416.014344 336.488789 411.90479 332.405749 
C 407.795236 328.322708 402.220702 326.028557 396.408915 326.028557 
C 390.597128 326.028557 385.022594 328.322708 380.91304 332.405749 
C 376.803486 336.488789 374.494439 342.027358 374.494439 347.80165 
C 374.494439 353.575942 376.803486 359.114511 380.91304 363.197552 
C 385.022594 367.280592 390.597128 369.574743 396.408915 369.574743 
z
" clip-path="url(#p54335609e1)" style="fill: #5c8aa8; fill-opacity: 0.5; stroke: #5c8aa8; stroke-opacity: 0.5; stroke-width: 9.818314; stroke-linejoin: miter"/>
   </g>
   <g id="patch_4">
    <path d="M 477.782571 346.251672 
C 490.880862 346.251672 503.444444 341.08124 512.706334 331.879104 
C 521.968224 322.676968 527.17223 310.194442 527.17223 297.180656 
C 527.17223 284.166871 521.968224 271.684345 512.706334 262.482209 
C 503.444444 253.280073 490.880862 248.109641 477.782571 248.109641 
C 464.684281 248.109641 452.120699 253.280073 442.858809 262.482209 
C 433.596919 271.684345 428.392913 284.166871 428.392913 297.180656 
C 428.392913 310.194442 433.596919 322.676968 442.858809 331.879104 
C 452.120699 341.08124 464.684281 346.251672 477.782571 346.251672 
z
" clip-path="url(#p54335609e1)" style="fill: #8adb9c; fill-opacity: 0.5; stroke: #8adb9c; stroke-opacity: 0.5; stroke-width: 22.127983; stroke-linejoin: miter"/>
   </g>
   <g id="patch_5">
    <path d="M 84.618149 598.907123 
C 89.8809 598.907123 94.928811 596.829699 98.650138 593.132381 
C 102.371465 589.435062 104.462379 584.419718 104.462379 579.19092 
C 104.462379 573.962123 102.371465 568.946779 98.650138 565.24946 
C 94.928811 561.552142 89.8809 559.474718 84.618149 559.474718 
C 79.355398 559.474718 74.307487 561.552142 70.58616 565.24946 
C 66.864833 568.946779 64.77392 573.962123 64.77392 579.19092 
C 64.77392 584.419718 66.864833 589.435062 70.58616 593.132381 
C 74.307487 596.829699 79.355398 598.907123 84.618149 598.907123 
z
" clip-path="url(#p54335609e1)" style="fill: #5c8aa8; fill-opacity: 0.5; stroke: #5c8aa8; stroke-opacity: 0.5; stroke-width: 8.890784; stroke-linejoin: miter"/>
   </g>
   <g id="patch_6">
    <path d="M 582.069035 194.809 
C 594.737974 194.809 606.889732 189.80805 615.848025 180.907553 
C 624.806318 172.007056 629.839741 159.933696 629.839741 147.346492 
C 629.839741 134.759288 624.806318 122.685928 615.848025 113.785431 
C 606.889732 104.884934 594.737974 99.883984 582.069035 99.883984 
C 569.400096 99.883984 557.248338 104.884934 548.290045 113.785431 
C 539.331752 122.685928 534.298329 134.759288 534.298329 147.346492 
C 534.298329 159.933696 539.331752 172.007056 548.290045 180.907553 
C 557.248338 189.80805 569.400096 194.809 582.069035 194.809 
z
" clip-path="url(#p54335609e1)" style="fill: #8adb9c; fill-opacity: 0.5; stroke: #8adb9c; stroke-opacity: 0.5; stroke-width: 21.402646; stroke-linejoin: miter"/>
   </g>
   <g id="patch_7">
    <path d="M 393.07593 527.799192 
C 397.580094 527.799192 401.900385 526.021214 405.085309 522.856837 
C 408.270234 519.69246 410.059757 515.400042 410.059757 510.924937 
C 410.059757 506.449833 408.270234 502.157415 405.085309 498.993038 
C 401.900385 495.828661 397.580094 494.050683 393.07593 494.050683 
C 388.571766 494.050683 384.251475 495.828661 381.06655 498.993038 
C 377.881626 502.157415 376.092103 506.449833 376.092103 510.924937 
C 376.092103 515.400042 377.881626 519.69246 381.06655 522.856837 
C 384.251475 526.021214 388.571766 527.799192 393.07593 527.799192 
z
" clip-path="url(#p54335609e1)" style="fill: #5c8aa8; fill-opacity: 0.5; stroke: #5c8aa8; stroke-opacity: 0.5; stroke-width: 7.609242; stroke-linejoin: miter"/>
   </g>
   <g id="patch_8">
    <path d="M 183.622032 206.275638 
C 195.66324 206.275638 207.212892 201.52248 215.727312 193.062992 
C 224.241732 184.603504 229.025754 173.128365 229.025754 161.164843 
C 229.025754 149.20132 224.241732 137.726181 215.727312 129.266693 
C 207.212892 120.807205 195.66324 116.054047 183.622032 116.054047 
C 171.580823 116.054047 160.031171 120.807205 151.516751 129.266693 
C 143.002331 137.726181 138.218309 149.20132 138.218309 161.164843 
C 138.218309 173.128365 143.002331 184.603504 151.516751 193.062992 
C 160.031171 201.52248 171.580823 206.275638 183.622032 206.275638 
z
" clip-path="url(#p54335609e1)" style="fill: #8adb9c; fill-opacity: 0.5; stroke: #8adb9c; stroke-opacity: 0.5; stroke-width: 20.34217; stroke-linejoin: miter"/>
   </g>
   <g id="patch_9">
    <path d="M 236.605409 365.409265 
C 241.223156 365.409265 245.652394 363.586451 248.917634 360.342277 
C 252.182874 357.098102 254.017525 352.69744 254.017525 348.109485 
C 254.017525 343.52153 252.182874 339.120867 248.917634 335.876693 
C 245.652394 332.632519 241.223156 330.809705 236.605409 330.809705 
C 231.987661 330.809705 227.558423 332.632519 224.293183 335.876693 
C 221.027943 339.120867 219.193292 343.52153 219.193292 348.109485 
C 219.193292 352.69744 221.027943 357.098102 224.293183 360.342277 
C 227.558423 363.586451 231.987661 365.409265 236.605409 365.409265 
z
" clip-path="url(#p54335609e1)" style="fill: #b57ddb; fill-opacity: 0.5; stroke: #b57ddb; stroke-opacity: 0.5; stroke-width: 7.801127; stroke-linejoin: miter"/>
   </g>
   <g id="patch_10">
    <path d="M 410.215931 521.613378 
C 422.98816 521.613378 435.238992 516.571656 444.270321 507.598593 
C 453.301651 498.625529 458.376112 486.453736 458.376112 473.763908 
C 458.376112 461.07408 453.301651 448.902287 444.270321 439.929224 
C 435.238992 430.956161 422.98816 425.914439 410.215931 425.914439 
C 397.443702 425.914439 385.192871 430.956161 376.161541 439.929224 
C 367.130211 448.902287 362.055751 461.07408 362.055751 473.763908 
C 362.055751 486.453736 367.130211 498.625529 376.161541 507.598593 
C 385.192871 516.571656 397.443702 521.613378 410.215931 521.613378 
z
" clip-path="url(#p54335609e1)" style="fill: #ffcc54; fill-opacity: 0.5; stroke: #ffcc54; stroke-opacity: 0.5; stroke-width: 21.577142; stroke-linejoin: miter"/>
   </g>
   <g id="patch_11">
    <path d="M 354.169798 359.458794 
C 357.431483 359.458794 360.560017 358.171273 362.866377 355.879793 
C 365.172737 353.588313 366.468618 350.479963 366.468618 347.239321 
C 366.468618 343.998679 365.172737 340.890329 362.866377 338.598849 
C 360.560017 336.307369 357.431483 335.019848 354.169798 335.019848 
C 350.908113 335.019848 347.779579 336.307369 345.473219 338.598849 
C 343.166859 340.890329 341.870978 343.998679 341.870978 347.239321 
C 341.870978 350.479963 343.166859 353.588313 345.473219 355.879793 
C 347.779579 358.171273 350.908113 359.458794 354.169798 359.458794 
z
" clip-path="url(#p54335609e1)" style="fill: #5c8aa8; fill-opacity: 0.5; stroke: #5c8aa8; stroke-opacity: 0.5; stroke-width: 5.510224; stroke-linejoin: miter"/>
   </g>
   <g id="patch_12">
    <path d="M 126.010711 277.839198 
C 139.229502 277.839198 151.908665 272.6212 161.255761 263.334407 
C 170.602858 254.047615 175.854739 241.450253 175.854739 228.316744 
C 175.854739 215.183236 170.602858 202.585874 161.255761 193.299081 
C 151.908665 184.012289 139.229502 178.794291 126.010711 178.794291 
C 112.79192 178.794291 100.112757 184.012289 90.765661 193.299081 
C 81.418564 202.585874 76.166683 215.183236 76.166683 228.316744 
C 76.166683 241.450253 81.418564 254.047615 90.765661 263.334407 
C 100.112757 272.6212 112.79192 277.839198 126.010711 277.839198 
z
" clip-path="url(#p54335609e1)" style="fill: #ffcc54; fill-opacity: 0.5; stroke: #ffcc54; stroke-opacity: 0.5; stroke-width: 22.331554; stroke-linejoin: miter"/>
   </g>
   <g id="patch_13">
    <path d="M 124.705028 547.372194 
C 129.553503 547.372194 134.20405 545.458302 137.63244 542.052031 
C 141.06083 538.64576 142.987149 534.025217 142.987149 529.208022 
C 142.987149 524.390827 141.06083 519.770283 137.63244 516.364012 
C 134.20405 512.957741 129.553503 511.043849 124.705028 511.043849 
C 119.856552 511.043849 115.206005 512.957741 111.777615 516.364012 
C 108.349226 519.770283 106.422906 524.390827 106.422906 529.208022 
C 106.422906 534.025217 108.349226 538.64576 111.777615 542.052031 
C 115.206005 545.458302 119.856552 547.372194 124.705028 547.372194 
z
" clip-path="url(#p54335609e1)" style="fill: #b57ddb; fill-opacity: 0.5; stroke: #b57ddb; stroke-opacity: 0.5; stroke-width: 8.190915; stroke-linejoin: miter"/>
   </g>
   <g id="patch_14">
    <path d="M 580.864381 348.374301 
C 585.614189 348.374301 590.170096 346.499357 593.528718 343.162405 
C 596.887339 339.825452 598.774457 335.298938 598.774457 330.579774 
C 598.774457 325.86061 596.887339 321.334096 593.528718 317.997143 
C 590.170096 314.66019 585.614189 312.785247 580.864381 312.785247 
C 576.114574 312.785247 571.558667 314.66019 568.200045 317.997143 
C 564.841424 321.334096 562.954305 325.86061 562.954305 330.579774 
C 562.954305 335.298938 564.841424 339.825452 568.200045 343.162405 
C 571.558667 346.499357 576.114574 348.374301 580.864381 348.374301 
z
" clip-path="url(#p54335609e1)" style="fill: #5c8aa8; fill-opacity: 0.5; stroke: #5c8aa8; stroke-opacity: 0.5; stroke-width: 8.024228; stroke-linejoin: miter"/>
   </g>
   <g id="patch_15">
    <path d="M 57.866788 481.247422 
C 70.581931 481.247422 82.778006 476.228235 91.768969 467.295278 
C 100.759933 458.36232 105.811713 446.244929 105.811713 433.61182 
C 105.811713 420.97871 100.759933 408.86132 91.768969 399.928362 
C 82.778006 390.995405 70.581931 385.976217 57.866788 385.976217 
C 45.151645 385.976217 32.95557 390.995405 23.964607 399.928362 
C 14.973643 408.86132 9.921863 420.97871 9.921863 433.61182 
C 9.921863 446.244929 14.973643 458.36232 23.964607 467.295278 
C 32.95557 476.228235 45.151645 481.247422 57.866788 481.247422 
z
" clip-path="url(#p54335609e1)" style="fill: #ffcc54; fill-opacity: 0.5; stroke: #ffcc54; stroke-opacity: 0.5; stroke-width: 21.480701; stroke-linejoin: miter"/>
   </g>
   <g id="patch_16">
    <path d="M 213.434614 396.130727 
C 222.883267 396.130727 231.9462 392.400956 238.627407 385.762854 
C 245.308613 379.124752 249.062603 370.12029 249.062603 360.732596 
C 249.062603 351.344902 245.308613 342.34044 238.627407 335.702337 
C 231.9462 329.064235 222.883267 325.334465 213.434614 325.334465 
C 203.985961 325.334465 194.923028 329.064235 188.241822 335.702337 
C 181.560615 342.34044 177.806625 351.344902 177.806625 360.732596 
C 177.806625 370.12029 181.560615 379.124752 188.241822 385.762854 
C 194.923028 392.400956 203.985961 396.130727 213.434614 396.130727 
z
" clip-path="url(#p54335609e1)" style="fill: #ffa8a8; fill-opacity: 0.5; stroke: #ffa8a8; stroke-opacity: 0.5; stroke-width: 15.962361; stroke-linejoin: miter"/>
   </g>
   <g id="patch_17">
    <path d="M 257.250203 150.501069 
C 270.218679 150.501069 282.657746 145.381881 291.827843 136.270945 
C 300.99794 127.16001 306.15037 114.801196 306.15037 101.916388 
C 306.15037 89.031579 300.99794 76.672765 291.827843 67.56183 
C 282.657746 58.450894 270.218679 53.331706 257.250203 53.331706 
C 244.281728 53.331706 231.842661 58.450894 222.672564 67.56183 
C 213.502467 76.672765 208.350037 89.031579 208.350037 101.916388 
C 208.350037 114.801196 213.502467 127.16001 222.672564 136.270945 
C 231.842661 145.381881 244.281728 150.501069 257.250203 150.501069 
z
" clip-path="url(#p54335609e1)" style="fill: #8adb9c; fill-opacity: 0.5; stroke: #8adb9c; stroke-opacity: 0.5; stroke-width: 21.908677; stroke-linejoin: miter"/>
   </g>
   <g id="patch_18">
    <path d="M 374.367413 631.431295 
C 388.159973 631.431295 401.389483 625.986807 411.142295 616.296915 
C 420.895108 606.607024 426.37495 593.462867 426.37495 579.759291 
C 426.37495 566.055715 420.895108 552.911558 411.142295 543.221666 
C 401.389483 533.531775 388.159973 528.087287 374.367413 528.087287 
C 360.574854 528.087287 347.345344 533.531775 337.592532 543.221666 
C 327.839719 552.911558 322.359877 566.055715 322.359877 579.759291 
C 322.359877 593.462867 327.839719 606.607024 337.592532 616.296915 
C 347.345344 625.986807 360.574854 631.431295 374.367413 631.431295 
z
" clip-path="url(#p54335609e1)" style="fill: #ffcc54; fill-opacity: 0.5; stroke: #ffcc54; stroke-opacity: 0.5; stroke-width: 23.300868; stroke-linejoin: miter"/>
   </g>
   <g id="patch_19">
    <path d="M 536.273 435.321345 
C 549.271629 435.321345 561.739618 430.190254 570.931037 421.058135 
C 580.122455 411.926016 585.286865 399.538466 585.286865 386.623699 
C 585.286865 373.708933 580.122455 361.321383 570.931037 352.189263 
C 561.739618 343.057144 549.271629 337.926053 536.273 337.926053 
C 523.274372 337.926053 510.806383 343.057144 501.614964 352.189263 
C 492.423546 361.321383 487.259136 373.708933 487.259136 386.623699 
C 487.259136 399.538466 492.423546 411.926016 501.614964 421.058135 
C 510.806383 430.190254 523.274372 435.321345 536.273 435.321345 
z
" clip-path="url(#p54335609e1)" style="fill: #8adb9c; fill-opacity: 0.5; stroke: #8adb9c; stroke-opacity: 0.5; stroke-width: 21.959617; stroke-linejoin: miter"/>
   </g>
   <g id="patch_20">
    <path d="M 509.188592 186.145218 
C 520.752552 186.145218 531.844439 181.580449 540.021393 173.456249 
C 548.198348 165.332049 552.792758 154.311723 552.792758 142.822369 
C 552.792758 131.333016 548.198348 120.312689 540.021393 112.188489 
C 531.844439 104.064289 520.752552 99.499521 509.188592 99.499521 
C 497.624632 99.499521 486.532745 104.064289 478.355791 112.188489 
C 470.178836 120.312689 465.584426 131.333016 465.584426 142.822369 
C 465.584426 154.311723 470.178836 165.332049 478.355791 173.456249 
C 486.532745 181.580449 497.624632 186.145218 509.188592 186.145218 
z
" clip-path="url(#p54335609e1)" style="fill: #8adb9c; fill-opacity: 0.5; stroke: #8adb9c; stroke-opacity: 0.5; stroke-width: 19.535916; stroke-linejoin: miter"/>
   </g>
   <g id="patch_21">
    <path d="M 513.538265 630.807847 
C 526.057627 630.807847 538.065913 625.865942 546.918439 617.07053 
C 555.770965 608.275117 560.74496 596.344303 560.74496 583.905712 
C 560.74496 571.46712 555.770965 559.536306 546.918439 550.740894 
C 538.065913 541.945481 526.057627 537.003576 513.538265 537.003576 
C 501.018903 537.003576 489.010617 541.945481 480.158091 550.740894 
C 471.305566 559.536306 466.33157 571.46712 466.33157 583.905712 
C 466.33157 596.344303 471.305566 608.275117 480.158091 617.07053 
C 489.010617 625.865942 501.018903 630.807847 513.538265 630.807847 
z
" clip-path="url(#p54335609e1)" style="fill: #8adb9c; fill-opacity: 0.5; stroke: #8adb9c; stroke-opacity: 0.5; stroke-width: 21.149953; stroke-linejoin: miter"/>
   </g>
   <g id="patch_22">
    <path d="M 160.949976 417.835575 
C 165.994474 417.835575 170.833042 415.844305 174.400041 412.300319 
C 177.96704 408.756333 179.971241 403.948981 179.971241 398.937028 
C 179.971241 393.925075 177.96704 389.117724 174.400041 385.573738 
C 170.833042 382.029751 165.994474 380.038481 160.949976 380.038481 
C 155.905478 380.038481 151.06691 382.029751 147.499911 385.573738 
C 143.932912 389.117724 141.928711 393.925075 141.928711 398.937028 
C 141.928711 403.948981 143.932912 408.756333 147.499911 412.300319 
C 151.06691 415.844305 155.905478 417.835575 160.949976 417.835575 
z
" clip-path="url(#p54335609e1)" style="fill: #5c8aa8; fill-opacity: 0.5; stroke: #5c8aa8; stroke-opacity: 0.5; stroke-width: 8.522072; stroke-linejoin: miter"/>
   </g>
   <g id="patch_23">
    <path d="M 258.207353 528.885827 
C 272.841047 528.885827 286.877352 523.109308 297.224936 512.828483 
C 307.57252 502.547657 313.386549 488.601908 313.386549 474.062626 
C 313.386549 459.523343 307.57252 445.577594 297.224936 435.296768 
C 286.877352 425.015943 272.841047 419.239425 258.207353 419.239425 
C 243.573659 419.239425 229.537353 425.015943 219.189769 435.296768 
C 208.842185 445.577594 203.028157 459.523343 203.028157 474.062626 
C 203.028157 488.601908 208.842185 502.547657 219.189769 512.828483 
C 229.537353 523.109308 243.573659 528.885827 258.207353 528.885827 
z
" clip-path="url(#p54335609e1)" style="fill: #ffcc54; fill-opacity: 0.5; stroke: #ffcc54; stroke-opacity: 0.5; stroke-width: 24.721862; stroke-linejoin: miter"/>
   </g>
   <g id="patch_24">
    <path d="M 588.609133 489.70403 
C 593.827979 489.70403 598.833777 487.643938 602.524059 483.977465 
C 606.214341 480.310991 608.28781 475.337488 608.28781 470.152312 
C 608.28781 464.967135 606.214341 459.993632 602.524059 456.327159 
C 598.833777 452.660686 593.827979 450.600593 588.609133 450.600593 
C 583.390286 450.600593 578.384488 452.660686 574.694206 456.327159 
C 571.003925 459.993632 568.930455 464.967135 568.930455 470.152312 
C 568.930455 475.337488 571.003925 480.310991 574.694206 483.977465 
C 578.384488 487.643938 583.390286 489.70403 588.609133 489.70403 
z
" clip-path="url(#p54335609e1)" style="fill: #b57ddb; fill-opacity: 0.5; stroke: #b57ddb; stroke-opacity: 0.5; stroke-width: 8.816612; stroke-linejoin: miter"/>
   </g>
   <g id="patch_25">
    <path d="M 177.699437 511.232388 
C 188.134223 511.232388 198.143032 507.11335 205.52154 499.782446 
C 212.900048 492.451541 217.045833 482.507305 217.045833 472.13984 
C 217.045833 461.772375 212.900048 451.828139 205.52154 444.497234 
C 198.143032 437.166329 188.134223 433.047292 177.699437 433.047292 
C 167.26465 433.047292 157.255841 437.166329 149.877333 444.497234 
C 142.498825 451.828139 138.353041 461.772375 138.353041 472.13984 
C 138.353041 482.507305 142.498825 492.451541 149.877333 499.782446 
C 157.255841 507.11335 167.26465 511.232388 177.699437 511.232388 
z
" clip-path="url(#p54335609e1)" style="fill: #8adb9c; fill-opacity: 0.5; stroke: #8adb9c; stroke-opacity: 0.5; stroke-width: 17.628314; stroke-linejoin: miter"/>
   </g>
   <g id="patch_26">
    <path d="M 257.001314 322.888497 
C 269.268682 322.888497 281.035261 318.046064 289.7096 309.427689 
C 298.383938 300.809314 303.257815 289.118648 303.257815 276.930425 
C 303.257815 264.742202 298.383938 253.051536 289.7096 244.43316 
C 281.035261 235.814785 269.268682 230.972353 257.001314 230.972353 
C 244.733947 230.972353 232.967367 235.814785 224.293029 244.43316 
C 215.61869 253.051536 210.744813 264.742202 210.744813 276.930425 
C 210.744813 289.118648 215.61869 300.809314 224.293029 309.427689 
C 232.967367 318.046064 244.733947 322.888497 257.001314 322.888497 
z
" clip-path="url(#p54335609e1)" style="fill: #ffcc54; fill-opacity: 0.5; stroke: #ffcc54; stroke-opacity: 0.5; stroke-width: 20.724239; stroke-linejoin: miter"/>
   </g>
   <g id="patch_27">
    <path d="M 565.719903 92.122607 
C 572.025319 92.122607 578.073329 89.633601 582.531932 85.203764 
C 586.990534 80.773928 589.495702 74.764936 589.495702 68.500201 
C 589.495702 62.235465 586.990534 56.226473 582.531932 51.796637 
C 578.073329 47.3668 572.025319 44.877794 565.719903 44.877794 
C 559.414487 44.877794 553.366476 47.3668 548.907874 51.796637 
C 544.449272 56.226473 541.944104 62.235465 541.944104 68.500201 
C 541.944104 74.764936 544.449272 80.773928 548.907874 85.203764 
C 553.366476 89.633601 559.414487 92.122607 565.719903 92.122607 
z
" clip-path="url(#p54335609e1)" style="fill: #b57ddb; fill-opacity: 0.5; stroke: #b57ddb; stroke-opacity: 0.5; stroke-width: 10.65224; stroke-linejoin: miter"/>
   </g>
   <g id="patch_28">
    <path d="M 118.6626 90.396862 
C 130.493546 90.396862 141.84152 85.726703 150.207262 77.414934 
C 158.573004 69.103164 163.273488 57.828403 163.273488 46.073786 
C 163.273488 34.319169 158.573004 23.044408 150.207262 14.732639 
C 141.84152 6.42087 130.493546 1.750711 118.6626 1.750711 
C 106.831655 1.750711 95.483681 6.42087 87.117939 14.732639 
C 78.752197 23.044408 74.051713 34.319169 74.051713 46.073786 
C 74.051713 57.828403 78.752197 69.103164 87.117939 77.414934 
C 95.483681 85.726703 106.831655 90.396862 118.6626 90.396862 
z
" clip-path="url(#p54335609e1)" style="fill: #8adb9c; fill-opacity: 0.5; stroke: #8adb9c; stroke-opacity: 0.5; stroke-width: 19.986957; stroke-linejoin: miter"/>
   </g>
   <g id="patch_29">
    <path d="M 426.389106 432.396454 
C 432.711135 432.396454 438.775081 429.900891 443.24543 425.459382 
C 447.715779 421.017874 450.227548 414.993051 450.227548 408.711809 
C 450.227548 402.430568 447.715779 396.405745 443.24543 391.964236 
C 438.775081 387.522728 432.711135 385.027164 426.389106 385.027164 
C 420.067078 385.027164 414.003132 387.522728 409.532783 391.964236 
C 405.062433 396.405745 402.550665 402.430568 402.550665 408.711809 
C 402.550665 414.993051 405.062433 421.017874 409.532783 425.459382 
C 414.003132 429.900891 420.067078 432.396454 426.389106 432.396454 
z
" clip-path="url(#p54335609e1)" style="fill: #b57ddb; fill-opacity: 0.5; stroke: #b57ddb; stroke-opacity: 0.5; stroke-width: 10.680305; stroke-linejoin: miter"/>
   </g>
   <g id="patch_30">
    <path d="M 125.580663 165.04841 
C 129.896268 165.04841 134.035697 163.344864 137.087291 160.312958 
C 140.138884 157.281052 141.853492 153.168329 141.853492 148.880567 
C 141.853492 144.592804 140.138884 140.480081 137.087291 137.448175 
C 134.035697 134.416269 129.896268 132.712723 125.580663 132.712723 
C 121.265058 132.712723 117.125628 134.416269 114.074035 137.448175 
C 111.022442 140.480081 109.307834 144.592804 109.307834 148.880567 
C 109.307834 153.168329 111.022442 157.281052 114.074035 160.312958 
C 117.125628 163.344864 121.265058 165.04841 125.580663 165.04841 
z
" clip-path="url(#p54335609e1)" style="fill: #5c8aa8; fill-opacity: 0.5; stroke: #5c8aa8; stroke-opacity: 0.5; stroke-width: 7.290694; stroke-linejoin: miter"/>
   </g>
   <g id="patch_31">
    <path d="M 44.708184 383.189173 
C 52.853012 383.189173 60.665345 379.974076 66.424608 374.25197 
C 72.183871 368.529863 75.419845 360.767932 75.419845 352.675651 
C 75.419845 344.583371 72.183871 336.82144 66.424608 331.099333 
C 60.665345 325.377227 52.853012 322.16213 44.708184 322.16213 
C 36.563356 322.16213 28.751023 325.377227 22.99176 331.099333 
C 17.232497 336.82144 13.996523 344.583371 13.996523 352.675651 
C 13.996523 360.767932 17.232497 368.529863 22.99176 374.25197 
C 28.751023 379.974076 36.563356 383.189173 44.708184 383.189173 
z
" clip-path="url(#p54335609e1)" style="fill: #ffa8a8; fill-opacity: 0.5; stroke: #ffa8a8; stroke-opacity: 0.5; stroke-width: 13.759705; stroke-linejoin: miter"/>
   </g>
   <g id="patch_32">
    <path d="M 309.590383 78.275723 
C 319.307663 78.275723 328.628256 74.439915 335.49941 67.613091 
C 342.370564 60.786267 346.23128 51.525807 346.23128 41.871219 
C 346.23128 32.216632 342.370564 22.956172 335.49941 16.129348 
C 328.628256 9.302524 319.307663 5.466716 309.590383 5.466716 
C 299.873104 5.466716 290.552511 9.302524 283.681357 16.129348 
C 276.810203 22.956172 272.949487 32.216632 272.949487 41.871219 
C 272.949487 51.525807 276.810203 60.786267 283.681357 67.613091 
C 290.552511 74.439915 299.873104 78.275723 309.590383 78.275723 
z
" clip-path="url(#p54335609e1)" style="fill: #ffa8a8; fill-opacity: 0.5; stroke: #ffa8a8; stroke-opacity: 0.5; stroke-width: 16.416172; stroke-linejoin: miter"/>
   </g>
   <g id="patch_33">
    <path d="M 131.894029 394.969639 
C 146.216416 394.969639 159.954122 389.316006 170.081579 379.253888 
C 180.209035 369.19177 185.89938 355.542694 185.89938 341.31271 
C 185.89938 327.082726 180.209035 313.43365 170.081579 303.371532 
C 159.954122 293.309414 146.216416 287.655781 131.894029 287.655781 
C 117.571643 287.655781 103.833936 293.309414 93.70648 303.371532 
C 83.579023 313.43365 77.888679 327.082726 77.888679 341.31271 
C 77.888679 355.542694 83.579023 369.19177 93.70648 379.253888 
C 103.833936 389.316006 117.571643 394.969639 131.894029 394.969639 
z
" clip-path="url(#p54335609e1)" style="fill: #ffcc54; fill-opacity: 0.5; stroke: #ffcc54; stroke-opacity: 0.5; stroke-width: 24.195946; stroke-linejoin: miter"/>
   </g>
   <g id="patch_34">
    <path d="M 454.926793 224.669503 
C 460.829554 224.669503 466.491349 222.339441 470.665231 218.192487 
C 474.839114 214.045532 477.184306 208.420266 477.184306 202.555587 
C 477.184306 196.690908 474.839114 191.065641 470.665231 186.918687 
C 466.491349 182.771732 460.829554 180.441671 454.926793 180.441671 
C 449.024032 180.441671 443.362237 182.771732 439.188355 186.918687 
C 435.014472 191.065641 432.66928 196.690908 432.66928 202.555587 
C 432.66928 208.420266 435.014472 214.045532 439.188355 218.192487 
C 443.362237 222.339441 449.024032 224.669503 454.926793 224.669503 
z
" clip-path="url(#p54335609e1)" style="fill: #5c8aa8; fill-opacity: 0.5; stroke: #5c8aa8; stroke-opacity: 0.5; stroke-width: 9.972004; stroke-linejoin: miter"/>
   </g>
   <g id="patch_35">
    <path d="M 189.351552 277.665315 
C 193.515014 277.665315 197.508511 276.021826 200.452523 273.096808 
C 203.396535 270.17179 205.050696 266.204056 205.050696 262.067456 
C 205.050696 257.930855 203.396535 253.963122 200.452523 251.038104 
C 197.508511 248.113085 193.515014 246.469596 189.351552 246.469596 
C 185.18809 246.469596 181.194593 248.113085 178.250581 251.038104 
C 175.306569 253.963122 173.652408 257.930855 173.652408 262.067456 
C 173.652408 266.204056 175.306569 270.17179 178.250581 273.096808 
C 181.194593 276.021826 185.18809 277.665315 189.351552 277.665315 
z
" clip-path="url(#p54335609e1)" style="fill: #5c8aa8; fill-opacity: 0.5; stroke: #5c8aa8; stroke-opacity: 0.5; stroke-width: 7.033667; stroke-linejoin: miter"/>
   </g>
   <g id="patch_36">
    <path d="M 339.372354 469.267528 
C 348.873881 469.267528 357.987529 465.516887 364.706123 458.841638 
C 371.424716 452.16639 375.199713 443.11154 375.199713 433.671314 
C 375.199713 424.231087 371.424716 415.176237 364.706123 408.500989 
C 357.987529 401.82574 348.873881 398.075099 339.372354 398.075099 
C 329.870827 398.075099 320.757179 401.82574 314.038586 408.500989 
C 307.319992 415.176237 303.544995 424.231087 303.544995 433.671314 
C 303.544995 443.11154 307.319992 452.16639 314.038586 458.841638 
C 320.757179 465.516887 329.870827 469.267528 339.372354 469.267528 
z
" clip-path="url(#p54335609e1)" style="fill: #ffa8a8; fill-opacity: 0.5; stroke: #ffa8a8; stroke-opacity: 0.5; stroke-width: 16.051684; stroke-linejoin: miter"/>
   </g>
   <g id="patch_37">
    <path d="M 49.566765 475.622776 
C 69.630546 475.622776 88.875268 467.70278 103.062504 453.607075 
C 117.249739 439.51137 125.221164 420.390807 125.221164 400.45647 
C 125.221164 380.522133 117.249739 361.401571 103.062504 347.305866 
C 88.875268 333.210161 69.630546 325.290165 49.566765 325.290165 
C 29.502984 325.290165 10.258263 333.210161 -3.928973 347.305866 
C -18.116208 361.401571 -26.087633 380.522133 -26.087633 400.45647 
C -26.087633 420.390807 -18.116208 439.51137 -3.928973 453.607075 
C 10.258263 467.70278 29.502984 475.622776 49.566765 475.622776 
z
" clip-path="url(#p54335609e1)" style="fill: #ffa163; fill-opacity: 0.5; stroke: #ffa163; stroke-opacity: 0.5; stroke-width: 33.89534; stroke-linejoin: miter"/>
   </g>
   <g id="patch_38">
    <path d="M 45.414394 226.554883 
C 51.362753 226.554883 57.068284 224.206822 61.274409 220.027833 
C 65.480534 215.848844 67.843842 210.180123 67.843842 204.27014 
C 67.843842 198.360158 65.480534 192.691437 61.274409 188.512448 
C 57.068284 184.333459 51.362753 181.985398 45.414394 181.985398 
C 39.466035 181.985398 33.760504 184.333459 29.554379 188.512448 
C 25.348254 192.691437 22.984945 198.360158 22.984945 204.27014 
C 22.984945 210.180123 25.348254 215.848844 29.554379 220.027833 
C 33.760504 224.206822 39.466035 226.554883 45.414394 226.554883 
z
" clip-path="url(#p54335609e1)" style="fill: #b57ddb; fill-opacity: 0.5; stroke: #b57ddb; stroke-opacity: 0.5; stroke-width: 10.049036; stroke-linejoin: miter"/>
   </g>
   <g id="patch_39">
    <path d="M 550.670174 310.54839 
C 556.08606 310.54839 561.280855 308.410518 565.110464 304.605615 
C 568.940074 300.800713 571.091828 295.639433 571.091828 290.258488 
C 571.091828 284.877543 568.940074 279.716263 565.110464 275.911361 
C 561.280855 272.106458 556.08606 269.968586 550.670174 269.968586 
C 545.254288 269.968586 540.059493 272.106458 536.229883 275.911361 
C 532.400274 279.716263 530.248519 284.877543 530.248519 290.258488 
C 530.248519 295.639433 532.400274 300.800713 536.229883 304.605615 
C 540.059493 308.410518 545.254288 310.54839 550.670174 310.54839 
z
" clip-path="url(#p54335609e1)" style="fill: #5c8aa8; fill-opacity: 0.5; stroke: #5c8aa8; stroke-opacity: 0.5; stroke-width: 9.149487; stroke-linejoin: miter"/>
   </g>
   <g id="patch_40">
    <path d="M 174.048506 596.834393 
C 181.628444 596.834393 188.898949 593.842281 194.258775 588.517034 
C 199.618601 583.191788 202.630142 575.96819 202.630142 568.437154 
C 202.630142 560.906119 199.618601 553.682521 194.258775 548.357274 
C 188.898949 543.032028 181.628444 540.039915 174.048506 540.039915 
C 166.468567 540.039915 159.198063 543.032028 153.838237 548.357274 
C 148.478411 553.682521 145.466869 560.906119 145.466869 568.437154 
C 145.466869 575.96819 148.478411 583.191788 153.838237 588.517034 
C 159.198063 593.842281 166.468567 596.834393 174.048506 596.834393 
z
" clip-path="url(#p54335609e1)" style="fill: #ffa8a8; fill-opacity: 0.5; stroke: #ffa8a8; stroke-opacity: 0.5; stroke-width: 12.805393; stroke-linejoin: miter"/>
   </g>
   <g id="patch_41">
    <path d="M 448.855226 115.011115 
C 454.860212 115.011115 460.620057 112.640701 464.866224 108.42193 
C 469.11239 104.203158 471.498196 98.480473 471.498196 92.514229 
C 471.498196 86.547985 469.11239 80.8253 464.866224 76.606529 
C 460.620057 72.387757 454.860212 70.017343 448.855226 70.017343 
C 442.85024 70.017343 437.090395 72.387757 432.844229 76.606529 
C 428.598063 80.8253 426.212257 86.547985 426.212257 92.514229 
C 426.212257 98.480473 428.598063 104.203158 432.844229 108.42193 
C 437.090395 112.640701 442.85024 115.011115 448.855226 115.011115 
z
" clip-path="url(#p54335609e1)" style="fill: #b57ddb; fill-opacity: 0.5; stroke: #b57ddb; stroke-opacity: 0.5; stroke-width: 10.1447; stroke-linejoin: miter"/>
   </g>
   <g id="patch_42">
    <path d="M 290.738099 415.870116 
C 294.092702 415.870116 297.310361 414.545917 299.682423 412.189158 
C 302.054486 409.832399 303.387283 406.6355 303.387283 403.30254 
C 303.387283 399.969579 302.054486 396.77268 299.682423 394.415921 
C 297.310361 392.059162 294.092702 390.734963 290.738099 390.734963 
C 287.383496 390.734963 284.165838 392.059162 281.793776 394.415921 
C 279.421713 396.77268 278.088915 399.969579 278.088915 403.30254 
C 278.088915 406.6355 279.421713 409.832399 281.793776 412.189158 
C 284.165838 414.545917 287.383496 415.870116 290.738099 415.870116 
z
" clip-path="url(#p54335609e1)" style="fill: #5c8aa8; fill-opacity: 0.5; stroke: #5c8aa8; stroke-opacity: 0.5; stroke-width: 5.667197; stroke-linejoin: miter"/>
   </g>
   <g id="patch_43">
    <path d="M 570.977435 559.616061 
C 580.121901 559.616061 588.893065 556.006365 595.359179 549.581968 
C 601.825293 543.157571 605.458428 534.442995 605.458428 525.357526 
C 605.458428 516.272056 601.825293 507.55748 595.359179 501.133083 
C 588.893065 494.708686 580.121901 491.098991 570.977435 491.098991 
C 561.832969 491.098991 553.061805 494.708686 546.595691 501.133083 
C 540.129577 507.55748 536.496442 516.272056 536.496442 525.357526 
C 536.496442 534.442995 540.129577 543.157571 546.595691 549.581968 
C 553.061805 556.006365 561.832969 559.616061 570.977435 559.616061 
z
" clip-path="url(#p54335609e1)" style="fill: #ffa8a8; fill-opacity: 0.5; stroke: #ffa8a8; stroke-opacity: 0.5; stroke-width: 15.448474; stroke-linejoin: miter"/>
   </g>
   <g id="patch_44">
    <path d="M 509.267912 87.095696 
C 513.410859 87.095696 517.384678 85.460305 520.314184 82.5497 
C 523.243689 79.639095 524.889699 75.690912 524.889699 71.574695 
C 524.889699 67.458477 523.243689 63.510295 520.314184 60.59969 
C 517.384678 57.689084 513.410859 56.053694 509.267912 56.053694 
C 505.124966 56.053694 501.151146 57.689084 498.221641 60.59969 
C 495.292135 63.510295 493.646125 67.458477 493.646125 71.574695 
C 493.646125 75.690912 495.292135 79.639095 498.221641 82.5497 
C 501.151146 85.460305 505.124966 87.095696 509.267912 87.095696 
z
" clip-path="url(#p54335609e1)" style="fill: #5c8aa8; fill-opacity: 0.5; stroke: #5c8aa8; stroke-opacity: 0.5; stroke-width: 6.999008; stroke-linejoin: miter"/>
   </g>
   <g id="patch_45">
    <path d="M 455.07008 114.005199 
C 465.120194 114.005199 474.760035 110.038007 481.866538 102.977352 
C 488.973042 95.916697 492.965995 86.339049 492.965995 76.353774 
C 492.965995 66.368499 488.973042 56.790851 481.866538 49.730196 
C 474.760035 42.669541 465.120194 38.702349 455.07008 38.702349 
C 445.019966 38.702349 435.380126 42.669541 428.273622 49.730196 
C 421.167118 56.790851 417.174165 66.368499 417.174165 76.353774 
C 417.174165 86.339049 421.167118 95.916697 428.273622 102.977352 
C 435.380126 110.038007 445.019966 114.005199 455.07008 114.005199 
z
" clip-path="url(#p54335609e1)" style="fill: #ffa8a8; fill-opacity: 0.5; stroke: #ffa8a8; stroke-opacity: 0.5; stroke-width: 16.978456; stroke-linejoin: miter"/>
   </g>
   <g id="patch_46">
    <path d="M 526.131852 226.935844 
C 531.338742 226.935844 536.333072 224.880471 540.014899 221.222398 
C 543.696725 217.564325 545.765445 212.602217 545.765445 207.42892 
C 545.765445 202.255623 543.696725 197.293515 540.014899 193.635442 
C 536.333072 189.977369 531.338742 187.921996 526.131852 187.921996 
C 520.924963 187.921996 515.930633 189.977369 512.248806 193.635442 
C 508.566979 197.293515 506.49826 202.255623 506.49826 207.42892 
C 506.49826 212.602217 508.566979 217.564325 512.248806 221.222398 
C 515.930633 224.880471 520.924963 226.935844 526.131852 226.935844 
z
" clip-path="url(#p54335609e1)" style="fill: #5c8aa8; fill-opacity: 0.5; stroke: #5c8aa8; stroke-opacity: 0.5; stroke-width: 8.796412; stroke-linejoin: miter"/>
   </g>
   <g id="patch_47">
    <path d="M 81.404236 128.823911 
C 88.703928 128.823911 95.705626 125.942423 100.867288 120.814063 
C 106.02895 115.685702 108.929148 108.729176 108.929148 101.476579 
C 108.929148 94.223981 106.02895 87.267455 100.867288 82.139095 
C 95.705626 77.010734 88.703928 74.129247 81.404236 74.129247 
C 74.104544 74.129247 67.102846 77.010734 61.941184 82.139095 
C 56.779522 87.267455 53.879324 94.223981 53.879324 101.476579 
C 53.879324 108.729176 56.779522 115.685702 61.941184 120.814063 
C 67.102846 125.942423 74.104544 128.823911 81.404236 128.823911 
z
" clip-path="url(#p54335609e1)" style="fill: #b57ddb; fill-opacity: 0.5; stroke: #b57ddb; stroke-opacity: 0.5; stroke-width: 12.33195; stroke-linejoin: miter"/>
   </g>
  </g>
 </g>
 <defs>
  <clipPath id="p54335609e1">
   <rect x="36" y="36" width="558" height="554.4"/>
  </clipPath>
 </defs>
</svg>
