<?xml version="1.0" encoding="utf-8" standalone="no"?>
<!DOCTYPE svg PUBLIC "-//W3C//DTD SVG 1.1//EN"
  "http://www.w3.org/Graphics/SVG/1.1/DTD/svg11.dtd">
<svg xmlns:xlink="http://www.w3.org/1999/xlink" width="277.191869pt" height="280.512pt" viewBox="0 0 277.191869 280.512" xmlns="http://www.w3.org/2000/svg" version="1.1">
 <metadata>
  <rdf:RDF xmlns:dc="http://purl.org/dc/elements/1.1/" xmlns:cc="http://creativecommons.org/ns#" xmlns:rdf="http://www.w3.org/1999/02/22-rdf-syntax-ns#">
   <cc:Work>
    <dc:type rdf:resource="http://purl.org/dc/dcmitype/StillImage"/>
    <dc:date>2025-03-22T01:05:05.957643</dc:date>
    <dc:format>image/svg+xml</dc:format>
    <dc:creator>
     <cc:Agent>
      <dc:title>Matplotlib v3.8.4, https://matplotlib.org/</dc:title>
     </cc:Agent>
    </dc:creator>
   </cc:Work>
  </rdf:RDF>
 </metadata>
 <defs>
  <style type="text/css">*{stroke-linejoin: round; stroke-linecap: butt}</style>
 </defs>
 <g id="figure_1">
  <g id="patch_1">
   <path d="M 0 280.512 
L 277.191869 280.512 
L 277.191869 0 
L 0 0 
L 0 280.512 
z
" style="fill: none"/>
  </g>
  <g id="axes_1">
   <g id="line2d_1">
    <path d="M 136.579696 146.410896 
L 135.136602 146.301409 
L 133.709239 145.969771 
L 132.360155 145.428495 
L 131.109647 144.688434 
L 129.980949 143.76211 
L 128.998781 142.666251 
L 128.187103 141.423125 
L 127.566683 140.060657 
L 127.152968 138.611507 
L 126.954546 137.111443 
L 126.972359 135.597315 
L 127.215147 134.036584 
L 127.673804 132.530852 
L 128.364679 131.046379 
L 129.245683 129.682895 
L 130.342473 128.406163 
L 131.581944 127.302957 
L 133.000936 126.340619 
L 134.501096 125.58385 
L 136.131583 125.004923 
L 137.870763 124.625756 
L 139.693262 124.465511 
L 141.470688 124.529965 
L 143.270298 124.815174 
L 145.063408 125.32762 
L 146.819994 126.069843 
L 148.417712 126.980384 
L 149.929318 128.089497 
L 151.329107 129.388727 
L 152.59224 130.866132 
L 153.695235 132.506377 
L 154.616448 134.290904 
L 155.336536 136.19817 
L 155.815619 138.083704 
L 156.090448 140.034452 
L 156.152359 142.026837 
L 155.995572 144.036124 
L 155.617349 146.036797 
L 155.018096 148.002947 
L 154.201419 149.908682 
L 153.174116 151.728543 
L 151.94612 153.43791 
L 150.530387 155.013413 
L 148.942723 156.433313 
L 147.201569 157.677864 
L 145.327733 158.729648 
L 143.344081 159.573867 
L 141.275187 160.198594 
L 139.146958 160.594973 
L 136.986234 160.757374 
L 133.586418 160.70821 
L 129.8148 160.464324 
L 126.603368 160.047318 
L 123.715519 159.45559 
L 121.053611 158.686721 
L 118.506119 157.711862 
L 116.112929 156.543856 
L 113.909549 155.210037 
L 111.922861 153.748529 
L 110.027206 152.06674 
L 108.388642 150.319261 
L 106.886138 148.389952 
L 105.547966 146.289009 
L 104.488934 144.225098 
L 103.610416 142.044501 
L 102.930061 139.765247 
L 102.463114 137.408113 
L 102.221983 134.996241 
L 102.215863 132.554677 
L 102.450441 130.109859 
L 102.874301 127.907418 
L 103.497514 125.745515 
L 104.316202 123.644641 
L 105.323916 121.624713 
L 106.511726 119.704722 
L 107.868383 117.902388 
L 109.380517 116.233849 
L 111.032883 114.713382 
L 112.992327 113.226355 
L 115.076906 111.946168 
L 117.261161 110.88223 
L 119.518907 110.040239 
L 121.823825 109.422145 
L 124.150048 109.026221 
L 126.472724 108.847219 
L 128.975167 108.88926 
L 131.418183 109.164257 
L 133.777746 109.653678 
L 136.033799 110.336199 
L 138.342901 111.266429 
L 140.49809 112.364779 
L 142.638121 113.699607 
L 144.720919 115.262637 
L 146.71102 117.034259 
L 148.687559 119.102259 
L 150.603835 121.4374 
L 152.600904 124.239937 
L 154.7196 127.61441 
L 156.842917 131.415754 
L 158.504622 134.829578 
L 159.731611 137.84921 
L 160.63914 140.676287 
L 161.274114 143.394203 
L 161.64917 145.938827 
L 161.805165 148.42689 
L 161.740519 151.005781 
L 161.456527 153.459341 
L 160.935265 155.942731 
L 160.228873 158.234755 
L 159.296569 160.498271 
L 158.133299 162.703593 
L 156.863695 164.647455 
L 155.403088 166.491849 
L 153.758489 168.212502 
L 151.940481 169.785882 
L 149.963106 171.18977 
L 147.843646 172.403809 
L 145.602321 173.410009 
L 143.478125 174.131557 
L 141.290641 174.659658 
L 139.059615 174.987586 
L 136.805564 175.111141 
L 129.459682 175.252453 
L 122.772841 175.350836 
L 118.785749 175.187276 
L 115.469527 174.843887 
L 112.35857 174.307766 
L 109.501827 173.600374 
L 106.652419 172.656095 
L 104.126379 171.586894 
L 101.669054 170.299763 
L 99.313259 168.790422 
L 97.331415 167.263219 
L 95.479218 165.566229 
L 93.77876 163.707762 
L 92.250566 161.699495 
L 90.913036 159.556201 
L 89.781949 157.295393 
L 88.870033 154.936879 
L 88.186629 152.502261 
L 87.737438 150.014367 
L 87.524377 147.496664 
L 87.545545 144.972642 
L 87.79529 142.465208 
L 88.264385 139.996095 
L 88.940306 137.585319 
L 89.807599 135.250676 
L 90.989644 132.733973 
L 92.362694 130.349797 
L 93.896183 128.11002 
L 95.749803 125.798413 
L 97.921104 123.471599 
L 100.385938 121.179759 
L 103.307362 118.795806 
L 107.017252 116.092204 
L 118.549542 107.930621 
L 127.55247 101.186257 
L 130.7341 99.148787 
L 133.686116 97.519991 
L 136.579696 96.183662 
L 139.35912 95.146486 
L 141.969549 94.392479 
L 144.666495 93.837468 
L 147.428916 93.50664 
L 149.919013 93.418263 
L 152.420808 93.536222 
L 154.912487 93.869464 
L 157.371079 94.423446 
L 159.773041 95.199946 
L 162.094865 96.19698 
L 164.313691 97.408818 
L 166.40791 98.826121 
L 168.357724 100.43617 
L 170.145669 102.22319 
L 171.75706 104.168773 
L 173.180366 106.252358 
L 174.407488 108.45178 
L 175.433937 110.743856 
L 176.258913 113.104995 
L 176.885271 115.511814 
L 177.360572 118.24603 
L 177.60664 120.97952 
L 177.642092 123.685406 
L 177.461882 126.631803 
L 177.037246 129.771421 
L 176.360877 133.050336 
L 175.376789 136.667127 
L 173.953959 141.001639 
L 169.778123 153.263109 
L 165.994109 165.409109 
L 164.672817 168.687541 
L 163.20274 171.741002 
L 161.606256 174.515615 
L 159.927152 176.974231 
L 158.221161 179.099185 
L 156.328209 181.107467 
L 154.25163 182.966339 
L 152.258712 184.467308 
L 150.137561 185.80355 
L 147.901265 186.955443 
L 145.565825 187.905622 
L 143.149775 188.639464 
L 140.673724 189.145499 
L 138.159833 189.415729 
L 134.997491 189.48141 
L 130.83693 189.694109 
L 124.811746 190.265168 
L 117.953144 190.86061 
L 113.744777 190.990637 
L 110.204385 190.879413 
L 107.016442 190.564943 
L 103.82562 190.010017 
L 101.062662 189.304077 
L 98.357466 188.377085 
L 95.740711 187.219861 
L 93.591637 186.041879 
L 91.549326 184.693219 
L 89.63187 183.178124 
L 87.855934 181.503806 
L 86.236305 179.680242 
L 84.785499 177.719896 
L 83.513414 175.637378 
L 82.42706 173.449042 
L 81.530364 171.172545 
L 80.824051 168.826369 
L 80.305625 166.429328 
L 79.930533 163.593344 
L 79.789183 160.741924 
L 79.862336 157.901323 
L 80.178125 154.697747 
L 80.702322 151.566917 
L 81.485214 148.157353 
L 82.62601 144.17467 
L 84.639305 138.090873 
L 86.559742 132.102224 
L 87.601697 128.103004 
L 88.348988 124.366291 
L 89.021 119.842366 
L 90.578847 108.524967 
L 91.369155 104.751121 
L 92.315957 101.3222 
L 93.384326 98.292052 
L 94.515619 95.689143 
L 95.843191 93.16374 
L 97.373977 90.747768 
L 99.109419 88.473117 
L 100.756853 86.659258 
L 102.545931 84.989958 
L 104.468105 83.481645 
L 106.51229 82.148634 
L 108.665173 81.002746 
L 110.911575 80.05299 
L 113.234869 79.305315 
L 115.61744 78.76245 
L 118.041156 78.423819 
L 120.487864 78.285552 
L 123.347859 78.367876 
L 126.188673 78.696784 
L 128.986519 79.250883 
L 131.721072 80.004532 
L 134.748195 81.072903 
L 138.009213 82.482645 
L 141.440884 84.225991 
L 145.610084 86.623935 
L 156.310734 92.945853 
L 159.723608 94.614714 
L 163.560344 96.231756 
L 169.229572 98.331676 
L 175.661603 100.764006 
L 179.508737 102.465414 
L 182.651457 104.094223 
L 185.390004 105.753239 
L 188.028529 107.629668 
L 190.216918 109.457365 
L 192.258678 111.459253 
L 194.122117 113.630508 
L 195.554965 115.618913 
L 196.818315 117.71527 
L 197.897595 119.908012 
L 198.780789 122.1835 
L 199.458757 124.526401 
L 199.92548 126.920104 
L 200.178219 129.347179 
L 200.217594 131.789852 
L 200.047571 134.230495 
L 199.675364 136.652099 
L 199.111246 139.038734 
L 198.228135 141.759797 
L 197.126631 144.394069 
L 195.835329 146.92606 
L 194.167329 149.680841 
L 192.34135 152.279791 
L 190.159863 155.018111 
L 187.405195 158.117986 
L 182.948331 162.73302 
L 178.612446 167.297045 
L 175.933533 170.445873 
L 173.635733 173.484417 
L 171.066404 177.263235 
L 164.54036 187.083365 
L 162.173166 190.137162 
L 159.81429 192.807217 
L 157.520077 195.061547 
L 155.356644 196.901524 
L 153.050541 198.583188 
L 150.609886 200.074962 
L 148.047702 201.347794 
L 145.767963 202.245083 
L 143.425009 202.949201 
L 141.033854 203.449402 
L 138.61083 203.73797 
L 135.766437 203.819843 
L 132.498706 203.970981 
L 128.752229 204.359411 
L 123.106624 205.20388 
L 115.671674 206.303188 
L 111.268493 206.713929 
L 107.768874 206.8268 
L 104.744729 206.733836 
L 101.725369 206.433815 
L 98.740106 205.901753 
L 96.301051 205.267246 
L 93.926135 204.450897 
L 91.633914 203.448704 
L 89.442284 202.26016 
L 87.367971 200.888232 
L 85.426021 199.339237 
L 83.629356 197.622636 
L 81.988363 195.750731 
L 80.510573 193.73829 
L 79.2004 191.60211 
L 78.058983 189.360528 
L 76.90869 186.558785 
L 75.987925 183.667374 
L 75.280019 180.720132 
L 74.692691 177.253835 
L 74.280815 173.311222 
L 74.040462 168.49136 
L 73.567379 154.815282 
L 73.103457 151.162176 
L 72.482342 147.965123 
L 71.546752 144.36408 
L 70.114156 139.863273 
L 66.457302 128.784548 
L 65.481428 124.947779 
L 64.83001 121.495569 
L 64.468483 118.487031 
L 64.32328 115.45591 
L 64.422149 112.428001 
L 64.706914 109.927708 
L 65.185509 107.466788 
L 65.863534 105.062863 
L 66.742986 102.733291 
L 67.822243 100.494644 
L 69.096133 98.362207 
L 70.556112 96.34951 
L 72.190526 94.467904 
L 73.984956 92.726197 
L 75.922642 91.130365 
L 77.984956 89.683338 
L 80.596061 88.142776 
L 83.321928 86.809528 
L 86.126418 85.670715 
L 89.451137 84.56243 
L 93.258305 83.538186 
L 97.935357 82.518216 
L 109.180571 80.181634 
L 112.73963 79.155097 
L 115.802822 78.055244 
L 119.192012 76.584419 
L 122.969999 74.6742 
L 136.579696 67.482386 
L 139.803148 66.139749 
L 143.139904 64.999746 
L 146.074377 64.22935 
L 149.058112 63.685751 
L 152.068424 63.398003 
L 154.578727 63.370529 
L 157.073423 63.546706 
L 159.535838 63.93281 
L 161.949259 64.531445 
L 164.297448 65.341489 
L 166.565133 66.35815 
L 168.738492 67.573118 
L 170.805583 68.97481 
L 172.756725 70.548708 
L 174.584819 72.277763 
L 176.610286 74.530427 
L 178.450823 76.943122 
L 180.110986 79.478272 
L 181.834481 82.540193 
L 183.55649 86.106151 
L 185.418774 90.549997 
L 190.365235 102.836214 
L 192.038883 106.120557 
L 193.703386 108.918731 
L 195.799455 111.985735 
L 198.669408 115.722443 
L 206.175019 125.249809 
L 208.39591 128.532102 
L 210.177052 131.56264 
L 211.532549 134.273539 
L 212.689776 137.078725 
L 213.614137 139.963086 
L 214.184851 142.413151 
L 214.55882 144.891263 
L 214.725054 147.382668 
L 214.676058 149.871676 
L 214.408024 152.342139 
L 213.920919 154.777948 
L 213.218476 157.163536 
L 212.308082 159.484359 
L 211.200568 161.727359 
L 209.909906 163.881372 
L 208.452824 165.937486 
L 206.511579 168.266809 
L 204.394366 170.440347 
L 202.139667 172.458286 
L 199.387872 174.624428 
L 196.157654 176.876744 
L 191.714162 179.665546 
L 183.062576 184.992539 
L 180.033726 187.151285 
L 177.504846 189.203169 
L 175.097378 191.416997 
L 172.476389 194.11996 
L 168.695258 198.392484 
L 163.710256 204.012431 
L 160.604449 207.158651 
L 157.9989 209.496744 
L 155.624935 211.372035 
L 153.121478 213.08636 
L 150.494818 214.601692 
L 148.220162 215.687246 
L 145.877519 216.592638 
L 143.478485 217.302812 
L 141.036412 217.805801 
L 138.565992 218.093049 
L 135.585673 218.175027 
L 132.592274 218.337199 
L 129.047793 218.754485 
L 124.879154 219.473276 
L 111.353129 221.985992 
L 107.764896 222.362176 
L 104.142219 222.508265 
L 101.124868 222.413878 
L 98.136036 222.094053 
L 95.202954 221.527731 
L 92.915331 220.887213 
L 90.695228 220.075301 
L 88.556056 219.090725 
L 86.510231 217.935154 
L 84.568822 216.61312 
L 82.741231 215.13187 
L 81.034905 213.501159 
L 79.455102 211.732977 
L 77.662437 209.350764 
L 76.071953 206.806044 
L 74.677602 204.13183 
L 73.467244 201.36241 
L 72.232178 197.961575 
L 71.038912 193.957934 
L 69.774205 188.873645 
L 67.582426 179.8472 
L 66.524841 176.415286 
L 65.275643 173.140309 
L 64.020256 170.434378 
L 62.324293 167.35581 
L 60.387243 164.310597 
L 57.276994 159.906008 
L 52.273199 152.887829 
L 50.030872 149.361912 
L 48.272358 146.1995 
L 46.975158 143.4697 
L 45.871054 140.663398 
L 44.993828 137.793947 
L 44.372289 134.878458 
L 44.074696 132.526355 
L 43.964014 130.16892 
L 44.045791 127.817987 
L 44.322449 125.485574 
L 44.793238 123.183522 
L 45.454263 120.923151 
L 46.298586 118.714913 
L 47.316404 116.568081 
L 48.813494 113.982624 
L 50.532806 111.516621 
L 52.440519 109.176772 
L 54.926077 106.537361 
L 57.561938 104.074472 
L 61.193287 101.03329 
L 68.316462 95.503349 
L 71.976418 92.48472 
L 74.578225 90.064149 
L 76.631959 87.888331 
L 78.534837 85.587931 
L 80.596824 82.721509 
L 82.814089 79.194216 
L 86.083344 73.463181 
L 89.308539 67.944036 
L 91.601938 64.445211 
L 93.765893 61.543043 
L 95.726212 59.24294 
L 97.836809 57.090763 
L 100.098967 55.122529 
L 102.508504 53.371153 
L 104.536115 52.145555 
L 106.645164 51.089275 
L 108.826975 50.211912 
L 111.071446 49.520268 
L 113.367361 49.018165 
L 115.702719 48.706338 
L 118.065094 48.582391 
L 120.441989 48.640844 
L 123.414995 48.957252 
L 126.369324 49.522652 
L 129.285152 50.308453 
L 132.710416 51.494796 
L 136.036045 52.885051 
L 140.297227 54.935905 
L 153.462606 61.572594 
L 156.748639 62.842937 
L 159.598789 63.726313 
L 162.511934 64.424758 
L 166.023318 65.03331 
L 170.216414 65.525624 
L 183.88288 66.911198 
L 187.432074 67.548781 
L 190.952558 68.413958 
L 193.826444 69.340117 
L 196.6118 70.473393 
L 199.276521 71.826776 
L 201.300597 73.07259 
L 203.212877 74.463934 
L 204.999994 75.998488 
L 206.650329 77.671376 
L 208.154334 79.475338 
L 209.504806 81.400953 
L 210.697106 83.436922 
L 211.729313 85.570382 
L 212.796065 88.352795 
L 213.6222 91.236339 
L 214.22235 94.191052 
L 214.617392 97.187379 
L 214.858224 100.798672 
L 214.886956 104.979608 
L 214.675407 110.221887 
L 214.219955 120.039134 
L 214.286573 123.619723 
L 214.585179 127.107162 
L 215.048036 130.054669 
L 215.831197 133.487607 
L 216.851659 136.960783 
L 218.612783 142.077253 
L 221.430317 150.247902 
L 222.570005 154.273972 
L 223.342826 157.810906 
L 223.793852 160.799152 
L 224.034114 163.803713 
L 224.035651 166.801926 
L 223.776442 169.769046 
L 223.370804 172.103033 
L 222.783803 174.387389 
L 222.013938 176.609285 
L 221.06275 178.756654 
L 219.934762 180.818544 
L 218.637342 182.785441 
L 217.180494 184.649564 
L 215.576594 186.405107 
L 213.387071 188.441531 
L 211.022211 190.300801 
L 208.516643 191.986764 
L 205.375183 193.795125 
L 202.145799 195.395141 
L 197.805551 197.269626 
L 184.175921 202.873612 
L 181.066294 204.527479 
L 178.533923 206.105434 
L 176.099636 207.852295 
L 173.341065 210.110541 
L 170.223044 212.960059 
L 160.220416 222.382577 
L 157.412049 224.645285 
L 154.450433 226.7362 
L 151.866629 228.298267 
L 149.184434 229.657162 
L 146.415136 230.780195 
L 144.14718 231.490084 
L 141.842677 232.019956 
L 139.512158 232.361292 
L 137.16693 232.508574 
L 133.639146 232.618116 
L 130.673652 232.921218 
L 127.050119 233.518251 
L 122.058549 234.606842 
L 112.117748 236.852406 
L 107.962752 237.527827 
L 104.460743 237.876198 
L 100.955364 237.971367 
L 98.172309 237.834071 
L 95.429136 237.486546 
L 92.745677 236.915027 
L 90.141429 236.111017 
L 87.634804 235.071489 
L 85.242418 233.79891 
L 82.978421 232.301092 
L 80.853902 230.590864 
L 78.876398 228.685594 
L 77.049523 226.60657 
L 75.372728 224.378261 
L 73.841212 222.027491 
L 72.117044 218.959984 
L 70.291293 215.163872 
L 68.417878 210.694332 
L 63.773947 199.249866 
L 62.143498 196.011976 
L 60.637594 193.466694 
L 58.970283 191.048368 
L 57.127158 188.73632 
L 54.681047 186.062564 
L 51.532446 183.008624 
L 40.645247 172.828706 
L 38.28799 170.217383 
L 36.105996 167.461155 
L 34.527344 165.150722 
L 33.127999 162.74988 
L 31.933062 160.265201 
L 30.963551 157.706232 
L 30.235725 155.085062 
L 29.760549 152.415796 
L 29.543334 149.713953 
L 29.583542 146.995816 
L 29.874789 144.277751 
L 30.405027 141.575537 
L 31.156905 138.903716 
L 32.108301 136.275006 
L 33.537867 133.065298 
L 35.179855 129.95311 
L 37.341328 126.35594 
L 40.73998 121.228179 
L 45.019449 114.753561 
L 46.865764 111.57722 
L 48.447961 108.374704 
L 49.551102 105.65019 
L 50.462778 102.848072 
L 51.329985 99.355857 
L 52.000865 95.70362 
L 52.803444 89.925081 
L 53.853574 82.488057 
L 54.652695 78.361867 
L 55.52246 74.951619 
L 56.622342 71.617462 
L 57.690097 69.038035 
L 58.937894 66.563871 
L 60.372853 64.218845 
L 61.9973 62.024865 
L 63.808794 60.001087 
L 65.800316 58.16321 
L 67.960609 56.522874 
L 70.274658 55.087182 
L 72.724289 53.858371 
L 75.288853 52.833636 
L 77.945991 52.005124 
L 80.672432 51.360101 
L 84.142384 50.785121 
L 87.640215 50.427014 
L 91.818447 50.212142 
L 99.25311 50.114718 
L 105.002646 49.960554 
L 108.654883 49.659886 
L 111.600513 49.230791 
L 114.475697 48.612299 
L 117.303293 47.792607 
L 120.109391 46.773686 
L 123.486676 45.311241 
L 128.079403 43.045594 
L 136.579696 38.78111 
L 140.439296 37.109871 
L 143.746999 35.907417 
L 147.121026 34.942936 
L 149.852958 34.379255 
L 152.598813 34.026023 
L 155.342825 33.902107 
L 158.068201 34.021251 
L 160.757782 34.391675 
L 163.394733 35.015851 
L 165.963231 35.890464 
L 168.449127 37.006555 
L 170.840546 38.349843 
L 173.128413 39.901216 
L 175.306881 41.637363 
L 177.373629 43.531544 
L 179.802415 46.076691 
L 182.06993 48.762301 
L 185.012205 52.641249 
L 193.44197 64.198115 
L 195.827808 66.89655 
L 197.931644 68.961613 
L 200.167988 70.868311 
L 202.553117 72.636164 
L 205.619132 74.615572 
L 209.460335 76.810867 
L 220.726604 83.058291 
L 224.248298 85.379237 
L 227.046361 87.509676 
L 229.153052 89.355289 
L 231.111508 91.3313 
L 232.895359 93.437944 
L 234.481362 95.671563 
L 235.850173 98.024842 
L 236.987019 100.487177 
L 237.882209 103.045153 
L 238.531509 105.683122 
L 238.936326 108.383846 
L 239.103723 111.129197 
L 239.046251 113.900867 
L 238.781594 116.681074 
L 238.193792 120.143226 
L 237.36945 123.564628 
L 236.151685 127.585512 
L 234.321352 132.764872 
L 231.265186 141.32233 
L 230.248102 144.844562 
L 229.601765 147.751115 
L 229.157344 150.658563 
L 228.917985 153.592478 
L 228.872806 156.5766 
L 229.039855 160.251532 
L 229.527542 165.346955 
L 230.502371 174.80373 
L 230.699341 179.004522 
L 230.654133 182.523721 
L 230.363624 186.021143 
L 229.925646 188.776401 
L 229.286239 191.470465 
L 228.433255 194.081897 
L 227.359697 196.590097 
L 226.063863 198.976067 
L 224.54931 201.223139 
L 222.824654 203.317631 
L 220.903206 205.249415 
L 218.802453 207.012372 
L 216.543424 208.60471 
L 214.14994 210.02914 
L 211.647799 211.292886 
L 208.408338 212.664676 
L 205.093925 213.835311 
L 200.423507 215.213666 
L 186.047189 219.194466 
L 182.705503 220.500495 
L 180.04878 221.767375 
L 177.489181 223.216799 
L 175.001593 224.85469 
L 172.06934 227.057839 
L 168.157158 230.332064 
L 160.410536 236.93866 
L 157.052003 239.474287 
L 154.118705 241.419017 
L 151.064481 243.143899 
L 148.54029 244.326744 
L 145.953146 245.306276 
L 143.314076 246.06083 
L 140.63628 246.573528 
L 137.934584 246.832813 
L 131.820828 247.148875 
L 128.371434 247.676508 
L 124.132904 248.598698 
L 116.756017 250.52282 
L 111.358147 251.83718 
L 107.413905 252.59178 
L 104.229733 253.013941 
L 101.042888 253.228612 
L 97.877523 253.199391 
L 94.759464 252.897185 
L 92.46778 252.478596 
L 90.228314 251.889244 
L 88.0513 251.126742 
L 85.946092 250.191722 
L 83.920876 249.087789 
L 81.982414 247.82141 
L 80.13582 246.401732 
L 77.821996 244.290707 
L 75.679402 241.961261 
L 73.703808 239.451978 
L 71.884432 236.805118 
L 69.803381 233.370408 
L 67.165785 228.479565 
L 62.239399 219.162913 
L 60.378419 216.159892 
L 58.36935 213.368687 
L 56.625386 211.287549 
L 54.742746 209.331667 
L 52.182993 207.037851 
L 49.39677 204.870493 
L 45.787406 202.36047 
L 34.772587 194.921053 
L 31.626279 192.421032 
L 29.24999 190.270332 
L 27.047423 187.974946 
L 25.059922 185.531434 
L 23.732458 183.602958 
L 22.559358 181.595785 
L 21.551075 179.514865 
L 20.71537 177.366655 
L 20.057114 175.158905 
L 19.578155 172.900407 
L 19.277247 170.600721 
L 19.15006 168.269886 
L 19.237611 165.131302 
L 19.59541 161.979264 
L 20.190174 158.835979 
L 20.981828 155.721004 
L 22.178913 151.891057 
L 24.069959 146.683959 
L 27.199523 138.202596 
L 28.234879 134.799354 
L 29.022682 131.434659 
L 29.451747 128.748234 
L 29.694846 126.04725 
L 29.755959 123.314587 
L 29.598224 119.83124 
L 29.129819 115.52292 
L 27.990002 107.991085 
L 27.243096 102.488272 
L 26.899134 98.487657 
L 26.805891 95.276624 
L 26.918043 92.083723 
L 27.269498 88.93673 
L 27.886753 85.86436 
L 28.535366 83.626141 
L 29.348223 81.457216 
L 30.326758 79.36806 
L 31.469492 77.367969 
L 32.772107 75.464778 
L 34.227583 73.664615 
L 35.826393 71.971702 
L 38.160466 69.884718 
L 40.695058 67.991011 
L 43.392369 66.282575 
L 46.211566 64.744493 
L 49.842789 63.028354 
L 54.251266 61.199064 
L 65.426001 56.691225 
L 68.573564 55.128759 
L 71.525835 53.388208 
L 73.752869 51.839568 
L 75.873014 50.137849 
L 78.400766 47.789479 
L 80.834834 45.205995 
L 84.184858 41.258102 
L 90.692343 33.433822 
L 93.432963 30.499451 
L 95.754818 28.279202 
L 98.200552 26.222964 
L 100.772306 24.374585 
L 103.466566 22.773069 
L 105.562527 21.753792 
L 107.717032 20.902727 
L 109.923281 20.228013 
L 112.173398 19.734838 
L 114.458687 19.425305 
L 116.769903 19.298369 
L 119.097539 19.349843 
L 122.21025 19.683055 
L 125.313845 20.295101 
L 128.388937 21.152658 
L 131.419229 22.215505 
L 135.12564 23.76302 
L 139.436617 25.81363 
L 150.267271 31.106262 
L 153.534766 32.403145 
L 156.803436 33.436163 
L 159.443918 34.057993 
L 162.126357 34.497869 
L 165.561568 34.808334 
L 169.108585 34.891182 
L 174.281734 34.741251 
L 184.447705 34.339828 
L 188.462033 34.410144 
L 191.666017 34.646918 
L 194.831518 35.084925 
L 197.927398 35.75521 
L 200.922312 36.681393 
L 203.084032 37.553524 
L 205.160169 38.581677 
L 207.140095 39.766307 
L 209.014651 41.105093 
L 210.776411 42.593037 
L 212.419922 44.222624 
L 213.941883 45.984036 
L 215.780681 48.516906 
L 217.406032 51.230161 
L 218.829603 54.087147 
L 220.070266 57.048867 
L 221.403195 60.837919 
L 222.766166 65.413977 
L 226.079001 77.009652 
L 227.299333 80.308021 
L 228.715891 83.430628 
L 230.01796 85.810612 
L 231.483202 88.099759 
L 233.547685 90.861592 
L 235.856475 93.553586 
L 239.426232 97.29741 
L 246.526347 104.5801 
L 249.162217 107.608326 
L 251.13267 110.146026 
L 252.928595 112.789772 
L 254.50601 115.537288 
L 255.826286 118.381163 
L 256.628381 120.570219 
L 257.257462 122.800231 
L 257.706015 125.063625 
L 257.969563 127.352057 
L 258.046784 129.656672 
L 257.939542 131.968391 
L 257.652856 134.278187 
L 257.00583 137.33998 
L 256.081409 140.364144 
L 254.914515 143.334768 
L 253.54666 146.23971 
L 251.625322 149.767221 
L 249.138001 153.843939 
L 242.732702 164.067741 
L 241.094825 167.181559 
L 239.718483 170.323061 
L 238.818074 172.88234 
L 238.09447 175.50183 
L 237.420237 178.882366 
L 236.962065 182.397563 
L 236.566539 187.552986 
L 235.907531 197.699695 
L 235.42372 201.684921 
L 234.859318 204.847998 
L 234.099847 207.952901 
L 233.117452 210.965424 
L 231.891662 213.851881 
L 230.804819 215.914834 
L 229.571787 217.876871 
L 228.193107 219.727306 
L 226.671931 221.457186 
L 225.013898 223.059557 
L 223.226955 224.529677 
L 221.321126 225.865182 
L 218.615736 227.437029 
L 215.752131 228.777362 
L 212.765464 229.90136 
L 209.692521 230.83163 
L 205.786001 231.767144 
L 201.091605 232.64882 
L 189.202567 234.728243 
L 185.790483 235.592122 
L 182.532964 236.668239 
L 180.027196 237.708797 
L 177.595266 238.920939 
L 174.631004 240.678389 
L 171.711823 242.686905 
L 168.205986 245.369955 
L 158.992775 252.613038 
L 155.681737 254.887741 
L 152.932737 256.546056 
L 150.09759 258.009877 
L 147.184187 259.236829 
L 144.204841 260.190748 
L 141.936576 260.709548 
L 139.648004 261.04976 
L 137.347602 261.205585 
L 136.579696 261.216 
L 136.579696 261.216 
" clip-path="url(#p57030078ab)" style="fill: none; stroke: #9900ff; stroke-width: 2; stroke-linecap: square"/>
   </g>
  </g>
 </g>
 <defs>
  <clipPath id="p57030078ab">
   <rect x="7.2" y="7.2" width="262.791869" height="266.112"/>
  </clipPath>
 </defs>
</svg>
