<?xml version="1.0" encoding="utf-8" standalone="no"?>
<!DOCTYPE svg PUBLIC "-//W3C//DTD SVG 1.1//EN"
  "http://www.w3.org/Graphics/SVG/1.1/DTD/svg11.dtd">
<svg xmlns:xlink="http://www.w3.org/1999/xlink" width="293.4pt" height="291.6pt" viewBox="0 0 293.4 291.6" xmlns="http://www.w3.org/2000/svg" version="1.1">
 <metadata>
  <rdf:RDF xmlns:dc="http://purl.org/dc/elements/1.1/" xmlns:cc="http://creativecommons.org/ns#" xmlns:rdf="http://www.w3.org/1999/02/22-rdf-syntax-ns#">
   <cc:Work>
    <dc:type rdf:resource="http://purl.org/dc/dcmitype/StillImage"/>
    <dc:date>2025-04-09T19:47:41.583454</dc:date>
    <dc:format>image/svg+xml</dc:format>
    <dc:creator>
     <cc:Agent>
      <dc:title>Matplotlib v3.8.4, https://matplotlib.org/</dc:title>
     </cc:Agent>
    </dc:creator>
   </cc:Work>
  </rdf:RDF>
 </metadata>
 <defs>
  <style type="text/css">*{stroke-linejoin: round; stroke-linecap: butt}</style>
 </defs>
 <g id="figure_1">
  <g id="patch_1">
   <path d="M 0 291.6 
L 293.4 291.6 
L 293.4 0 
L 0 0 
L 0 291.6 
z
" style="fill: none"/>
  </g>
  <g id="axes_1">
   <g id="line2d_1">
    <path d="M 19.881818 266.541623 
L 22.418182 269.157652 
L 24.954545 270.834907 
L 27.490909 271.680114 
L 30.027273 271.8 
L 32.563636 271.301292 
L 35.1 270.290716 
L 37.636364 268.874999 
L 40.172727 267.160868 
L 42.709091 265.25505 
L 45.245455 263.264271 
L 47.781818 261.295257 
L 50.318182 259.454737 
L 52.854545 257.849436 
L 55.390909 256.586082 
L 57.927273 255.7714 
L 60.463636 255.512118 
L 63 255.913091 
L 65.536364 256.966893 
L 68.072727 258.492063 
L 70.609091 260.292169 
L 73.145455 262.17078 
L 75.681818 263.931463 
L 78.218182 265.377785 
L 80.754545 266.313316 
L 83.290909 266.541623 
L 85.827273 265.936228 
L 88.363636 264.650466 
L 90.9 262.907628 
L 93.436364 260.931002 
L 95.972727 258.943879 
L 98.509091 257.169548 
L 101.045455 255.831298 
L 103.581818 255.152419 
L 106.118182 255.333876 
L 108.654545 256.317102 
L 111.190909 257.876094 
L 113.727273 259.782055 
L 116.263636 261.80619 
L 118.8 263.719705 
L 121.336364 265.293803 
L 123.872727 266.29969 
L 126.409091 266.511394 
L 128.945455 265.872353 
L 131.481818 264.588591 
L 134.018182 262.888721 
L 136.554545 261.001353 
L 139.090909 259.155101 
L 141.627273 257.578577 
L 144.163636 256.500392 
L 146.7 256.149159 
L 149.236364 256.674738 
L 151.772727 257.911985 
L 154.309091 259.617005 
L 156.845455 261.545902 
L 159.381818 263.454779 
L 161.918182 265.099742 
L 164.454545 266.236895 
L 166.990909 266.622342 
L 169.527273 266.037635 
L 172.063636 264.560161 
L 174.6 262.458167 
L 177.136364 260.003081 
L 179.672727 257.46633 
L 182.209091 255.119342 
L 184.745455 253.233545 
L 187.281818 252.080366 
L 189.818182 251.927849 
L 192.354545 252.840844 
L 194.890909 254.569265 
L 197.427273 256.83593 
L 199.963636 259.36366 
L 202.5 261.875275 
L 205.036364 264.093593 
L 207.572727 265.741436 
L 210.109091 266.541623 
L 212.645455 266.306924 
L 215.181818 265.209909 
L 217.718182 263.513097 
L 220.254545 261.479009 
L 222.790909 259.370164 
L 225.327273 257.449083 
L 227.863636 255.978286 
L 230.4 255.220292 
L 232.936364 255.411476 
L 235.472727 256.484258 
L 238.009091 258.174962 
L 240.545455 260.216643 
L 243.081818 262.342357 
L 245.618182 264.285158 
L 248.154545 265.778102 
L 250.690909 266.554244 
L 253.227273 266.350076 
L 255.763636 265.108339 
L 258.3 263.091457 
L 260.836364 260.589357 
L 263.372727 257.891963 
L 265.909091 255.289199 
L 268.445455 253.07099 
L 270.981818 251.527261 
L 273.518182 250.947937 
" clip-path="url(#p2ec4a7ea2c)" style="fill: none; stroke: #008000; stroke-width: 3; stroke-linecap: square"/>
   </g>
   <g id="line2d_2">
    <path d="M 19.881818 254.34476 
L 22.418182 256.36597 
L 24.954545 257.59829 
L 27.490909 258.133443 
L 30.027273 258.063153 
L 32.563636 257.479145 
L 35.1 256.473142 
L 37.636364 255.136868 
L 40.172727 253.562047 
L 42.709091 251.840404 
L 45.245455 250.063662 
L 47.781818 248.323545 
L 50.318182 246.711778 
L 52.854545 245.320083 
L 55.390909 244.240186 
L 57.927273 243.56381 
L 60.463636 243.382679 
L 63 243.786844 
L 65.536364 244.765987 
L 68.072727 246.154218 
L 70.609091 247.772264 
L 73.145455 249.440851 
L 75.681818 250.980707 
L 78.218182 252.212558 
L 80.754545 252.957131 
L 83.290909 253.035154 
L 85.827273 252.332866 
L 88.363636 250.998563 
L 90.9 249.246053 
L 93.436364 247.289144 
L 95.972727 245.341646 
L 98.509091 243.617365 
L 101.045455 242.330111 
L 103.581818 241.693693 
L 106.118182 241.900287 
L 108.654545 242.890614 
L 111.190909 244.443163 
L 113.727273 246.333721 
L 116.263636 248.338073 
L 118.8 250.232005 
L 121.336364 251.791302 
L 123.872727 252.791751 
L 126.409091 253.011877 
L 128.945455 252.394636 
L 131.481818 251.137849 
L 134.018182 249.461259 
L 136.554545 247.584611 
L 139.090909 245.72765 
L 141.627273 244.110119 
L 144.163636 242.951764 
L 146.7 242.472328 
L 149.236364 242.819571 
L 151.772727 243.853318 
L 154.309091 245.361407 
L 156.845455 247.131678 
L 159.381818 248.95197 
L 161.918182 250.610122 
L 164.454545 251.893974 
L 166.990909 252.591364 
L 169.527273 252.510895 
L 172.063636 251.70252 
L 174.6 250.371904 
L 177.136364 248.72731 
L 179.672727 246.976998 
L 182.209091 245.329229 
L 184.745455 243.992265 
L 187.281818 243.174367 
L 189.818182 243.081183 
L 192.354545 243.76162 
L 194.890909 245.021633 
L 197.427273 246.646278 
L 199.963636 248.420611 
L 202.5 250.129688 
L 205.036364 251.558565 
L 207.572727 252.492298 
L 210.109091 252.715944 
L 212.645455 252.088197 
L 215.181818 250.762307 
L 217.718182 248.965163 
L 220.254545 246.923655 
L 222.790909 244.86467 
L 225.327273 243.015098 
L 227.863636 241.601828 
L 230.4 240.851748 
L 232.936364 240.969362 
L 235.472727 241.898937 
L 238.009091 243.416851 
L 240.545455 245.29668 
L 243.081818 247.312001 
L 245.618182 249.236391 
L 248.154545 250.843428 
L 250.690909 251.906689 
L 253.227273 252.20247 
L 255.763636 251.670163 
L 258.3 250.501962 
L 260.836364 248.911805 
L 263.372727 247.113633 
L 265.909091 245.321386 
L 268.445455 243.749002 
L 270.981818 242.610421 
L 273.518182 242.119583 
" clip-path="url(#p2ec4a7ea2c)" style="fill: none; stroke: #006c0d; stroke-width: 3; stroke-linecap: square"/>
   </g>
   <g id="line2d_3">
    <path d="M 19.881818 242.147897 
L 22.418182 243.880029 
L 24.954545 244.879371 
L 27.490909 245.231271 
L 30.027273 245.021075 
L 32.563636 244.334129 
L 35.1 243.255778 
L 37.636364 241.87137 
L 40.172727 240.266251 
L 42.709091 238.525767 
L 45.245455 236.735264 
L 47.781818 234.980088 
L 50.318182 233.345587 
L 52.854545 231.917105 
L 55.390909 230.77999 
L 57.927273 230.019588 
L 60.463636 229.721244 
L 63 229.968841 
L 65.536364 230.758357 
L 68.072727 231.949521 
L 70.609091 233.390343 
L 73.145455 234.928833 
L 75.681818 236.413 
L 78.218182 237.690852 
L 80.754545 238.610401 
L 83.290909 239.019655 
L 85.827273 238.818063 
L 88.363636 238.110837 
L 90.9 237.054627 
L 93.436364 235.806085 
L 95.972727 234.521862 
L 98.509091 233.358608 
L 101.045455 232.472975 
L 103.581818 232.021613 
L 106.118182 232.145785 
L 108.654545 232.807853 
L 111.190909 233.854761 
L 113.727273 235.13153 
L 116.263636 236.48318 
L 118.8 237.754731 
L 121.336364 238.791205 
L 123.872727 239.437621 
L 126.409091 239.540913 
L 128.945455 239.062873 
L 131.481818 238.143314 
L 134.018182 236.937365 
L 136.554545 235.600155 
L 139.090909 234.286814 
L 141.627273 233.152469 
L 144.163636 232.35225 
L 146.7 232.041286 
L 149.236364 232.321947 
L 151.772727 233.085567 
L 154.309091 234.170723 
L 156.845455 235.415989 
L 159.381818 236.659942 
L 161.918182 237.741157 
L 164.454545 238.498211 
L 166.990909 238.769679 
L 169.527273 238.4109 
L 172.063636 237.472097 
L 174.6 236.129223 
L 177.136364 234.560325 
L 179.672727 232.94345 
L 182.209091 231.456647 
L 184.745455 230.277965 
L 187.281818 229.585449 
L 189.818182 229.554883 
L 192.354545 230.226062 
L 194.890909 231.428004 
L 197.427273 232.971596 
L 199.963636 234.667725 
L 202.5 236.327278 
L 205.036364 237.761142 
L 207.572727 238.780203 
L 210.109091 239.195349 
L 212.645455 238.879762 
L 215.181818 237.955803 
L 217.718182 236.60813 
L 220.254545 235.021399 
L 222.790909 233.380267 
L 225.327273 231.869392 
L 227.863636 230.673431 
L 230.4 229.977039 
L 232.936364 229.947445 
L 235.472727 230.549252 
L 238.009091 231.616337 
L 240.545455 232.980399 
L 243.081818 234.473138 
L 245.618182 235.926253 
L 248.154545 237.171443 
L 250.690909 238.040408 
L 253.227273 238.366816 
L 255.763636 238.102549 
L 258.3 237.382716 
L 260.836364 236.358191 
L 263.372727 235.179843 
L 265.909091 233.998544 
L 268.445455 232.965166 
L 270.981818 232.230581 
L 273.518182 231.945659 
" clip-path="url(#p2ec4a7ea2c)" style="fill: none; stroke: #00581a; stroke-width: 3; stroke-linecap: square"/>
   </g>
   <g id="line2d_4">
    <path d="M 19.881818 229.951033 
L 22.418182 231.52355 
L 24.954545 232.369724 
L 27.490909 232.574822 
L 30.027273 232.22411 
L 32.563636 231.402854 
L 35.1 230.196321 
L 37.636364 228.689775 
L 40.172727 226.968485 
L 42.709091 225.117715 
L 45.245455 223.222733 
L 47.781818 221.368803 
L 50.318182 219.641193 
L 52.854545 218.125168 
L 55.390909 216.905995 
L 57.927273 216.06894 
L 60.463636 215.699269 
L 63 215.880839 
L 65.536364 216.612993 
L 68.072727 217.76407 
L 70.609091 219.191143 
L 73.145455 220.751284 
L 75.681818 222.301566 
L 78.218182 223.69906 
L 80.754545 224.800839 
L 83.290909 225.463975 
L 85.827273 225.590638 
L 88.363636 225.263387 
L 90.9 224.609878 
L 93.436364 223.757771 
L 95.972727 222.83472 
L 98.509091 221.968384 
L 101.045455 221.28642 
L 103.581818 220.916483 
L 106.118182 220.973651 
L 108.654545 221.426735 
L 111.190909 222.150183 
L 113.727273 223.016873 
L 116.263636 223.89968 
L 118.8 224.671481 
L 121.336364 225.205151 
L 123.872727 225.373567 
L 126.409091 225.051338 
L 128.945455 224.216995 
L 131.481818 223.010153 
L 134.018182 221.584284 
L 136.554545 220.092858 
L 139.090909 218.689348 
L 141.627273 217.527224 
L 144.163636 216.759957 
L 146.7 216.541019 
L 149.236364 216.969777 
L 151.772727 217.929178 
L 154.309091 219.248065 
L 156.845455 220.75528 
L 159.381818 222.279668 
L 161.918182 223.650071 
L 164.454545 224.695331 
L 166.990909 225.244293 
L 169.527273 225.142664 
L 172.063636 224.432215 
L 174.6 223.281209 
L 177.136364 221.860016 
L 179.672727 220.339007 
L 182.209091 218.888553 
L 184.745455 217.679025 
L 187.281818 216.880793 
L 189.818182 216.662211 
L 192.354545 217.070666 
L 194.890909 217.966043 
L 197.427273 219.192096 
L 199.963636 220.592581 
L 202.5 222.011253 
L 205.036364 223.291868 
L 207.572727 224.278182 
L 210.109091 224.813949 
L 212.645455 224.791627 
L 215.181818 224.298485 
L 217.718182 223.470491 
L 220.254545 222.443616 
L 222.790909 221.35383 
L 225.327273 220.337103 
L 227.863636 219.529404 
L 230.4 219.066704 
L 232.936364 219.072412 
L 235.472727 219.523916 
L 238.009091 220.304396 
L 240.545455 221.295465 
L 243.081818 222.378734 
L 245.618182 223.435812 
L 248.154545 224.348312 
L 250.690909 224.997845 
L 253.227273 225.267388 
L 255.763636 225.121915 
L 258.3 224.653497 
L 260.836364 223.965134 
L 263.372727 223.159829 
L 265.909091 222.340584 
L 268.445455 221.610401 
L 270.981818 221.072282 
L 273.518182 220.82923 
" clip-path="url(#p2ec4a7ea2c)" style="fill: none; stroke: #004428; stroke-width: 3; stroke-linecap: square"/>
   </g>
   <g id="line2d_5">
    <path d="M 19.881818 217.75417 
L 22.418182 218.246315 
L 24.954545 218.372386 
L 27.490909 218.17799 
L 30.027273 217.708734 
L 32.563636 217.010226 
L 35.1 216.128074 
L 37.636364 215.107883 
L 40.172727 213.995263 
L 42.709091 212.835821 
L 45.245455 211.675163 
L 47.781818 210.558898 
L 50.318182 209.532632 
L 52.854545 208.641973 
L 55.390909 207.932529 
L 57.927273 207.449907 
L 60.463636 207.239714 
L 63 207.346725 
L 65.536364 207.765762 
L 68.072727 208.414215 
L 70.609091 209.202817 
L 73.145455 210.0423 
L 75.681818 210.843394 
L 78.218182 211.516832 
L 80.754545 211.973345 
L 83.290909 212.123664 
L 85.827273 211.909566 
L 88.363636 211.397003 
L 90.9 210.682973 
L 93.436364 209.864472 
L 95.972727 209.038498 
L 98.509091 208.302048 
L 101.045455 207.752119 
L 103.581818 207.485707 
L 106.118182 207.589902 
L 108.654545 208.036593 
L 111.190909 208.723353 
L 113.727273 209.546513 
L 116.263636 210.402407 
L 118.8 211.187365 
L 121.336364 211.797721 
L 123.872727 212.129807 
L 126.409091 212.081289 
L 128.945455 211.629804 
L 131.481818 210.876952 
L 134.018182 209.934994 
L 136.554545 208.916191 
L 139.090909 207.932804 
L 141.627273 207.097095 
L 144.163636 206.521325 
L 146.7 206.317755 
L 149.236364 206.560402 
L 151.772727 207.170298 
L 154.309091 208.030234 
L 156.845455 209.022998 
L 159.381818 210.031377 
L 161.918182 210.938161 
L 164.454545 211.626139 
L 166.990909 211.978098 
L 169.527273 211.888336 
L 172.063636 211.384917 
L 174.6 210.582214 
L 177.136364 209.596035 
L 179.672727 208.54219 
L 182.209091 207.536486 
L 184.745455 206.694734 
L 187.281818 206.132742 
L 189.818182 205.964962 
L 192.354545 206.224407 
L 194.890909 206.81786 
L 197.427273 207.641248 
L 199.963636 208.590496 
L 202.5 209.561528 
L 205.036364 210.45027 
L 207.572727 211.152647 
L 210.109091 211.564585 
L 212.645455 211.613545 
L 215.181818 211.353135 
L 217.718182 210.868502 
L 220.254545 210.244788 
L 222.790909 209.567141 
L 225.327273 208.920704 
L 227.863636 208.390622 
L 230.4 208.062041 
L 232.936364 208.012368 
L 235.472727 208.229053 
L 238.009091 208.641515 
L 240.545455 209.178201 
L 243.081818 209.76756 
L 245.618182 210.338042 
L 248.154545 210.818096 
L 250.690909 211.13617 
L 253.227273 211.221554 
L 255.763636 211.053941 
L 258.3 210.691148 
L 260.836364 210.197714 
L 263.372727 209.638177 
L 265.909091 209.077076 
L 268.445455 208.578951 
L 270.981818 208.208338 
L 273.518182 208.029776 
" clip-path="url(#p2ec4a7ea2c)" style="fill: none; stroke: #003035; stroke-width: 3; stroke-linecap: square"/>
   </g>
   <g id="line2d_6">
    <path d="M 19.881818 205.557307 
L 22.418182 205.866586 
L 24.954545 205.852028 
L 27.490909 205.554462 
L 30.027273 205.01472 
L 32.563636 204.273631 
L 35.1 203.372026 
L 37.636364 202.350736 
L 40.172727 201.25059 
L 42.709091 200.112419 
L 45.245455 198.977055 
L 47.781818 197.885326 
L 50.318182 196.878064 
L 52.854545 195.996099 
L 55.390909 195.280262 
L 57.927273 194.771382 
L 60.463636 194.510291 
L 63 194.537083 
L 65.536364 194.847746 
L 68.072727 195.369897 
L 70.609091 196.025276 
L 73.145455 196.735619 
L 75.681818 197.422663 
L 78.218182 198.008147 
L 80.754545 198.413809 
L 83.290909 198.561385 
L 85.827273 198.399032 
L 88.363636 197.980586 
L 90.9 197.386299 
L 93.436364 196.696426 
L 95.972727 195.99122 
L 98.509091 195.350935 
L 101.045455 194.855825 
L 103.581818 194.586144 
L 106.118182 194.614278 
L 108.654545 194.921163 
L 111.190909 195.428735 
L 113.727273 196.057944 
L 116.263636 196.729743 
L 118.8 197.365083 
L 121.336364 197.884915 
L 123.872727 198.210191 
L 126.409091 198.262832 
L 128.945455 198.022892 
L 131.481818 197.560536 
L 134.018182 196.953679 
L 136.554545 196.280237 
L 139.090909 195.618123 
L 141.627273 195.045255 
L 144.163636 194.639547 
L 146.7 194.478914 
L 149.236364 194.615588 
L 151.772727 194.999066 
L 154.309091 195.553161 
L 156.845455 196.201686 
L 159.381818 196.868454 
L 161.918182 197.477279 
L 164.454545 197.951974 
L 166.990909 198.216351 
L 169.527273 198.201491 
L 172.063636 197.922953 
L 174.6 197.450797 
L 177.136364 196.855991 
L 179.672727 196.209505 
L 182.209091 195.582307 
L 184.745455 195.045368 
L 187.281818 194.669655 
L 189.818182 194.525346 
L 192.354545 194.635152 
L 194.890909 194.948207 
L 197.427273 195.407319 
L 199.963636 195.955294 
L 202.5 196.534938 
L 205.036364 197.089056 
L 207.572727 197.560457 
L 210.109091 197.891945 
L 212.645455 198.041606 
L 215.181818 198.028632 
L 217.718182 197.887494 
L 220.254545 197.652664 
L 222.790909 197.358612 
L 225.327273 197.03981 
L 227.863636 196.730729 
L 230.4 196.46584 
L 232.936364 196.277353 
L 235.472727 196.171189 
L 238.009091 196.136311 
L 240.545455 196.161399 
L 243.081818 196.235132 
L 245.618182 196.34619 
L 248.154545 196.483253 
L 250.690909 196.635 
L 253.227273 196.790178 
L 255.763636 196.941549 
L 258.3 197.0881 
L 260.836364 197.229352 
L 263.372727 197.364828 
L 265.909091 197.49405 
L 268.445455 197.616539 
L 270.981818 197.731818 
L 273.518182 197.839409 
" clip-path="url(#p2ec4a7ea2c)" style="fill: none; stroke: #001b43; stroke-width: 3; stroke-linecap: square"/>
   </g>
   <g id="line2d_7">
    <path d="M 19.881818 193.360444 
L 22.418182 192.196414 
L 24.954545 191.078999 
L 27.490909 190.014577 
L 30.027273 189.009524 
L 32.563636 188.070219 
L 35.1 187.203039 
L 37.636364 186.414361 
L 40.172727 185.710562 
L 42.709091 185.09802 
L 45.245455 184.583113 
L 47.781818 184.172218 
L 50.318182 183.871712 
L 52.854545 183.687974 
L 55.390909 183.627379 
L 57.927273 183.696306 
L 60.463636 183.901132 
L 63 184.247897 
L 65.536364 184.722359 
L 68.072727 185.278843 
L 70.609091 185.86897 
L 73.145455 186.444361 
L 75.681818 186.956634 
L 78.218182 187.357412 
L 80.754545 187.598314 
L 83.290909 187.630962 
L 85.827273 187.4243 
L 88.363636 187.016576 
L 90.9 186.463364 
L 93.436364 185.820235 
L 95.972727 185.142764 
L 98.509091 184.486522 
L 101.045455 183.907083 
L 103.581818 183.460019 
L 106.118182 183.196637 
L 108.654545 183.118651 
L 111.190909 183.195776 
L 113.727273 183.397197 
L 116.263636 183.692098 
L 118.8 184.049662 
L 121.336364 184.439072 
L 123.872727 184.829513 
L 126.409091 185.19033 
L 128.945455 185.500547 
L 131.481818 185.754197 
L 134.018182 185.946599 
L 136.554545 186.073077 
L 139.090909 186.12895 
L 141.627273 186.10954 
L 144.163636 186.010169 
L 146.7 185.826159 
L 149.236364 185.558954 
L 151.772727 185.234501 
L 154.309091 184.884869 
L 156.845455 184.542128 
L 159.381818 184.238349 
L 161.918182 184.0056 
L 164.454545 183.875952 
L 166.990909 183.881475 
L 169.527273 184.050237 
L 172.063636 184.363774 
L 174.6 184.773608 
L 177.136364 185.230757 
L 179.672727 185.686241 
L 182.209091 186.091079 
L 184.745455 186.39629 
L 187.281818 186.552894 
L 189.818182 186.512552 
L 192.354545 186.265478 
L 194.890909 185.861646 
L 197.427273 185.356166 
L 199.963636 184.804152 
L 202.5 184.260714 
L 205.036364 183.780966 
L 207.572727 183.420019 
L 210.109091 183.232986 
L 212.645455 183.257109 
L 215.181818 183.458152 
L 217.718182 183.784009 
L 220.254545 184.182577 
L 222.790909 184.601748 
L 225.327273 184.989418 
L 227.863636 185.293482 
L 230.4 185.461833 
L 232.936364 185.447342 
L 235.472727 185.260709 
L 238.009091 184.949944 
L 240.545455 184.56368 
L 243.081818 184.15055 
L 245.618182 183.759186 
L 248.154545 183.438222 
L 250.690909 183.236289 
L 253.227273 183.201394 
L 255.763636 183.343979 
L 258.3 183.616259 
L 260.836364 183.965439 
L 263.372727 184.338727 
L 265.909091 184.683328 
L 268.445455 184.94645 
L 270.981818 185.075298 
L 273.518182 185.017079 
" clip-path="url(#p2ec4a7ea2c)" style="fill: none; stroke: #000850; stroke-width: 3; stroke-linecap: square"/>
   </g>
   <g id="line2d_8">
    <path d="M 19.881818 181.16358 
L 22.418182 179.621537 
L 24.954545 178.24267 
L 27.490909 177.018009 
L 30.027273 175.938586 
L 32.563636 174.995432 
L 35.1 174.179576 
L 37.636364 173.48205 
L 40.172727 172.893883 
L 42.709091 172.406108 
L 45.245455 172.009755 
L 47.781818 171.695853 
L 50.318182 171.455435 
L 52.854545 171.27953 
L 55.390909 171.15917 
L 57.927273 171.085384 
L 60.463636 171.049204 
L 63 171.041712 
L 65.536364 171.057121 
L 68.072727 171.094491 
L 70.609091 171.153303 
L 73.145455 171.233034 
L 75.681818 171.333163 
L 78.218182 171.45317 
L 80.754545 171.592533 
L 83.290909 171.750732 
L 85.827273 171.92618 
L 88.363636 172.11303 
L 90.9 172.304373 
L 93.436364 172.493296 
L 95.972727 172.672889 
L 98.509091 172.83624 
L 101.045455 172.976439 
L 103.581818 173.086573 
L 106.118182 173.160355 
L 108.654545 173.198721 
L 111.190909 173.207273 
L 113.727273 173.191688 
L 116.263636 173.157645 
L 118.8 173.110822 
L 121.336364 173.056898 
L 123.872727 173.001551 
L 126.409091 172.950369 
L 128.945455 172.903556 
L 131.481818 172.852971 
L 134.018182 172.789751 
L 136.554545 172.705038 
L 139.090909 172.58997 
L 141.627273 172.435687 
L 144.163636 172.233328 
L 146.7 171.974034 
L 149.236364 171.656144 
L 151.772727 171.306804 
L 154.309091 170.96036 
L 156.845455 170.651161 
L 159.381818 170.413551 
L 161.918182 170.281877 
L 164.454545 170.290487 
L 166.990909 170.473726 
L 169.527273 170.860943 
L 172.063636 171.423375 
L 174.6 172.094771 
L 177.136364 172.808252 
L 179.672727 173.496943 
L 182.209091 174.093965 
L 184.745455 174.532441 
L 187.281818 174.745495 
L 189.818182 174.667169 
L 192.354545 174.286752 
L 194.890909 173.679159 
L 197.427273 172.926672 
L 199.963636 172.111574 
L 202.5 171.316145 
L 205.036364 170.622669 
L 207.572727 170.113426 
L 210.109091 169.870699 
L 212.645455 169.949563 
L 215.181818 170.296271 
L 217.718182 170.829866 
L 220.254545 171.469395 
L 222.790909 172.133903 
L 225.327273 172.742434 
L 227.863636 173.214036 
L 230.4 173.467751 
L 232.936364 173.430713 
L 235.472727 173.124053 
L 238.009091 172.629549 
L 240.545455 172.029988 
L 243.081818 171.408159 
L 245.618182 170.846851 
L 248.154545 170.428851 
L 250.690909 170.236947 
L 253.227273 170.352852 
L 255.763636 170.793693 
L 258.3 171.476487 
L 260.836364 172.309645 
L 263.372727 173.201575 
L 265.909091 174.060683 
L 268.445455 174.79538 
L 270.981818 175.314073 
L 273.518182 175.52517 
" clip-path="url(#p2ec4a7ea2c)" style="fill: none; stroke: #000e5e; stroke-width: 3; stroke-linecap: square"/>
   </g>
   <g id="line2d_9">
    <path d="M 19.881818 168.966717 
L 22.418182 166.106073 
L 24.954545 163.819694 
L 27.490909 162.054971 
L 30.027273 160.759295 
L 32.563636 159.880057 
L 35.1 159.364648 
L 37.636364 159.160459 
L 40.172727 159.214881 
L 42.709091 159.475306 
L 45.245455 159.889125 
L 47.781818 160.403729 
L 50.318182 160.966508 
L 52.854545 161.524854 
L 55.390909 162.026159 
L 57.927273 162.417812 
L 60.463636 162.647206 
L 63 162.662404 
L 65.536364 162.45181 
L 68.072727 162.066359 
L 70.609091 161.562363 
L 73.145455 160.996136 
L 75.681818 160.42399 
L 78.218182 159.902237 
L 80.754545 159.487191 
L 83.290909 159.235165 
L 85.827273 159.184174 
L 88.363636 159.299047 
L 90.9 159.526316 
L 93.436364 159.812514 
L 95.972727 160.104171 
L 98.509091 160.34782 
L 101.045455 160.489994 
L 103.581818 160.477223 
L 106.118182 160.262038 
L 108.654545 159.866699 
L 111.190909 159.358453 
L 113.727273 158.805296 
L 116.263636 158.275226 
L 118.8 157.836239 
L 121.336364 157.556331 
L 123.872727 157.503499 
L 126.409091 157.744746 
L 128.945455 158.287388 
L 131.481818 159.04623 
L 134.018182 159.928118 
L 136.554545 160.839899 
L 139.090909 161.688419 
L 141.627273 162.380527 
L 144.163636 162.823067 
L 146.7 162.922888 
L 149.236364 162.620642 
L 151.772727 161.992216 
L 154.309091 161.147302 
L 156.845455 160.195592 
L 159.381818 159.24678 
L 161.918182 158.410557 
L 164.454545 157.796617 
L 166.990909 157.514652 
L 169.527273 157.663312 
L 172.063636 158.212879 
L 174.6 159.050814 
L 177.136364 160.0632 
L 179.672727 161.136118 
L 182.209091 162.15565 
L 184.745455 163.007878 
L 187.281818 163.578885 
L 189.818182 163.756167 
L 192.354545 163.512167 
L 194.890909 162.950991 
L 197.427273 162.188072 
L 199.963636 161.338841 
L 202.5 160.518731 
L 205.036364 159.843173 
L 207.572727 159.427601 
L 210.109091 159.387446 
L 212.645455 159.796398 
L 215.181818 160.561181 
L 217.718182 161.546775 
L 220.254545 162.618162 
L 222.790909 163.640323 
L 225.327273 164.478239 
L 227.863636 164.996891 
L 230.4 165.06126 
L 232.936364 164.551224 
L 235.472727 163.519832 
L 238.009091 162.131857 
L 240.545455 160.553934 
L 243.081818 158.952697 
L 245.618182 157.494782 
L 248.154545 156.346823 
L 250.690909 155.675455 
L 253.227273 155.645165 
L 255.763636 156.291561 
L 258.3 157.45049 
L 260.836364 158.940613 
L 263.372727 160.580593 
L 265.909091 162.189093 
L 268.445455 163.584775 
L 270.981818 164.5863 
L 273.518182 165.012332 
" clip-path="url(#p2ec4a7ea2c)" style="fill: none; stroke: #00216b; stroke-width: 3; stroke-linecap: square"/>
   </g>
   <g id="line2d_10">
    <path d="M 19.881818 156.769854 
L 22.418182 154.296929 
L 24.954545 152.321838 
L 27.490909 150.795563 
L 30.027273 149.669086 
L 32.563636 148.89339 
L 35.1 148.419457 
L 37.636364 148.198269 
L 40.172727 148.180808 
L 42.709091 148.318057 
L 45.245455 148.560998 
L 47.781818 148.860613 
L 50.318182 149.167885 
L 52.854545 149.433795 
L 55.390909 149.609327 
L 57.927273 149.645461 
L 60.463636 149.493181 
L 63 149.104267 
L 65.536364 148.478378 
L 68.072727 147.689387 
L 70.609091 146.81755 
L 73.145455 145.943123 
L 75.681818 145.146362 
L 78.218182 144.507525 
L 80.754545 144.106866 
L 83.290909 144.024643 
L 85.827273 144.311816 
L 88.363636 144.902163 
L 90.9 145.700165 
L 93.436364 146.610303 
L 95.972727 147.53706 
L 98.509091 148.384918 
L 101.045455 149.058357 
L 103.581818 149.46186 
L 106.118182 149.509572 
L 108.654545 149.227962 
L 111.190909 148.715973 
L 113.727273 148.073753 
L 116.263636 147.401451 
L 118.8 146.799216 
L 121.336364 146.367195 
L 123.872727 146.205538 
L 126.409091 146.413042 
L 128.945455 147.007444 
L 131.481818 147.880834 
L 134.018182 148.914494 
L 136.554545 149.989707 
L 139.090909 150.987755 
L 141.627273 151.789921 
L 144.163636 152.277487 
L 146.7 152.331736 
L 149.236364 151.877289 
L 151.772727 151.012125 
L 154.309091 149.877563 
L 156.845455 148.614921 
L 159.381818 147.365516 
L 161.918182 146.270668 
L 164.454545 145.471695 
L 166.990909 145.109914 
L 169.527273 145.312154 
L 172.063636 146.03679 
L 174.6 147.133519 
L 177.136364 148.450227 
L 179.672727 149.834799 
L 182.209091 151.135121 
L 184.745455 152.199077 
L 187.281818 152.874555 
L 189.818182 153.011348 
L 192.354545 152.573836 
L 194.890909 151.703999 
L 197.427273 150.559096 
L 199.963636 149.296386 
L 202.5 148.073129 
L 205.036364 147.046584 
L 207.572727 146.374009 
L 210.109091 146.212663 
L 212.645455 146.664936 
L 215.181818 147.613737 
L 217.718182 148.887104 
L 220.254545 150.313077 
L 222.790909 151.719695 
L 225.327273 152.934996 
L 227.863636 153.78702 
L 230.4 154.103805 
L 232.936364 153.731568 
L 235.472727 152.727824 
L 238.009091 151.286414 
L 240.545455 149.60345 
L 243.081818 147.875042 
L 245.618182 146.297304 
L 248.154545 145.066347 
L 250.690909 144.378283 
L 253.227273 144.426661 
L 255.763636 145.251326 
L 258.3 146.653875 
L 260.836364 148.415409 
L 263.372727 150.317032 
L 265.909091 152.139847 
L 268.445455 153.664956 
L 270.981818 154.673462 
L 273.518182 154.946469 
" clip-path="url(#p2ec4a7ea2c)" style="fill: none; stroke: #003679; stroke-width: 3; stroke-linecap: square"/>
   </g>
   <g id="line2d_11">
    <path d="M 19.881818 144.572991 
L 22.418182 140.985689 
L 24.954545 138.157614 
L 27.490909 136.017897 
L 30.027273 134.49567 
L 32.563636 133.520066 
L 35.1 133.020217 
L 37.636364 132.925256 
L 40.172727 133.164314 
L 42.709091 133.666525 
L 45.245455 134.36102 
L 47.781818 135.176931 
L 50.318182 136.043392 
L 52.854545 136.889534 
L 55.390909 137.64449 
L 57.927273 138.237392 
L 60.463636 138.597373 
L 63 138.65454 
L 65.536364 138.397578 
L 68.072727 137.905961 
L 70.609091 137.266973 
L 73.145455 136.567899 
L 75.681818 135.896024 
L 78.218182 135.338631 
L 80.754545 134.983005 
L 83.290909 134.916431 
L 85.827273 135.194771 
L 88.363636 135.748201 
L 90.9 136.475471 
L 93.436364 137.275336 
L 95.972727 138.046548 
L 98.509091 138.687859 
L 101.045455 139.098022 
L 103.581818 139.17579 
L 106.118182 138.831234 
L 108.654545 138.106007 
L 111.190909 137.126651 
L 113.727273 136.021123 
L 116.263636 134.917382 
L 118.8 133.943384 
L 121.336364 133.227088 
L 123.872727 132.896451 
L 126.409091 133.077693 
L 128.945455 133.792799 
L 131.481818 134.902186 
L 134.018182 136.252375 
L 136.554545 137.689885 
L 139.090909 139.061237 
L 141.627273 140.21295 
L 144.163636 140.991545 
L 146.7 141.24354 
L 149.236364 140.869111 
L 151.772727 139.983044 
L 154.309091 138.753781 
L 156.845455 137.349763 
L 159.381818 135.939431 
L 161.918182 134.691228 
L 164.454545 133.773593 
L 166.990909 133.35497 
L 169.527273 133.586636 
L 172.063636 134.420359 
L 174.6 135.67919 
L 177.136364 137.184034 
L 179.672727 138.755796 
L 182.209091 140.215382 
L 184.745455 141.383695 
L 187.281818 142.081643 
L 189.818182 142.132418 
L 192.354545 141.496553 
L 194.890909 140.347456 
L 197.427273 138.876845 
L 199.963636 137.276438 
L 202.5 135.737954 
L 205.036364 134.453113 
L 207.572727 133.613633 
L 210.109091 133.411232 
L 212.645455 133.970684 
L 215.181818 135.148975 
L 217.718182 136.736148 
L 220.254545 138.522245 
L 222.790909 140.297306 
L 225.327273 141.851374 
L 227.863636 142.97449 
L 230.4 143.456696 
L 232.936364 143.109891 
L 235.472727 142.000067 
L 238.009091 140.357145 
L 240.545455 138.41378 
L 243.081818 136.402626 
L 245.618182 134.556338 
L 248.154545 133.107569 
L 250.690909 132.288975 
L 253.227273 132.330201 
L 255.763636 133.280411 
L 258.3 134.90902 
L 260.836364 136.96138 
L 263.372727 139.182842 
L 265.909091 141.318757 
L 268.445455 143.114476 
L 270.981818 144.31535 
L 273.518182 144.666731 
" clip-path="url(#p2ec4a7ea2c)" style="fill: none; stroke: #004a86; stroke-width: 3; stroke-linecap: square"/>
   </g>
   <g id="line2d_12">
    <path d="M 19.881818 132.376127 
L 22.418182 128.654289 
L 24.954545 125.763824 
L 27.490909 123.623374 
L 30.027273 122.151577 
L 32.563636 121.267075 
L 35.1 120.888508 
L 37.636364 120.934514 
L 40.172727 121.323735 
L 42.709091 121.974811 
L 45.245455 122.806381 
L 47.781818 123.737085 
L 50.318182 124.685564 
L 52.854545 125.570458 
L 55.390909 126.310406 
L 57.927273 126.824049 
L 60.463636 127.030027 
L 63 126.848232 
L 65.536364 126.273741 
L 68.072727 125.418158 
L 70.609091 124.403114 
L 73.145455 123.35024 
L 75.681818 122.381166 
L 78.218182 121.617524 
L 80.754545 121.180942 
L 83.290909 121.193052 
L 85.827273 121.730435 
L 88.363636 122.689471 
L 90.9 123.921492 
L 93.436364 125.277828 
L 95.972727 126.609812 
L 98.509091 127.768773 
L 101.045455 128.606044 
L 103.581818 128.972955 
L 106.118182 128.736447 
L 108.654545 127.94491 
L 111.190909 126.763801 
L 113.727273 125.360527 
L 116.263636 123.902496 
L 118.8 122.557116 
L 121.336364 121.491794 
L 123.872727 120.873937 
L 126.409091 120.86883 
L 128.945455 121.514438 
L 131.481818 122.651372 
L 134.018182 124.103267 
L 136.554545 125.693762 
L 139.090909 127.24649 
L 141.627273 128.58509 
L 144.163636 129.533196 
L 146.7 129.914446 
L 149.236364 129.612378 
L 151.772727 128.750149 
L 154.309091 127.510819 
L 156.845455 126.077447 
L 159.381818 124.633093 
L 161.918182 123.360816 
L 164.454545 122.443677 
L 166.990909 122.064735 
L 169.527273 122.388106 
L 172.063636 123.357694 
L 174.6 124.77533 
L 177.136364 126.440475 
L 179.672727 128.152593 
L 182.209091 129.711146 
L 184.745455 130.915596 
L 187.281818 131.565406 
L 189.818182 131.462674 
L 192.354545 130.567625 
L 194.890909 129.085579 
L 197.427273 127.242942 
L 199.963636 125.266119 
L 202.5 123.381513 
L 205.036364 121.81553 
L 207.572727 120.794574 
L 210.109091 120.545051 
L 212.645455 121.214165 
L 215.181818 122.632329 
L 217.718182 124.550755 
L 220.254545 126.720654 
L 222.790909 128.893239 
L 225.327273 130.819723 
L 227.863636 132.251318 
L 230.4 132.939235 
L 232.936364 132.660105 
L 235.472727 131.486031 
L 238.009091 129.679747 
L 240.545455 127.507162 
L 243.081818 125.234187 
L 245.618182 123.126731 
L 248.154545 121.450706 
L 250.690909 120.47202 
L 253.227273 120.453223 
L 255.763636 121.455145 
L 258.3 123.225958 
L 260.836364 125.486938 
L 263.372727 127.95936 
L 265.909091 130.364499 
L 268.445455 132.423632 
L 270.981818 133.858034 
L 273.518182 134.38898 
" clip-path="url(#p2ec4a7ea2c)" style="fill: none; stroke: #005e94; stroke-width: 3; stroke-linecap: square"/>
   </g>
   <g id="line2d_13">
    <path d="M 19.881818 120.179264 
L 22.418182 116.879566 
L 24.954545 114.338641 
L 27.490909 112.480896 
L 30.027273 111.23074 
L 32.563636 110.512582 
L 35.1 110.250831 
L 37.636364 110.369895 
L 40.172727 110.794182 
L 42.709091 111.448102 
L 45.245455 112.256063 
L 47.781818 113.142474 
L 50.318182 114.031742 
L 52.854545 114.848278 
L 55.390909 115.516489 
L 57.927273 115.960784 
L 60.463636 116.105572 
L 63 115.876461 
L 65.536364 115.271004 
L 68.072727 114.398275 
L 70.609091 113.376938 
L 73.145455 112.325659 
L 75.681818 111.363103 
L 78.218182 110.607934 
L 80.754545 110.178819 
L 83.290909 110.194422 
L 85.827273 110.728554 
L 88.363636 111.675608 
L 90.9 112.885124 
L 93.436364 114.20664 
L 95.972727 115.489695 
L 98.509091 116.583829 
L 101.045455 117.33858 
L 103.581818 117.603487 
L 106.118182 117.244419 
L 108.654545 116.317065 
L 111.190909 114.999584 
L 113.727273 113.472173 
L 116.263636 111.915032 
L 118.8 110.508359 
L 121.336364 109.432353 
L 123.872727 108.86721 
L 126.409091 108.990761 
L 128.945455 109.838582 
L 131.481818 111.225763 
L 134.018182 112.94843 
L 136.554545 114.802707 
L 139.090909 116.584717 
L 141.627273 118.090584 
L 144.163636 119.116434 
L 146.7 119.458389 
L 149.236364 118.983567 
L 151.772727 117.843048 
L 154.309091 116.258909 
L 156.845455 114.453224 
L 159.381818 112.648066 
L 161.918182 111.06551 
L 164.454545 109.927632 
L 166.990909 109.456505 
L 169.527273 109.851075 
L 172.063636 111.041421 
L 174.6 112.784159 
L 177.136364 114.833013 
L 179.672727 116.941708 
L 182.209091 118.863969 
L 184.745455 120.353521 
L 187.281818 121.164088 
L 189.818182 121.052604 
L 192.354545 119.968622 
L 194.890909 118.160243 
L 197.427273 115.901256 
L 199.963636 113.465445 
L 202.5 111.126597 
L 205.036364 109.158498 
L 207.572727 107.834935 
L 210.109091 107.429693 
L 212.645455 108.122918 
L 215.181818 109.720197 
L 217.718182 111.933475 
L 220.254545 114.474698 
L 222.790909 117.055812 
L 225.327273 119.388764 
L 227.863636 121.185498 
L 230.4 122.157961 
L 232.936364 122.046922 
L 235.472727 120.928227 
L 238.009091 119.093898 
L 240.545455 116.83956 
L 243.081818 114.46084 
L 245.618182 112.253364 
L 248.154545 110.512756 
L 250.690909 109.534643 
L 253.227273 109.610843 
L 255.763636 110.804758 
L 258.3 112.825745 
L 260.836364 115.352704 
L 263.372727 118.064534 
L 265.909091 120.640138 
L 268.445455 122.758415 
L 270.981818 124.098265 
L 273.518182 124.338589 
" clip-path="url(#p2ec4a7ea2c)" style="fill: none; stroke: #0072a1; stroke-width: 3; stroke-linecap: square"/>
   </g>
   <g id="line2d_14">
    <path d="M 19.881818 107.982401 
L 22.418182 104.286554 
L 24.954545 101.531215 
L 27.490909 99.617078 
L 30.027273 98.444835 
L 32.563636 97.915179 
L 35.1 97.928804 
L 37.636364 98.386402 
L 40.172727 99.188667 
L 42.709091 100.236291 
L 45.245455 101.429967 
L 47.781818 102.670389 
L 50.318182 103.85825 
L 52.854545 104.894242 
L 55.390909 105.679059 
L 57.927273 106.113393 
L 60.463636 106.097939 
L 63 105.535087 
L 65.536364 104.429234 
L 68.072727 102.942877 
L 70.609091 101.252114 
L 73.145455 99.53304 
L 75.681818 97.961756 
L 78.218182 96.714357 
L 80.754545 95.966941 
L 83.290909 95.895606 
L 85.827273 96.610786 
L 88.363636 97.960256 
L 90.9 99.726128 
L 93.436364 101.690514 
L 95.972727 103.635525 
L 98.509091 105.343275 
L 101.045455 106.595875 
L 103.581818 107.175436 
L 106.118182 106.886737 
L 108.654545 105.798065 
L 111.190909 104.14771 
L 113.727273 102.176794 
L 116.263636 100.126442 
L 118.8 98.237777 
L 121.336364 96.751922 
L 123.872727 95.91 
L 126.409091 95.95005 
L 128.945455 96.924923 
L 131.481818 98.600437 
L 134.018182 100.717719 
L 136.554545 103.017896 
L 139.090909 105.242094 
L 141.627273 107.131439 
L 144.163636 108.427058 
L 146.7 108.870078 
L 149.236364 108.289984 
L 151.772727 106.869705 
L 154.309091 104.880528 
L 156.845455 102.593739 
L 159.381818 100.280626 
L 161.918182 98.212477 
L 164.454545 96.660578 
L 166.990909 95.896217 
L 169.527273 96.16398 
L 172.063636 97.39805 
L 174.6 99.332348 
L 177.136364 101.697461 
L 179.672727 104.223972 
L 182.209091 106.642466 
L 184.745455 108.683529 
L 187.281818 110.077746 
L 189.818182 110.558953 
L 192.354545 110.056135 
L 194.890909 108.800757 
L 197.427273 107.050302 
L 199.963636 105.062254 
L 202.5 103.094097 
L 205.036364 101.403313 
L 207.572727 100.247387 
L 210.109091 99.883803 
L 212.645455 100.482386 
L 215.181818 101.862335 
L 217.718182 103.755191 
L 220.254545 105.892495 
L 222.790909 108.005787 
L 225.327273 109.826609 
L 227.863636 111.086502 
L 230.4 111.517007 
L 232.936364 110.878081 
L 235.472727 109.260036 
L 238.009091 106.966314 
L 240.545455 104.30391 
L 243.081818 101.579815 
L 245.618182 99.101026 
L 248.154545 97.174536 
L 250.690909 96.107338 
L 253.227273 96.202447 
L 255.763636 97.524067 
L 258.3 99.766251 
L 260.836364 102.591209 
L 263.372727 105.661152 
L 265.909091 108.638289 
L 268.445455 111.184832 
L 270.981818 112.962991 
L 273.518182 113.634976 
" clip-path="url(#p2ec4a7ea2c)" style="fill: none; stroke: #0f87af; stroke-width: 3; stroke-linecap: square"/>
   </g>
   <g id="line2d_15">
    <path d="M 19.881818 95.785538 
L 22.418182 90.921173 
L 24.954545 87.302884 
L 27.490909 84.800984 
L 30.027273 83.285786 
L 32.563636 82.627603 
L 35.1 82.696749 
L 37.636364 83.363536 
L 40.172727 84.498277 
L 42.709091 85.971287 
L 45.245455 87.652877 
L 47.781818 89.413361 
L 50.318182 91.123053 
L 52.854545 92.652265 
L 55.390909 93.871311 
L 57.927273 94.650503 
L 60.463636 94.860155 
L 63 94.372718 
L 65.536364 93.188907 
L 68.072727 91.508249 
L 70.609091 89.547371 
L 73.145455 87.522902 
L 75.681818 85.651469 
L 78.218182 84.1497 
L 80.754545 83.234224 
L 83.290909 83.121668 
L 85.827273 83.949074 
L 88.363636 85.535144 
L 90.9 87.618991 
L 93.436364 89.93973 
L 95.972727 92.236476 
L 98.509091 94.248342 
L 101.045455 95.714444 
L 103.581818 96.373896 
L 106.118182 95.992901 
L 108.654545 94.652569 
L 111.190909 92.637176 
L 113.727273 90.234383 
L 116.263636 87.731852 
L 118.8 85.417245 
L 121.336364 83.578224 
L 123.872727 82.502449 
L 126.409091 82.473973 
L 128.945455 83.5603 
L 131.481818 85.49328 
L 134.018182 87.975889 
L 136.554545 90.711106 
L 139.090909 93.401908 
L 141.627273 95.751271 
L 144.163636 97.462175 
L 146.7 98.237595 
L 149.236364 97.879075 
L 151.772727 96.582429 
L 154.309091 94.642034 
L 156.845455 92.352269 
L 159.381818 90.007513 
L 161.918182 87.902144 
L 164.454545 86.330541 
L 166.990909 85.587083 
L 169.527273 85.936836 
L 172.063636 87.304107 
L 174.6 89.393358 
L 177.136364 91.905389 
L 179.672727 94.540997 
L 182.209091 97.000982 
L 184.745455 98.986141 
L 187.281818 100.197274 
L 189.818182 100.338942 
L 192.354545 99.341464 
L 194.890909 97.485085 
L 197.427273 95.080153 
L 199.963636 92.437014 
L 202.5 89.866013 
L 205.036364 87.677499 
L 207.572727 86.181816 
L 210.109091 85.689312 
L 212.645455 86.404608 
L 215.181818 88.109425 
L 217.718182 90.479759 
L 220.254545 93.191606 
L 222.790909 95.920963 
L 225.327273 98.343825 
L 227.863636 100.136188 
L 230.4 100.974048 
L 232.936364 100.566325 
L 235.472727 99.004677 
L 238.009091 96.627689 
L 240.545455 93.77806 
L 243.081818 90.798491 
L 245.618182 88.031684 
L 248.154545 85.820337 
L 250.690909 84.507153 
L 253.227273 84.430541 
L 255.763636 85.671532 
L 258.3 87.912217 
L 260.836364 90.800371 
L 263.372727 93.983766 
L 265.909091 97.110178 
L 268.445455 99.827379 
L 270.981818 101.783143 
L 273.518182 102.625244 
" clip-path="url(#p2ec4a7ea2c)" style="fill: none; stroke: #369bbc; stroke-width: 3; stroke-linecap: square"/>
   </g>
   <g id="line2d_16">
    <path d="M 19.881818 83.588674 
L 22.418182 78.168511 
L 24.954545 74.152692 
L 27.490909 71.395683 
L 30.027273 69.751952 
L 32.563636 69.075963 
L 35.1 69.222185 
L 37.636364 70.045082 
L 40.172727 71.399122 
L 42.709091 73.13877 
L 45.245455 75.118493 
L 47.781818 77.192758 
L 50.318182 79.21603 
L 52.854545 81.042776 
L 55.390909 82.527463 
L 57.927273 83.524557 
L 60.463636 83.888523 
L 63 83.476183 
L 65.536364 82.285562 
L 68.072727 80.533557 
L 70.609091 78.455892 
L 73.145455 76.288293 
L 75.681818 74.266482 
L 78.218182 72.626185 
L 80.754545 71.603126 
L 83.290909 71.43303 
L 85.827273 72.266487 
L 88.363636 73.913563 
L 90.9 76.099186 
L 93.436364 78.548289 
L 95.972727 80.985802 
L 98.509091 83.136655 
L 101.045455 84.72578 
L 103.581818 85.478108 
L 106.118182 85.146884 
L 108.654545 83.814528 
L 111.190909 81.775827 
L 113.727273 79.329107 
L 116.263636 76.772695 
L 118.8 74.404917 
L 121.336364 72.524101 
L 123.872727 71.428573 
L 126.409091 71.412897 
L 128.945455 72.545944 
L 131.481818 74.546757 
L 134.018182 77.104284 
L 136.554545 79.907476 
L 139.090909 82.645283 
L 141.627273 85.006653 
L 144.163636 86.680537 
L 146.7 87.355884 
L 149.236364 86.82603 
L 151.772727 85.30185 
L 154.309091 83.098605 
L 156.845455 80.531556 
L 159.381818 77.915965 
L 161.918182 75.567092 
L 164.454545 73.800198 
L 166.990909 72.930545 
L 169.527273 73.242028 
L 172.063636 74.653921 
L 174.6 76.850262 
L 177.136364 79.511163 
L 179.672727 82.316741 
L 182.209091 84.947109 
L 184.745455 87.082383 
L 187.281818 88.402677 
L 189.818182 88.592112 
L 192.354545 87.575123 
L 194.890909 85.648639 
L 197.427273 83.141627 
L 199.963636 80.383056 
L 202.5 77.701896 
L 205.036364 75.427116 
L 207.572727 73.887684 
L 210.109091 73.412569 
L 212.645455 74.219346 
L 215.181818 76.08001 
L 217.718182 78.655161 
L 220.254545 81.6054 
L 222.790909 84.591326 
L 225.327273 87.273542 
L 227.863636 89.312646 
L 230.4 90.369239 
L 232.936364 90.13777 
L 235.472727 88.706165 
L 238.009091 86.41621 
L 240.545455 83.613919 
L 243.081818 80.645309 
L 245.618182 77.856394 
L 248.154545 75.593191 
L 250.690909 74.201715 
L 253.227273 74.023708 
L 255.763636 75.14446 
L 258.3 77.251769 
L 260.836364 79.999235 
L 263.372727 83.040461 
L 265.909091 86.02905 
L 268.445455 88.618602 
L 270.981818 90.46272 
L 273.518182 91.215006 
" clip-path="url(#p2ec4a7ea2c)" style="fill: none; stroke: #60b0ca; stroke-width: 3; stroke-linecap: square"/>
   </g>
   <g id="line2d_17">
    <path d="M 19.881818 71.391811 
L 22.418182 65.69743 
L 24.954545 61.498668 
L 27.490909 58.640855 
L 30.027273 56.969324 
L 32.563636 56.329407 
L 35.1 56.566434 
L 37.636364 57.525737 
L 40.172727 59.052649 
L 42.709091 60.992501 
L 45.245455 63.190624 
L 47.781818 65.49235 
L 50.318182 67.743011 
L 52.854545 69.787938 
L 55.390909 71.472464 
L 57.927273 72.641919 
L 60.463636 73.141635 
L 63 72.819412 
L 65.536364 71.671115 
L 68.072727 69.922111 
L 70.609091 67.81751 
L 73.145455 65.602419 
L 75.681818 63.521949 
L 78.218182 61.821209 
L 80.754545 60.745308 
L 83.290909 60.539355 
L 85.827273 61.360793 
L 88.363636 63.016401 
L 90.9 65.225292 
L 93.436364 67.706578 
L 95.972727 70.179371 
L 98.509091 72.362785 
L 101.045455 73.975931 
L 103.581818 74.737923 
L 106.118182 74.3968 
L 108.654545 73.036875 
L 111.190909 70.959413 
L 113.727273 68.469295 
L 116.263636 65.8714 
L 118.8 63.47061 
L 121.336364 61.571804 
L 123.872727 60.479863 
L 126.409091 60.495796 
L 128.945455 61.68826 
L 131.481818 63.765774 
L 134.018182 66.405877 
L 136.554545 69.286105 
L 139.090909 72.083998 
L 141.627273 74.477093 
L 144.163636 76.142929 
L 146.7 76.759044 
L 149.236364 76.111881 
L 151.772727 74.423511 
L 154.309091 72.024907 
L 156.845455 69.247045 
L 159.381818 66.4209 
L 161.918182 63.877447 
L 164.454545 61.94766 
L 166.990909 60.962516 
L 169.527273 61.220299 
L 172.063636 62.639289 
L 174.6 64.892598 
L 177.136364 67.649251 
L 179.672727 70.578276 
L 182.209091 73.348698 
L 184.745455 75.629544 
L 187.281818 77.089839 
L 189.818182 77.402679 
L 192.354545 76.485319 
L 194.890909 74.633458 
L 197.427273 72.175351 
L 199.963636 69.439252 
L 202.5 66.753416 
L 205.036364 64.446097 
L 207.572727 62.845551 
L 210.109091 62.280031 
L 212.645455 62.967669 
L 215.181818 64.686112 
L 217.718182 67.102883 
L 220.254545 69.885503 
L 222.790909 72.701496 
L 225.327273 75.218387 
L 227.863636 77.103696 
L 230.4 78.024948 
L 232.936364 77.683524 
L 235.472727 76.174407 
L 238.009091 73.846514 
L 240.545455 71.052997 
L 243.081818 68.147006 
L 245.618182 65.481694 
L 248.154545 63.41021 
L 250.690909 62.285705 
L 253.227273 62.45684 
L 255.763636 64.00281 
L 258.3 66.585146 
L 260.836364 69.829448 
L 263.372727 73.361317 
L 265.909091 76.806353 
L 268.445455 79.790158 
L 270.981818 81.938331 
L 273.518182 82.876474 
" clip-path="url(#p2ec4a7ea2c)" style="fill: none; stroke: #87c3d7; stroke-width: 3; stroke-linecap: square"/>
   </g>
   <g id="line2d_18">
    <path d="M 19.881818 59.194948 
L 22.418182 53.143883 
L 24.954545 48.697124 
L 27.490909 45.688911 
L 30.027273 43.953484 
L 32.563636 43.325082 
L 35.1 43.637946 
L 37.636364 44.726315 
L 40.172727 46.42443 
L 42.709091 48.56653 
L 45.245455 50.986856 
L 47.781818 53.519647 
L 50.318182 55.999143 
L 52.854545 58.259585 
L 55.390909 60.135211 
L 57.927273 61.460263 
L 60.463636 62.06898 
L 63 61.79825 
L 65.536364 60.643864 
L 68.072727 58.847911 
L 70.609091 56.673668 
L 73.145455 54.384409 
L 75.681818 52.243411 
L 78.218182 50.51395 
L 80.754545 49.459302 
L 83.290909 49.342743 
L 85.827273 50.331557 
L 88.363636 52.209058 
L 90.9 54.662568 
L 93.436364 57.379409 
L 95.972727 60.046905 
L 98.509091 62.352376 
L 101.045455 63.983145 
L 103.581818 64.626534 
L 106.118182 64.002777 
L 108.654545 62.214712 
L 111.190909 59.612013 
L 113.727273 56.548472 
L 116.263636 53.377879 
L 118.8 50.454024 
L 121.336364 48.130698 
L 123.872727 46.761692 
L 126.409091 46.696319 
L 128.945455 48.015333 
L 131.481818 50.383221 
L 134.018182 53.428658 
L 136.554545 56.780322 
L 139.090909 60.066891 
L 141.627273 62.91704 
L 144.163636 64.959447 
L 146.7 65.82279 
L 149.236364 65.25916 
L 151.772727 63.514312 
L 154.309091 60.957414 
L 156.845455 57.957637 
L 159.381818 54.884149 
L 161.918182 52.10612 
L 164.454545 49.992719 
L 166.990909 48.913116 
L 169.527273 49.200512 
L 172.063636 50.770003 
L 174.6 53.266933 
L 177.136364 56.332153 
L 179.672727 59.606512 
L 182.209091 62.73086 
L 184.745455 65.346047 
L 187.281818 67.092923 
L 189.818182 67.616687 
L 192.354545 66.823525 
L 194.890909 65.024146 
L 197.427273 62.56406 
L 199.963636 59.788776 
L 202.5 57.043803 
L 205.036364 54.674651 
L 207.572727 53.026827 
L 210.109091 52.445841 
L 212.645455 53.163055 
L 215.181818 54.953245 
L 217.718182 57.47704 
L 220.254545 60.395068 
L 222.790909 63.367958 
L 225.327273 66.056339 
L 227.863636 68.12084 
L 230.4 69.222089 
L 232.936364 69.054428 
L 235.472727 67.704096 
L 238.009091 65.510173 
L 240.545455 62.815952 
L 243.081818 59.964727 
L 245.618182 57.299789 
L 248.154545 55.164432 
L 250.690909 53.90195 
L 253.227273 53.851373 
L 255.763636 55.095957 
L 258.3 57.322509 
L 260.836364 60.183735 
L 263.372727 63.332339 
L 265.909091 66.421026 
L 268.445455 69.102499 
L 270.981818 71.029463 
L 273.518182 71.854624 
" clip-path="url(#p2ec4a7ea2c)" style="fill: none; stroke: #b1d8e5; stroke-width: 3; stroke-linecap: square"/>
   </g>
   <g id="line2d_19">
    <path d="M 19.881818 46.998084 
L 22.418182 40.609465 
L 24.954545 35.963576 
L 27.490909 32.876774 
L 30.027273 31.165418 
L 32.563636 30.645866 
L 35.1 31.134476 
L 37.636364 32.447606 
L 40.172727 34.401614 
L 42.709091 36.812858 
L 45.245455 39.497697 
L 47.781818 42.272488 
L 50.318182 44.953589 
L 52.854545 47.357359 
L 55.390909 49.300155 
L 57.927273 50.598336 
L 60.463636 51.06826 
L 63 50.529309 
L 65.536364 48.98238 
L 68.072727 46.709711 
L 70.609091 44.017743 
L 73.145455 41.212916 
L 75.681818 38.60167 
L 78.218182 36.490447 
L 80.754545 35.185686 
L 83.290909 34.993829 
L 85.827273 36.111499 
L 88.363636 38.29606 
L 90.9 41.195057 
L 93.436364 44.456036 
L 95.972727 47.726545 
L 98.509091 50.654129 
L 101.045455 52.886335 
L 103.581818 54.07071 
L 106.118182 53.890222 
L 108.654545 52.439635 
L 111.190909 50.079387 
L 113.727273 47.174343 
L 116.263636 44.089367 
L 118.8 41.189324 
L 121.336364 38.83908 
L 123.872727 37.403499 
L 126.409091 37.242925 
L 128.945455 38.446336 
L 131.481818 40.6821 
L 134.018182 43.582404 
L 136.554545 46.779434 
L 139.090909 49.905376 
L 141.627273 52.592416 
L 144.163636 54.47274 
L 146.7 55.178536 
L 149.236364 54.464382 
L 151.772727 52.574441 
L 154.309091 49.875268 
L 156.845455 46.733417 
L 159.381818 43.515444 
L 161.918182 40.587904 
L 164.454545 38.317353 
L 166.990909 37.070346 
L 169.527273 37.178118 
L 172.063636 38.561293 
L 174.6 40.87559 
L 177.136364 43.772311 
L 179.672727 46.902758 
L 182.209091 49.918234 
L 184.745455 52.470041 
L 187.281818 54.209481 
L 189.818182 54.792023 
L 192.354545 54.123085 
L 194.890909 52.495504 
L 197.427273 50.235446 
L 199.963636 47.669078 
L 202.5 45.122565 
L 205.036364 42.922071 
L 207.572727 41.393763 
L 210.109091 40.863807 
L 212.645455 41.551281 
L 215.181818 43.246923 
L 217.718182 45.634384 
L 220.254545 48.397315 
L 222.790909 51.219368 
L 225.327273 53.784193 
L 227.863636 55.775442 
L 230.4 56.876766 
L 232.936364 56.802972 
L 235.472727 55.631057 
L 238.009091 53.671692 
L 240.545455 51.239438 
L 243.081818 48.648859 
L 245.618182 46.214519 
L 248.154545 44.25098 
L 250.690909 43.072806 
L 253.227273 42.990687 
L 255.763636 44.082958 
L 258.3 46.067799 
L 260.836364 48.632412 
L 263.372727 51.463995 
L 265.909091 54.249751 
L 268.445455 56.676879 
L 270.981818 58.432579 
L 273.518182 59.204052 
" clip-path="url(#p2ec4a7ea2c)" style="fill: none; stroke: #d8ebf2; stroke-width: 3; stroke-linecap: square"/>
   </g>
   <g id="line2d_20">
    <path d="M 19.881818 34.801221 
L 22.418182 28.749932 
L 24.954545 24.406603 
L 27.490909 21.588796 
L 30.027273 20.114074 
L 32.563636 19.8 
L 35.1 20.464137 
L 37.636364 21.924048 
L 40.172727 23.997296 
L 42.709091 26.501443 
L 45.245455 29.254053 
L 47.781818 32.072688 
L 50.318182 34.774911 
L 52.854545 37.178285 
L 55.390909 39.100373 
L 57.927273 40.358737 
L 60.463636 40.770942 
L 63 40.157585 
L 65.536364 38.521458 
L 68.072727 36.147751 
L 70.609091 33.345944 
L 73.145455 30.425517 
L 75.681818 27.695953 
L 78.218182 25.466731 
L 80.754545 24.047334 
L 83.290909 23.747241 
L 85.827273 24.765548 
L 88.363636 26.859803 
L 90.9 29.677168 
L 93.436364 32.864804 
L 95.972727 36.069875 
L 98.509091 38.939541 
L 101.045455 41.120966 
L 103.581818 42.26131 
L 106.118182 42.043187 
L 108.654545 40.561325 
L 111.190909 38.176334 
L 113.727273 35.253255 
L 116.263636 32.15713 
L 118.8 29.252999 
L 121.336364 26.905903 
L 123.872727 25.480884 
L 126.409091 25.338487 
L 128.945455 26.569523 
L 131.481818 28.84671 
L 134.018182 31.806805 
L 136.554545 35.086563 
L 139.090909 38.322739 
L 141.627273 41.152088 
L 144.163636 43.211366 
L 146.7 44.137329 
L 149.236364 43.685543 
L 151.772727 42.086832 
L 154.309091 39.690827 
L 156.845455 36.847165 
L 159.381818 33.905478 
L 161.918182 31.215402 
L 164.454545 29.126569 
L 166.990909 27.988614 
L 169.527273 28.117573 
L 172.063636 29.438895 
L 174.6 31.626039 
L 177.136364 34.348265 
L 179.672727 37.27483 
L 182.209091 40.074995 
L 184.745455 42.418019 
L 187.281818 43.97316 
L 189.818182 44.41363 
L 192.354545 43.649739 
L 194.890909 41.959301 
L 197.427273 39.651744 
L 199.963636 37.036498 
L 202.5 34.422989 
L 205.036364 32.120645 
L 207.572727 30.438895 
L 210.109091 29.687167 
L 212.645455 30.075677 
L 215.181818 31.417791 
L 217.718182 33.427664 
L 220.254545 35.81945 
L 222.790909 38.307305 
L 225.327273 40.605384 
L 227.863636 42.42784 
L 230.4 43.488828 
L 232.936364 43.529924 
L 235.472727 42.611463 
L 238.009091 40.999433 
L 240.545455 38.96325 
L 243.081818 36.772328 
L 245.618182 34.696083 
L 248.154545 33.00393 
L 250.690909 31.965286 
L 253.227273 31.846294 
L 255.763636 32.716891 
L 258.3 34.342892 
L 260.836364 36.463949 
L 263.372727 38.819713 
L 265.909091 41.149837 
L 268.445455 43.193974 
L 270.981818 44.691776 
L 273.518182 45.382895 
" clip-path="url(#p2ec4a7ea2c)" style="fill: none; stroke: #ffffff; stroke-width: 3; stroke-linecap: square"/>
   </g>
  </g>
 </g>
 <defs>
  <clipPath id="p2ec4a7ea2c">
   <rect x="7.2" y="7.2" width="279" height="277.2"/>
  </clipPath>
 </defs>
</svg>
