<?xml version="1.0" encoding="utf-8" standalone="no"?>
<!DOCTYPE svg PUBLIC "-//W3C//DTD SVG 1.1//EN"
  "http://www.w3.org/Graphics/SVG/1.1/DTD/svg11.dtd">
<svg xmlns:xlink="http://www.w3.org/1999/xlink" width="572.4pt" height="347.04pt" viewBox="0 0 572.4 347.04" xmlns="http://www.w3.org/2000/svg" version="1.1">
 <metadata>
  <rdf:RDF xmlns:dc="http://purl.org/dc/elements/1.1/" xmlns:cc="http://creativecommons.org/ns#" xmlns:rdf="http://www.w3.org/1999/02/22-rdf-syntax-ns#">
   <cc:Work>
    <dc:type rdf:resource="http://purl.org/dc/dcmitype/StillImage"/>
    <dc:date>2025-04-09T19:47:38.498683</dc:date>
    <dc:format>image/svg+xml</dc:format>
    <dc:creator>
     <cc:Agent>
      <dc:title>Matplotlib v3.8.4, https://matplotlib.org/</dc:title>
     </cc:Agent>
    </dc:creator>
   </cc:Work>
  </rdf:RDF>
 </metadata>
 <defs>
  <style type="text/css">*{stroke-linejoin: round; stroke-linecap: butt}</style>
 </defs>
 <g id="figure_1">
  <g id="patch_1">
   <path d="M 0 347.04 
L 572.4 347.04 
L 572.4 -0 
L 0 -0 
L 0 347.04 
z
" style="fill: none"/>
  </g>
  <g id="axes_1">
   <g id="line2d_1">
    <path d="M 32.563636 316.723108 
L 37.636364 320.699981 
L 42.709091 323.250499 
L 47.781818 324.536544 
L 52.854545 324.72 
L 57.927273 323.962751 
L 63 322.426679 
L 68.072727 320.27367 
L 73.145455 317.665606 
L 78.218182 314.764371 
L 83.290909 311.731848 
L 88.363636 308.729922 
L 93.436364 305.920475 
L 98.509091 303.465392 
L 103.581818 301.526555 
L 108.654545 300.26585 
L 113.727273 299.845158 
L 118.8 300.423558 
L 123.872727 301.991753 
L 128.945455 304.279469 
L 134.018182 306.993981 
L 139.090909 309.842563 
L 144.163636 312.532492 
L 149.236364 314.771042 
L 154.309091 316.265489 
L 159.381818 316.723108 
L 164.454545 315.953754 
L 169.527273 314.177601 
L 174.6 311.717404 
L 179.672727 308.895916 
L 184.745455 306.035893 
L 189.818182 303.460088 
L 194.890909 301.491255 
L 199.963636 300.452149 
L 205.036364 300.633913 
L 210.109091 301.96022 
L 215.181818 304.117664 
L 220.254545 306.788889 
L 225.327273 309.656536 
L 230.4 312.40325 
L 235.472727 314.711673 
L 240.545455 316.264448 
L 245.618182 316.748028 
L 250.690909 316.077408 
L 255.763636 314.521832 
L 260.836364 312.381013 
L 265.909091 309.954666 
L 270.981818 307.542505 
L 276.054545 305.444244 
L 281.127273 303.959599 
L 286.2 303.388282 
L 291.272727 303.930529 
L 296.345455 305.388653 
L 301.418182 307.465489 
L 306.490909 309.86387 
L 311.563636 312.28663 
L 316.636364 314.436604 
L 321.709091 316.016626 
L 326.781818 316.729528 
L 331.854545 316.308084 
L 336.927273 314.833088 
L 342 312.609866 
L 347.072727 309.947488 
L 352.145455 307.155023 
L 357.218182 304.541538 
L 362.290909 302.416103 
L 367.363636 301.087787 
L 372.436364 300.861865 
L 377.509091 301.815989 
L 382.581818 303.675 
L 387.654545 306.133387 
L 392.727273 308.88564 
L 397.8 311.626249 
L 402.872727 314.049703 
L 407.945455 315.850493 
L 413.018182 316.723108 
L 418.090909 316.460626 
L 423.163636 315.250482 
L 428.236364 313.378696 
L 433.309091 311.131291 
L 438.381818 308.794288 
L 443.454545 306.65371 
L 448.527273 304.995578 
L 453.6 304.105914 
L 458.672727 304.242855 
L 463.745455 305.34038 
L 468.818182 307.12333 
L 473.890909 309.313063 
L 478.963636 311.630937 
L 484.036364 313.798307 
L 489.109091 315.536532 
L 494.181818 316.566968 
L 499.254545 316.614456 
L 504.327273 315.61285 
L 509.4 313.819974 
L 514.472727 311.521522 
L 519.545455 309.003186 
L 524.618182 306.55066 
L 529.690909 304.449636 
L 534.763636 302.985807 
L 539.836364 302.444866 
" clip-path="url(#pf971b738fe)" style="fill: none; stroke: #008000; stroke-width: 3; stroke-linecap: square"/>
   </g>
   <g id="line2d_2">
    <path d="M 32.563636 302.341715 
L 37.636364 305.018955 
L 42.709091 306.67332 
L 47.781818 307.422628 
L 52.854545 307.3847 
L 57.927273 306.677357 
L 63 305.418419 
L 68.072727 303.725705 
L 73.145455 301.717037 
L 78.218182 299.510234 
L 83.290909 297.223116 
L 88.363636 294.973505 
L 93.436364 292.879219 
L 98.509091 291.05808 
L 103.581818 289.627907 
L 108.654545 288.706521 
L 113.727273 288.411742 
L 118.8 288.859298 
L 123.872727 290.039442 
L 128.945455 291.747932 
L 134.018182 293.763798 
L 139.090909 295.866071 
L 144.163636 297.833779 
L 149.236364 299.445953 
L 154.309091 300.481621 
L 159.381818 300.719814 
L 164.454545 300.018589 
L 169.527273 298.552111 
L 174.6 296.573574 
L 179.672727 294.336171 
L 184.745455 292.093096 
L 189.818182 290.097542 
L 194.890909 288.602703 
L 199.963636 287.861772 
L 205.036364 288.102406 
L 210.109091 289.255406 
L 215.181818 291.06005 
L 220.254545 293.252425 
L 225.327273 295.568619 
L 230.4 297.744719 
L 235.472727 299.516811 
L 240.545455 300.620983 
L 245.618182 300.796584 
L 250.690909 299.978667 
L 255.763636 298.405629 
L 260.836364 296.34196 
L 265.909091 294.052151 
L 270.981818 291.800693 
L 276.054545 289.852075 
L 281.127273 288.470789 
L 286.2 287.921325 
L 291.272727 288.3804 
L 296.345455 289.673636 
L 301.418182 291.538881 
L 306.490909 293.713985 
L 311.563636 295.936795 
L 316.636364 297.94516 
L 321.709091 299.476929 
L 326.781818 300.269951 
L 331.854545 300.087911 
L 336.927273 298.994867 
L 342 297.248663 
L 347.072727 295.110371 
L 352.145455 292.841065 
L 357.218182 290.701819 
L 362.290909 288.953705 
L 367.363636 287.857797 
L 372.436364 287.671959 
L 377.509091 288.461468 
L 382.581818 289.993093 
L 387.654545 292.007924 
L 392.727273 294.247053 
L 397.8 296.451569 
L 402.872727 298.362565 
L 407.945455 299.721129 
L 413.018182 300.268354 
L 418.090909 299.830953 
L 423.163636 298.578136 
L 428.236364 296.764736 
L 433.309091 294.645587 
L 438.381818 292.475522 
L 443.454545 290.509373 
L 448.527273 289.001975 
L 453.6 288.20816 
L 458.672727 288.35794 
L 463.745455 289.392773 
L 468.818182 291.067953 
L 473.890909 293.135674 
L 478.963636 295.348125 
L 484.036364 297.4575 
L 489.109091 299.215991 
L 494.181818 300.375789 
L 499.254545 300.692076 
L 504.327273 300.099467 
L 509.4 298.810692 
L 514.472727 297.062407 
L 519.545455 295.091267 
L 524.618182 293.133928 
L 529.690909 291.427045 
L 534.763636 290.207275 
L 539.836364 289.711271 
" clip-path="url(#pf971b738fe)" style="fill: none; stroke: #006c0d; stroke-width: 3; stroke-linecap: square"/>
   </g>
   <g id="line2d_3">
    <path d="M 32.563636 287.960322 
L 37.636364 289.920563 
L 42.709091 291.056947 
L 47.781818 291.466128 
L 52.854545 291.244762 
L 57.927273 290.489506 
L 63 289.297016 
L 68.072727 287.763946 
L 73.145455 285.986953 
L 78.218182 284.062693 
L 83.290909 282.087822 
L 88.363636 280.158995 
L 93.436364 278.372868 
L 98.509091 276.826097 
L 103.581818 275.615338 
L 108.654545 274.837246 
L 113.727273 274.588478 
L 118.8 274.963944 
L 123.872727 275.953868 
L 128.945455 277.386207 
L 134.018182 279.074962 
L 139.090909 280.83413 
L 144.163636 282.477712 
L 149.236364 283.819707 
L 154.309091 284.674114 
L 159.381818 284.854932 
L 164.454545 284.242633 
L 169.527273 282.983582 
L 174.6 281.290613 
L 179.672727 279.376562 
L 184.745455 277.454266 
L 189.818182 275.73656 
L 194.890909 274.436281 
L 199.963636 273.766264 
L 205.036364 273.918004 
L 210.109091 274.834917 
L 215.181818 276.30036 
L 220.254545 278.095029 
L 225.327273 279.999614 
L 230.4 281.794811 
L 235.472727 283.26131 
L 240.545455 284.179806 
L 245.618182 284.333678 
L 250.690909 283.667541 
L 255.763636 282.37592 
L 260.836364 280.674842 
L 265.909091 278.78033 
L 270.981818 276.90841 
L 276.054545 275.275105 
L 281.127273 274.09644 
L 286.2 273.588441 
L 291.272727 273.896888 
L 296.345455 274.886584 
L 301.418182 276.352091 
L 306.490909 278.087967 
L 311.563636 279.888775 
L 316.636364 281.549073 
L 321.709091 282.863422 
L 326.781818 283.626382 
L 331.854545 283.652218 
L 336.927273 282.984265 
L 342 281.813644 
L 347.072727 280.33394 
L 352.145455 278.738737 
L 357.218182 277.22162 
L 362.290909 275.976173 
L 367.363636 275.195982 
L 372.436364 275.072265 
L 377.509091 275.654303 
L 382.581818 276.771376 
L 387.654545 278.233837 
L 392.727273 279.852041 
L 397.8 281.436342 
L 402.872727 282.797094 
L 407.945455 283.744651 
L 413.018182 284.089366 
L 418.090909 283.704788 
L 423.163636 282.717241 
L 428.236364 281.316243 
L 433.309091 279.691312 
L 438.381818 278.031966 
L 443.454545 276.527723 
L 448.527273 275.3681 
L 453.6 274.742617 
L 458.672727 274.822136 
L 463.745455 275.560666 
L 468.818182 276.772305 
L 473.890909 278.268825 
L 478.963636 279.861991 
L 484.036364 281.363574 
L 489.109091 282.585342 
L 494.181818 283.339063 
L 499.254545 283.438828 
L 504.327273 282.83804 
L 509.4 281.706038 
L 514.472727 280.230737 
L 519.545455 278.60005 
L 524.618182 277.00189 
L 529.690909 275.624173 
L 534.763636 274.654812 
L 539.836364 274.281721 
" clip-path="url(#pf971b738fe)" style="fill: none; stroke: #00581a; stroke-width: 3; stroke-linecap: square"/>
   </g>
   <g id="line2d_4">
    <path d="M 32.563636 273.57893 
L 37.636364 274.802007 
L 42.709091 275.381791 
L 47.781818 275.396438 
L 52.854545 274.924104 
L 57.927273 274.042946 
L 63 272.831118 
L 68.072727 271.366778 
L 73.145455 269.72808 
L 78.218182 267.993181 
L 83.290909 266.240237 
L 88.363636 264.547404 
L 93.436364 262.992838 
L 98.509091 261.654694 
L 103.581818 260.611128 
L 108.654545 259.940297 
L 113.727273 259.720357 
L 118.8 260.028043 
L 123.872727 260.854954 
L 128.945455 262.060717 
L 134.018182 263.493609 
L 139.090909 265.001906 
L 144.163636 266.433886 
L 149.236364 267.637823 
L 154.309091 268.461996 
L 159.381818 268.754681 
L 164.454545 268.417327 
L 169.527273 267.564079 
L 174.6 266.362256 
L 179.672727 264.979176 
L 184.745455 263.582157 
L 189.818182 262.338517 
L 194.890909 261.415574 
L 199.963636 260.980647 
L 205.036364 261.183689 
L 210.109091 261.972786 
L 215.181818 263.165787 
L 220.254545 264.57837 
L 225.327273 266.026213 
L 230.4 267.324995 
L 235.472727 268.290394 
L 240.545455 268.738089 
L 245.618182 268.486181 
L 250.690909 267.498211 
L 255.763636 265.963151 
L 260.836364 264.089363 
L 265.909091 262.085209 
L 270.981818 260.159053 
L 276.054545 258.519256 
L 281.127273 257.374181 
L 286.2 256.932191 
L 291.272727 257.332049 
L 296.345455 258.434118 
L 301.418182 260.029161 
L 306.490909 261.907941 
L 311.563636 263.861223 
L 316.636364 265.67977 
L 321.709091 267.154345 
L 326.781818 268.075711 
L 331.854545 268.25413 
L 336.927273 267.726514 
L 342 266.676003 
L 347.072727 265.288176 
L 352.145455 263.748611 
L 357.218182 262.242884 
L 362.290909 260.956574 
L 367.363636 260.075259 
L 372.436364 259.782355 
L 377.509091 260.131627 
L 382.581818 260.97588 
L 387.654545 262.150629 
L 392.727273 263.491394 
L 397.8 264.83369 
L 402.872727 266.013035 
L 407.945455 266.864947 
L 413.018182 267.224941 
L 418.090909 266.981678 
L 423.163636 266.236381 
L 428.236364 265.143418 
L 433.309091 263.857156 
L 438.381818 262.53196 
L 443.454545 261.322197 
L 448.527273 260.382234 
L 453.6 259.866438 
L 458.672727 259.914326 
L 463.745455 260.492794 
L 468.818182 261.457372 
L 473.890909 262.661733 
L 478.963636 263.959548 
L 484.036364 265.20449 
L 489.109091 266.250232 
L 494.181818 266.950447 
L 499.254545 267.160538 
L 504.327273 266.83974 
L 509.4 266.108231 
L 514.472727 265.100031 
L 519.545455 263.949163 
L 524.618182 262.789646 
L 529.690909 261.755502 
L 534.763636 260.980752 
L 539.836364 260.599417 
" clip-path="url(#pf971b738fe)" style="fill: none; stroke: #004428; stroke-width: 3; stroke-linecap: square"/>
   </g>
   <g id="line2d_5">
    <path d="M 32.563636 259.197537 
L 37.636364 259.613229 
L 42.709091 259.583255 
L 47.781818 259.165649 
L 52.854545 258.418441 
L 57.927273 257.399664 
L 63 256.16735 
L 68.072727 254.779531 
L 73.145455 253.294239 
L 78.218182 251.769507 
L 83.290909 250.263366 
L 88.363636 248.833849 
L 93.436364 247.538987 
L 98.509091 246.436813 
L 103.581818 245.585359 
L 108.654545 245.042656 
L 113.727273 244.866738 
L 118.8 245.114552 
L 123.872727 245.778038 
L 128.945455 246.74837 
L 134.018182 247.908055 
L 139.090909 249.139599 
L 144.163636 250.325508 
L 149.236364 251.348289 
L 154.309091 252.090449 
L 159.381818 252.434493 
L 164.454545 252.302584 
L 169.527273 251.775499 
L 174.6 250.973674 
L 179.672727 250.01754 
L 184.745455 249.027533 
L 189.818182 248.124086 
L 194.890909 247.427632 
L 199.963636 247.058606 
L 205.036364 247.125658 
L 210.109091 247.600472 
L 215.181818 248.366365 
L 220.254545 249.30518 
L 225.327273 250.298762 
L 230.4 251.228954 
L 235.472727 251.9776 
L 240.545455 252.426545 
L 245.618182 252.459111 
L 250.690909 252.047463 
L 255.763636 251.30146 
L 260.836364 250.342807 
L 265.909091 249.293212 
L 270.981818 248.274379 
L 276.054545 247.408014 
L 281.127273 246.815823 
L 286.2 246.619511 
L 291.272727 246.899565 
L 296.345455 247.571589 
L 301.418182 248.50997 
L 306.490909 249.589092 
L 311.563636 250.683341 
L 316.636364 251.667103 
L 321.709091 252.414764 
L 326.781818 252.800708 
L 331.854545 252.711507 
L 336.927273 252.175388 
L 342 251.311969 
L 347.072727 250.242393 
L 352.145455 249.087799 
L 357.218182 247.96933 
L 362.290909 247.008127 
L 367.363636 246.325332 
L 372.436364 246.040723 
L 377.509091 246.192278 
L 382.581818 246.691184 
L 387.654545 247.437723 
L 392.727273 248.332176 
L 397.8 249.274824 
L 402.872727 250.165948 
L 407.945455 250.90583 
L 413.018182 251.39475 
L 418.090909 251.561492 
L 423.163636 251.448854 
L 428.236364 251.128134 
L 433.309091 250.670633 
L 438.381818 250.147648 
L 443.454545 249.630481 
L 448.527273 249.190431 
L 453.6 248.898796 
L 458.672727 248.820436 
L 463.745455 248.945336 
L 468.818182 249.215173 
L 473.890909 249.570822 
L 478.963636 249.953156 
L 484.036364 250.30305 
L 489.109091 250.561376 
L 494.181818 250.669008 
L 499.254545 250.567566 
L 504.327273 250.243428 
L 509.4 249.752349 
L 514.472727 249.156053 
L 519.545455 248.516262 
L 524.618182 247.894698 
L 529.690909 247.353085 
L 534.763636 246.953145 
L 539.836364 246.756601 
" clip-path="url(#pf971b738fe)" style="fill: none; stroke: #003035; stroke-width: 3; stroke-linecap: square"/>
   </g>
   <g id="line2d_6">
    <path d="M 32.563636 244.816144 
L 37.636364 244.92059 
L 42.709091 244.689103 
L 47.781818 244.167254 
L 52.854545 243.400616 
L 57.927273 242.43476 
L 63 241.315257 
L 68.072727 240.087678 
L 73.145455 238.797596 
L 78.218182 237.490581 
L 83.290909 236.212204 
L 88.363636 235.008038 
L 93.436364 233.923654 
L 98.509091 233.004623 
L 103.581818 232.296517 
L 108.654545 231.844907 
L 113.727273 231.695364 
L 118.8 231.892569 
L 123.872727 232.427757 
L 128.945455 233.209322 
L 134.018182 234.13853 
L 139.090909 235.11665 
L 144.163636 236.044948 
L 149.236364 236.824692 
L 154.309091 237.357149 
L 159.381818 237.543587 
L 164.454545 237.319186 
L 169.527273 236.754777 
L 174.6 235.955104 
L 179.672727 235.024911 
L 184.745455 234.068941 
L 189.818182 233.191939 
L 194.890909 232.498648 
L 199.963636 232.093813 
L 205.036364 232.072608 
L 210.109091 232.418953 
L 215.181818 233.044996 
L 220.254545 233.861687 
L 225.327273 234.779975 
L 230.4 235.710812 
L 235.472727 236.565146 
L 240.545455 237.253929 
L 245.618182 237.688987 
L 250.690909 237.834732 
L 255.763636 237.737085 
L 260.836364 237.448979 
L 265.909091 237.023347 
L 270.981818 236.51312 
L 276.054545 235.971232 
L 281.127273 235.450614 
L 286.2 235.0042 
L 291.272727 234.671816 
L 296.345455 234.440873 
L 301.418182 234.285673 
L 306.490909 234.180522 
L 311.563636 234.099724 
L 316.636364 234.017582 
L 321.709091 233.908402 
L 326.781818 233.746487 
L 331.854545 233.508944 
L 336.927273 233.20545 
L 342 232.866697 
L 347.072727 232.523726 
L 352.145455 232.207579 
L 357.218182 231.949298 
L 362.290909 231.779925 
L 367.363636 231.7305 
L 372.436364 231.831644 
L 377.509091 232.088593 
L 382.581818 232.467246 
L 387.654545 232.930117 
L 392.727273 233.43972 
L 397.8 233.958568 
L 402.872727 234.449176 
L 407.945455 234.874057 
L 413.018182 235.195725 
L 418.090909 235.38726 
L 423.163636 235.464008 
L 428.236364 235.451877 
L 433.309091 235.376778 
L 438.381818 235.264622 
L 443.454545 235.141318 
L 448.527273 235.032779 
L 453.6 234.964913 
L 458.672727 234.961675 
L 463.745455 235.024282 
L 468.818182 235.13928 
L 473.890909 235.292972 
L 478.963636 235.471661 
L 484.036364 235.661649 
L 489.109091 235.849238 
L 494.181818 236.020731 
L 499.254545 236.162505 
L 504.327273 236.26541 
L 509.4 236.327232 
L 514.472727 236.346351 
L 519.545455 236.32115 
L 524.618182 236.25001 
L 529.690909 236.131312 
L 534.763636 235.963438 
L 539.836364 235.744769 
" clip-path="url(#pf971b738fe)" style="fill: none; stroke: #001b43; stroke-width: 3; stroke-linecap: square"/>
   </g>
   <g id="line2d_7">
    <path d="M 32.563636 230.434752 
L 37.636364 229.754072 
L 42.709091 228.989744 
L 47.781818 228.158613 
L 52.854545 227.277527 
L 57.927273 226.363332 
L 63 225.432875 
L 68.072727 224.503002 
L 73.145455 223.590561 
L 78.218182 222.712398 
L 83.290909 221.88536 
L 88.363636 221.126294 
L 93.436364 220.452046 
L 98.509091 219.879463 
L 103.581818 219.425393 
L 108.654545 219.106681 
L 113.727273 218.940174 
L 118.8 218.942323 
L 123.872727 219.105804 
L 128.945455 219.38644 
L 134.018182 219.736886 
L 139.090909 220.109796 
L 144.163636 220.457823 
L 149.236364 220.733623 
L 154.309091 220.889849 
L 159.381818 220.879155 
L 164.454545 220.671748 
L 169.527273 220.30804 
L 174.6 219.845997 
L 179.672727 219.343585 
L 184.745455 218.858769 
L 189.818182 218.449515 
L 194.890909 218.173787 
L 199.963636 218.089551 
L 205.036364 218.248729 
L 210.109091 218.632976 
L 215.181818 219.178615 
L 220.254545 219.821216 
L 225.327273 220.496346 
L 230.4 221.139573 
L 235.472727 221.686466 
L 240.545455 222.072592 
L 245.618182 222.234245 
L 250.690909 222.151196 
L 255.763636 221.870614 
L 260.836364 221.44546 
L 265.909091 220.928699 
L 270.981818 220.373296 
L 276.054545 219.832212 
L 281.127273 219.358413 
L 286.2 219.004862 
L 291.272727 218.811095 
L 296.345455 218.762935 
L 301.418182 218.832778 
L 306.490909 218.99302 
L 311.563636 219.216056 
L 316.636364 219.474282 
L 321.709091 219.740094 
L 326.781818 219.985886 
L 331.854545 220.185467 
L 336.927273 220.329049 
L 342 220.417433 
L 347.072727 220.451592 
L 352.145455 220.432502 
L 357.218182 220.361139 
L 362.290909 220.238477 
L 367.363636 220.065493 
L 372.436364 219.843307 
L 377.509091 219.581838 
L 382.581818 219.304636 
L 387.654545 219.036427 
L 392.727273 218.801934 
L 397.8 218.625881 
L 402.872727 218.532993 
L 407.945455 218.547993 
L 413.018182 218.695606 
L 418.090909 218.988999 
L 423.163636 219.395113 
L 428.236364 219.869331 
L 433.309091 220.367037 
L 438.381818 220.843615 
L 443.454545 221.254449 
L 448.527273 221.554923 
L 453.6 221.70042 
L 458.672727 221.651233 
L 463.745455 221.424732 
L 468.818182 221.075109 
L 473.890909 220.657168 
L 478.963636 220.225714 
L 484.036364 219.835554 
L 489.109091 219.541492 
L 494.181818 219.398335 
L 499.254545 219.460104 
L 504.327273 219.733931 
L 509.4 220.15426 
L 514.472727 220.649281 
L 519.545455 221.147187 
L 524.618182 221.576168 
L 529.690909 221.864417 
L 534.763636 221.940125 
L 539.836364 221.731483 
" clip-path="url(#pf971b738fe)" style="fill: none; stroke: #000850; stroke-width: 3; stroke-linecap: square"/>
   </g>
   <g id="line2d_8">
    <path d="M 32.563636 216.053359 
L 37.636364 214.072717 
L 42.709091 212.383499 
L 47.781818 210.963667 
L 52.854545 209.791189 
L 57.927273 208.844028 
L 63 208.100149 
L 68.072727 207.537517 
L 73.145455 207.134097 
L 78.218182 206.867854 
L 83.290909 206.716752 
L 88.363636 206.658756 
L 93.436364 206.671832 
L 98.509091 206.733944 
L 103.581818 206.823056 
L 108.654545 206.917135 
L 113.727273 206.994144 
L 118.8 207.032228 
L 123.872727 207.020315 
L 128.945455 206.964048 
L 134.018182 206.870507 
L 139.090909 206.746774 
L 144.163636 206.599928 
L 149.236364 206.43705 
L 154.309091 206.265221 
L 159.381818 206.091521 
L 164.454545 205.922492 
L 169.527273 205.762522 
L 174.6 205.615463 
L 179.672727 205.485162 
L 184.745455 205.375471 
L 189.818182 205.290239 
L 194.890909 205.233316 
L 199.963636 205.208553 
L 205.036364 205.219521 
L 210.109091 205.26658 
L 215.181818 205.348011 
L 220.254545 205.462063 
L 225.327273 205.606983 
L 230.4 205.78102 
L 235.472727 205.982422 
L 240.545455 206.209437 
L 245.618182 206.460222 
L 250.690909 206.727435 
L 255.763636 206.995214 
L 260.836364 207.246965 
L 265.909091 207.466091 
L 270.981818 207.635999 
L 276.054545 207.740092 
L 281.127273 207.761777 
L 286.2 207.684457 
L 291.272727 207.500062 
L 296.345455 207.234622 
L 301.418182 206.922689 
L 306.490909 206.598818 
L 311.563636 206.297562 
L 316.636364 206.053475 
L 321.709091 205.90111 
L 326.781818 205.875022 
L 331.854545 206.00525 
L 336.927273 206.269376 
L 342 206.611136 
L 347.072727 206.973701 
L 352.145455 207.300243 
L 357.218182 207.533933 
L 362.290909 207.617942 
L 367.363636 207.495443 
L 372.436364 207.110542 
L 377.509091 206.463469 
L 382.581818 205.641443 
L 387.654545 204.739167 
L 392.727273 203.851343 
L 397.8 203.072673 
L 402.872727 202.497859 
L 407.945455 202.221605 
L 413.018182 202.338612 
L 418.090909 202.906251 
L 423.163636 203.832566 
L 428.236364 204.988269 
L 433.309091 206.244072 
L 438.381818 207.470686 
L 443.454545 208.538824 
L 448.527273 209.319197 
L 453.6 209.682518 
L 458.672727 209.513009 
L 463.745455 208.851954 
L 468.818182 207.841968 
L 473.890909 206.627353 
L 478.963636 205.352412 
L 484.036364 204.16145 
L 489.109091 203.198768 
L 494.181818 202.60867 
L 499.254545 202.533663 
L 504.327273 203.00853 
L 509.4 203.90108 
L 514.472727 205.064758 
L 519.545455 206.353009 
L 524.618182 207.619279 
L 529.690909 208.717012 
L 534.763636 209.499655 
L 539.836364 209.820653 
" clip-path="url(#pf971b738fe)" style="fill: none; stroke: #000e5e; stroke-width: 3; stroke-linecap: square"/>
   </g>
   <g id="line2d_9">
    <path d="M 32.563636 201.671966 
L 37.636364 199.201866 
L 42.709091 197.138838 
L 47.781818 195.448874 
L 52.854545 194.097964 
L 57.927273 193.052098 
L 63 192.277268 
L 68.072727 191.739463 
L 73.145455 191.404676 
L 78.218182 191.238896 
L 83.290909 191.208114 
L 88.363636 191.27832 
L 93.436364 191.415506 
L 98.509091 191.585663 
L 103.581818 191.75478 
L 108.654545 191.888848 
L 113.727273 191.953859 
L 118.8 191.91622 
L 123.872727 191.767412 
L 128.945455 191.537772 
L 134.018182 191.260982 
L 139.090909 190.970723 
L 144.163636 190.700678 
L 149.236364 190.484528 
L 154.309091 190.355953 
L 159.381818 190.348636 
L 164.454545 190.483151 
L 169.527273 190.727643 
L 174.6 191.037148 
L 179.672727 191.366704 
L 184.745455 191.671349 
L 189.818182 191.906119 
L 194.890909 192.026053 
L 199.963636 191.986187 
L 205.036364 191.747079 
L 210.109091 191.333457 
L 215.181818 190.811451 
L 220.254545 190.247881 
L 225.327273 189.709566 
L 230.4 189.263326 
L 235.472727 188.97598 
L 240.545455 188.914347 
L 245.618182 189.144281 
L 250.690909 189.673621 
L 255.763636 190.420288 
L 260.836364 191.294468 
L 265.909091 192.206346 
L 270.981818 193.066108 
L 276.054545 193.78394 
L 281.127273 194.270026 
L 286.2 194.434554 
L 291.272727 194.220075 
L 296.345455 193.69861 
L 301.418182 192.974546 
L 306.490909 192.152271 
L 311.563636 191.336172 
L 316.636364 190.630637 
L 321.709091 190.140053 
L 326.781818 189.968808 
L 331.854545 190.209863 
L 336.927273 190.823364 
L 342 191.683766 
L 347.072727 192.664097 
L 352.145455 193.637385 
L 357.218182 194.476657 
L 362.290909 195.05494 
L 367.363636 195.245264 
L 372.436364 194.922438 
L 377.509091 194.068281 
L 382.581818 192.830476 
L 387.654545 191.370971 
L 392.727273 189.851715 
L 397.8 188.434658 
L 402.872727 187.281749 
L 407.945455 186.554936 
L 413.018182 186.41617 
L 418.090909 186.969703 
L 423.163636 188.089007 
L 428.236364 189.589857 
L 433.309091 191.288029 
L 438.381818 192.999298 
L 443.454545 194.53944 
L 448.527273 195.72423 
L 453.6 196.369444 
L 458.672727 196.309378 
L 463.745455 195.59364 
L 468.818182 194.410747 
L 473.890909 192.951531 
L 478.963636 191.406824 
L 484.036364 189.967458 
L 489.109091 188.824266 
L 494.181818 188.16808 
L 499.254545 188.187298 
L 504.327273 188.924338 
L 509.4 190.195339 
L 514.472727 191.79698 
L 519.545455 193.525938 
L 524.618182 195.17889 
L 529.690909 196.552513 
L 534.763636 197.443485 
L 539.836364 197.648482 
" clip-path="url(#pf971b738fe)" style="fill: none; stroke: #00216b; stroke-width: 3; stroke-linecap: square"/>
   </g>
   <g id="line2d_10">
    <path d="M 32.563636 187.290574 
L 37.636364 184.593919 
L 42.709091 182.433652 
L 47.781818 180.757416 
L 52.854545 179.512855 
L 57.927273 178.647612 
L 63 178.109331 
L 68.072727 177.845655 
L 73.145455 177.804228 
L 78.218182 177.932693 
L 83.290909 178.178695 
L 88.363636 178.489875 
L 93.436364 178.81388 
L 98.509091 179.09835 
L 103.581818 179.290931 
L 108.654545 179.339266 
L 113.727273 179.190998 
L 118.8 178.794624 
L 123.872727 178.149812 
L 128.945455 177.335547 
L 134.018182 176.437635 
L 139.090909 175.541885 
L 144.163636 174.734103 
L 149.236364 174.100098 
L 154.309091 173.725676 
L 159.381818 173.696645 
L 164.454545 174.066133 
L 169.527273 174.756556 
L 174.6 175.657649 
L 179.672727 176.659148 
L 184.745455 177.650789 
L 189.818182 178.522307 
L 194.890909 179.16344 
L 199.963636 179.463922 
L 205.036364 179.325073 
L 210.109091 178.782877 
L 215.181818 177.960195 
L 220.254545 176.981337 
L 225.327273 175.970613 
L 230.4 175.052332 
L 235.472727 174.350806 
L 240.545455 173.990343 
L 245.618182 174.093599 
L 250.690909 174.683973 
L 255.763636 175.631012 
L 260.836364 176.79103 
L 265.909091 178.020342 
L 270.981818 179.175262 
L 276.054545 180.112103 
L 281.127273 180.687179 
L 286.2 180.756805 
L 291.272727 180.229478 
L 296.345455 179.222433 
L 301.418182 177.905085 
L 306.490909 176.446854 
L 311.563636 175.017157 
L 316.636364 173.78541 
L 321.709091 172.921032 
L 326.781818 172.593441 
L 331.854545 172.95441 
L 336.927273 173.950615 
L 342 175.396411 
L 347.072727 177.103944 
L 352.145455 178.885363 
L 357.218182 180.552817 
L 362.290909 181.918453 
L 367.363636 182.794419 
L 372.436364 182.995208 
L 377.509091 182.475937 
L 382.581818 181.409694 
L 387.654545 179.988314 
L 392.727273 178.403637 
L 397.8 176.847498 
L 402.872727 175.511736 
L 407.945455 174.588188 
L 413.018182 174.26869 
L 418.090909 174.68089 
L 423.163636 175.695677 
L 428.236364 177.119748 
L 433.309091 178.759801 
L 438.381818 180.422535 
L 443.454545 181.914647 
L 448.527273 183.042836 
L 453.6 183.6138 
L 458.672727 183.453695 
L 463.745455 182.614887 
L 468.818182 181.295679 
L 473.890909 179.696811 
L 478.963636 178.019019 
L 484.036364 176.463041 
L 489.109091 175.229615 
L 494.181818 174.519478 
L 499.254545 174.530845 
L 504.327273 175.310577 
L 509.4 176.670939 
L 514.472727 178.404013 
L 519.545455 180.301883 
L 524.618182 182.156632 
L 529.690909 183.760343 
L 534.763636 184.905099 
L 539.836364 185.382984 
" clip-path="url(#pf971b738fe)" style="fill: none; stroke: #003679; stroke-width: 3; stroke-linecap: square"/>
   </g>
   <g id="line2d_11">
    <path d="M 32.563636 172.909181 
L 37.636364 168.785925 
L 42.709091 165.575609 
L 47.781818 163.18878 
L 52.854545 161.535983 
L 57.927273 160.527767 
L 63 160.074676 
L 68.072727 160.087257 
L 73.145455 160.476057 
L 78.218182 161.151623 
L 83.290909 162.0245 
L 88.363636 163.005235 
L 93.436364 164.004375 
L 98.509091 164.932466 
L 103.581818 165.700055 
L 108.654545 166.217688 
L 113.727273 166.395911 
L 118.8 166.146637 
L 123.872727 165.463753 
L 128.945455 164.468203 
L 134.018182 163.291862 
L 139.090909 162.066604 
L 144.163636 160.924305 
L 149.236364 159.99684 
L 154.309091 159.416082 
L 159.381818 159.313907 
L 164.454545 159.774934 
L 169.527273 160.694762 
L 174.6 161.921734 
L 179.672727 163.304192 
L 184.745455 164.69048 
L 189.818182 165.92894 
L 194.890909 166.867917 
L 199.963636 167.355752 
L 205.036364 167.256272 
L 210.109091 166.61329 
L 215.181818 165.586741 
L 220.254545 164.338494 
L 225.327273 163.030418 
L 230.4 161.824383 
L 235.472727 160.88226 
L 240.545455 160.365917 
L 245.618182 160.435109 
L 250.690909 161.122632 
L 255.763636 162.264503 
L 260.836364 163.67981 
L 265.909091 165.18764 
L 270.981818 166.607081 
L 276.054545 167.757222 
L 281.127273 168.457151 
L 286.2 168.525955 
L 291.272727 167.84798 
L 296.345455 166.568599 
L 301.418182 164.89844 
L 306.490909 163.048135 
L 311.563636 161.228313 
L 316.636364 159.649603 
L 321.709091 158.522636 
L 326.781818 158.058041 
L 331.854545 158.444408 
L 336.927273 159.614102 
L 342 161.334182 
L 347.072727 163.368954 
L 352.145455 165.482721 
L 357.218182 167.43979 
L 362.290909 169.004464 
L 367.363636 169.941049 
L 372.436364 170.016865 
L 377.509091 169.18024 
L 382.581818 167.660059 
L 387.654545 165.709343 
L 392.727273 163.581111 
L 397.8 161.528383 
L 402.872727 159.804178 
L 407.945455 158.661517 
L 413.018182 158.353419 
L 418.090909 159.045546 
L 423.163636 160.55413 
L 428.236364 162.608044 
L 433.309091 164.936162 
L 438.381818 167.267357 
L 443.454545 169.330503 
L 448.527273 170.854474 
L 453.6 171.568143 
L 458.672727 171.228058 
L 463.745455 169.912489 
L 468.818182 167.907267 
L 473.890909 165.501682 
L 478.963636 162.985024 
L 484.036364 160.646585 
L 489.109091 158.775654 
L 494.181818 157.661522 
L 499.254545 157.58987 
L 504.327273 158.629854 
L 509.4 160.515015 
L 514.472727 162.950023 
L 519.545455 165.639549 
L 524.618182 168.288263 
L 529.690909 170.600835 
L 534.763636 172.281937 
L 539.836364 173.036238 
" clip-path="url(#pf971b738fe)" style="fill: none; stroke: #004a86; stroke-width: 3; stroke-linecap: square"/>
   </g>
   <g id="line2d_12">
    <path d="M 32.563636 158.527788 
L 37.636364 154.081586 
L 42.709091 150.617213 
L 47.781818 148.039008 
L 52.854545 146.251311 
L 57.927273 145.158463 
L 63 144.664802 
L 68.072727 144.674669 
L 73.145455 145.092405 
L 78.218182 145.822348 
L 83.290909 146.768838 
L 88.363636 147.836216 
L 93.436364 148.928822 
L 98.509091 149.950995 
L 103.581818 150.807075 
L 108.654545 151.401402 
L 113.727273 151.638316 
L 118.8 151.42363 
L 123.872727 150.751515 
L 128.945455 149.753099 
L 134.018182 148.571291 
L 139.090909 147.349001 
L 144.163636 146.229138 
L 149.236364 145.35461 
L 154.309091 144.868328 
L 159.381818 144.9132 
L 164.454545 145.578868 
L 169.527273 146.741898 
L 174.6 148.225591 
L 179.672727 149.853246 
L 184.745455 151.448162 
L 189.818182 152.833639 
L 194.890909 153.832976 
L 199.963636 154.269472 
L 205.036364 153.985058 
L 210.109091 153.03824 
L 215.181818 151.627251 
L 220.254545 149.952655 
L 225.327273 148.215014 
L 230.4 146.61489 
L 235.472727 145.352847 
L 240.545455 144.629447 
L 245.618182 144.642713 
L 250.690909 145.438331 
L 255.763636 146.825861 
L 260.836364 148.594551 
L 265.909091 150.533651 
L 270.981818 152.432408 
L 276.054545 154.080071 
L 281.127273 155.26589 
L 286.2 155.779111 
L 291.272727 155.479877 
L 296.345455 154.511897 
L 301.418182 153.089773 
L 306.490909 151.428107 
L 311.563636 149.741502 
L 316.636364 148.244559 
L 321.709091 147.151881 
L 326.781818 146.678069 
L 331.854545 147.01579 
L 336.927273 148.102694 
L 342 149.711905 
L 347.072727 151.613808 
L 352.145455 153.578785 
L 357.218182 155.377219 
L 362.290909 156.779494 
L 367.363636 157.555992 
L 372.436364 157.480104 
L 377.509091 156.505675 
L 382.581818 154.866255 
L 387.654545 152.819454 
L 392.727273 150.622883 
L 397.8 148.534152 
L 402.872727 146.810872 
L 407.945455 145.710652 
L 413.018182 145.491104 
L 418.090909 146.317985 
L 423.163636 147.989643 
L 428.236364 150.212574 
L 433.309091 152.693273 
L 438.381818 155.138238 
L 443.454545 157.253962 
L 448.527273 158.746943 
L 453.6 159.323675 
L 458.672727 158.721489 
L 463.745455 157.036159 
L 468.818182 154.594715 
L 473.890909 151.728043 
L 478.963636 148.767026 
L 484.036364 146.042548 
L 489.109091 143.885493 
L 494.181818 142.626747 
L 499.254545 142.593015 
L 504.327273 143.860362 
L 509.4 146.116354 
L 514.472727 149.015138 
L 519.545455 152.210861 
L 524.618182 155.357671 
L 529.690909 158.109715 
L 534.763636 160.121139 
L 539.836364 161.046092 
" clip-path="url(#pf971b738fe)" style="fill: none; stroke: #005e94; stroke-width: 3; stroke-linecap: square"/>
   </g>
   <g id="line2d_13">
    <path d="M 32.563636 144.146396 
L 37.636364 138.573395 
L 42.709091 134.308472 
L 47.781818 131.222943 
L 52.854545 129.188126 
L 57.927273 128.075341 
L 63 127.755905 
L 68.072727 128.101137 
L 73.145455 128.982354 
L 78.218182 130.270875 
L 83.290909 131.838019 
L 88.363636 133.555102 
L 93.436364 135.293444 
L 98.509091 136.924363 
L 103.581818 138.319177 
L 108.654545 139.349203 
L 113.727273 139.885761 
L 118.8 139.802094 
L 123.872727 139.08697 
L 128.945455 137.908217 
L 134.018182 136.449069 
L 139.090909 134.892758 
L 144.163636 133.422518 
L 149.236364 132.221581 
L 154.309091 131.473179 
L 159.381818 131.360546 
L 164.454545 132.001349 
L 169.527273 133.250994 
L 174.6 134.899324 
L 179.672727 136.73618 
L 184.745455 138.551403 
L 189.818182 140.134834 
L 194.890909 141.276317 
L 199.963636 141.765691 
L 205.036364 141.414865 
L 210.109091 140.292275 
L 215.181818 138.631859 
L 220.254545 136.670312 
L 225.327273 134.64433 
L 230.4 132.790609 
L 235.472727 131.345843 
L 240.545455 130.54673 
L 245.618182 130.62689 
L 250.690909 131.635483 
L 255.763636 133.335748 
L 260.836364 135.466334 
L 265.909091 137.765886 
L 270.981818 139.973051 
L 276.054545 141.826476 
L 281.127273 143.064806 
L 286.2 143.426689 
L 291.272727 142.741794 
L 296.345455 141.203881 
L 301.418182 139.097733 
L 306.490909 136.708134 
L 311.563636 134.319866 
L 316.636364 132.217714 
L 321.709091 130.686459 
L 326.781818 130.010885 
L 331.854545 130.446454 
L 336.927273 131.907759 
L 342 134.089482 
L 347.072727 136.682637 
L 352.145455 139.37824 
L 357.218182 141.867306 
L 362.290909 143.840849 
L 367.363636 144.989885 
L 372.436364 145.009391 
L 377.509091 143.832014 
L 382.581818 141.758795 
L 387.654545 139.122465 
L 392.727273 136.255753 
L 397.8 133.491388 
L 402.872727 131.162102 
L 407.945455 129.600624 
L 413.018182 129.139684 
L 418.090909 129.998169 
L 423.163636 131.939594 
L 428.236364 134.613632 
L 433.309091 137.669955 
L 438.381818 140.758235 
L 443.454545 143.528145 
L 448.527273 145.629357 
L 453.6 146.711543 
L 458.672727 146.459622 
L 463.745455 144.96825 
L 468.818182 142.596431 
L 473.890909 139.707572 
L 478.963636 136.665085 
L 484.036364 133.832377 
L 489.109091 131.572857 
L 494.181818 130.249935 
L 499.254545 130.222428 
L 504.327273 131.573665 
L 509.4 133.959967 
L 514.472727 137.000925 
L 519.545455 140.316128 
L 524.618182 143.525165 
L 529.690909 146.247628 
L 534.763636 148.103104 
L 539.836364 148.711184 
" clip-path="url(#pf971b738fe)" style="fill: none; stroke: #0072a1; stroke-width: 3; stroke-linecap: square"/>
   </g>
   <g id="line2d_14">
    <path d="M 32.563636 129.765003 
L 37.636364 123.076445 
L 42.709091 118.019039 
L 47.781818 114.429474 
L 52.854545 112.144438 
L 57.927273 111.000618 
L 63 110.834703 
L 68.072727 111.483381 
L 73.145455 112.783339 
L 78.218182 114.571266 
L 83.290909 116.683849 
L 88.363636 118.957777 
L 93.436364 121.229737 
L 98.509091 123.336417 
L 103.581818 125.114506 
L 108.654545 126.400691 
L 113.727273 127.03166 
L 118.8 126.846608 
L 123.872727 125.835124 
L 128.945455 124.219909 
L 134.018182 122.243717 
L 139.090909 120.149302 
L 144.163636 118.179417 
L 149.236364 116.576817 
L 154.309091 115.584255 
L 159.381818 115.444484 
L 164.454545 116.312089 
L 169.527273 117.98897 
L 174.6 120.188858 
L 179.672727 122.625484 
L 184.745455 125.012578 
L 189.818182 127.063871 
L 194.890909 128.493094 
L 199.963636 129.013977 
L 205.036364 128.370712 
L 210.109091 126.6616 
L 215.181818 124.2134 
L 220.254545 121.356678 
L 225.327273 118.422002 
L 230.4 115.739937 
L 235.472727 113.64105 
L 240.545455 112.455907 
L 245.618182 112.510803 
L 250.690909 113.875662 
L 255.763636 116.223037 
L 260.836364 119.191299 
L 265.909091 122.418819 
L 270.981818 125.543968 
L 276.054545 128.205117 
L 281.127273 130.040635 
L 286.2 130.688895 
L 291.272727 129.911578 
L 296.345455 127.96361 
L 301.418182 125.223228 
L 306.490909 122.06867 
L 311.563636 118.878173 
L 316.636364 116.029973 
L 321.709091 113.902309 
L 326.781818 112.873418 
L 331.854545 113.283934 
L 336.927273 115.037364 
L 342 117.755199 
L 347.072727 121.054227 
L 352.145455 124.551237 
L 357.218182 127.863019 
L 362.290909 130.606362 
L 367.363636 132.398055 
L 372.436364 132.859598 
L 377.509091 131.895174 
L 382.581818 129.847122 
L 387.654545 127.09547 
L 392.727273 124.020248 
L 397.8 121.001485 
L 402.872727 118.419212 
L 407.945455 116.653456 
L 413.018182 116.084249 
L 418.090909 116.964061 
L 423.163636 119.035136 
L 428.236364 121.912159 
L 433.309091 125.209814 
L 438.381818 128.542788 
L 443.454545 131.525766 
L 448.527273 133.773432 
L 453.6 134.900473 
L 458.672727 134.56034 
L 463.745455 132.857153 
L 468.818182 130.185783 
L 473.890909 126.94595 
L 478.963636 123.53737 
L 484.036364 120.359762 
L 489.109091 117.812844 
L 494.181818 116.296334 
L 499.254545 116.204942 
L 504.327273 117.632966 
L 509.4 120.209059 
L 514.472727 123.521818 
L 519.545455 127.159843 
L 524.618182 130.711732 
L 529.690909 133.766082 
L 534.763636 135.911493 
L 539.836364 136.736561 
" clip-path="url(#pf971b738fe)" style="fill: none; stroke: #0f87af; stroke-width: 3; stroke-linecap: square"/>
   </g>
   <g id="line2d_15">
    <path d="M 32.563636 115.38361 
L 37.636364 109.479987 
L 42.709091 105.074448 
L 47.781818 102.012392 
L 52.854545 100.139215 
L 57.927273 99.300314 
L 63 99.341086 
L 68.072727 100.106929 
L 73.145455 101.443239 
L 78.218182 103.195414 
L 83.290909 105.20885 
L 88.363636 107.328944 
L 93.436364 109.401094 
L 98.509091 111.270697 
L 103.581818 112.783149 
L 108.654545 113.783848 
L 113.727273 114.11819 
L 118.8 113.634075 
L 123.872727 112.329509 
L 128.945455 110.435166 
L 134.018182 108.201733 
L 139.090909 105.879898 
L 144.163636 103.720349 
L 149.236364 101.973773 
L 154.309091 100.890859 
L 159.381818 100.722295 
L 164.454545 101.628271 
L 169.527273 103.406996 
L 174.6 105.766179 
L 179.672727 108.413532 
L 184.745455 111.056766 
L 189.818182 113.403591 
L 194.890909 115.161718 
L 199.963636 116.038858 
L 205.036364 115.772662 
L 210.109091 114.448834 
L 215.181818 112.377627 
L 220.254545 109.873039 
L 225.327273 107.249067 
L 230.4 104.819706 
L 235.472727 102.898954 
L 240.545455 101.800807 
L 245.618182 101.835252 
L 250.690909 103.071704 
L 255.763636 105.206687 
L 260.836364 107.904652 
L 265.909091 110.830047 
L 270.981818 113.647323 
L 276.054545 116.020927 
L 281.127273 117.61531 
L 286.2 118.09492 
L 291.272727 117.240505 
L 296.345455 115.297999 
L 301.418182 112.629635 
L 306.490909 109.597644 
L 311.563636 106.56426 
L 316.636364 103.891713 
L 321.709091 101.942237 
L 326.781818 101.078064 
L 331.854545 101.624648 
L 336.927273 103.479893 
L 342 106.265866 
L 347.072727 109.600036 
L 352.145455 113.099872 
L 357.218182 116.382845 
L 362.290909 119.066422 
L 367.363636 120.768074 
L 372.436364 121.110014 
L 377.509091 119.999098 
L 382.581818 117.783382 
L 387.654545 114.848871 
L 392.727273 111.581574 
L 397.8 108.367497 
L 402.872727 105.592646 
L 407.945455 103.64303 
L 413.018182 102.904654 
L 418.090909 103.635825 
L 423.163636 105.584041 
L 428.236364 108.369102 
L 433.309091 111.610804 
L 438.381818 114.928946 
L 443.454545 117.943326 
L 448.527273 120.273742 
L 453.6 121.539991 
L 458.672727 121.399335 
L 463.745455 119.944522 
L 468.818182 117.549265 
L 473.890909 114.59196 
L 478.963636 111.451001 
L 484.036364 108.504783 
L 489.109091 106.131701 
L 494.181818 104.710151 
L 499.254545 104.613799 
L 504.327273 105.93268 
L 509.4 108.317197 
L 514.472727 111.379932 
L 519.545455 114.73347 
L 524.618182 117.990396 
L 529.690909 120.763293 
L 534.763636 122.664745 
L 539.836364 123.307337 
" clip-path="url(#pf971b738fe)" style="fill: none; stroke: #369bbc; stroke-width: 3; stroke-linecap: square"/>
   </g>
   <g id="line2d_16">
    <path d="M 32.563636 101.002218 
L 37.636364 94.013261 
L 42.709091 88.810893 
L 47.781818 85.212368 
L 52.854545 83.034941 
L 57.927273 82.095865 
L 63 82.212395 
L 68.072727 83.201785 
L 73.145455 84.881289 
L 78.218182 87.068161 
L 83.290909 89.579656 
L 88.363636 92.233027 
L 93.436364 94.845529 
L 98.509091 97.234416 
L 103.581818 99.216942 
L 108.654545 100.610362 
L 113.727273 101.231929 
L 118.8 100.901773 
L 123.872727 99.61249 
L 128.945455 97.624004 
L 134.018182 95.219237 
L 139.090909 92.681107 
L 144.163636 90.292535 
L 149.236364 88.336441 
L 154.309091 87.095745 
L 159.381818 86.853366 
L 164.454545 87.792075 
L 169.527273 89.694043 
L 174.6 92.241291 
L 179.672727 95.115841 
L 184.745455 97.999715 
L 189.818182 100.574932 
L 194.890909 102.523516 
L 199.963636 103.527486 
L 205.036364 103.301073 
L 210.109091 101.932924 
L 215.181818 99.753243 
L 220.254545 97.096265 
L 225.327273 94.296221 
L 230.4 91.687343 
L 235.472727 89.603865 
L 240.545455 88.380017 
L 245.618182 88.345808 
L 250.690909 89.57768 
L 255.763636 91.759057 
L 260.836364 94.539555 
L 265.909091 97.568788 
L 270.981818 100.496371 
L 276.054545 102.97192 
L 281.127273 104.645049 
L 286.2 105.165374 
L 291.272727 104.303312 
L 296.345455 102.312495 
L 301.418182 99.567359 
L 306.490909 96.442339 
L 311.563636 93.311869 
L 316.636364 90.550383 
L 321.709091 88.532319 
L 326.781818 87.632109 
L 331.854545 88.185975 
L 336.927273 90.085888 
L 342 92.937209 
L 347.072727 96.340521 
L 352.145455 99.896409 
L 357.218182 103.205456 
L 362.290909 105.868244 
L 367.363636 107.485359 
L 372.436364 107.662436 
L 377.509091 106.308233 
L 382.581818 103.801349 
L 387.654545 100.560798 
L 392.727273 97.005595 
L 397.8 93.554755 
L 402.872727 90.627294 
L 407.945455 88.642225 
L 413.018182 88.018565 
L 418.090909 89.033541 
L 423.163636 91.397244 
L 428.236364 94.677975 
L 433.309091 98.444039 
L 438.381818 102.263738 
L 443.454545 105.705376 
L 448.527273 108.337256 
L 453.6 109.727681 
L 458.672727 109.488137 
L 463.745455 107.732109 
L 468.818182 104.896952 
L 473.890909 101.425419 
L 478.963636 97.760262 
L 484.036364 94.344235 
L 489.109091 91.620091 
L 494.181818 90.030582 
L 499.254545 90.012921 
L 504.327273 91.671818 
L 509.4 94.596614 
L 514.472727 98.332314 
L 519.545455 102.423925 
L 524.618182 106.416453 
L 529.690909 109.854903 
L 534.763636 112.284282 
L 539.836364 113.249596 
" clip-path="url(#pf971b738fe)" style="fill: none; stroke: #60b0ca; stroke-width: 3; stroke-linecap: square"/>
   </g>
   <g id="line2d_17">
    <path d="M 32.563636 86.620825 
L 37.636364 79.910126 
L 42.709091 74.950988 
L 47.781818 71.563039 
L 52.854545 69.565904 
L 57.927273 68.779211 
L 63 69.022584 
L 68.072727 70.11565 
L 73.145455 71.878037 
L 78.218182 74.129369 
L 83.290909 76.689273 
L 88.363636 79.377376 
L 93.436364 82.013304 
L 98.509091 84.416682 
L 103.581818 86.407138 
L 108.654545 87.804298 
L 113.727273 88.427787 
L 118.8 88.100093 
L 123.872727 86.815307 
L 128.945455 84.833511 
L 134.018182 82.437668 
L 139.090909 79.91074 
L 144.163636 77.535689 
L 149.236364 75.595478 
L 154.309091 74.373068 
L 159.381818 74.151424 
L 164.454545 75.112786 
L 169.527273 77.036516 
L 174.6 79.601256 
L 179.672727 82.485647 
L 184.745455 85.36833 
L 189.818182 87.927947 
L 194.890909 89.843139 
L 199.963636 90.792547 
L 205.036364 90.487781 
L 210.109091 89.023704 
L 215.181818 86.742439 
L 220.254545 83.990231 
L 225.327273 81.113324 
L 230.4 78.457963 
L 235.472727 76.370392 
L 240.545455 75.196855 
L 245.618182 75.279163 
L 250.690909 76.693 
L 255.763636 79.101564 
L 260.836364 82.132567 
L 265.909091 85.413722 
L 270.981818 88.572742 
L 276.054545 91.237341 
L 281.127273 93.035231 
L 286.2 93.594125 
L 291.272727 92.670462 
L 296.345455 90.53558 
L 301.418182 87.589544 
L 306.490909 84.232417 
L 311.563636 80.864264 
L 316.636364 77.885148 
L 321.709091 75.695134 
L 326.781818 74.694285 
L 331.854545 75.242044 
L 336.927273 77.225624 
L 342 80.22757 
L 347.072727 83.825355 
L 352.145455 87.596446 
L 357.218182 91.118316 
L 362.290909 93.968432 
L 367.363636 95.724266 
L 372.436364 95.968553 
L 377.509091 94.599913 
L 382.581818 92.006592 
L 387.654545 88.618954 
L 392.727273 84.867363 
L 397.8 81.182183 
L 402.872727 77.993778 
L 407.945455 75.732512 
L 413.018182 74.828748 
L 418.090909 75.571041 
L 423.163636 77.680705 
L 428.236364 80.737246 
L 433.309091 84.320167 
L 438.381818 88.008974 
L 443.454545 91.383172 
L 448.527273 94.022265 
L 453.6 95.505758 
L 458.672727 95.454123 
L 463.745455 93.964066 
L 468.818182 91.439541 
L 473.890909 88.289625 
L 478.963636 84.923393 
L 484.036364 81.74992 
L 489.109091 79.178283 
L 494.181818 77.617557 
L 499.254545 77.471775 
L 504.327273 78.842451 
L 509.4 81.362195 
L 514.472727 84.623279 
L 519.545455 88.217975 
L 524.618182 91.738556 
L 529.690909 94.777294 
L 534.763636 96.926463 
L 539.836364 97.778335 
" clip-path="url(#pf971b738fe)" style="fill: none; stroke: #87c3d7; stroke-width: 3; stroke-linecap: square"/>
   </g>
   <g id="line2d_18">
    <path d="M 32.563636 72.239432 
L 37.636364 65.808857 
L 42.709091 61.109776 
L 47.781818 57.960744 
L 52.854545 56.180312 
L 57.927273 55.587034 
L 63 55.999463 
L 68.072727 57.236151 
L 73.145455 59.115652 
L 78.218182 61.456518 
L 83.290909 64.077303 
L 88.363636 66.796558 
L 93.436364 69.432839 
L 98.509091 71.804696 
L 103.581818 73.730683 
L 108.654545 75.029353 
L 113.727273 75.51926 
L 118.8 75.021928 
L 123.872727 73.537262 
L 128.945455 71.341653 
L 134.018182 68.735275 
L 139.090909 66.018302 
L 144.163636 63.49091 
L 149.236364 61.453272 
L 154.309091 60.205562 
L 159.381818 60.047955 
L 164.454545 61.171458 
L 169.527273 63.330401 
L 174.6 66.169947 
L 179.672727 69.33526 
L 184.745455 72.471503 
L 189.818182 75.223838 
L 194.890909 77.237429 
L 199.963636 78.157439 
L 205.036364 77.665886 
L 210.109091 75.87325 
L 215.181818 73.166429 
L 220.254545 69.936935 
L 225.327273 66.576274 
L 230.4 63.475955 
L 235.472727 61.027487 
L 240.545455 59.622378 
L 245.618182 59.64716 
L 250.690909 61.189765 
L 255.763636 63.875292 
L 260.836364 67.289027 
L 265.909091 71.016259 
L 270.981818 74.642272 
L 276.054545 77.752355 
L 281.127273 79.931793 
L 286.2 80.765874 
L 291.272727 79.979754 
L 296.345455 77.858073 
L 301.418182 74.825341 
L 306.490909 71.306067 
L 311.563636 67.724762 
L 316.636364 64.505936 
L 321.709091 62.074098 
L 326.781818 60.853759 
L 331.854545 61.227465 
L 336.927273 63.089949 
L 342 66.02122 
L 347.072727 69.596046 
L 352.145455 73.389192 
L 357.218182 76.975425 
L 362.290909 79.92951 
L 367.363636 81.826214 
L 372.436364 82.245538 
L 377.509091 81.081615 
L 382.581818 78.715486 
L 387.654545 75.570071 
L 392.727273 72.068296 
L 397.8 68.633083 
L 402.872727 65.687355 
L 407.945455 63.654035 
L 413.018182 62.956047 
L 418.090909 63.875208 
L 423.163636 66.128917 
L 428.236364 69.293467 
L 433.309091 72.945152 
L 438.381818 76.660265 
L 443.454545 80.015101 
L 448.527273 82.585951 
L 453.6 83.949111 
L 458.672727 83.722786 
L 463.745455 82.012433 
L 468.818182 79.237859 
L 473.890909 75.824112 
L 478.963636 72.19624 
L 484.036364 68.77929 
L 489.109091 65.99831 
L 494.181818 64.278347 
L 499.254545 64.039246 
L 504.327273 65.388661 
L 509.4 67.950348 
L 514.472727 71.30644 
L 519.545455 75.039067 
L 524.618182 78.730363 
L 529.690909 81.962458 
L 534.763636 84.317484 
L 539.836364 85.377574 
" clip-path="url(#pf971b738fe)" style="fill: none; stroke: #b1d8e5; stroke-width: 3; stroke-linecap: square"/>
   </g>
   <g id="line2d_19">
    <path d="M 32.563636 57.85804 
L 37.636364 50.332154 
L 42.709091 44.850145 
L 47.781818 41.19813 
L 52.854545 39.162224 
L 57.927273 38.528544 
L 63 39.083207 
L 68.072727 40.61233 
L 73.145455 42.902027 
L 78.218182 45.738417 
L 83.290909 48.907615 
L 88.363636 52.195738 
L 93.436364 55.388903 
L 98.509091 58.273225 
L 103.581818 60.634821 
L 108.654545 62.259808 
L 113.727273 62.934302 
L 118.8 62.447857 
L 123.872727 60.796271 
L 128.945455 58.295021 
L 134.018182 55.287082 
L 139.090909 52.115431 
L 144.163636 49.123042 
L 149.236364 46.652892 
L 154.309091 45.047958 
L 159.381818 44.651214 
L 164.454545 45.685165 
L 169.527273 47.890434 
L 174.6 50.887172 
L 179.672727 54.29553 
L 184.745455 57.73566 
L 189.818182 60.827712 
L 194.890909 63.191838 
L 199.963636 64.448189 
L 205.036364 64.25517 
L 210.109091 62.715881 
L 215.181818 60.220323 
L 220.254545 57.163279 
L 225.327273 53.939532 
L 230.4 50.943864 
L 235.472727 48.571058 
L 240.545455 47.215897 
L 245.618182 47.268163 
L 250.690909 48.817655 
L 255.763636 51.489193 
L 260.836364 54.8676 
L 265.909091 58.537698 
L 270.981818 62.08431 
L 276.054545 65.092259 
L 281.127273 67.146366 
L 286.2 67.831456 
L 291.272727 66.874091 
L 296.345455 64.567806 
L 301.418182 61.347874 
L 306.490909 57.64957 
L 311.563636 53.90817 
L 316.636364 50.558946 
L 321.709091 48.037174 
L 326.781818 46.778129 
L 331.854545 47.174002 
L 336.927273 49.116149 
L 342 52.172803 
L 347.072727 55.906813 
L 352.145455 59.881029 
L 357.218182 63.658299 
L 362.290909 66.801473 
L 367.363636 68.873399 
L 372.436364 69.442223 
L 377.509091 68.3939 
L 382.581818 66.106991 
L 387.654545 63.002429 
L 392.727273 59.501149 
L 397.8 56.024086 
L 402.872727 52.992174 
L 407.945455 50.826348 
L 413.018182 49.947541 
L 418.090909 50.639804 
L 423.163636 52.639647 
L 428.236364 55.546694 
L 433.309091 58.960571 
L 438.381818 62.480903 
L 443.454545 65.707315 
L 448.527273 68.239432 
L 453.6 69.676879 
L 458.672727 69.657934 
L 463.745455 68.27021 
L 468.818182 65.891212 
L 473.890909 62.903279 
L 478.963636 59.688748 
L 484.036364 56.629957 
L 489.109091 54.109243 
L 494.181818 52.508945 
L 499.254545 52.206786 
L 504.327273 53.303683 
L 509.4 55.471497 
L 514.472727 58.345183 
L 519.545455 61.559695 
L 524.618182 64.749988 
L 529.690909 67.551016 
L 534.763636 69.597734 
L 539.836364 70.525096 
" clip-path="url(#pf971b738fe)" style="fill: none; stroke: #d8ebf2; stroke-width: 3; stroke-linecap: square"/>
   </g>
   <g id="line2d_20">
    <path d="M 32.563636 43.476647 
L 37.636364 35.227749 
L 42.709091 29.222015 
L 47.781818 25.225066 
L 52.854545 23.00252 
L 57.927273 22.32 
L 63 22.943124 
L 68.072727 24.637514 
L 73.145455 27.168788 
L 78.218182 30.302568 
L 83.290909 33.804473 
L 88.363636 37.440124 
L 93.436364 40.975141 
L 98.509091 44.175143 
L 103.581818 46.805752 
L 108.654545 48.632587 
L 113.727273 49.421268 
L 118.8 48.941154 
L 123.872727 47.185901 
L 128.945455 44.496827 
L 134.018182 41.245154 
L 139.090909 37.802108 
L 144.163636 34.53891 
L 149.236364 31.826786 
L 154.309091 30.036959 
L 159.381818 29.540652 
L 164.454545 30.579879 
L 169.527273 32.87981 
L 174.6 36.036405 
L 179.672727 39.645624 
L 184.745455 43.303426 
L 189.818182 46.605772 
L 194.890909 49.148621 
L 199.963636 50.527933 
L 205.036364 50.379949 
L 210.109091 48.809179 
L 215.181818 46.222241 
L 220.254545 43.030787 
L 225.327273 39.646471 
L 230.4 36.480946 
L 235.472727 33.945866 
L 240.545455 32.452884 
L 245.618182 32.408543 
L 250.690909 33.912803 
L 255.763636 36.590419 
L 260.836364 40.02527 
L 265.909091 43.801232 
L 270.981818 47.502184 
L 276.054545 50.712002 
L 281.127273 53.014565 
L 286.2 53.993751 
L 291.272727 53.37157 
L 296.345455 51.42257 
L 301.418182 48.559434 
L 306.490909 45.194843 
L 311.563636 41.741478 
L 316.636364 38.612022 
L 321.709091 36.219156 
L 326.781818 34.975563 
L 331.854545 35.253413 
L 336.927273 36.953959 
L 342 39.674631 
L 347.072727 43.007796 
L 352.145455 46.545823 
L 357.218182 49.881077 
L 362.290909 52.605927 
L 367.363636 54.312739 
L 372.436364 54.598963 
L 377.509091 53.366963 
L 382.581818 50.991724 
L 387.654545 47.888883 
L 392.727273 44.47408 
L 397.8 41.162955 
L 402.872727 38.371145 
L 407.945455 36.514291 
L 413.018182 36.008031 
L 418.090909 37.128142 
L 423.163636 39.590948 
L 428.236364 42.972913 
L 433.309091 46.850499 
L 438.381818 50.800169 
L 443.454545 54.398386 
L 448.527273 57.221611 
L 453.6 58.846309 
L 458.672727 58.890235 
L 463.745455 57.451195 
L 468.818182 54.936701 
L 473.890909 51.759427 
L 478.963636 48.332047 
L 484.036364 45.067238 
L 489.109091 42.377671 
L 494.181818 40.676023 
L 499.254545 40.370005 
L 504.327273 41.569601 
L 509.4 43.923317 
L 514.472727 47.039961 
L 519.545455 50.52834 
L 524.618182 53.997264 
L 529.690909 57.05554 
L 534.763636 59.311977 
L 539.836364 60.375382 
" clip-path="url(#pf971b738fe)" style="fill: none; stroke: #ffffff; stroke-width: 3; stroke-linecap: square"/>
   </g>
  </g>
 </g>
 <defs>
  <clipPath id="pf971b738fe">
   <rect x="7.2" y="7.2" width="558" height="332.64"/>
  </clipPath>
 </defs>
</svg>
