<svg xmlns="http://www.w3.org/2000/svg" width="1000" height="1000">
    <!-- background -->
    <!-- <polygon points="158.18181818181824,158.18181818181824 567.2727272727273,158.18181818181824 834,340, 834,834 340,834 158.18181818181824,567.2727272727273" fill="#aaa" fill-opacity="0.5"/> -->

    <!-- yz-faces -->
    <polygon points="158.18181818181824,158.18181818181824 340,340 340,834 158.18181818181824,567.2727272727273" fill="#f09228" fill-opacity="0.75"/>
    <polygon points="362.72727272727263,158.18181818181824 590,340 590,834 362.72727272727263,567.2727272727273" fill="#f09228" fill-opacity="0.5"/>
    <polygon points="567.2727272727273,158.18181818181824 834,340 834,834 567.2727272727273,567.2727272727273" fill="#f09228" fill-opacity="0.75"/>
    <!-- xy-faces -->
    <polygon points="158.18181818181824,158.18181818181824 567.2727272727273,158.18181818181824 567.2727272727273,567.2727272727273 158.18181818181824,567.2727272727273" fill="#1772d0" fill-opacity="0.5"/>
    <polygon points="240,240 690,240 690,690 240,690" fill="#1772d0" fill-opacity="0.5"/>    
    <polygon points="340,340 834,340 834,834 340,834" fill="#1772d0" fill-opacity="0.5"/>
    <!-- xz-faces -->
    <polygon points="158.18181818181824,158.18181818181824 567.2727272727273,158.18181818181824 834,340 340,340" fill-opacity="0.2"/>
    <polygon points="158.18181818181824,362.72727272727263 567.2727272727273,362.72727272727263 834,590 340,590" fill-opacity="0.2"/>
    <polygon points="158.18181818181824,567.2727272727273 567.2727272727273,567.2727272727273 834,834 340,834" fill-opacity="0.2"/>
</svg>