
<svg xmlns="http://www.w3.org/2000/svg" width="90" height="90">
    <line x1="52" y1="52" x2="26.999999999999986" y2="52" stroke="#1772d0" stroke-width="1.5"></line>
    <line x1="52" y1="52" x2="52" y2="26.999999999999986" stroke="#1772d0" stroke-width="1.5"></line>
    <line x1="52" y1="52" x2="67" y2="67" stroke="#1772d0" stroke-width="1.5"></line>
    <line x1="67" y1="67" x2="39.5" y2="67" stroke="#1772d0" stroke-width="1.5"></line>
    <line x1="67" y1="67" x2="67" y2="39.5" stroke="#1772d0" stroke-width="1.5"></line>
    <line x1="67" y1="67" x2="85.33333333333331" y2="85.33333333333331" stroke="#1772d0" stroke-width="1.5"></line>
    <line x1="85.33333333333331" y1="85.33333333333331" x2="54.77777777777777" y2="85.33333333333331" stroke="#1772d0" stroke-width="1.5"></line>
    <line x1="85.33333333333331" y1="85.33333333333331" x2="85.33333333333331" y2="54.77777777777777" stroke="#1772d0" stroke-width="1.5"></line>
    <line x1="52" y1="26.999999999999986" x2="26.999999999999986" y2="26.999999999999986" stroke="#1772d0" stroke-width="1.5"></line>
    <line x1="52" y1="26.999999999999986" x2="52" y2="2.000000000000014" stroke="#1772d0" stroke-width="1.5"></line>
    <line x1="52" y1="26.999999999999986" x2="67" y2="39.5" stroke="#1772d0" stroke-width="1.5"></line>
    <line x1="67" y1="39.5" x2="39.5" y2="39.5" stroke="#1772d0" stroke-width="1.5"></line>
    <line x1="67" y1="39.5" x2="67" y2="12" stroke="#1772d0" stroke-width="1.5"></line>
    <line x1="67" y1="39.5" x2="85.33333333333331" y2="54.77777777777777" stroke="#1772d0" stroke-width="1.5"></line>
    <line x1="85.33333333333331" y1="54.77777777777777" x2="54.77777777777777" y2="54.77777777777777" stroke="#1772d0" stroke-width="1.5"></line>
    <line x1="85.33333333333331" y1="54.77777777777777" x2="85.33333333333331" y2="24.22222222222223" stroke="#1772d0" stroke-width="1.5"></line>
    <line x1="52" y1="2.000000000000014" x2="26.999999999999986" y2="2.000000000000014" stroke="#1772d0" stroke-width="1.5"></line>
    <line x1="52" y1="2.000000000000014" x2="67" y2="12" stroke="#1772d0" stroke-width="1.5"></line>
    <line x1="67" y1="12" x2="39.5" y2="12" stroke="#1772d0" stroke-width="1.5"></line>
    <line x1="67" y1="12" x2="85.33333333333331" y2="24.22222222222223" stroke="#1772d0" stroke-width="1.5"></line>
    <line x1="85.33333333333331" y1="24.22222222222223" x2="54.77777777777777" y2="24.22222222222223" stroke="#1772d0" stroke-width="1.5"></line>
    <line x1="26.999999999999986" y1="52" x2="2.000000000000014" y2="52" stroke="#1772d0" stroke-width="1.5"></line>
    <line x1="26.999999999999986" y1="52" x2="26.999999999999986" y2="26.999999999999986" stroke="#1772d0" stroke-width="1.5"></line>
    <line x1="26.999999999999986" y1="52" x2="39.5" y2="67" stroke="#1772d0" stroke-width="1.5"></line>
    <line x1="39.5" y1="67" x2="12" y2="67" stroke="#1772d0" stroke-width="1.5"></line>
    <line x1="39.5" y1="67" x2="39.5" y2="39.5" stroke="#1772d0" stroke-width="1.5"></line>
    <line x1="39.5" y1="67" x2="54.77777777777777" y2="85.33333333333331" stroke="#1772d0" stroke-width="1.5"></line>
    <line x1="54.77777777777777" y1="85.33333333333331" x2="24.22222222222223" y2="85.33333333333331" stroke="#1772d0" stroke-width="1.5"></line>
    <line x1="54.77777777777777" y1="85.33333333333331" x2="54.77777777777777" y2="54.77777777777777" stroke="#1772d0" stroke-width="1.5"></line>
    <line x1="26.999999999999986" y1="26.999999999999986" x2="2.000000000000014" y2="26.999999999999986" stroke="#1772d0" stroke-width="1.5"></line>
    <line x1="26.999999999999986" y1="26.999999999999986" x2="26.999999999999986" y2="2.000000000000014" stroke="#1772d0" stroke-width="1.5"></line>
    <line x1="26.999999999999986" y1="26.999999999999986" x2="39.5" y2="39.5" stroke="#1772d0" stroke-width="1.5"></line>
    <line x1="39.5" y1="39.5" x2="12" y2="39.5" stroke="#1772d0" stroke-width="1.5"></line>
    <line x1="39.5" y1="39.5" x2="39.5" y2="12" stroke="#1772d0" stroke-width="1.5"></line>
    <line x1="39.5" y1="39.5" x2="54.77777777777777" y2="54.77777777777777" stroke="#1772d0" stroke-width="1.5"></line>
    <line x1="54.77777777777777" y1="54.77777777777777" x2="24.22222222222223" y2="54.77777777777777" stroke="#1772d0" stroke-width="1.5"></line>
    <line x1="54.77777777777777" y1="54.77777777777777" x2="54.77777777777777" y2="24.22222222222223" stroke="#1772d0" stroke-width="1.5"></line>
    <line x1="26.999999999999986" y1="2.000000000000014" x2="2.000000000000014" y2="2.000000000000014" stroke="#1772d0" stroke-width="1.5"></line>
    <line x1="26.999999999999986" y1="2.000000000000014" x2="39.5" y2="12" stroke="#1772d0" stroke-width="1.5"></line>
    <line x1="39.5" y1="12" x2="12" y2="12" stroke="#1772d0" stroke-width="1.5"></line>
    <line x1="39.5" y1="12" x2="54.77777777777777" y2="24.22222222222223" stroke="#1772d0" stroke-width="1.5"></line>
    <line x1="54.77777777777777" y1="24.22222222222223" x2="24.22222222222223" y2="24.22222222222223" stroke="#1772d0" stroke-width="1.5"></line>
    <line x1="2.000000000000014" y1="52" x2="2.000000000000014" y2="26.999999999999986" stroke="#1772d0" stroke-width="1.5"></line>
    <line x1="2.000000000000014" y1="52" x2="12" y2="67" stroke="#1772d0" stroke-width="1.5"></line>
    <line x1="12" y1="67" x2="12" y2="39.5" stroke="#1772d0" stroke-width="1.5"></line>
    <line x1="12" y1="67" x2="24.22222222222223" y2="85.33333333333331" stroke="#1772d0" stroke-width="1.5"></line>
    <line x1="24.22222222222223" y1="85.33333333333331" x2="24.22222222222223" y2="54.77777777777777" stroke="#1772d0" stroke-width="1.5"></line>
    <line x1="2.000000000000014" y1="26.999999999999986" x2="2.000000000000014" y2="2.000000000000014" stroke="#1772d0" stroke-width="1.5"></line>
    <line x1="2.000000000000014" y1="26.999999999999986" x2="12" y2="39.5" stroke="#1772d0" stroke-width="1.5"></line>
    <line x1="12" y1="39.5" x2="12" y2="12" stroke="#1772d0" stroke-width="1.5"></line>
    <line x1="12" y1="39.5" x2="24.22222222222223" y2="54.77777777777777" stroke="#1772d0" stroke-width="1.5"></line>
    <line x1="24.22222222222223" y1="54.77777777777777" x2="24.22222222222223" y2="24.22222222222223" stroke="#1772d0" stroke-width="1.5"></line>
    <line x1="2.000000000000014" y1="2.000000000000014" x2="12" y2="12" stroke="#1772d0" stroke-width="1.5"></line>
    <line x1="12" y1="12" x2="24.22222222222223" y2="24.22222222222223" stroke="#1772d0" stroke-width="1.5"></line>
</svg>    