<?xml version="1.0" encoding="UTF-8"?>
<svg xmlns="http://www.w3.org/2000/svg" xmlns:xlink="http://www.w3.org/1999/xlink" width="1008pt" height="432pt" viewBox="0 0 1008 432" version="1.1">
<g id="surface199">
<rect x="0" y="0" width="1008" height="432" style="fill:rgb(0%,0%,0%);fill-opacity:1;stroke:none;"/>
<path style="fill:none;stroke-width:1.5;stroke-linecap:round;stroke-linejoin:round;stroke:rgb(100%,49.019608%,16.078431%);stroke-opacity:1;stroke-miterlimit:10;" d="M 10.554688 0 L 10.675781 10.738281 L 20.847656 117.71875 L 31.019531 167.011719 L 41.191406 196.742188 L 51.363281 217.097656 L 61.535156 232.117188 L 71.707031 243.757812 L 81.878906 253.101562 L 92.050781 260.800781 L 102.222656 267.273438 L 112.390625 272.804688 L 122.5625 277.589844 L 132.734375 281.777344 L 142.90625 285.472656 L 153.078125 288.761719 L 163.25 291.707031 L 173.421875 294.355469 L 183.59375 296.753906 L 193.765625 298.929688 L 203.9375 300.914062 L 214.109375 302.726562 L 224.28125 304.390625 L 234.453125 305.917969 L 244.625 307.324219 L 254.796875 308.621094 L 264.964844 309.816406 L 275.136719 310.921875 L 285.308594 311.941406 L 295.480469 312.886719 L 305.652344 313.757812 L 315.824219 314.5625 L 325.996094 315.304688 L 336.167969 315.992188 L 346.339844 316.621094 L 356.511719 317.199219 L 366.683594 317.730469 L 376.855469 318.210938 L 387.027344 318.652344 L 397.199219 319.046875 L 407.371094 319.402344 L 417.542969 319.71875 L 427.710938 319.996094 L 437.882812 320.238281 L 448.054688 320.441406 L 458.226562 320.613281 L 468.398438 320.746094 L 478.570312 320.847656 L 488.742188 320.914062 L 498.914062 320.949219 L 509.085938 320.949219 L 519.257812 320.914062 L 529.429688 320.847656 L 539.601562 320.746094 L 549.773438 320.613281 L 559.945312 320.441406 L 570.117188 320.238281 L 580.289062 319.996094 L 590.457031 319.71875 L 600.628906 319.402344 L 610.800781 319.046875 L 620.972656 318.652344 L 631.144531 318.210938 L 641.316406 317.730469 L 651.488281 317.199219 L 661.660156 316.621094 L 671.832031 315.992188 L 682.003906 315.304688 L 692.175781 314.5625 L 702.347656 313.757812 L 712.519531 312.886719 L 722.691406 311.941406 L 732.863281 310.921875 L 743.035156 309.816406 L 753.203125 308.621094 L 763.375 307.324219 L 773.546875 305.917969 L 783.71875 304.390625 L 793.890625 302.726562 L 804.0625 300.914062 L 814.234375 298.929688 L 824.40625 296.753906 L 834.578125 294.355469 L 844.75 291.707031 L 854.921875 288.761719 L 865.09375 285.472656 L 875.265625 281.777344 L 885.4375 277.589844 L 895.609375 272.804688 L 905.777344 267.273438 L 915.949219 260.800781 L 926.121094 253.101562 L 936.292969 243.757812 L 946.464844 232.117188 L 956.636719 217.097656 L 966.808594 196.742188 L 976.980469 167.011719 L 987.152344 117.71875 L 997.324219 10.738281 L 997.445312 0 "/>
<path style="fill:none;stroke-width:1.5;stroke-linecap:round;stroke-linejoin:round;stroke:rgb(14.117647%,62.352941%,23.529412%);stroke-opacity:1;stroke-miterlimit:10;" d="M 0.503906 403.097656 L 31.019531 403.097656 L 41.191406 403.09375 L 51.363281 403.09375 L 71.707031 403.078125 L 81.878906 403.066406 L 92.050781 403.050781 L 102.222656 403.027344 L 112.390625 402.996094 L 122.5625 402.953125 L 132.734375 402.902344 L 142.90625 402.832031 L 153.078125 402.75 L 163.25 402.648438 L 173.421875 402.527344 L 183.59375 402.382812 L 193.765625 402.210938 L 203.9375 402.007812 L 214.109375 401.777344 L 224.28125 401.507812 L 234.453125 401.199219 L 244.625 400.847656 L 254.796875 400.453125 L 264.964844 400.003906 L 275.136719 399.503906 L 285.308594 398.941406 L 295.480469 398.320312 L 305.652344 397.628906 L 315.824219 396.863281 L 325.996094 396.023438 L 336.167969 395.101562 L 346.339844 394.089844 L 356.511719 392.984375 L 366.683594 391.78125 L 376.855469 390.476562 L 387.027344 389.058594 L 397.199219 387.527344 L 407.371094 385.871094 L 417.542969 384.085938 L 427.710938 382.167969 L 437.882812 380.109375 L 448.054688 377.898438 L 458.226562 375.535156 L 468.398438 373.007812 L 478.570312 370.308594 L 488.742188 367.433594 L 498.914062 364.375 L 509.085938 361.125 L 519.257812 357.671875 L 529.429688 354.007812 L 539.601562 350.128906 L 549.773438 346.027344 L 559.945312 341.6875 L 570.117188 337.105469 L 580.289062 332.273438 L 590.457031 327.179688 L 600.628906 321.816406 L 610.800781 316.175781 L 620.972656 310.246094 L 631.144531 304.015625 L 641.316406 297.476562 L 651.488281 290.621094 L 661.660156 283.4375 L 671.832031 275.914062 L 682.003906 268.039062 L 692.175781 259.804688 L 702.347656 251.203125 L 712.519531 242.21875 L 722.691406 232.839844 L 732.863281 223.054688 L 743.035156 212.859375 L 753.203125 202.230469 L 763.375 191.167969 L 773.546875 179.652344 L 783.71875 167.671875 L 793.890625 155.21875 L 804.0625 142.277344 L 814.234375 128.835938 L 824.40625 114.882812 L 834.578125 100.402344 L 844.75 85.382812 L 854.921875 69.8125 L 865.09375 53.671875 L 875.265625 36.957031 L 885.4375 19.648438 L 895.609375 1.734375 L 896.558594 0 "/>
<path style="fill:none;stroke-width:1.5;stroke-linecap:round;stroke-linejoin:round;stroke:rgb(84.705882%,14.901961%,18.431373%);stroke-opacity:1;stroke-miterlimit:10;" d="M 0.503906 16.773438 L 10.675781 24.53125 L 20.847656 32.210938 L 31.019531 39.808594 L 41.191406 47.332031 L 51.363281 54.773438 L 61.535156 62.136719 L 71.707031 69.421875 L 81.878906 76.628906 L 92.050781 83.757812 L 102.222656 90.808594 L 112.390625 97.777344 L 122.5625 104.667969 L 132.734375 111.484375 L 142.90625 118.21875 L 153.078125 124.875 L 163.25 131.449219 L 173.421875 137.949219 L 183.59375 144.367188 L 193.765625 150.710938 L 203.9375 156.972656 L 214.109375 163.15625 L 224.28125 169.261719 L 234.453125 175.289062 L 244.625 181.234375 L 254.796875 187.105469 L 264.964844 192.894531 L 275.136719 198.605469 L 285.308594 204.242188 L 295.480469 209.792969 L 305.652344 215.269531 L 315.824219 220.667969 L 325.996094 225.984375 L 336.167969 231.226562 L 346.339844 236.386719 L 356.511719 241.46875 L 366.683594 246.472656 L 376.855469 251.398438 L 387.027344 256.246094 L 397.199219 261.011719 L 407.371094 265.699219 L 417.542969 270.3125 L 427.710938 274.84375 L 437.882812 279.296875 L 448.054688 283.671875 L 458.226562 287.964844 L 468.398438 292.183594 L 478.570312 296.320312 L 488.742188 300.378906 L 498.914062 304.363281 L 509.085938 308.265625 L 519.257812 312.085938 L 529.429688 315.832031 L 539.601562 319.5 L 549.773438 323.085938 L 559.945312 326.59375 L 570.117188 330.023438 L 580.289062 333.375 L 590.457031 336.648438 L 600.628906 339.84375 L 610.800781 342.960938 L 620.972656 345.996094 L 631.144531 348.953125 L 641.316406 351.832031 L 651.488281 354.632812 L 661.660156 357.355469 L 671.832031 360 L 682.003906 362.566406 L 692.175781 365.050781 L 702.347656 367.457031 L 712.519531 369.785156 L 722.691406 372.035156 L 732.863281 374.207031 L 743.035156 376.300781 L 753.203125 378.316406 L 763.375 380.25 L 773.546875 382.105469 L 783.71875 383.886719 L 793.890625 385.585938 L 804.0625 387.207031 L 814.234375 388.746094 L 824.40625 390.210938 L 834.578125 391.59375 L 844.75 392.902344 L 854.921875 394.128906 L 865.09375 395.277344 L 875.265625 396.347656 L 885.4375 397.339844 L 895.609375 398.25 L 905.777344 399.085938 L 915.949219 399.839844 L 926.121094 400.515625 L 936.292969 401.113281 L 946.464844 401.632812 L 956.636719 402.074219 L 966.808594 402.4375 L 976.980469 402.71875 L 987.152344 402.921875 L 997.324219 403.050781 L 1007.496094 403.097656 "/>
<path style="fill:none;stroke-width:1.5;stroke-linecap:round;stroke-linejoin:round;stroke:rgb(58.039216%,40%,72.156863%);stroke-opacity:1;stroke-miterlimit:10;" d="M 0.503906 402.324219 L 10.675781 394.613281 L 20.847656 387.058594 L 31.019531 379.664062 L 41.191406 372.425781 L 51.363281 365.347656 L 61.535156 358.421875 L 71.707031 351.65625 L 81.878906 345.046875 L 92.050781 338.597656 L 102.222656 332.300781 L 112.390625 326.164062 L 122.5625 320.1875 L 132.734375 314.363281 L 142.90625 308.699219 L 153.078125 303.191406 L 163.25 297.84375 L 173.421875 292.648438 L 183.59375 287.613281 L 193.765625 282.738281 L 203.9375 278.015625 L 214.109375 273.453125 L 224.28125 269.046875 L 234.453125 264.796875 L 244.625 260.707031 L 254.796875 256.773438 L 264.964844 252.996094 L 275.136719 249.378906 L 285.308594 245.917969 L 295.480469 242.613281 L 305.652344 239.464844 L 315.824219 236.476562 L 325.996094 233.644531 L 336.167969 230.96875 L 346.339844 228.449219 L 356.511719 226.089844 L 366.683594 223.886719 L 376.855469 221.839844 L 387.027344 219.953125 L 397.199219 218.222656 L 407.371094 216.648438 L 417.542969 215.234375 L 427.710938 213.972656 L 437.882812 212.871094 L 448.054688 211.929688 L 458.226562 211.140625 L 468.398438 210.511719 L 478.570312 210.039062 L 488.742188 209.726562 L 498.914062 209.566406 L 509.085938 209.566406 L 519.257812 209.726562 L 529.429688 210.039062 L 539.601562 210.511719 L 549.773438 211.140625 L 559.945312 211.929688 L 570.117188 212.871094 L 580.289062 213.972656 L 590.457031 215.234375 L 600.628906 216.648438 L 610.800781 218.222656 L 620.972656 219.953125 L 631.144531 221.839844 L 641.316406 223.886719 L 651.488281 226.089844 L 661.660156 228.449219 L 671.832031 230.96875 L 682.003906 233.644531 L 692.175781 236.476562 L 702.347656 239.464844 L 712.519531 242.613281 L 722.691406 245.917969 L 732.863281 249.378906 L 743.035156 252.996094 L 753.203125 256.773438 L 763.375 260.707031 L 773.546875 264.796875 L 783.71875 269.046875 L 793.890625 273.453125 L 804.0625 278.015625 L 814.234375 282.738281 L 824.40625 287.613281 L 834.578125 292.648438 L 844.75 297.84375 L 854.921875 303.191406 L 865.09375 308.699219 L 875.265625 314.363281 L 885.4375 320.1875 L 895.609375 326.164062 L 905.777344 332.300781 L 915.949219 338.597656 L 926.121094 345.046875 L 936.292969 351.65625 L 946.464844 358.421875 L 956.636719 365.347656 L 966.808594 372.425781 L 976.980469 379.664062 L 987.152344 387.058594 L 997.324219 394.613281 L 1007.496094 402.324219 "/>
<path style="fill:none;stroke-width:1.5;stroke-linecap:round;stroke-linejoin:round;stroke:rgb(54.901961%,33.72549%,30.196078%);stroke-opacity:1;stroke-miterlimit:10;" d="M 0.503906 399.242188 L 10.675781 362.074219 L 20.847656 327.898438 L 31.019531 296.578125 L 41.191406 267.980469 L 51.363281 241.980469 L 61.535156 218.445312 L 71.707031 197.257812 L 81.878906 178.296875 L 92.050781 161.449219 L 102.222656 146.601562 L 112.390625 133.648438 L 122.5625 122.484375 L 132.734375 113.003906 L 142.90625 105.113281 L 153.078125 98.714844 L 163.25 93.71875 L 173.421875 90.035156 L 183.59375 87.582031 L 193.765625 86.269531 L 203.9375 86.019531 L 214.109375 86.761719 L 224.28125 88.414062 L 234.453125 90.910156 L 244.625 94.179688 L 254.796875 98.160156 L 264.964844 102.785156 L 275.136719 107.992188 L 285.308594 113.730469 L 295.480469 119.9375 L 305.652344 126.566406 L 315.824219 133.5625 L 325.996094 140.878906 L 336.167969 148.472656 L 346.339844 156.296875 L 356.511719 164.3125 L 366.683594 172.480469 L 376.855469 180.761719 L 387.027344 189.125 L 397.199219 197.535156 L 407.371094 205.964844 L 417.542969 214.378906 L 427.710938 222.757812 L 437.882812 231.070312 L 448.054688 239.300781 L 458.226562 247.417969 L 468.398438 255.410156 L 478.570312 263.257812 L 488.742188 270.941406 L 498.914062 278.445312 L 509.085938 285.761719 L 519.257812 292.875 L 529.429688 299.777344 L 539.601562 306.457031 L 549.773438 312.90625 L 559.945312 319.117188 L 570.117188 325.089844 L 580.289062 330.816406 L 590.457031 336.292969 L 600.628906 341.519531 L 610.800781 346.496094 L 620.972656 351.21875 L 631.144531 355.691406 L 641.316406 359.914062 L 651.488281 363.890625 L 661.660156 367.628906 L 671.832031 371.125 L 682.003906 374.390625 L 692.175781 377.425781 L 702.347656 380.242188 L 712.519531 382.839844 L 722.691406 385.234375 L 732.863281 387.425781 L 743.035156 389.429688 L 753.203125 391.246094 L 763.375 392.890625 L 773.546875 394.367188 L 783.71875 395.6875 L 793.890625 396.859375 L 804.0625 397.894531 L 814.234375 398.800781 L 824.40625 399.589844 L 834.578125 400.269531 L 844.75 400.847656 L 854.921875 401.335938 L 865.09375 401.742188 L 875.265625 402.074219 L 885.4375 402.34375 L 895.609375 402.558594 L 905.777344 402.722656 L 915.949219 402.847656 L 926.121094 402.9375 L 936.292969 403.003906 L 946.464844 403.042969 L 956.636719 403.070312 L 966.808594 403.085938 L 976.980469 403.09375 L 987.152344 403.097656 L 1007.496094 403.097656 "/>
<path style="fill:none;stroke-width:1.5;stroke-linecap:round;stroke-linejoin:round;stroke:rgb(89.803922%,45.490196%,74.509804%);stroke-opacity:1;stroke-miterlimit:10;" d="M 0.503906 403.097656 L 61.535156 403.097656 L 71.707031 403.09375 L 81.878906 403.09375 L 92.050781 403.089844 L 102.222656 403.082031 L 112.390625 403.070312 L 122.5625 403.054688 L 132.734375 403.027344 L 142.90625 402.992188 L 153.078125 402.941406 L 163.25 402.871094 L 173.421875 402.777344 L 183.59375 402.660156 L 193.765625 402.503906 L 203.9375 402.304688 L 214.109375 402.054688 L 224.28125 401.75 L 234.453125 401.375 L 244.625 400.917969 L 254.796875 400.371094 L 264.964844 399.722656 L 275.136719 398.953125 L 285.308594 398.054688 L 295.480469 397.007812 L 305.652344 395.800781 L 315.824219 394.410156 L 325.996094 392.824219 L 336.167969 391.027344 L 346.339844 388.992188 L 356.511719 386.707031 L 366.683594 384.148438 L 376.855469 381.300781 L 387.027344 378.144531 L 397.199219 374.660156 L 407.371094 370.832031 L 417.542969 366.636719 L 427.710938 362.0625 L 437.882812 357.089844 L 448.054688 351.710938 L 458.226562 345.902344 L 468.398438 339.660156 L 478.570312 332.96875 L 488.742188 325.828125 L 498.914062 318.226562 L 509.085938 310.167969 L 519.257812 301.648438 L 529.429688 292.671875 L 539.601562 283.25 L 549.773438 273.390625 L 559.945312 263.113281 L 570.117188 252.4375 L 580.289062 241.382812 L 590.457031 229.984375 L 600.628906 218.277344 L 610.800781 206.296875 L 620.972656 194.097656 L 631.144531 181.726562 L 641.316406 169.242188 L 651.488281 156.710938 L 661.660156 144.199219 L 671.832031 131.789062 L 682.003906 119.5625 L 692.175781 107.613281 L 702.347656 96.035156 L 712.519531 84.929688 L 722.691406 74.40625 L 732.863281 64.585938 L 743.035156 55.582031 L 753.203125 47.523438 L 763.375 40.542969 L 773.546875 34.769531 L 783.71875 30.34375 L 793.890625 27.402344 L 804.0625 26.082031 L 814.234375 26.523438 L 824.40625 28.859375 L 834.578125 33.222656 L 844.75 39.730469 L 854.921875 48.496094 L 865.09375 59.617188 L 875.265625 73.167969 L 885.4375 89.207031 L 895.609375 107.753906 L 905.777344 128.792969 L 915.949219 152.261719 L 926.121094 178.03125 L 936.292969 205.898438 L 946.464844 235.546875 L 956.636719 266.535156 L 966.808594 298.222656 L 976.980469 329.6875 L 987.152344 359.550781 L 997.324219 385.550781 L 1007.496094 402.589844 "/>
<path style="fill:none;stroke-width:1.5;stroke-linecap:round;stroke-linejoin:round;stroke:rgb(49.411765%,49.411765%,49.411765%);stroke-opacity:1;stroke-miterlimit:10;" d="M 0.503906 274.066406 L 1007.496094 274.066406 "/>
<path style="fill:none;stroke-width:1.5;stroke-linecap:round;stroke-linejoin:round;stroke:rgb(73.333333%,73.72549%,23.529412%);stroke-opacity:1;stroke-miterlimit:10;" d="M 0.503906 403.097656 L 10.675781 403.097656 L 20.847656 403.09375 L 31.019531 403.085938 L 41.191406 403.0625 L 51.363281 403 L 61.535156 402.867188 L 71.707031 402.632812 L 81.878906 402.25 L 92.050781 401.660156 L 102.222656 400.808594 L 112.390625 399.632812 L 122.5625 398.058594 L 132.734375 396.023438 L 142.90625 393.457031 L 153.078125 390.296875 L 163.25 386.484375 L 173.421875 381.960938 L 183.59375 376.683594 L 193.765625 370.613281 L 203.9375 363.722656 L 214.109375 356 L 224.28125 347.433594 L 234.453125 338.035156 L 244.625 327.824219 L 254.796875 316.835938 L 264.964844 305.117188 L 275.136719 292.71875 L 285.308594 279.71875 L 295.480469 266.191406 L 305.652344 252.234375 L 315.824219 237.9375 L 325.996094 223.414062 L 336.167969 208.777344 L 346.339844 194.144531 L 356.511719 179.640625 L 366.683594 165.382812 L 376.855469 151.503906 L 387.027344 138.125 L 397.199219 125.363281 L 407.371094 113.339844 L 417.542969 102.167969 L 427.710938 91.949219 L 437.882812 82.785156 L 448.054688 74.757812 L 458.226562 67.945312 L 468.398438 62.414062 L 478.570312 58.21875 L 488.742188 55.398438 L 498.914062 53.980469 L 509.085938 53.980469 L 519.257812 55.398438 L 529.429688 58.21875 L 539.601562 62.414062 L 549.773438 67.945312 L 559.945312 74.757812 L 570.117188 82.785156 L 580.289062 91.949219 L 590.457031 102.167969 L 600.628906 113.339844 L 610.800781 125.363281 L 620.972656 138.125 L 631.144531 151.503906 L 641.316406 165.382812 L 651.488281 179.640625 L 661.660156 194.144531 L 671.832031 208.777344 L 682.003906 223.414062 L 692.175781 237.9375 L 702.347656 252.234375 L 712.519531 266.191406 L 722.691406 279.71875 L 732.863281 292.71875 L 743.035156 305.117188 L 753.203125 316.835938 L 763.375 327.824219 L 773.546875 338.035156 L 783.71875 347.433594 L 793.890625 356 L 804.0625 363.722656 L 814.234375 370.613281 L 824.40625 376.683594 L 834.578125 381.960938 L 844.75 386.484375 L 854.921875 390.296875 L 865.09375 393.457031 L 875.265625 396.023438 L 885.4375 398.058594 L 895.609375 399.632812 L 905.777344 400.808594 L 915.949219 401.660156 L 926.121094 402.25 L 936.292969 402.632812 L 946.464844 402.867188 L 956.636719 403 L 966.808594 403.0625 L 976.980469 403.085938 L 987.152344 403.09375 L 997.324219 403.097656 L 1007.496094 403.097656 "/>
</g>
</svg>
